<?xml version="1.0" encoding="UTF-8" standalone="no"?>
<!-- Created with Inkscape (http://www.inkscape.org/) -->

<svg
   width="60.190716mm"
   height="45.553513mm"
   viewBox="0 0 60.190716 45.553513"
   version="1.1"
   id="svg1"
   inkscape:version="1.4-dev (1:1.2.0-alpha1+devel+202308312119+2886f59210)"
   sodipodi:docname="ci_welch_example2.svg"
   inkscape:export-filename="ci_welch_example2.png"
   inkscape:export-xdpi="300"
   inkscape:export-ydpi="300"
   xmlns:inkscape="http://www.inkscape.org/namespaces/inkscape"
   xmlns:sodipodi="http://sodipodi.sourceforge.net/DTD/sodipodi-0.dtd"
   xmlns="http://www.w3.org/2000/svg"
   xmlns:svg="http://www.w3.org/2000/svg"
   xmlns:ns3="http://www.iki.fi/pav/software/textext/">
  <sodipodi:namedview
     id="namedview1"
     pagecolor="#ffffff"
     bordercolor="#000000"
     borderopacity="0.25"
     inkscape:showpageshadow="2"
     inkscape:pageopacity="0.0"
     inkscape:pagecheckerboard="0"
     inkscape:deskcolor="#d1d1d1"
     inkscape:document-units="mm"
     inkscape:zoom="2.1648081"
     inkscape:cx="118.94819"
     inkscape:cy="122.87463"
     inkscape:window-width="1920"
     inkscape:window-height="1007"
     inkscape:window-x="0"
     inkscape:window-y="0"
     inkscape:window-maximized="1"
     inkscape:current-layer="layer1" />
  <defs
     id="defs1">
    <marker
       style="overflow:visible"
       id="marker40"
       refX="0"
       refY="0"
       orient="auto-start-reverse"
       inkscape:stockid="Triangle arrow"
       markerWidth="1"
       markerHeight="1"
       viewBox="0 0 1 1"
       inkscape:isstock="true"
       inkscape:collect="always"
       preserveAspectRatio="xMidYMid">
      <path
         transform="scale(0.5)"
         style="fill:context-stroke;fill-rule:evenodd;stroke:context-stroke;stroke-width:1pt"
         d="M 5.77,0 -2.88,5 V -5 Z"
         id="path40" />
    </marker>
    <marker
       style="overflow:visible"
       id="Triangle"
       refX="0"
       refY="0"
       orient="auto-start-reverse"
       inkscape:stockid="Triangle arrow"
       markerWidth="1"
       markerHeight="1"
       viewBox="0 0 1 1"
       inkscape:isstock="true"
       inkscape:collect="always"
       preserveAspectRatio="xMidYMid">
      <path
         transform="scale(0.5)"
         style="fill:context-stroke;fill-rule:evenodd;stroke:context-stroke;stroke-width:1pt"
         d="M 5.77,0 -2.88,5 V -5 Z"
         id="path135" />
    </marker>
    <defs
       id="id-ef2b508e-f45e-4e20-b14e-8a5540351ce0"
       style="stroke-width:0">
      <g
         id="id-9bfc7336-94ab-4cdb-9b06-6b97d963ab9d"
         style="stroke-width:0">
        <symbol
           overflow="visible"
           id="id-9c9a2f9d-39bb-47c5-bf3c-8116a43668fc"
           style="stroke-width:0">
          <path
             style="stroke:none;stroke-width:0"
             d=""
             id="id-fe25509e-b31c-4148-b33e-efc0da89f7e4" />
        </symbol>
        <symbol
           overflow="visible"
           id="id-9dcdd297-229e-4157-825b-7e4802aa03b1"
           style="stroke-width:0">
          <path
             style="stroke:none;stroke-width:0"
             d="m 4.53125,-4.984375 c 0,-0.65625 -0.171875,-2.046875 -1.1875,-2.046875 -1.390625,0 -2.921875,2.8125 -2.921875,5.09375 0,0.9375 0.28125,2.046875 1.1875,2.046875 1.40625,0 2.921875,-2.859375 2.921875,-5.09375 z M 1.46875,-3.625 C 1.640625,-4.25 1.84375,-5.046875 2.25,-5.765625 2.515625,-6.25 2.875,-6.8125 3.328125,-6.8125 c 0.484375,0 0.546875,0.640625 0.546875,1.203125 0,0.5 -0.078125,1 -0.3125,1.984375 z m 2,0.328125 C 3.359375,-2.84375 3.15625,-2 2.765625,-1.28125 c -0.34375,0.6875 -0.71875,1.171875 -1.15625,1.171875 -0.328125,0 -0.53125,-0.296875 -0.53125,-1.21875 0,-0.421875 0.0625,-1 0.3125,-1.96875 z m 0,0"
             id="id-c0d0a668-9e83-493f-ac4e-c83a149102e7" />
        </symbol>
        <symbol
           overflow="visible"
           id="id-3ec8fef7-3e4e-41eb-bde5-4c0cf668f0f0"
           style="stroke-width:0">
          <path
             style="stroke:none;stroke-width:0"
             d=""
             id="id-1f4c7daa-ed0b-4999-b6d2-5019cbde1118" />
        </symbol>
        <symbol
           overflow="visible"
           id="id-f46b9bb0-89e9-49a2-94a5-f37e7c57ca10"
           style="stroke-width:0">
          <path
             style="stroke:none;stroke-width:0"
             d="m 6.5625,-2.296875 c 0.171875,0 0.359375,0 0.359375,-0.203125 0,-0.1875 -0.1875,-0.1875 -0.359375,-0.1875 H 1.171875 c -0.171875,0 -0.34375,0 -0.34375,0.1875 0,0.203125 0.171875,0.203125 0.34375,0.203125 z m 0,0"
             id="id-f25cef88-5bbd-44ca-a5f3-040b2f993cb9" />
        </symbol>
        <symbol
           overflow="visible"
           id="id-00e2dae3-7e2b-4ab5-9871-03ee0493923e"
           style="stroke-width:0">
          <path
             style="stroke:none;stroke-width:0"
             d=""
             id="id-f77c66c6-5c67-486c-b4ab-bfa052c09e92" />
        </symbol>
        <symbol
           overflow="visible"
           id="id-fbc55e14-bd9a-4fcb-bfad-c0597db5701a"
           style="stroke-width:0">
          <path
             style="stroke:none;stroke-width:0"
             d="m 2.328125,-4.4375 c 0,-0.1875 0,-0.1875 -0.203125,-0.1875 -0.453125,0.4375 -1.078125,0.4375 -1.359375,0.4375 v 0.25 c 0.15625,0 0.625,0 1,-0.1875 v 3.546875 c 0,0.234375 0,0.328125 -0.6875,0.328125 H 0.8125 V 0 c 0.125,0 0.984375,-0.03125 1.234375,-0.03125 0.21875,0 1.09375,0.03125 1.25,0.03125 V -0.25 H 3.03125 c -0.703125,0 -0.703125,-0.09375 -0.703125,-0.328125 z m 0,0"
             id="id-653c6278-21cd-4dfa-80bb-80d1deeef120" />
        </symbol>
        <symbol
           overflow="visible"
           id="id-494e3392-1da6-4602-88fa-a33b9a226f35"
           style="stroke-width:0">
          <path
             style="stroke:none;stroke-width:0"
             d="M 3.515625,-1.265625 H 3.28125 c -0.015625,0.15625 -0.09375,0.5625 -0.1875,0.625 C 3.046875,-0.59375 2.515625,-0.59375 2.40625,-0.59375 H 1.125 c 0.734375,-0.640625 0.984375,-0.84375 1.390625,-1.171875 0.515625,-0.40625 1,-0.84375 1,-1.5 0,-0.84375 -0.734375,-1.359375 -1.625,-1.359375 -0.859375,0 -1.453125,0.609375 -1.453125,1.25 0,0.34375 0.296875,0.390625 0.375,0.390625 0.15625,0 0.359375,-0.125 0.359375,-0.375 0,-0.125 -0.046875,-0.375 -0.40625,-0.375 C 0.984375,-4.21875 1.453125,-4.375 1.78125,-4.375 c 0.703125,0 1.0625,0.546875 1.0625,1.109375 0,0.609375 -0.4375,1.078125 -0.65625,1.328125 L 0.515625,-0.265625 C 0.4375,-0.203125 0.4375,-0.1875 0.4375,0 h 2.875 z m 0,0"
             id="id-3ec70132-e2f5-4c2a-9041-05722ed7e518" />
        </symbol>
      </g>
    </defs>
    <defs
       id="id-fa058926-83b8-49c0-9a16-4ff9c7a1498c"
       style="stroke-width:0">
      <g
         id="id-f6fff0b0-2118-4a2c-85a2-6cc6bf1bcde3"
         style="stroke-width:0">
        <symbol
           overflow="visible"
           id="id-449221cb-fab3-4ddb-9e63-fb617ec5deb7"
           style="stroke-width:0">
          <path
             style="stroke:none;stroke-width:0"
             d=""
             id="id-6c75544e-885f-4ab8-aba3-48f5f7cd42b1" />
        </symbol>
        <symbol
           overflow="visible"
           id="id-c235bb58-ec9e-4e95-92ff-073ad8aaf932"
           style="stroke-width:0">
          <path
             style="stroke:none;stroke-width:0"
             d="m 4.53125,-4.984375 c 0,-0.65625 -0.171875,-2.046875 -1.1875,-2.046875 -1.390625,0 -2.921875,2.8125 -2.921875,5.09375 0,0.9375 0.28125,2.046875 1.1875,2.046875 1.40625,0 2.921875,-2.859375 2.921875,-5.09375 z M 1.46875,-3.625 C 1.640625,-4.25 1.84375,-5.046875 2.25,-5.765625 2.515625,-6.25 2.875,-6.8125 3.328125,-6.8125 c 0.484375,0 0.546875,0.640625 0.546875,1.203125 0,0.5 -0.078125,1 -0.3125,1.984375 z m 2,0.328125 C 3.359375,-2.84375 3.15625,-2 2.765625,-1.28125 c -0.34375,0.6875 -0.71875,1.171875 -1.15625,1.171875 -0.328125,0 -0.53125,-0.296875 -0.53125,-1.21875 0,-0.421875 0.0625,-1 0.3125,-1.96875 z m 0,0"
             id="id-cf1bfedb-b02b-4021-9256-1777ad65cedc" />
        </symbol>
        <symbol
           overflow="visible"
           id="id-3a4b99bf-1dfe-42d5-8cd9-7c4d38ad2f93"
           style="stroke-width:0">
          <path
             style="stroke:none;stroke-width:0"
             d=""
             id="id-c6bb4233-b9f3-4e77-8191-5145b66cbe8b" />
        </symbol>
        <symbol
           overflow="visible"
           id="id-7894d5a8-0f1e-43b3-9e21-8e0f623ad9ac"
           style="stroke-width:0">
          <path
             style="stroke:none;stroke-width:0"
             d="m 4.078125,-2.296875 h 2.78125 C 7,-2.296875 7.1875,-2.296875 7.1875,-2.5 7.1875,-2.6875 7,-2.6875 6.859375,-2.6875 h -2.78125 v -2.796875 c 0,-0.140625 0,-0.328125 -0.203125,-0.328125 -0.203125,0 -0.203125,0.1875 -0.203125,0.328125 V -2.6875 h -2.78125 c -0.140625,0 -0.328125,0 -0.328125,0.1875 0,0.203125 0.1875,0.203125 0.328125,0.203125 h 2.78125 V 0.5 c 0,0.140625 0,0.328125 0.203125,0.328125 0.203125,0 0.203125,-0.1875 0.203125,-0.328125 z m 0,0"
             id="id-f6842fa4-1581-418e-aa42-daff15df1166" />
        </symbol>
        <symbol
           overflow="visible"
           id="id-75f61a9d-e29a-4fbf-b6db-e9601feb6e8e"
           style="stroke-width:0">
          <path
             style="stroke:none;stroke-width:0"
             d=""
             id="id-2a22561c-efa9-4514-9ff6-1d14ad9fbf0d" />
        </symbol>
        <symbol
           overflow="visible"
           id="id-e18d64ba-7f43-4fbe-914b-7d76813aad42"
           style="stroke-width:0">
          <path
             style="stroke:none;stroke-width:0"
             d="m 2.328125,-4.4375 c 0,-0.1875 0,-0.1875 -0.203125,-0.1875 -0.453125,0.4375 -1.078125,0.4375 -1.359375,0.4375 v 0.25 c 0.15625,0 0.625,0 1,-0.1875 v 3.546875 c 0,0.234375 0,0.328125 -0.6875,0.328125 H 0.8125 V 0 c 0.125,0 0.984375,-0.03125 1.234375,-0.03125 0.21875,0 1.09375,0.03125 1.25,0.03125 V -0.25 H 3.03125 c -0.703125,0 -0.703125,-0.09375 -0.703125,-0.328125 z m 0,0"
             id="id-c7a15f1e-574e-47a4-9572-fbbd46042d39" />
        </symbol>
        <symbol
           overflow="visible"
           id="id-2cf78725-1b0f-4138-b606-1233b6aac273"
           style="stroke-width:0">
          <path
             style="stroke:none;stroke-width:0"
             d="M 3.515625,-1.265625 H 3.28125 c -0.015625,0.15625 -0.09375,0.5625 -0.1875,0.625 C 3.046875,-0.59375 2.515625,-0.59375 2.40625,-0.59375 H 1.125 c 0.734375,-0.640625 0.984375,-0.84375 1.390625,-1.171875 0.515625,-0.40625 1,-0.84375 1,-1.5 0,-0.84375 -0.734375,-1.359375 -1.625,-1.359375 -0.859375,0 -1.453125,0.609375 -1.453125,1.25 0,0.34375 0.296875,0.390625 0.375,0.390625 0.15625,0 0.359375,-0.125 0.359375,-0.375 0,-0.125 -0.046875,-0.375 -0.40625,-0.375 C 0.984375,-4.21875 1.453125,-4.375 1.78125,-4.375 c 0.703125,0 1.0625,0.546875 1.0625,1.109375 0,0.609375 -0.4375,1.078125 -0.65625,1.328125 L 0.515625,-0.265625 C 0.4375,-0.203125 0.4375,-0.1875 0.4375,0 h 2.875 z m 0,0"
             id="id-58ea839b-d887-40a7-8364-61d4d7ecbac3" />
        </symbol>
      </g>
    </defs>
  </defs>
  <g
     inkscape:label="Layer 1"
     inkscape:groupmode="layer"
     id="layer1"
     transform="translate(-22.0663, -89.5404)">
    <path
       style="fill:none;stroke:#000000;stroke-width:0.6;stroke-dasharray:none;marker-start:url(#Triangle)"
       d="M 25.845606,91.671042 V 129.65999"
       id="path1" />
    <path
       style="fill:none;stroke:#000000;stroke-width:0.35;stroke-dasharray:none;stroke-dashoffset:0"
       d="m 56.986908,107.14333 v 22.51666"
       id="path5" />
    <path
       style="fill:none;stroke:#000000;stroke-width:0.6;stroke-dasharray:none;marker-start:url(#marker40)"
       d="M 75.804875,129.43759 H 25.620423"
       id="path2" />
    <path
       style="fill:none;stroke:#00c30c;stroke-width:0.35;stroke-dasharray:none;stroke-dashoffset:0;stroke-opacity:1"
       d="M 69.443442,129.6185 V 114.46632"
       id="path73" />
    <path
       style="fill:none;stroke:#00c30c;stroke-width:0.35;stroke-dasharray:none;stroke-dashoffset:0;stroke-opacity:1"
       d="M 69.583249,114.41439 H 44.585868"
       id="path63" />
    <path
       style="fill:none;stroke:#00c30c;stroke-width:0.35;stroke-dasharray:none;stroke-dashoffset:0;stroke-opacity:1"
       d="M 44.565698,129.63067 V 114.47849"
       id="path72" />
    <path
       style="fill:none;stroke:#000000;stroke-width:0.45;stroke-dasharray:0.45, 0.899998;stroke-dashoffset:0"
       d="m 44.551491,107.14333 v 22.51666"
       id="path3" />
    <path
       style="fill:none;stroke:#000000;stroke-width:0.45;stroke-dasharray:0.45, 0.899998;stroke-dashoffset:0"
       d="m 69.422325,107.14333 v 22.51666"
       id="path4" />
    <g
       transform="matrix(0.50961765,0,0,0.50961765,55.882059,131.06567)"
       ns3:version="1.9.0"
       ns3:texconverter="pdflatex"
       ns3:pdfconverter="inkscape"
       ns3:text="$\\theta$"
       ns3:preamble="/home/matteo/.config/inkscape/extensions/textext/default_packages.tex"
       ns3:scale="1.0528346483013165"
       ns3:alignment="middle center"
       ns3:stroke-to-path="0"
       ns3:jacobian_sqrt="0.371417"
       id="g6"
       style="stroke-width:0.728815">
      <defs
         id="id-2bf646ae-77ec-4edc-8463-2c6365eb370a">
        <g
           id="id-1aafc537-44d7-485e-91f0-853b927dfcf3">
          <symbol
             overflow="visible"
             id="id-f123a7fe-5202-4136-9bd7-74e2cc5c3200">
            <path
               style="stroke:none;stroke-width:0"
               d=""
               id="id-618e1662-21aa-440a-863d-97006e035ec3" />
          </symbol>
          <symbol
             overflow="visible"
             id="id-5225ec3d-dbf5-4d87-add3-a515688beac0">
            <path
               style="stroke:none;stroke-width:0"
               d="m 4.53125,-4.984375 c 0,-0.65625 -0.171875,-2.046875 -1.1875,-2.046875 -1.390625,0 -2.921875,2.8125 -2.921875,5.09375 0,0.9375 0.28125,2.046875 1.1875,2.046875 1.40625,0 2.921875,-2.859375 2.921875,-5.09375 z M 1.46875,-3.625 C 1.640625,-4.25 1.84375,-5.046875 2.25,-5.765625 2.515625,-6.25 2.875,-6.8125 3.328125,-6.8125 c 0.484375,0 0.546875,0.640625 0.546875,1.203125 0,0.5 -0.078125,1 -0.3125,1.984375 z m 2,0.328125 C 3.359375,-2.84375 3.15625,-2 2.765625,-1.28125 c -0.34375,0.6875 -0.71875,1.171875 -1.15625,1.171875 -0.328125,0 -0.53125,-0.296875 -0.53125,-1.21875 0,-0.421875 0.0625,-1 0.3125,-1.96875 z m 0,0"
               id="id-401fc440-55fc-4ae7-97a9-c59243931760" />
          </symbol>
        </g>
      </defs>
      <g
         id="id-baf1db50-705a-4253-98c2-e8abae814b9f"
         transform="translate(-149.134,-127.734)"
         style="stroke-width:0.728815">
        <g
           style="fill:#000000;fill-opacity:1;stroke-width:0.728815"
           id="id-6799f54f-7919-4b07-9ab8-2aaa045934e8">
          <g
             transform="translate(148.712,134.765)"
             id="g5"
             style="stroke-width:0.728815">
            <path
               style="stroke:none;stroke-width:0"
               d="m 4.53125,-4.984375 c 0,-0.65625 -0.171875,-2.046875 -1.1875,-2.046875 -1.390625,0 -2.921875,2.8125 -2.921875,5.09375 0,0.9375 0.28125,2.046875 1.1875,2.046875 1.40625,0 2.921875,-2.859375 2.921875,-5.09375 z M 1.46875,-3.625 C 1.640625,-4.25 1.84375,-5.046875 2.25,-5.765625 2.515625,-6.25 2.875,-6.8125 3.328125,-6.8125 c 0.484375,0 0.546875,0.640625 0.546875,1.203125 0,0.5 -0.078125,1 -0.3125,1.984375 z m 2,0.328125 C 3.359375,-2.84375 3.15625,-2 2.765625,-1.28125 c -0.34375,0.6875 -0.71875,1.171875 -1.15625,1.171875 -0.328125,0 -0.53125,-0.296875 -0.53125,-1.21875 0,-0.421875 0.0625,-1 0.3125,-1.96875 z m 0,0"
               id="id-0e7e22e3-7979-4074-90c8-109bd4f90d88" />
          </g>
        </g>
      </g>
    </g>
    <g
       transform="matrix(0.509618,0,0,0.509618,40.314864,134.4644)"
       style="fill:#000000;fill-opacity:1;stroke-width:0"
       id="g11">
      <path
         style="stroke:none;stroke-width:0"
         d="m 4.53125,-4.984375 c 0,-0.65625 -0.171875,-2.046875 -1.1875,-2.046875 -1.390625,0 -2.921875,2.8125 -2.921875,5.09375 0,0.9375 0.28125,2.046875 1.1875,2.046875 1.40625,0 2.921875,-2.859375 2.921875,-5.09375 z M 1.46875,-3.625 C 1.640625,-4.25 1.84375,-5.046875 2.25,-5.765625 2.515625,-6.25 2.875,-6.8125 3.328125,-6.8125 c 0.484375,0 0.546875,0.640625 0.546875,1.203125 0,0.5 -0.078125,1 -0.3125,1.984375 z m 2,0.328125 C 3.359375,-2.84375 3.15625,-2 2.765625,-1.28125 c -0.34375,0.6875 -0.71875,1.171875 -1.15625,1.171875 -0.328125,0 -0.53125,-0.296875 -0.53125,-1.21875 0,-0.421875 0.0625,-1 0.3125,-1.96875 z m 0,0"
         id="id-3c4e0bd0-0bd1-485a-a7c2-1c1f0fe0614e" />
    </g>
    <g
       transform="matrix(0.40011999,0,0,0.509618,42.977874,134.11324)"
       style="fill:#000000;fill-opacity:1;stroke-width:0"
       id="g12">
      <path
         style="stroke:none;stroke-width:0"
         d="m 6.5625,-2.296875 c 0.171875,0 0.359375,0 0.359375,-0.203125 0,-0.1875 -0.1875,-0.1875 -0.359375,-0.1875 H 1.171875 c -0.171875,0 -0.34375,0 -0.34375,0.1875 0,0.203125 0.171875,0.203125 0.34375,0.203125 z m 0,0"
         id="id-fc178fc4-3fff-43d6-b1e4-17fb2d1b565f" />
    </g>
    <g
       transform="matrix(0.38991438,0,0,0.38991438,46.364144,132.22492)"
       style="fill:#000000;fill-opacity:1;stroke-width:0"
       id="g13">
      <path
         style="stroke:none;stroke-width:0"
         d="m 2.328125,-4.4375 c 0,-0.1875 0,-0.1875 -0.203125,-0.1875 -0.453125,0.4375 -1.078125,0.4375 -1.359375,0.4375 v 0.25 c 0.15625,0 0.625,0 1,-0.1875 v 3.546875 c 0,0.234375 0,0.328125 -0.6875,0.328125 H 0.8125 V 0 c 0.125,0 0.984375,-0.03125 1.234375,-0.03125 0.21875,0 1.09375,0.03125 1.25,0.03125 V -0.25 H 3.03125 c -0.703125,0 -0.703125,-0.09375 -0.703125,-0.328125 z m 0,0"
         id="id-c596adcc-8add-4f05-81c1-cac0aaabd9cf" />
    </g>
    <path
       style="fill:none;stroke:#000000;stroke-width:0.202828;stroke-linecap:butt;stroke-linejoin:miter;stroke-miterlimit:10;stroke-opacity:1"
       d="m 46.364558,132.78306 h 1.547473"
       id="id-9c82b216-eca4-4df2-a743-b300dd808f19" />
    <g
       transform="matrix(0.38991438,0,0,0.38991438,46.364144,135.09391)"
       style="fill:#000000;fill-opacity:1;stroke-width:0"
       id="g14">
      <path
         style="stroke:none;stroke-width:0"
         d="M 3.515625,-1.265625 H 3.28125 c -0.015625,0.15625 -0.09375,0.5625 -0.1875,0.625 C 3.046875,-0.59375 2.515625,-0.59375 2.40625,-0.59375 H 1.125 c 0.734375,-0.640625 0.984375,-0.84375 1.390625,-1.171875 0.515625,-0.40625 1,-0.84375 1,-1.5 0,-0.84375 -0.734375,-1.359375 -1.625,-1.359375 -0.859375,0 -1.453125,0.609375 -1.453125,1.25 0,0.34375 0.296875,0.390625 0.375,0.390625 0.15625,0 0.359375,-0.125 0.359375,-0.375 0,-0.125 -0.046875,-0.375 -0.40625,-0.375 C 0.984375,-4.21875 1.453125,-4.375 1.78125,-4.375 c 0.703125,0 1.0625,0.546875 1.0625,1.109375 0,0.609375 -0.4375,1.078125 -0.65625,1.328125 L 0.515625,-0.265625 C 0.4375,-0.203125 0.4375,-0.1875 0.4375,0 h 2.875 z m 0,0"
         id="id-387f24e9-1f7b-4840-916f-006decfadbed" />
    </g>
    <g
       style="fill:#000000;fill-opacity:1;stroke-width:0"
       id="id-f32c9f12-1ff8-4166-bddf-319aebfeda44"
       transform="matrix(0.33322831,0,0,0.33322831,16.347189,88.692028)">
      <g
         transform="translate(155.88,134.765)"
         style="stroke-width:0"
         id="g32">
        <path
           style="stroke:none;stroke-width:0"
           d="m 4.078125,-2.296875 h 2.78125 C 7,-2.296875 7.1875,-2.296875 7.1875,-2.5 7.1875,-2.6875 7,-2.6875 6.859375,-2.6875 h -2.78125 v -2.796875 c 0,-0.140625 0,-0.328125 -0.203125,-0.328125 -0.203125,0 -0.203125,0.1875 -0.203125,0.328125 V -2.6875 h -2.78125 c -0.140625,0 -0.328125,0 -0.328125,0.1875 0,0.203125 0.1875,0.203125 0.328125,0.203125 h 2.78125 V 0.5 c 0,0.140625 0,0.328125 0.203125,0.328125 0.203125,0 0.203125,-0.1875 0.203125,-0.328125 z m 0,0"
           id="id-d0e70d89-f34c-4927-aa97-4946184fea47" />
      </g>
    </g>
    <g
       transform="matrix(0.509618,0,0,0.509618,65.486085,134.58162)"
       style="fill:#000000;fill-opacity:1;stroke-width:0"
       id="g35">
      <path
         style="stroke:none;stroke-width:0"
         d="m 4.53125,-4.984375 c 0,-0.65625 -0.171875,-2.046875 -1.1875,-2.046875 -1.390625,0 -2.921875,2.8125 -2.921875,5.09375 0,0.9375 0.28125,2.046875 1.1875,2.046875 1.40625,0 2.921875,-2.859375 2.921875,-5.09375 z M 1.46875,-3.625 C 1.640625,-4.25 1.84375,-5.046875 2.25,-5.765625 2.515625,-6.25 2.875,-6.8125 3.328125,-6.8125 c 0.484375,0 0.546875,0.640625 0.546875,1.203125 0,0.5 -0.078125,1 -0.3125,1.984375 z m 2,0.328125 C 3.359375,-2.84375 3.15625,-2 2.765625,-1.28125 c -0.34375,0.6875 -0.71875,1.171875 -1.15625,1.171875 -0.328125,0 -0.53125,-0.296875 -0.53125,-1.21875 0,-0.421875 0.0625,-1 0.3125,-1.96875 z m 0,0"
         id="path35" />
    </g>
    <g
       transform="matrix(0.38991438,0,0,0.38991438,71.336274,132.16837)"
       style="fill:#000000;fill-opacity:1;stroke-width:0"
       id="g36">
      <path
         style="stroke:none;stroke-width:0"
         d="m 2.328125,-4.4375 c 0,-0.1875 0,-0.1875 -0.203125,-0.1875 -0.453125,0.4375 -1.078125,0.4375 -1.359375,0.4375 v 0.25 c 0.15625,0 0.625,0 1,-0.1875 v 3.546875 c 0,0.234375 0,0.328125 -0.6875,0.328125 H 0.8125 V 0 c 0.125,0 0.984375,-0.03125 1.234375,-0.03125 0.21875,0 1.09375,0.03125 1.25,0.03125 V -0.25 H 3.03125 c -0.703125,0 -0.703125,-0.09375 -0.703125,-0.328125 z m 0,0"
         id="path36" />
    </g>
    <path
       style="fill:none;stroke:#000000;stroke-width:0.202828;stroke-linecap:butt;stroke-linejoin:miter;stroke-miterlimit:10;stroke-opacity:1"
       d="m 71.336688,132.72651 h 1.547473"
       id="path37" />
    <g
       transform="matrix(0.38991438,0,0,0.38991438,71.336274,135.03736)"
       style="fill:#000000;fill-opacity:1;stroke-width:0"
       id="g38">
      <path
         style="stroke:none;stroke-width:0"
         d="M 3.515625,-1.265625 H 3.28125 c -0.015625,0.15625 -0.09375,0.5625 -0.1875,0.625 C 3.046875,-0.59375 2.515625,-0.59375 2.40625,-0.59375 H 1.125 c 0.734375,-0.640625 0.984375,-0.84375 1.390625,-1.171875 0.515625,-0.40625 1,-0.84375 1,-1.5 0,-0.84375 -0.734375,-1.359375 -1.625,-1.359375 -0.859375,0 -1.453125,0.609375 -1.453125,1.25 0,0.34375 0.296875,0.390625 0.375,0.390625 0.15625,0 0.359375,-0.125 0.359375,-0.375 0,-0.125 -0.046875,-0.375 -0.40625,-0.375 C 0.984375,-4.21875 1.453125,-4.375 1.78125,-4.375 c 0.703125,0 1.0625,0.546875 1.0625,1.109375 0,0.609375 -0.4375,1.078125 -0.65625,1.328125 L 0.515625,-0.265625 C 0.4375,-0.203125 0.4375,-0.1875 0.4375,0 h 2.875 z m 0,0"
         id="path38" />
    </g>
    <g
       transform="matrix(0.710827,0,0,0.710827,28.934097,90.222735)"
       ns3:version="1.9.0"
       ns3:texconverter="pdflatex"
       ns3:pdfconverter="inkscape"
       ns3:text="$y$"
       ns3:preamble="/home/matteo/.config/inkscape/extensions/textext/default_packages.tex"
       ns3:scale="2.0149382144367456"
       ns3:alignment="middle center"
       ns3:stroke-to-path="0"
       ns3:jacobian_sqrt="0.710827"
       style="stroke-width:0"
       id="g47">
      <defs
         id="id-839a9bed-e4ae-4d45-a75a-4160d608f68e"
         style="stroke-width:0">
        <g
           id="id-693a91fe-f967-45a1-90b3-effb4eeeb0e8"
           style="stroke-width:0">
          <symbol
             overflow="visible"
             id="id-c7923f12-b03e-41f1-ace6-16e7b13e4f40"
             style="stroke-width:0">
            <path
               style="stroke:none;stroke-width:0"
               d=""
               id="id-6642b1af-288e-4be7-9112-5e667afa53f5" />
          </symbol>
          <symbol
             overflow="visible"
             id="id-7d2644a7-b966-4b17-99a9-5501c530b063"
             style="stroke-width:0">
            <path
               style="stroke:none;stroke-width:0"
               d="m 4.84375,-3.796875 c 0.046875,-0.140625 0.046875,-0.15625 0.046875,-0.234375 0,-0.171875 -0.140625,-0.265625 -0.296875,-0.265625 -0.09375,0 -0.25,0.0625 -0.34375,0.203125 -0.015625,0.0625 -0.109375,0.359375 -0.140625,0.546875 -0.078125,0.25 -0.140625,0.53125 -0.203125,0.796875 l -0.453125,1.796875 c -0.03125,0.140625 -0.46875,0.84375 -1.125,0.84375 -0.5,0 -0.609375,-0.4375 -0.609375,-0.8125 C 1.71875,-1.375 1.890625,-2 2.21875,-2.875 2.375,-3.28125 2.421875,-3.390625 2.421875,-3.59375 c 0,-0.4375 -0.3125,-0.8125 -0.8125,-0.8125 -0.953125,0 -1.3125,1.453125 -1.3125,1.53125 0,0.109375 0.09375,0.109375 0.109375,0.109375 0.109375,0 0.109375,-0.03125 0.15625,-0.1875 0.28125,-0.9375 0.671875,-1.234375 1.015625,-1.234375 0.078125,0 0.25,0 0.25,0.3125 0,0.25 -0.109375,0.515625 -0.171875,0.703125 -0.40625,1.0625 -0.578125,1.625 -0.578125,2.09375 0,0.890625 0.625,1.1875 1.21875,1.1875 0.390625,0 0.71875,-0.171875 1,-0.453125 -0.125,0.515625 -0.25,1.015625 -0.640625,1.546875 -0.265625,0.328125 -0.640625,0.625 -1.09375,0.625 -0.140625,0 -0.59375,-0.03125 -0.765625,-0.421875 0.15625,0 0.296875,0 0.421875,-0.125 C 1.328125,1.203125 1.421875,1.0625 1.421875,0.875 1.421875,0.5625 1.15625,0.53125 1.0625,0.53125 0.828125,0.53125 0.5,0.6875 0.5,1.171875 c 0,0.5 0.4375,0.875 1.0625,0.875 1.015625,0 2.046875,-0.90625 2.328125,-2.03125 z m 0,0"
               id="id-eb8f8619-c212-4a24-8c00-8196f73764e4" />
          </symbol>
        </g>
      </defs>
      <g
         id="id-927ebf0e-a6ec-4635-9a91-3ca17c321e1e"
         transform="translate(-149.009,-130.359)"
         style="stroke-width:0">
        <g
           style="fill:#000000;fill-opacity:1;stroke-width:0"
           id="id-b9af7767-27fa-404a-a14e-1f71638ebd67">
          <g
             transform="translate(148.712,134.765)"
             style="stroke-width:0"
             id="g46">
            <path
               style="stroke:none;stroke-width:0"
               d="m 4.84375,-3.796875 c 0.046875,-0.140625 0.046875,-0.15625 0.046875,-0.234375 0,-0.171875 -0.140625,-0.265625 -0.296875,-0.265625 -0.09375,0 -0.25,0.0625 -0.34375,0.203125 -0.015625,0.0625 -0.109375,0.359375 -0.140625,0.546875 -0.078125,0.25 -0.140625,0.53125 -0.203125,0.796875 l -0.453125,1.796875 c -0.03125,0.140625 -0.46875,0.84375 -1.125,0.84375 -0.5,0 -0.609375,-0.4375 -0.609375,-0.8125 C 1.71875,-1.375 1.890625,-2 2.21875,-2.875 2.375,-3.28125 2.421875,-3.390625 2.421875,-3.59375 c 0,-0.4375 -0.3125,-0.8125 -0.8125,-0.8125 -0.953125,0 -1.3125,1.453125 -1.3125,1.53125 0,0.109375 0.09375,0.109375 0.109375,0.109375 0.109375,0 0.109375,-0.03125 0.15625,-0.1875 0.28125,-0.9375 0.671875,-1.234375 1.015625,-1.234375 0.078125,0 0.25,0 0.25,0.3125 0,0.25 -0.109375,0.515625 -0.171875,0.703125 -0.40625,1.0625 -0.578125,1.625 -0.578125,2.09375 0,0.890625 0.625,1.1875 1.21875,1.1875 0.390625,0 0.71875,-0.171875 1,-0.453125 -0.125,0.515625 -0.25,1.015625 -0.640625,1.546875 -0.265625,0.328125 -0.640625,0.625 -1.09375,0.625 -0.140625,0 -0.59375,-0.03125 -0.765625,-0.421875 0.15625,0 0.296875,0 0.421875,-0.125 C 1.328125,1.203125 1.421875,1.0625 1.421875,0.875 1.421875,0.5625 1.15625,0.53125 1.0625,0.53125 0.828125,0.53125 0.5,0.6875 0.5,1.171875 c 0,0.5 0.4375,0.875 1.0625,0.875 1.015625,0 2.046875,-0.90625 2.328125,-2.03125 z m 0,0"
               id="id-de6f97d3-220a-45b4-bb50-dc1e8e0269d2" />
          </g>
        </g>
      </g>
    </g>
    <g
       transform="matrix(0.710827,0,0,0.710827,78.736242,128.02868)"
       ns3:version="1.9.0"
       ns3:texconverter="pdflatex"
       ns3:pdfconverter="inkscape"
       ns3:text="$x$"
       ns3:preamble="/home/matteo/.config/inkscape/extensions/textext/default_packages.tex"
       ns3:scale="2.0149382144367456"
       ns3:alignment="middle center"
       ns3:stroke-to-path="0"
       ns3:jacobian_sqrt="0.710827"
       style="stroke-width:0"
       id="g41">
      <defs
         id="id-20d830c3-f36a-4b0a-ab7b-a8f1bf0f4c29"
         style="stroke-width:0">
        <g
           id="id-253c945e-0113-4828-92a3-aedae1ba17c0"
           style="stroke-width:0">
          <symbol
             overflow="visible"
             id="id-a9b2e435-6219-4fa4-9184-82dc1751bb7b"
             style="stroke-width:0">
            <path
               style="stroke:none;stroke-width:0"
               d=""
               id="id-530ea3bc-5583-485b-b0b5-be7ca77bef51" />
          </symbol>
          <symbol
             overflow="visible"
             id="id-102d93ab-e417-4f92-994b-893b606cc597"
             style="stroke-width:0">
            <path
               style="stroke:none;stroke-width:0"
               d="M 3.328125,-3.015625 C 3.390625,-3.265625 3.625,-4.1875 4.3125,-4.1875 c 0.046875,0 0.296875,0 0.5,0.125 C 4.53125,-4 4.34375,-3.765625 4.34375,-3.515625 c 0,0.15625 0.109375,0.34375 0.375,0.34375 0.21875,0 0.53125,-0.171875 0.53125,-0.578125 0,-0.515625 -0.578125,-0.65625 -0.921875,-0.65625 -0.578125,0 -0.921875,0.53125 -1.046875,0.75 -0.25,-0.65625 -0.78125,-0.75 -1.078125,-0.75 -1.03125,0 -1.609375,1.28125 -1.609375,1.53125 0,0.109375 0.109375,0.109375 0.125,0.109375 0.078125,0 0.109375,-0.03125 0.125,-0.109375 0.34375,-1.0625 1,-1.3125 1.34375,-1.3125 0.1875,0 0.53125,0.09375 0.53125,0.671875 0,0.3125 -0.171875,0.96875 -0.53125,2.375 -0.15625,0.609375 -0.515625,1.03125 -0.953125,1.03125 -0.0625,0 -0.28125,0 -0.5,-0.125 0.25,-0.0625 0.46875,-0.265625 0.46875,-0.546875 0,-0.265625 -0.21875,-0.34375 -0.359375,-0.34375 -0.3125,0 -0.546875,0.25 -0.546875,0.578125 0,0.453125 0.484375,0.65625 0.921875,0.65625 0.671875,0 1.03125,-0.703125 1.046875,-0.75 0.125,0.359375 0.484375,0.75 1.078125,0.75 1.03125,0 1.59375,-1.28125 1.59375,-1.53125 0,-0.109375 -0.078125,-0.109375 -0.109375,-0.109375 -0.09375,0 -0.109375,0.046875 -0.140625,0.109375 -0.328125,1.078125 -1,1.3125 -1.3125,1.3125 -0.390625,0 -0.546875,-0.3125 -0.546875,-0.65625 0,-0.21875 0.046875,-0.4375 0.15625,-0.875 z m 0,0"
               id="id-81edf624-0e6d-4c3c-926f-159796a0b0ef" />
          </symbol>
        </g>
      </defs>
      <g
         id="id-18dff986-6f04-4c3b-ba3b-a75ff5c7d24f"
         transform="translate(-149.009,-130.359)"
         style="stroke-width:0">
        <g
           style="fill:#000000;fill-opacity:1;stroke-width:0"
           id="id-a67402f2-0fe4-4e9d-940c-4bc13bca5692">
          <g
             transform="translate(148.712,134.765)"
             style="stroke-width:0"
             id="g48">
            <path
               style="stroke:none;stroke-width:0"
               d="M 3.328125,-3.015625 C 3.390625,-3.265625 3.625,-4.1875 4.3125,-4.1875 c 0.046875,0 0.296875,0 0.5,0.125 C 4.53125,-4 4.34375,-3.765625 4.34375,-3.515625 c 0,0.15625 0.109375,0.34375 0.375,0.34375 0.21875,0 0.53125,-0.171875 0.53125,-0.578125 0,-0.515625 -0.578125,-0.65625 -0.921875,-0.65625 -0.578125,0 -0.921875,0.53125 -1.046875,0.75 -0.25,-0.65625 -0.78125,-0.75 -1.078125,-0.75 -1.03125,0 -1.609375,1.28125 -1.609375,1.53125 0,0.109375 0.109375,0.109375 0.125,0.109375 0.078125,0 0.109375,-0.03125 0.125,-0.109375 0.34375,-1.0625 1,-1.3125 1.34375,-1.3125 0.1875,0 0.53125,0.09375 0.53125,0.671875 0,0.3125 -0.171875,0.96875 -0.53125,2.375 -0.15625,0.609375 -0.515625,1.03125 -0.953125,1.03125 -0.0625,0 -0.28125,0 -0.5,-0.125 0.25,-0.0625 0.46875,-0.265625 0.46875,-0.546875 0,-0.265625 -0.21875,-0.34375 -0.359375,-0.34375 -0.3125,0 -0.546875,0.25 -0.546875,0.578125 0,0.453125 0.484375,0.65625 0.921875,0.65625 0.671875,0 1.03125,-0.703125 1.046875,-0.75 0.125,0.359375 0.484375,0.75 1.078125,0.75 1.03125,0 1.59375,-1.28125 1.59375,-1.53125 0,-0.109375 -0.078125,-0.109375 -0.109375,-0.109375 -0.09375,0 -0.109375,0.046875 -0.140625,0.109375 -0.328125,1.078125 -1,1.3125 -1.3125,1.3125 -0.390625,0 -0.546875,-0.3125 -0.546875,-0.65625 0,-0.21875 0.046875,-0.4375 0.15625,-0.875 z m 0,0"
               id="id-5fea9d9a-4966-4a71-9fb5-e6539f1a3b91" />
          </g>
        </g>
      </g>
    </g>
    <path
       style="fill:none;stroke:#000000;stroke-width:0.35;stroke-dasharray:none;stroke-dashoffset:0"
       d="M 25.771067,114.25511 H 24.265644"
       id="path64" />
    <g
       transform="matrix(0.3901315,0,0,0.3901315,22.246682,112.84424)"
       ns3:version="1.9.0"
       ns3:texconverter="pdflatex"
       ns3:pdfconverter="inkscape"
       ns3:text="$1$"
       ns3:preamble="/home/matteo/.config/inkscape/extensions/textext/default_packages.tex"
       ns3:scale="1.4910861116835532"
       ns3:alignment="middle center"
       ns3:stroke-to-path="0"
       ns3:jacobian_sqrt="0.526022"
       id="g65"
       style="stroke-width:1.34832">
      <defs
         id="id-9a2e66cc-a728-4980-bdde-22af8d9fdddb">
        <g
           id="id-bc764eae-389a-46ab-88d6-120238ae7090">
          <symbol
             overflow="visible"
             id="id-c4154ec2-0145-4b15-afcb-03ff596187c8">
            <path
               style="stroke:none;stroke-width:0"
               d=""
               id="id-1daee92b-5f7f-46f8-be07-e6fa2317f386" />
          </symbol>
          <symbol
             overflow="visible"
             id="id-594d1422-a837-4af9-8b2b-56e6091e0906">
            <path
               style="stroke:none;stroke-width:0"
               d="m 2.9375,-6.375 c 0,-0.25 0,-0.265625 -0.234375,-0.265625 C 2.078125,-6 1.203125,-6 0.890625,-6 v 0.3125 c 0.203125,0 0.78125,0 1.296875,-0.265625 v 5.171875 c 0,0.359375 -0.03125,0.46875 -0.921875,0.46875 h -0.3125 V 0 c 0.34375,-0.03125 1.203125,-0.03125 1.609375,-0.03125 0.390625,0 1.265625,0 1.609375,0.03125 v -0.3125 h -0.3125 c -0.90625,0 -0.921875,-0.109375 -0.921875,-0.46875 z m 0,0"
               id="id-727c2d6c-ebe7-4d53-8a1a-4d2733fe3099" />
          </symbol>
        </g>
      </defs>
      <g
         id="id-dfafd2da-9b21-4eef-af8d-39d1b64a97c0"
         transform="translate(-149.603,-128.124)"
         style="stroke-width:1.34832">
        <g
           style="fill:#000000;fill-opacity:1;stroke-width:1.34832"
           id="id-87ab54d8-7696-486f-b05b-0db44843dfc6">
          <g
             transform="translate(148.712,134.765)"
             id="g64"
             style="stroke-width:1.34832">
            <path
               style="stroke:none;stroke-width:0"
               d="m 2.9375,-6.375 c 0,-0.25 0,-0.265625 -0.234375,-0.265625 C 2.078125,-6 1.203125,-6 0.890625,-6 v 0.3125 c 0.203125,0 0.78125,0 1.296875,-0.265625 v 5.171875 c 0,0.359375 -0.03125,0.46875 -0.921875,0.46875 h -0.3125 V 0 c 0.34375,-0.03125 1.203125,-0.03125 1.609375,-0.03125 0.390625,0 1.265625,0 1.609375,0.03125 v -0.3125 h -0.3125 c -0.90625,0 -0.921875,-0.109375 -0.921875,-0.46875 z m 0,0"
               id="id-c98f8ed0-6ac3-4167-80b4-506ac836028c" />
          </g>
        </g>
      </g>
    </g>
    <path
       style="fill:none;stroke:#000000;stroke-width:0.35;stroke-dasharray:none;stroke-dashoffset:0"
       d="M 25.767684,129.5633 H 24.262261"
       id="path65" />
    <g
       transform="matrix(0.390132,0,0,0.390132,22.0664,128.112)"
       ns3:version="1.9.0"
       ns3:texconverter="pdflatex"
       ns3:pdfconverter="inkscape"
       ns3:text="$0$"
       ns3:preamble="/home/matteo/.config/inkscape/extensions/textext/default_packages.tex"
       ns3:scale="1.1058846614405333"
       ns3:alignment="middle center"
       ns3:stroke-to-path="0"
       ns3:jacobian_sqrt="0.390132"
       style="stroke-width:0"
       id="g72">
      <defs
         id="id-379e2081-13c3-4daf-bf32-ffe95a5ca64d"
         style="stroke-width:0">
        <g
           id="id-d00e798c-a5be-446b-a90b-38bca43bed65"
           style="stroke-width:0">
          <symbol
             overflow="visible"
             id="id-8d75a6b9-5a2f-4324-91ee-8f54d2e499b1"
             style="stroke-width:0">
            <path
               style="stroke:none;stroke-width:0"
               d=""
               id="id-c15c21b7-9290-4606-8f0e-5ba9ba9da443" />
          </symbol>
          <symbol
             overflow="visible"
             id="id-dcf56c9f-16a9-40b8-9c7c-a115562edf6b"
             style="stroke-width:0">
            <path
               style="stroke:none;stroke-width:0"
               d="m 4.578125,-3.1875 c 0,-0.796875 -0.046875,-1.59375 -0.390625,-2.328125 -0.453125,-0.96875 -1.28125,-1.125 -1.6875,-1.125 -0.609375,0 -1.328125,0.265625 -1.75,1.1875 -0.3125,0.6875 -0.359375,1.46875 -0.359375,2.265625 0,0.75 0.03125,1.640625 0.453125,2.40625 0.421875,0.796875 1.15625,1 1.640625,1 0.53125,0 1.296875,-0.203125 1.734375,-1.15625 0.3125,-0.6875 0.359375,-1.46875 0.359375,-2.25 z M 2.484375,0 C 2.09375,0 1.5,-0.25 1.328125,-1.203125 1.21875,-1.796875 1.21875,-2.71875 1.21875,-3.3125 c 0,-0.640625 0,-1.296875 0.078125,-1.828125 0.1875,-1.1875 0.9375,-1.28125 1.1875,-1.28125 0.328125,0 0.984375,0.1875 1.171875,1.171875 0.109375,0.5625 0.109375,1.3125 0.109375,1.9375 0,0.75 0,1.421875 -0.109375,2.0625 C 3.5,-0.296875 2.9375,0 2.484375,0 Z m 0,0"
               id="id-9bff5df3-2c7f-4269-93fd-2ec3aa1e8c91" />
          </symbol>
        </g>
      </defs>
      <g
         id="id-5534517b-fa04-4df7-a3c4-6f71923147b9"
         transform="translate(-149.103,-128.124)"
         style="stroke-width:0">
        <g
           style="fill:#000000;fill-opacity:1;stroke-width:0"
           id="id-7d8d12e9-46c8-41c4-b292-eda9c388a44c">
          <g
             transform="translate(148.712,134.765)"
             style="stroke-width:0"
             id="g71">
            <path
               style="stroke:none;stroke-width:0"
               d="m 4.578125,-3.1875 c 0,-0.796875 -0.046875,-1.59375 -0.390625,-2.328125 -0.453125,-0.96875 -1.28125,-1.125 -1.6875,-1.125 -0.609375,0 -1.328125,0.265625 -1.75,1.1875 -0.3125,0.6875 -0.359375,1.46875 -0.359375,2.265625 0,0.75 0.03125,1.640625 0.453125,2.40625 0.421875,0.796875 1.15625,1 1.640625,1 0.53125,0 1.296875,-0.203125 1.734375,-1.15625 0.3125,-0.6875 0.359375,-1.46875 0.359375,-2.25 z M 2.484375,0 C 2.09375,0 1.5,-0.25 1.328125,-1.203125 1.21875,-1.796875 1.21875,-2.71875 1.21875,-3.3125 c 0,-0.640625 0,-1.296875 0.078125,-1.828125 0.1875,-1.1875 0.9375,-1.28125 1.1875,-1.28125 0.328125,0 0.984375,0.1875 1.171875,1.171875 0.109375,0.5625 0.109375,1.3125 0.109375,1.9375 0,0.75 0,1.421875 -0.109375,2.0625 C 3.5,-0.296875 2.9375,0 2.484375,0 Z m 0,0"
               id="id-f0233b6b-65cf-4579-99ef-561a8c455b42" />
          </g>
        </g>
      </g>
    </g>
    <text
       xml:space="preserve"
       style="font-size:3.73895px;line-height:79%;font-family:sans-serif;text-decoration-color:#000000;fill:#00b90b;fill-opacity:1;stroke-width:0.264583;-inkscape-stroke:none;stop-color:#000000"
       x="27.779995"
       y="111.30962"
       id="text73"><tspan
         sodipodi:role="line"
         id="tspan73"
         style="font-style:normal;font-variant:normal;font-weight:normal;font-stretch:normal;line-height:79%;font-family:Calibri;-inkscape-font-specification:Calibri;fill:#00b90b;fill-opacity:1;stroke-width:0.264583"
         x="27.779995"
         y="111.30962">Uniforme </tspan><tspan
         sodipodi:role="line"
         style="font-style:normal;font-variant:normal;font-weight:normal;font-stretch:normal;line-height:79%;font-family:Calibri;-inkscape-font-specification:Calibri;fill:#00b90b;fill-opacity:1;stroke-width:0.264583"
         x="27.779995"
         y="114.35969"
         id="tspan74">Verteilung</tspan></text>
    <path
       style="fill:none;fill-opacity:1;stroke:#00c30c;stroke-width:0.387756;stroke-dasharray:none;stroke-dashoffset:0;stroke-opacity:1;marker-start:url(#marker40)"
       id="path74"
       transform="matrix(0.06962592,0.99757317,0.8531289,0.52170019,0,0)"
       sodipodi:type="arc"
       sodipodi:cx="83.317642"
       sodipodi:cy="47.750401"
       sodipodi:rx="9.2184734"
       sodipodi:ry="8.3167868"
       sodipodi:start="1.8865057"
       sodipodi:end="3.1037491"
       sodipodi:open="true"
       sodipodi:arc-type="arc"
       d="M 80.45539,55.656141 A 9.2184734,8.3167868 0 0 1 74.105769,48.065062" />
    <g
       transform="matrix(0.390132,0,0,0.390132,35.968623,95.376473)"
       ns3:version="1.9.0"
       ns3:texconverter="pdflatex"
       ns3:pdfconverter="inkscape"
       ns3:text="\\definecolor{my_green}{RGB}{0, 170, 9}\n$\\color{my_green}{x_1}=1{,}2$"
       ns3:preamble="/home/matteo/.config/inkscape/extensions/textext/default_packages.tex"
       ns3:scale="1.1058846614405333"
       ns3:alignment="middle center"
       ns3:stroke-to-path="0"
       ns3:inkscapeversion="1.4-dev"
       ns3:jacobian_sqrt="0.390132"
       id="g82">
      <defs
         id="id-3e87a389-ebce-49b1-a393-4a3467e7eb92">
        <g
           id="id-faf67868-eee2-4f72-aa98-4686ed4051fc">
          <symbol
             overflow="visible"
             id="id-5de75a40-eda0-4a86-b1b5-171c1d0efa5e">
            <path
               style="stroke:none"
               d=""
               id="id-cb725e47-4011-4d23-a7a7-adcdd7e924c9" />
          </symbol>
          <symbol
             overflow="visible"
             id="id-6cc74295-ae2d-4610-bba1-4210a54f84ad">
            <path
               style="stroke:none"
               d="M 3.328125,-3.015625 C 3.390625,-3.265625 3.625,-4.1875 4.3125,-4.1875 c 0.046875,0 0.296875,0 0.5,0.125 C 4.53125,-4 4.34375,-3.765625 4.34375,-3.515625 c 0,0.15625 0.109375,0.34375 0.375,0.34375 0.21875,0 0.53125,-0.171875 0.53125,-0.578125 0,-0.515625 -0.578125,-0.65625 -0.921875,-0.65625 -0.578125,0 -0.921875,0.53125 -1.046875,0.75 -0.25,-0.65625 -0.78125,-0.75 -1.078125,-0.75 -1.03125,0 -1.609375,1.28125 -1.609375,1.53125 0,0.109375 0.109375,0.109375 0.125,0.109375 0.078125,0 0.109375,-0.03125 0.125,-0.109375 0.34375,-1.0625 1,-1.3125 1.34375,-1.3125 0.1875,0 0.53125,0.09375 0.53125,0.671875 0,0.3125 -0.171875,0.96875 -0.53125,2.375 -0.15625,0.609375 -0.515625,1.03125 -0.953125,1.03125 -0.0625,0 -0.28125,0 -0.5,-0.125 0.25,-0.0625 0.46875,-0.265625 0.46875,-0.546875 0,-0.265625 -0.21875,-0.34375 -0.359375,-0.34375 -0.3125,0 -0.546875,0.25 -0.546875,0.578125 0,0.453125 0.484375,0.65625 0.921875,0.65625 0.671875,0 1.03125,-0.703125 1.046875,-0.75 0.125,0.359375 0.484375,0.75 1.078125,0.75 1.03125,0 1.59375,-1.28125 1.59375,-1.53125 0,-0.109375 -0.078125,-0.109375 -0.109375,-0.109375 -0.09375,0 -0.109375,0.046875 -0.140625,0.109375 -0.328125,1.078125 -1,1.3125 -1.3125,1.3125 -0.390625,0 -0.546875,-0.3125 -0.546875,-0.65625 0,-0.21875 0.046875,-0.4375 0.15625,-0.875 z m 0,0"
               id="id-81fc799b-27e4-4c95-9f6e-787d7677bf50" />
          </symbol>
          <symbol
             overflow="visible"
             id="id-70de543c-6fbf-4175-9968-a0a8d11d4a6b">
            <path
               style="stroke:none"
               d="m 2.03125,-0.015625 c 0,-0.65625 -0.25,-1.046875 -0.640625,-1.046875 -0.328125,0 -0.53125,0.25 -0.53125,0.53125 C 0.859375,-0.265625 1.0625,0 1.390625,0 1.5,0 1.640625,-0.046875 1.734375,-0.125 1.765625,-0.15625 1.78125,-0.15625 1.78125,-0.15625 c 0.015625,0 0.015625,0 0.015625,0.140625 0,0.75 -0.34375,1.34375 -0.671875,1.671875 -0.109375,0.109375 -0.109375,0.125 -0.109375,0.15625 0,0.078125 0.046875,0.109375 0.09375,0.109375 0.109375,0 0.921875,-0.765625 0.921875,-1.9375 z m 0,0"
               id="id-dd2b5e07-ffd0-435e-96a0-a6f018fe7716" />
          </symbol>
          <symbol
             overflow="visible"
             id="id-b08d3858-3b95-43bb-8886-bc381129b281">
            <path
               style="stroke:none"
               d=""
               id="id-ba95ccad-0edb-45d5-b64f-e28c1c7cb089" />
          </symbol>
          <symbol
             overflow="visible"
             id="id-90f05124-2ffe-4d86-a4e2-a9b04a516a5e">
            <path
               style="stroke:none"
               d="m 2.328125,-4.4375 c 0,-0.1875 0,-0.1875 -0.203125,-0.1875 -0.453125,0.4375 -1.078125,0.4375 -1.359375,0.4375 v 0.25 c 0.15625,0 0.625,0 1,-0.1875 v 3.546875 c 0,0.234375 0,0.328125 -0.6875,0.328125 H 0.8125 V 0 c 0.125,0 0.984375,-0.03125 1.234375,-0.03125 0.21875,0 1.09375,0.03125 1.25,0.03125 V -0.25 H 3.03125 c -0.703125,0 -0.703125,-0.09375 -0.703125,-0.328125 z m 0,0"
               id="id-705f1516-9427-4eac-8adc-fcebfc659dd7" />
          </symbol>
          <symbol
             overflow="visible"
             id="id-e4f6a4a6-596d-4dfe-96d6-120e2c4746bb">
            <path
               style="stroke:none"
               d=""
               id="id-598df8dc-27ad-4627-a0c5-31992d6a87a9" />
          </symbol>
          <symbol
             overflow="visible"
             id="id-c4187334-4144-44d7-8f04-12c37c599349">
            <path
               style="stroke:none"
               d="m 6.84375,-3.265625 c 0.15625,0 0.34375,0 0.34375,-0.1875 C 7.1875,-3.65625 7,-3.65625 6.859375,-3.65625 h -5.96875 c -0.140625,0 -0.328125,0 -0.328125,0.203125 0,0.1875 0.1875,0.1875 0.328125,0.1875 z m 0.015625,1.9375 c 0.140625,0 0.328125,0 0.328125,-0.203125 0,-0.1875 -0.1875,-0.1875 -0.34375,-0.1875 H 0.890625 c -0.140625,0 -0.328125,0 -0.328125,0.1875 0,0.203125 0.1875,0.203125 0.328125,0.203125 z m 0,0"
               id="id-3bb1bf79-e45f-4698-b50e-bf7f346b1415" />
          </symbol>
          <symbol
             overflow="visible"
             id="id-fc7fe219-2606-47d6-bfa7-ef66d4bbc103">
            <path
               style="stroke:none"
               d="m 2.9375,-6.375 c 0,-0.25 0,-0.265625 -0.234375,-0.265625 C 2.078125,-6 1.203125,-6 0.890625,-6 v 0.3125 c 0.203125,0 0.78125,0 1.296875,-0.265625 v 5.171875 c 0,0.359375 -0.03125,0.46875 -0.921875,0.46875 h -0.3125 V 0 c 0.34375,-0.03125 1.203125,-0.03125 1.609375,-0.03125 0.390625,0 1.265625,0 1.609375,0.03125 v -0.3125 h -0.3125 c -0.90625,0 -0.921875,-0.109375 -0.921875,-0.46875 z m 0,0"
               id="id-edb39b7b-0114-429e-a8d9-27bf5158014e" />
          </symbol>
          <symbol
             overflow="visible"
             id="id-394a94b5-b64c-4bb2-8016-b2568722af9c">
            <path
               style="stroke:none"
               d="m 1.265625,-0.765625 1.0625,-1.03125 c 1.546875,-1.375 2.140625,-1.90625 2.140625,-2.90625 0,-1.140625 -0.890625,-1.9375 -2.109375,-1.9375 -1.125,0 -1.859375,0.921875 -1.859375,1.8125 0,0.546875 0.5,0.546875 0.53125,0.546875 0.171875,0 0.515625,-0.109375 0.515625,-0.53125 0,-0.25 -0.1875,-0.515625 -0.53125,-0.515625 -0.078125,0 -0.09375,0 -0.125,0.015625 0.21875,-0.65625 0.765625,-1.015625 1.34375,-1.015625 0.90625,0 1.328125,0.8125 1.328125,1.625 C 3.5625,-3.90625 3.078125,-3.125 2.515625,-2.5 l -1.90625,2.125 C 0.5,-0.265625 0.5,-0.234375 0.5,0 H 4.203125 L 4.46875,-1.734375 H 4.234375 C 4.171875,-1.4375 4.109375,-1 4,-0.84375 3.9375,-0.765625 3.28125,-0.765625 3.0625,-0.765625 Z m 0,0"
               id="id-da5796d3-155c-4a08-b2cd-0d2de3f98c78" />
          </symbol>
        </g>
      </defs>
      <g
         id="id-1474e6fb-b393-4fc2-9dab-b92cdbd0d05e"
         transform="translate(-149.009,-128.124)">
        <g
           style="fill:#00a807;fill-opacity:1"
           id="id-6ffeb72a-24b5-4fac-bc4b-b0f27d2a8a2a">
          <g
             transform="translate(148.712,134.765)"
             id="g76">
            <path
               style="stroke:none"
               d="M 3.328125,-3.015625 C 3.390625,-3.265625 3.625,-4.1875 4.3125,-4.1875 c 0.046875,0 0.296875,0 0.5,0.125 C 4.53125,-4 4.34375,-3.765625 4.34375,-3.515625 c 0,0.15625 0.109375,0.34375 0.375,0.34375 0.21875,0 0.53125,-0.171875 0.53125,-0.578125 0,-0.515625 -0.578125,-0.65625 -0.921875,-0.65625 -0.578125,0 -0.921875,0.53125 -1.046875,0.75 -0.25,-0.65625 -0.78125,-0.75 -1.078125,-0.75 -1.03125,0 -1.609375,1.28125 -1.609375,1.53125 0,0.109375 0.109375,0.109375 0.125,0.109375 0.078125,0 0.109375,-0.03125 0.125,-0.109375 0.34375,-1.0625 1,-1.3125 1.34375,-1.3125 0.1875,0 0.53125,0.09375 0.53125,0.671875 0,0.3125 -0.171875,0.96875 -0.53125,2.375 -0.15625,0.609375 -0.515625,1.03125 -0.953125,1.03125 -0.0625,0 -0.28125,0 -0.5,-0.125 0.25,-0.0625 0.46875,-0.265625 0.46875,-0.546875 0,-0.265625 -0.21875,-0.34375 -0.359375,-0.34375 -0.3125,0 -0.546875,0.25 -0.546875,0.578125 0,0.453125 0.484375,0.65625 0.921875,0.65625 0.671875,0 1.03125,-0.703125 1.046875,-0.75 0.125,0.359375 0.484375,0.75 1.078125,0.75 1.03125,0 1.59375,-1.28125 1.59375,-1.53125 0,-0.109375 -0.078125,-0.109375 -0.109375,-0.109375 -0.09375,0 -0.109375,0.046875 -0.140625,0.109375 -0.328125,1.078125 -1,1.3125 -1.3125,1.3125 -0.390625,0 -0.546875,-0.3125 -0.546875,-0.65625 0,-0.21875 0.046875,-0.4375 0.15625,-0.875 z m 0,0"
               id="id-7cba1ba3-8a00-4d37-b0c7-b61c69393acf" />
          </g>
        </g>
        <g
           style="fill:#00a807;fill-opacity:1"
           id="id-caf6b5dc-ff54-44d6-b032-559b537e03a6">
          <g
             transform="translate(154.406,136.259)"
             id="g77">
            <path
               style="stroke:none"
               d="m 2.328125,-4.4375 c 0,-0.1875 0,-0.1875 -0.203125,-0.1875 -0.453125,0.4375 -1.078125,0.4375 -1.359375,0.4375 v 0.25 c 0.15625,0 0.625,0 1,-0.1875 v 3.546875 c 0,0.234375 0,0.328125 -0.6875,0.328125 H 0.8125 V 0 c 0.125,0 0.984375,-0.03125 1.234375,-0.03125 0.21875,0 1.09375,0.03125 1.25,0.03125 V -0.25 H 3.03125 c -0.703125,0 -0.703125,-0.09375 -0.703125,-0.328125 z m 0,0"
               id="id-39ab0cdb-51d6-4b0b-b1fe-18963c5ab113" />
          </g>
        </g>
        <g
           style="fill:#00a807;fill-opacity:1"
           id="id-c4de6604-4b39-406b-998a-ae7e9eb8333b">
          <g
             transform="translate(161.643,134.765)"
             id="g78">
            <path
               style="stroke:none"
               d="m 6.84375,-3.265625 c 0.15625,0 0.34375,0 0.34375,-0.1875 C 7.1875,-3.65625 7,-3.65625 6.859375,-3.65625 h -5.96875 c -0.140625,0 -0.328125,0 -0.328125,0.203125 0,0.1875 0.1875,0.1875 0.328125,0.1875 z m 0.015625,1.9375 c 0.140625,0 0.328125,0 0.328125,-0.203125 0,-0.1875 -0.1875,-0.1875 -0.34375,-0.1875 H 0.890625 c -0.140625,0 -0.328125,0 -0.328125,0.1875 0,0.203125 0.1875,0.203125 0.328125,0.203125 z m 0,0"
               id="id-22914e2d-6e8f-48cd-939c-9cfc7bf0b7b3" />
          </g>
        </g>
        <g
           style="fill:#00a807;fill-opacity:1"
           id="id-d5e01b4f-5910-4292-a13a-05c490892b88">
          <g
             transform="translate(172.162,134.765)"
             id="g79">
            <path
               style="stroke:none"
               d="m 2.9375,-6.375 c 0,-0.25 0,-0.265625 -0.234375,-0.265625 C 2.078125,-6 1.203125,-6 0.890625,-6 v 0.3125 c 0.203125,0 0.78125,0 1.296875,-0.265625 v 5.171875 c 0,0.359375 -0.03125,0.46875 -0.921875,0.46875 h -0.3125 V 0 c 0.34375,-0.03125 1.203125,-0.03125 1.609375,-0.03125 0.390625,0 1.265625,0 1.609375,0.03125 v -0.3125 h -0.3125 c -0.90625,0 -0.921875,-0.109375 -0.921875,-0.46875 z m 0,0"
               id="id-dd2d45a5-90ee-417b-89c0-9f4f74821e6f" />
          </g>
        </g>
        <g
           style="fill:#00a807;fill-opacity:1"
           id="id-c9604d21-cff7-4e22-9e12-aad4b29cd954">
          <g
             transform="translate(177.14,134.765)"
             id="g80">
            <path
               style="stroke:none"
               d="m 2.03125,-0.015625 c 0,-0.65625 -0.25,-1.046875 -0.640625,-1.046875 -0.328125,0 -0.53125,0.25 -0.53125,0.53125 C 0.859375,-0.265625 1.0625,0 1.390625,0 1.5,0 1.640625,-0.046875 1.734375,-0.125 1.765625,-0.15625 1.78125,-0.15625 1.78125,-0.15625 c 0.015625,0 0.015625,0 0.015625,0.140625 0,0.75 -0.34375,1.34375 -0.671875,1.671875 -0.109375,0.109375 -0.109375,0.125 -0.109375,0.15625 0,0.078125 0.046875,0.109375 0.09375,0.109375 0.109375,0 0.921875,-0.765625 0.921875,-1.9375 z m 0,0"
               id="id-720ab465-44eb-4333-ad20-bb25a3105c09" />
          </g>
        </g>
        <g
           style="fill:#00a807;fill-opacity:1"
           id="id-6d12a610-f483-43b8-bd17-faa5ab33ca97">
          <g
             transform="translate(179.908,134.765)"
             id="g81">
            <path
               style="stroke:none"
               d="m 1.265625,-0.765625 1.0625,-1.03125 c 1.546875,-1.375 2.140625,-1.90625 2.140625,-2.90625 0,-1.140625 -0.890625,-1.9375 -2.109375,-1.9375 -1.125,0 -1.859375,0.921875 -1.859375,1.8125 0,0.546875 0.5,0.546875 0.53125,0.546875 0.171875,0 0.515625,-0.109375 0.515625,-0.53125 0,-0.25 -0.1875,-0.515625 -0.53125,-0.515625 -0.078125,0 -0.09375,0 -0.125,0.015625 0.21875,-0.65625 0.765625,-1.015625 1.34375,-1.015625 0.90625,0 1.328125,0.8125 1.328125,1.625 C 3.5625,-3.90625 3.078125,-3.125 2.515625,-2.5 l -1.90625,2.125 C 0.5,-0.265625 0.5,-0.234375 0.5,0 H 4.203125 L 4.46875,-1.734375 H 4.234375 C 4.171875,-1.4375 4.109375,-1 4,-0.84375 3.9375,-0.765625 3.28125,-0.765625 3.0625,-0.765625 Z m 0,0"
               id="id-770ac39a-ef09-4a37-a12e-a46a6c9cebbe" />
          </g>
        </g>
      </g>
    </g>
    <path
       style="fill:none;fill-opacity:1;stroke:#00c30c;stroke-width:0.387756;stroke-dasharray:none;stroke-dashoffset:0;stroke-opacity:1;marker-start:url(#marker40)"
       id="path82"
       transform="matrix(-0.06962592,0.99757317,-0.8531289,0.52170019,0,0)"
       sodipodi:type="arc"
       sodipodi:cx="156.48921"
       sodipodi:cy="-92.165115"
       sodipodi:rx="9.2184734"
       sodipodi:ry="8.3167868"
       sodipodi:start="1.8865057"
       sodipodi:end="3.1037491"
       sodipodi:open="true"
       sodipodi:arc-type="arc"
       d="m 153.62696,-84.259374 a 9.2184734,8.3167868 0 0 1 -6.34962,-7.59108" />
    <g
       transform="matrix(0.390132 0 0 0.390132 63.467 95.3764)"
       ns3:version="1.9.0"
       ns3:texconverter="pdflatex"
       ns3:pdfconverter="inkscape"
       ns3:text="\\definecolor{my_green}{RGB}{0, 170, 9}\n$\\color{my_green}{x_2}=1{,}8$"
       ns3:preamble="/home/matteo/.config/inkscape/extensions/textext/default_packages.tex"
       ns3:scale="1.1058846614405333"
       ns3:alignment="middle center"
       ns3:stroke-to-path="0"
       ns3:inkscapeversion="1.4-dev"
       ns3:jacobian_sqrt="0.390132"
       id="g123">
      <defs
         id="id-eea5f14d-4629-47be-a4b4-2303791c7d40">
        <g
           id="id-216a3eab-d524-4ac1-90e9-09f718a3ae58">
          <symbol
             overflow="visible"
             id="id-37f87017-d2e4-42d9-8392-0b2f20da5415">
            <path
               style="stroke:none"
               d=""
               id="id-8d77e0bf-2551-415f-9124-91df08f532ed" />
          </symbol>
          <symbol
             overflow="visible"
             id="id-1c4d56ed-74ff-41d5-be00-40eb89e31ced">
            <path
               style="stroke:none"
               d="M 3.328125,-3.015625 C 3.390625,-3.265625 3.625,-4.1875 4.3125,-4.1875 c 0.046875,0 0.296875,0 0.5,0.125 C 4.53125,-4 4.34375,-3.765625 4.34375,-3.515625 c 0,0.15625 0.109375,0.34375 0.375,0.34375 0.21875,0 0.53125,-0.171875 0.53125,-0.578125 0,-0.515625 -0.578125,-0.65625 -0.921875,-0.65625 -0.578125,0 -0.921875,0.53125 -1.046875,0.75 -0.25,-0.65625 -0.78125,-0.75 -1.078125,-0.75 -1.03125,0 -1.609375,1.28125 -1.609375,1.53125 0,0.109375 0.109375,0.109375 0.125,0.109375 0.078125,0 0.109375,-0.03125 0.125,-0.109375 0.34375,-1.0625 1,-1.3125 1.34375,-1.3125 0.1875,0 0.53125,0.09375 0.53125,0.671875 0,0.3125 -0.171875,0.96875 -0.53125,2.375 -0.15625,0.609375 -0.515625,1.03125 -0.953125,1.03125 -0.0625,0 -0.28125,0 -0.5,-0.125 0.25,-0.0625 0.46875,-0.265625 0.46875,-0.546875 0,-0.265625 -0.21875,-0.34375 -0.359375,-0.34375 -0.3125,0 -0.546875,0.25 -0.546875,0.578125 0,0.453125 0.484375,0.65625 0.921875,0.65625 0.671875,0 1.03125,-0.703125 1.046875,-0.75 0.125,0.359375 0.484375,0.75 1.078125,0.75 1.03125,0 1.59375,-1.28125 1.59375,-1.53125 0,-0.109375 -0.078125,-0.109375 -0.109375,-0.109375 -0.09375,0 -0.109375,0.046875 -0.140625,0.109375 -0.328125,1.078125 -1,1.3125 -1.3125,1.3125 -0.390625,0 -0.546875,-0.3125 -0.546875,-0.65625 0,-0.21875 0.046875,-0.4375 0.15625,-0.875 z m 0,0"
               id="id-d0e5bae9-53c4-4157-aefb-87fd577f36b4" />
          </symbol>
          <symbol
             overflow="visible"
             id="id-4b00cb57-921c-4638-876c-2c3295873570">
            <path
               style="stroke:none"
               d="m 2.03125,-0.015625 c 0,-0.65625 -0.25,-1.046875 -0.640625,-1.046875 -0.328125,0 -0.53125,0.25 -0.53125,0.53125 C 0.859375,-0.265625 1.0625,0 1.390625,0 1.5,0 1.640625,-0.046875 1.734375,-0.125 1.765625,-0.15625 1.78125,-0.15625 1.78125,-0.15625 c 0.015625,0 0.015625,0 0.015625,0.140625 0,0.75 -0.34375,1.34375 -0.671875,1.671875 -0.109375,0.109375 -0.109375,0.125 -0.109375,0.15625 0,0.078125 0.046875,0.109375 0.09375,0.109375 0.109375,0 0.921875,-0.765625 0.921875,-1.9375 z m 0,0"
               id="id-a3ff26d2-ab5f-4890-9eae-4408716b6131" />
          </symbol>
          <symbol
             overflow="visible"
             id="id-8e15767d-6181-41e2-a443-2c1e7113c320">
            <path
               style="stroke:none"
               d=""
               id="id-111055a8-8e87-4e3e-8709-7735141beafb" />
          </symbol>
          <symbol
             overflow="visible"
             id="id-e94af477-6f0d-446d-bae7-4b5fbd52d43d">
            <path
               style="stroke:none"
               d="M 3.515625,-1.265625 H 3.28125 c -0.015625,0.15625 -0.09375,0.5625 -0.1875,0.625 C 3.046875,-0.59375 2.515625,-0.59375 2.40625,-0.59375 H 1.125 c 0.734375,-0.640625 0.984375,-0.84375 1.390625,-1.171875 0.515625,-0.40625 1,-0.84375 1,-1.5 0,-0.84375 -0.734375,-1.359375 -1.625,-1.359375 -0.859375,0 -1.453125,0.609375 -1.453125,1.25 0,0.34375 0.296875,0.390625 0.375,0.390625 0.15625,0 0.359375,-0.125 0.359375,-0.375 0,-0.125 -0.046875,-0.375 -0.40625,-0.375 C 0.984375,-4.21875 1.453125,-4.375 1.78125,-4.375 c 0.703125,0 1.0625,0.546875 1.0625,1.109375 0,0.609375 -0.4375,1.078125 -0.65625,1.328125 L 0.515625,-0.265625 C 0.4375,-0.203125 0.4375,-0.1875 0.4375,0 h 2.875 z m 0,0"
               id="id-c068fba1-6dc2-48e0-8799-6130e2ffee32" />
          </symbol>
          <symbol
             overflow="visible"
             id="id-e03c7bcd-3416-43bf-b747-cb1ca570793c">
            <path
               style="stroke:none"
               d=""
               id="id-15824a38-4808-4aca-8923-afbff8c8373a" />
          </symbol>
          <symbol
             overflow="visible"
             id="id-b0159f84-9943-4bc8-886e-758e0506b5fc">
            <path
               style="stroke:none"
               d="m 6.84375,-3.265625 c 0.15625,0 0.34375,0 0.34375,-0.1875 C 7.1875,-3.65625 7,-3.65625 6.859375,-3.65625 h -5.96875 c -0.140625,0 -0.328125,0 -0.328125,0.203125 0,0.1875 0.1875,0.1875 0.328125,0.1875 z m 0.015625,1.9375 c 0.140625,0 0.328125,0 0.328125,-0.203125 0,-0.1875 -0.1875,-0.1875 -0.34375,-0.1875 H 0.890625 c -0.140625,0 -0.328125,0 -0.328125,0.1875 0,0.203125 0.1875,0.203125 0.328125,0.203125 z m 0,0"
               id="id-8f00846f-b83b-40ec-b377-323335c32821" />
          </symbol>
          <symbol
             overflow="visible"
             id="id-1fad7047-0349-46ed-a3a2-7ebac90d4838">
            <path
               style="stroke:none"
               d="m 2.9375,-6.375 c 0,-0.25 0,-0.265625 -0.234375,-0.265625 C 2.078125,-6 1.203125,-6 0.890625,-6 v 0.3125 c 0.203125,0 0.78125,0 1.296875,-0.265625 v 5.171875 c 0,0.359375 -0.03125,0.46875 -0.921875,0.46875 h -0.3125 V 0 c 0.34375,-0.03125 1.203125,-0.03125 1.609375,-0.03125 0.390625,0 1.265625,0 1.609375,0.03125 v -0.3125 h -0.3125 c -0.90625,0 -0.921875,-0.109375 -0.921875,-0.46875 z m 0,0"
               id="id-02a9e879-0a7e-40be-92cf-a21d05fbddc7" />
          </symbol>
          <symbol
             overflow="visible"
             id="id-e7eafff0-360e-4c62-9ed8-3e819a4ba68d">
            <path
               style="stroke:none"
               d="m 1.625,-4.5625 c -0.453125,-0.296875 -0.5,-0.625 -0.5,-0.796875 0,-0.609375 0.65625,-1.03125 1.359375,-1.03125 0.71875,0 1.359375,0.515625 1.359375,1.234375 0,0.578125 -0.390625,1.046875 -0.984375,1.390625 z m 1.453125,0.953125 C 3.796875,-3.984375 4.28125,-4.5 4.28125,-5.15625 c 0,-0.921875 -0.875,-1.484375 -1.78125,-1.484375 -1,0 -1.8125,0.734375 -1.8125,1.671875 0,0.171875 0.015625,0.625 0.4375,1.09375 0.109375,0.109375 0.484375,0.359375 0.734375,0.53125 C 1.28125,-3.046875 0.421875,-2.5 0.421875,-1.5 c 0,1.046875 1.015625,1.71875 2.0625,1.71875 1.125,0 2.078125,-0.828125 2.078125,-1.890625 0,-0.359375 -0.109375,-0.8125 -0.5,-1.234375 C 3.875,-3.109375 3.71875,-3.203125 3.078125,-3.609375 Z m -1,0.421875 1.234375,0.78125 c 0.28125,0.1875 0.75,0.484375 0.75,1.09375 0,0.734375 -0.75,1.25 -1.5625,1.25 -0.859375,0 -1.578125,-0.609375 -1.578125,-1.4375 0,-0.578125 0.3125,-1.21875 1.15625,-1.6875 z m 0,0"
               id="id-11d07f85-7d66-4ed6-ac17-ad076db11928" />
          </symbol>
        </g>
      </defs>
      <g
         id="id-7a8bfe3f-6cc2-4286-88d5-25631330f868"
         transform="translate(-149.009, -128.124)">
        <g
           style="fill:#00a807;fill-opacity:1"
           id="id-1e953102-07a7-481d-8f29-32590870563d">
          <g
             transform="translate(148.712, 134.765)"
             id="g117">
            <path
               style="stroke:none"
               d="M 3.328125,-3.015625 C 3.390625,-3.265625 3.625,-4.1875 4.3125,-4.1875 c 0.046875,0 0.296875,0 0.5,0.125 C 4.53125,-4 4.34375,-3.765625 4.34375,-3.515625 c 0,0.15625 0.109375,0.34375 0.375,0.34375 0.21875,0 0.53125,-0.171875 0.53125,-0.578125 0,-0.515625 -0.578125,-0.65625 -0.921875,-0.65625 -0.578125,0 -0.921875,0.53125 -1.046875,0.75 -0.25,-0.65625 -0.78125,-0.75 -1.078125,-0.75 -1.03125,0 -1.609375,1.28125 -1.609375,1.53125 0,0.109375 0.109375,0.109375 0.125,0.109375 0.078125,0 0.109375,-0.03125 0.125,-0.109375 0.34375,-1.0625 1,-1.3125 1.34375,-1.3125 0.1875,0 0.53125,0.09375 0.53125,0.671875 0,0.3125 -0.171875,0.96875 -0.53125,2.375 -0.15625,0.609375 -0.515625,1.03125 -0.953125,1.03125 -0.0625,0 -0.28125,0 -0.5,-0.125 0.25,-0.0625 0.46875,-0.265625 0.46875,-0.546875 0,-0.265625 -0.21875,-0.34375 -0.359375,-0.34375 -0.3125,0 -0.546875,0.25 -0.546875,0.578125 0,0.453125 0.484375,0.65625 0.921875,0.65625 0.671875,0 1.03125,-0.703125 1.046875,-0.75 0.125,0.359375 0.484375,0.75 1.078125,0.75 1.03125,0 1.59375,-1.28125 1.59375,-1.53125 0,-0.109375 -0.078125,-0.109375 -0.109375,-0.109375 -0.09375,0 -0.109375,0.046875 -0.140625,0.109375 -0.328125,1.078125 -1,1.3125 -1.3125,1.3125 -0.390625,0 -0.546875,-0.3125 -0.546875,-0.65625 0,-0.21875 0.046875,-0.4375 0.15625,-0.875 z m 0,0"
               id="id-82d50bf0-2d92-4a23-bdca-2652f6f3f011" />
          </g>
        </g>
        <g
           style="fill:#00a807;fill-opacity:1"
           id="id-77695987-1d84-428f-8cb4-9475e8e65138">
          <g
             transform="translate(154.406, 136.259)"
             id="g118">
            <path
               style="stroke:none"
               d="M 3.515625,-1.265625 H 3.28125 c -0.015625,0.15625 -0.09375,0.5625 -0.1875,0.625 C 3.046875,-0.59375 2.515625,-0.59375 2.40625,-0.59375 H 1.125 c 0.734375,-0.640625 0.984375,-0.84375 1.390625,-1.171875 0.515625,-0.40625 1,-0.84375 1,-1.5 0,-0.84375 -0.734375,-1.359375 -1.625,-1.359375 -0.859375,0 -1.453125,0.609375 -1.453125,1.25 0,0.34375 0.296875,0.390625 0.375,0.390625 0.15625,0 0.359375,-0.125 0.359375,-0.375 0,-0.125 -0.046875,-0.375 -0.40625,-0.375 C 0.984375,-4.21875 1.453125,-4.375 1.78125,-4.375 c 0.703125,0 1.0625,0.546875 1.0625,1.109375 0,0.609375 -0.4375,1.078125 -0.65625,1.328125 L 0.515625,-0.265625 C 0.4375,-0.203125 0.4375,-0.1875 0.4375,0 h 2.875 z m 0,0"
               id="id-0236731f-3cbd-4a2c-8eb9-52276a8fcd20" />
          </g>
        </g>
        <g
           style="fill:#00a807;fill-opacity:1"
           id="id-eaba879c-fb20-4b91-ac1e-ec72c15d3ea8">
          <g
             transform="translate(161.643, 134.765)"
             id="g119">
            <path
               style="stroke:none"
               d="m 6.84375,-3.265625 c 0.15625,0 0.34375,0 0.34375,-0.1875 C 7.1875,-3.65625 7,-3.65625 6.859375,-3.65625 h -5.96875 c -0.140625,0 -0.328125,0 -0.328125,0.203125 0,0.1875 0.1875,0.1875 0.328125,0.1875 z m 0.015625,1.9375 c 0.140625,0 0.328125,0 0.328125,-0.203125 0,-0.1875 -0.1875,-0.1875 -0.34375,-0.1875 H 0.890625 c -0.140625,0 -0.328125,0 -0.328125,0.1875 0,0.203125 0.1875,0.203125 0.328125,0.203125 z m 0,0"
               id="id-ced64570-4a5f-4a1f-bcc1-b98827cf26a6" />
          </g>
        </g>
        <g
           style="fill:#00a807;fill-opacity:1"
           id="id-acdcddc9-4ea9-4c85-99be-e720efea2e1d">
          <g
             transform="translate(172.162, 134.765)"
             id="g120">
            <path
               style="stroke:none"
               d="m 2.9375,-6.375 c 0,-0.25 0,-0.265625 -0.234375,-0.265625 C 2.078125,-6 1.203125,-6 0.890625,-6 v 0.3125 c 0.203125,0 0.78125,0 1.296875,-0.265625 v 5.171875 c 0,0.359375 -0.03125,0.46875 -0.921875,0.46875 h -0.3125 V 0 c 0.34375,-0.03125 1.203125,-0.03125 1.609375,-0.03125 0.390625,0 1.265625,0 1.609375,0.03125 v -0.3125 h -0.3125 c -0.90625,0 -0.921875,-0.109375 -0.921875,-0.46875 z m 0,0"
               id="id-52b045fe-b19e-41aa-a596-253ed50927e8" />
          </g>
        </g>
        <g
           style="fill:#00a807;fill-opacity:1"
           id="id-3c531560-9817-4255-8f1a-497da50f4ec2">
          <g
             transform="translate(177.14, 134.765)"
             id="g121">
            <path
               style="stroke:none"
               d="m 2.03125,-0.015625 c 0,-0.65625 -0.25,-1.046875 -0.640625,-1.046875 -0.328125,0 -0.53125,0.25 -0.53125,0.53125 C 0.859375,-0.265625 1.0625,0 1.390625,0 1.5,0 1.640625,-0.046875 1.734375,-0.125 1.765625,-0.15625 1.78125,-0.15625 1.78125,-0.15625 c 0.015625,0 0.015625,0 0.015625,0.140625 0,0.75 -0.34375,1.34375 -0.671875,1.671875 -0.109375,0.109375 -0.109375,0.125 -0.109375,0.15625 0,0.078125 0.046875,0.109375 0.09375,0.109375 0.109375,0 0.921875,-0.765625 0.921875,-1.9375 z m 0,0"
               id="id-1b8fbe3b-6b04-448f-bab7-8a7be7082559" />
          </g>
        </g>
        <g
           style="fill:#00a807;fill-opacity:1"
           id="id-76ccf0f2-9371-42ae-a83d-e9415d6d4e66">
          <g
             transform="translate(179.908, 134.765)"
             id="g122">
            <path
               style="stroke:none"
               d="m 1.625,-4.5625 c -0.453125,-0.296875 -0.5,-0.625 -0.5,-0.796875 0,-0.609375 0.65625,-1.03125 1.359375,-1.03125 0.71875,0 1.359375,0.515625 1.359375,1.234375 0,0.578125 -0.390625,1.046875 -0.984375,1.390625 z m 1.453125,0.953125 C 3.796875,-3.984375 4.28125,-4.5 4.28125,-5.15625 c 0,-0.921875 -0.875,-1.484375 -1.78125,-1.484375 -1,0 -1.8125,0.734375 -1.8125,1.671875 0,0.171875 0.015625,0.625 0.4375,1.09375 0.109375,0.109375 0.484375,0.359375 0.734375,0.53125 C 1.28125,-3.046875 0.421875,-2.5 0.421875,-1.5 c 0,1.046875 1.015625,1.71875 2.0625,1.71875 1.125,0 2.078125,-0.828125 2.078125,-1.890625 0,-0.359375 -0.109375,-0.8125 -0.5,-1.234375 C 3.875,-3.109375 3.71875,-3.203125 3.078125,-3.609375 Z m -1,0.421875 1.234375,0.78125 c 0.28125,0.1875 0.75,0.484375 0.75,1.09375 0,0.734375 -0.75,1.25 -1.5625,1.25 -0.859375,0 -1.578125,-0.609375 -1.578125,-1.4375 0,-0.578125 0.3125,-1.21875 1.15625,-1.6875 z m 0,0"
               id="id-258119e8-71b8-44f3-b167-11ef0876a382" />
          </g>
        </g>
      </g>
    </g>
  </g>
</svg>
