<?xml version="1.0" encoding="UTF-8" standalone="no"?>
<svg
   width="531.22833"
   height="149.18988"
   viewBox="0 0 398.42102 111.89262"
   class="displayed_equation"
   version="1.1"
   id="svg32"
   sodipodi:docname="interquartile-range2.svg"
   inkscape:version="1.3-alpha (1:1.2.0-alpha1+devel+202304091641+e205916a96)"
   xmlns:inkscape="http://www.inkscape.org/namespaces/inkscape"
   xmlns:sodipodi="http://sodipodi.sourceforge.net/DTD/sodipodi-0.dtd"
   xmlns="http://www.w3.org/2000/svg"
   xmlns:svg="http://www.w3.org/2000/svg">
  <defs
     id="defs32" />
  <sodipodi:namedview
     id="namedview32"
     pagecolor="#ffffff"
     bordercolor="#000000"
     borderopacity="0.25"
     inkscape:showpageshadow="2"
     inkscape:pageopacity="0.0"
     inkscape:pagecheckerboard="0"
     inkscape:deskcolor="#d1d1d1"
     inkscape:zoom="1.6220493"
     inkscape:cx="256.46569"
     inkscape:cy="198.82256"
     inkscape:window-width="2560"
     inkscape:window-height="1367"
     inkscape:window-x="0"
     inkscape:window-y="0"
     inkscape:window-maximized="1"
     inkscape:current-layer="svg32" />
  <path
     d="M 0.39800489,48.00124 H 199.2105 V 26.700458 H 0.39800489 Z m 0,0"
     fill="#b0d5ef"
     id="path1"
     style="fill:#ffc979;fill-opacity:1" />
  <path
     d="M 199.2105,48.00124 H 398.023 V 26.700458 H 199.2105 Z m 0,0"
     fill="#b4ddb5"
     id="path2" />
  <path
     d="M 0.39800453,48.001239 H 398.023 V 26.700458 H 0.39800453 Z m 28.40234347,0 V 26.700458 M 57.202692,48.001239 V 26.700458 M 85.601129,48.001239 V 26.700458 M 114.00347,48.001239 V 26.700458 m 28.40234,21.300781 V 26.700458 m 28.40234,21.300781 V 26.700458 M 199.2105,48.001239 V 26.700458 m 28.40234,21.300781 V 26.700458 m 28.40235,21.300781 V 26.700458 m 28.39843,21.300781 V 26.700458 m 28.40235,21.300781 V 26.700458 m 28.40234,21.300781 V 26.700458 m 28.40234,21.300781 V 26.700458 M 398.023,48.001239 V 26.700458"
     fill="none"
     stroke-width="0.797"
     stroke-linecap="round"
     stroke-linejoin="round"
     stroke="#000000"
     stroke-miterlimit="10"
     id="path3" />
  <path
     d="m 9.0542545,35.614521 c 0.460937,-0.714844 0.9570315,-1.089844 1.7656255,-1.089844 0.832031,0 1.371093,0.457031 1.371093,1.25 0,1.089844 -0.957031,1.828125 -1.871093,1.828125 h -0.253907 v 0.511719 h 0.269532 c 1.289062,0 2.433593,0.792969 2.433593,1.988281 0,1.320313 -0.820312,1.710938 -1.667968,1.710938 -0.324219,0 -0.511719,-0.05469 -1.089844,-0.351563 -0.4726565,-0.242187 -0.5781255,-0.308594 -0.7929695,-0.308594 -0.351562,0 -0.523437,0.308594 -0.523437,0.589844 0,0.351563 0.292968,0.742188 1.5039065,0.742188 1.964844,0 3.671875,-0.941407 3.671875,-2.785157 0,-1.195312 -0.902344,-1.910156 -1.976563,-2.246093 v -0.03906 c 0.847657,-0.539062 1.453125,-1.035156 1.453125,-1.964844 0,-1.019531 -0.792968,-1.800781 -2.167968,-1.800781 -1.101563,0 -1.9335945,0.617188 -2.4335945,1.789063 l 0.308594,0.175781 M 20.839411,40.15749 h -0.390625 c -0.308594,0.808593 -0.484375,1.089843 -1.195313,1.089843 H 17.38238 l -0.941407,0.04297 v -0.07031 l 1.777344,-1.67969 c 1.425781,-1.4375 2.191406,-2.367187 2.191406,-3.5625 0,-1.414062 -1.0625,-2.328125 -2.582031,-2.328125 -1.304687,0 -2.21875,0.753906 -2.636719,2.058594 l 0.324219,0.132812 c 0.496094,-1.007812 1.085938,-1.316406 1.960938,-1.316406 1.039062,0 1.683593,0.644531 1.683593,1.652344 0,1.414062 -0.675781,2.261719 -2.003906,3.632812 l -2.046875,2.042969 v 0.457031 h 5.300781 l 0.429688,-2.152343 m 21.929687,0.02734 v -0.925779 h -1.371093 v -5.625 h -0.820313 l -4.101562,5.703125 v 0.847656 h 3.722656 v 2.125 h 1.199219 v -2.125 z m -2.570312,-0.925778 h -2.984375 v -0.05469 l 2.933594,-4.10156 h 0.05078 v 4.15625 m 9.269531,0.925781 v -0.925781 h -1.371094 v -5.625 H 47.27691 l -4.101563,5.703125 v 0.847656 h 3.722657 v 2.125 h 1.199218 v -2.125 z M 46.898005,39.259052 H 43.91363 v -0.05469 l 2.933593,-4.10156 h 0.05078 v 4.15625 m 23.410156,-4.332031 0.214844,-1.089844 h -3.683594 l -0.835938,3.511719 0.160157,0.199219 c 0.191406,0 0.257812,0 0.609375,0.02734 1.851562,0.09766 2.902343,0.644532 2.902343,2.328125 0,1.398438 -0.847656,1.910157 -1.800781,1.910157 -0.863281,0 -1.304687,-0.660157 -1.84375,-0.660157 -0.335937,0 -0.539062,0.269532 -0.539062,0.578125 0,0.496094 0.511718,0.753907 1.546875,0.753907 2.140625,0 3.617187,-1.046875 3.617187,-3.121094 0,-2.109375 -1.652344,-2.742188 -3.238281,-2.863281 l -0.632813,-0.03906 0.363282,-1.535156 h 3.160156 m 7.386719,3.121094 c 0,-2.773438 -1.210938,-4.371094 -2.945313,-4.371094 -1.953125,0 -2.988281,1.773437 -2.988281,4.332031 0,2.378906 0.792969,4.449219 2.960937,4.449219 2.109375,0 2.972657,-2.113281 2.972657,-4.410156 z m -1.304688,0.07813 c 0,2.585937 -0.605469,3.847656 -1.667969,3.847656 -1.078125,0 -1.667968,-1.289063 -1.667968,-3.898438 0,-2.664062 0.589843,-3.941406 1.652343,-3.941406 1.105469,0 1.683594,1.265625 1.683594,3.992188 m 22.316405,-3.199219 0.21485,-1.089844 h -3.6836 l -0.83203,3.511719 0.16016,0.199219 c 0.1875,0 0.2539,0 0.60547,0.02734 1.85546,0.09766 2.90625,0.644532 2.90625,2.328125 0,1.398438 -0.85157,1.910157 -1.80469,1.910157 -0.85938,0 -1.30469,-0.660157 -1.84375,-0.660157 -0.33594,0 -0.53516,0.269532 -0.53516,0.578125 0,0.496094 0.51172,0.753907 1.54688,0.753907 2.13672,0 3.61718,-1.046875 3.61718,-3.121094 0,-2.109375 -1.65625,-2.742188 -3.24218,-2.863281 l -0.63282,-0.03906 0.36329,-1.535156 h 3.16015 m 2.249995,0.6875 c 0.45703,-0.714844 0.95313,-1.089844 1.76172,-1.089844 0.83203,0 1.37109,0.457031 1.37109,1.25 0,1.089844 -0.95312,1.828125 -1.87109,1.828125 h -0.25391 v 0.511719 h 0.26954 c 1.28906,0 2.43359,0.792969 2.43359,1.988281 0,1.320313 -0.82031,1.710938 -1.66406,1.710938 -0.32422,0 -0.51563,-0.05469 -1.09375,-0.351563 -0.46875,-0.242187 -0.57813,-0.308594 -0.79297,-0.308594 -0.34766,0 -0.52344,0.308594 -0.52344,0.589844 0,0.351563 0.29688,0.742188 1.50781,0.742188 1.96094,0 3.67188,-0.941407 3.67188,-2.785157 0,-1.195312 -0.90235,-1.910156 -1.98047,-2.246093 V 37.4153 c 0.84766,-0.539062 1.45312,-1.035156 1.45312,-1.964844 0,-1.019531 -0.79296,-1.800781 -2.16406,-1.800781 -1.10547,0 -1.9375,0.617188 -2.43359,1.789063 l 0.30859,0.175781 m 26.15234,-0.585938 0.21485,-1.089843 h -3.6836 l -0.83593,3.507812 0.16015,0.203125 c 0.19141,0 0.25782,0 0.60547,0.02734 1.85547,0.09375 2.90625,0.644531 2.90625,2.324219 0,1.398437 -0.84765,1.914062 -1.80469,1.914062 -0.85937,0 -1.30468,-0.660156 -1.83984,-0.660156 -0.33594,0 -0.53906,0.269531 -0.53906,0.578125 0,0.496094 0.51172,0.753906 1.54687,0.753906 2.13672,0 3.61719,-1.050781 3.61719,-3.121094 0,-2.113281 -1.65234,-2.746093 -3.23828,-2.863281 l -0.63281,-0.04297 0.36328,-1.53125 h 3.16015 m 7.11719,5.363282 c 0,-1.074219 -0.48437,-1.71875 -2.05859,-2.675782 v -0.03906 c 1.25,-0.6875 1.73437,-1.128906 1.73437,-2.113281 0,-1.0625 -1.02343,-1.855469 -2.35547,-1.855469 -1.47656,0 -2.55468,0.769531 -2.55468,1.992187 0,0.914063 0.29687,1.464844 1.66797,2.417969 v 0.04297 c -1.25,0.832031 -1.83985,1.261719 -1.83985,2.339844 0,1.371093 1.12891,2.070312 2.6875,2.070312 1.60156,0 2.71875,-0.765625 2.71875,-2.179687 z M 132.90581,35.5403 c 0,0.859375 -0.26953,1.382813 -1.15625,1.921875 -1.19531,-0.726562 -1.70703,-1.210937 -1.70703,-2.003906 0,-0.820313 0.5664,-1.304688 1.48047,-1.304688 0.85937,0 1.38281,0.496094 1.38281,1.386719 z m -1.84375,2.835938 c 1.62891,1.046875 2.03125,1.546875 2.03125,2.40625 0,0.914062 -0.69922,1.371093 -1.53125,1.371093 -1.02344,0 -1.69531,-0.550781 -1.69531,-1.761718 0,-0.925782 0.42968,-1.398438 1.19531,-2.015625 m 24.41797,-4.652342 c -2.89063,0.121094 -4.97656,1.988281 -4.97656,5.230469 0,1.976562 0.875,3.617187 2.8789,3.617187 1.69531,0 2.66406,-1.0625 2.66406,-2.890625 0,-1.761719 -0.95703,-2.824219 -2.42187,-2.824219 -0.69922,0 -1.19531,0.296875 -1.74609,0.832032 l -0.0977,-0.01172 c 0.33594,-1.964844 1.84375,-3.28125 3.72656,-3.566406 z m -0.60156,6.066406 c 0,1.707031 -0.53907,2.3125 -1.44141,2.3125 -1.17188,0 -1.72266,-1.199219 -1.72266,-2.867187 0,-1.167969 0.72657,-1.601563 1.50782,-1.601563 1.11718,0 1.65625,0.945313 1.65625,2.15625 m 7.96093,0.46875 h -0.39062 c -0.3086,0.804688 -0.48438,1.089844 -1.19531,1.089844 h -1.8711 l -0.9414,0.03906 v -0.06641 l 1.77734,-1.679687 c 1.42578,-1.441407 2.19141,-2.367188 2.19141,-3.566407 0,-1.410156 -1.0625,-2.324218 -2.58204,-2.324218 -1.30468,0 -2.21875,0.75 -2.63671,2.054687 l 0.32421,0.136719 c 0.4961,-1.011719 1.08594,-1.320313 1.96094,-1.320313 1.03906,0 1.6836,0.648438 1.6836,1.65625 0,1.410157 -0.67579,2.257813 -2.00391,3.628907 l -2.04688,2.046875 v 0.457031 h 5.30079 l 0.42968,-2.152344 m 21.14063,-6.535156 c -2.89063,0.121094 -4.97656,1.988281 -4.97656,5.230469 0,1.976562 0.875,3.617187 2.8789,3.617187 1.69531,0 2.66406,-1.0625 2.66406,-2.890625 0,-1.761719 -0.95703,-2.824219 -2.42187,-2.824219 -0.69922,0 -1.19531,0.296875 -1.74609,0.832032 l -0.0977,-0.01172 c 0.33594,-1.964844 1.84375,-3.28125 3.72656,-3.566406 z m -0.60156,6.066412 c 0,1.707031 -0.53907,2.3125 -1.44141,2.3125 -1.17188,0 -1.72266,-1.199219 -1.72266,-2.867187 0,-1.167969 0.72657,-1.601563 1.50782,-1.601563 1.11718,0 1.65625,0.945313 1.65625,2.15625 m 7.64453,0.601563 c 0,-1.074219 -0.48438,-1.71875 -2.05469,-2.675782 v -0.03906 c 1.25,-0.6875 1.73437,-1.128906 1.73437,-2.113281 0,-1.0625 -1.02343,-1.855469 -2.35546,-1.855469 -1.48047,0 -2.55469,0.769531 -2.55469,1.992187 0,0.914063 0.29687,1.464844 1.66797,2.417969 v 0.04297 c -1.25,0.832031 -1.84375,1.261719 -1.84375,2.339844 0,1.371093 1.1289,2.070312 2.6914,2.070312 1.60157,0 2.71485,-0.765625 2.71485,-2.179687 z m -1.31641,-4.851563 c 0,0.859375 -0.26953,1.382813 -1.15625,1.921875 -1.19922,-0.726562 -1.70703,-1.210937 -1.70703,-2.003906 0,-0.820313 0.5625,-1.304688 1.47656,-1.304688 0.86328,0 1.38672,0.496094 1.38672,1.386719 z m -1.84375,2.835938 c 1.62891,1.046875 2.03125,1.546875 2.03125,2.40625 0,0.914062 -0.69922,1.371093 -1.53125,1.371093 -1.02344,0 -1.69531,-0.550781 -1.69531,-1.761718 0,-0.925782 0.42969,-1.398438 1.19531,-2.015625 m 25.17578,-4.121094 v -0.417969 h -5.13672 l -0.53515,2.058594 0.41406,0.03906 c 0.36328,-0.871093 0.47266,-1.007812 1.22656,-1.007812 h 2.9961 l -3.17188,7.492187 h 1.0625 l 3.14453,-8.164062 m 6.65625,3.792969 c 0,-2.773438 -1.21094,-4.371094 -2.94922,-4.371094 -1.94922,0 -2.98437,1.773437 -2.98437,4.332031 0,2.378906 0.79297,4.449219 2.96094,4.449219 2.10937,0 2.97265,-2.113281 2.97265,-4.410156 z m -1.30469,0.07813 c 0,2.585937 -0.60546,3.847656 -1.66796,3.847656 -1.07813,0 -1.66797,-1.289063 -1.66797,-3.898438 0,-2.664062 0.58984,-3.941406 1.65234,-3.941406 1.10547,0 1.68359,1.265625 1.68359,3.992188 m 23.05079,-4.070313 v -0.417969 h -5.13672 l -0.53907,2.058594 0.41407,0.03906 c 0.36718,-0.875 0.47265,-1.007813 1.22656,-1.007813 h 3 l -3.17578,7.492188 h 1.0625 l 3.14844,-8.164063 m 5.96484,0.671875 0.21484,-1.089844 h -3.68359 l -0.83203,3.511719 0.16015,0.199219 c 0.1875,0 0.25782,0 0.60547,0.02734 1.85547,0.09375 2.90625,0.644531 2.90625,2.328125 0,1.398437 -0.84765,1.910156 -1.80468,1.910156 -0.85938,0 -1.30469,-0.660156 -1.83985,-0.660156 -0.33594,0 -0.53906,0.269531 -0.53906,0.578125 0,0.496093 0.51172,0.753906 1.54687,0.753906 2.13672,0 3.61719,-1.050781 3.61719,-3.121094 0,-2.109375 -1.65625,-2.742187 -3.24219,-2.863281 l -0.63281,-0.04297 0.36328,-1.53125 h 3.16016 m 22.43359,-0.375 v -0.414062 h -5.13672 l -0.53906,2.054687 0.41797,0.04297 c 0.36328,-0.875 0.47266,-1.007813 1.22266,-1.007813 h 3 l -3.17188,7.488282 h 1.0625 l 3.14453,-8.164063 m 5.94141,-0.628906 c -2.89063,0.121094 -4.97656,1.988281 -4.97656,5.230469 0,1.976562 0.875,3.617187 2.8789,3.617187 1.69532,0 2.66016,-1.0625 2.66016,-2.890625 0,-1.761719 -0.95313,-2.824219 -2.41797,-2.824219 -0.69922,0 -1.19922,0.296875 -1.75,0.832032 l -0.0937,-0.01172 c 0.33594,-1.964844 1.84375,-3.28125 3.72656,-3.566406 z m -0.60547,6.06641 c 0,1.707031 -0.53906,2.3125 -1.4375,2.3125 -1.17187,0 -1.72266,-1.199219 -1.72266,-2.867187 0,-1.167969 0.72657,-1.601563 1.50782,-1.601563 1.11328,0 1.65234,0.945313 1.65234,2.15625 m 22.84766,0.601563 c 0,-1.074219 -0.48438,-1.71875 -2.05469,-2.675782 v -0.03906 c 1.25,-0.6875 1.73437,-1.128906 1.73437,-2.113281 0,-1.0625 -1.02343,-1.855469 -2.35546,-1.855469 -1.48047,0 -2.55469,0.769531 -2.55469,1.992187 0,0.914063 0.29687,1.464844 1.66797,2.417969 v 0.04297 c -1.25,0.832031 -1.84375,1.261719 -1.84375,2.339844 0,1.371093 1.1289,2.070312 2.6914,2.070312 1.60157,0 2.71485,-0.765625 2.71485,-2.179687 z m -1.31641,-4.851563 c 0,0.859375 -0.26953,1.382813 -1.15625,1.921875 -1.19922,-0.726562 -1.70703,-1.210937 -1.70703,-2.003906 0,-0.820313 0.5625,-1.304688 1.47656,-1.304688 0.86328,0 1.38672,0.496094 1.38672,1.386719 z m -1.84375,2.835938 c 1.62891,1.046875 2.03125,1.546875 2.03125,2.40625 0,0.914062 -0.69922,1.371093 -1.53125,1.371093 -1.02344,0 -1.69531,-0.550781 -1.69531,-1.761718 0,-0.925782 0.42969,-1.398438 1.19531,-2.015625 m 9.97656,1.882812 h -0.39062 c -0.3086,0.804688 -0.48438,1.089844 -1.19531,1.089844 h -1.8711 l -0.9414,0.03906 v -0.06641 l 1.77734,-1.679687 c 1.42578,-1.441407 2.19141,-2.367188 2.19141,-3.566407 0,-1.410156 -1.0625,-2.324218 -2.58204,-2.324218 -1.30468,0 -2.21875,0.75 -2.63671,2.054687 l 0.32421,0.136719 c 0.4961,-1.011719 1.08594,-1.320313 1.96094,-1.320313 1.03906,0 1.6836,0.648438 1.6836,1.65625 0,1.410157 -0.67579,2.257813 -2.00391,3.628907 l -2.04688,2.046875 v 0.457031 h 5.30079 l 0.42968,-2.152344 m 21.58594,0.132813 c 0,-1.074219 -0.48437,-1.71875 -2.05859,-2.675782 v -0.03906 c 1.25,-0.6875 1.73437,-1.128906 1.73437,-2.113281 0,-1.0625 -1.02344,-1.855469 -2.35547,-1.855469 -1.47656,0 -2.55078,0.769531 -2.55078,1.992187 0,0.914063 0.29297,1.464844 1.66406,2.417969 v 0.04297 c -1.25,0.832031 -1.83984,1.261719 -1.83984,2.339844 0,1.371093 1.12891,2.070312 2.6875,2.070312 1.60156,0 2.71875,-0.765625 2.71875,-2.179687 z m -1.31641,-4.851557 c 0,0.859375 -0.26953,1.382813 -1.16015,1.921875 -1.19531,-0.726562 -1.70703,-1.210937 -1.70703,-2.003906 0,-0.820313 0.5664,-1.304688 1.48047,-1.304688 0.85937,0 1.38671,0.496094 1.38671,1.386719 z m -1.84375,2.835938 c 1.625,1.046875 2.03125,1.546875 2.03125,2.40625 0,0.914062 -0.70312,1.371093 -1.53515,1.371093 -1.01953,0 -1.69531,-0.550781 -1.69531,-1.761718 0,-0.925782 0.42968,-1.398438 1.19921,-2.015625 m 4.87891,4.210937 c 2.97266,-0.02734 4.90625,-1.734375 4.90625,-5.207031 0,-1.988281 -0.82031,-3.65625 -2.82422,-3.65625 -1.69531,0 -2.70312,1.0625 -2.70312,2.878906 0,1.773438 0.95703,2.820313 2.42187,2.820313 0.67188,0 1.15625,-0.28125 1.76172,-0.832032 l 0.082,0.01172 c -0.29687,2.179688 -1.8164,3.378906 -3.67187,3.59375 z m 0.55078,-6.066406 c 0,-1.722656 0.60547,-2.339844 1.47656,-2.339844 1.1875,0 1.67188,1.195313 1.67188,2.875 0,1.160156 -0.71484,1.574219 -1.49609,1.574219 -1.11329,0 -1.65235,-0.859375 -1.65235,-2.109375 m 21.25,6.066406 c 2.96875,-0.02734 4.90625,-1.734375 4.90625,-5.207031 0,-1.988281 -0.82031,-3.65625 -2.82422,-3.65625 -1.69531,0 -2.70312,1.0625 -2.70312,2.878906 0,1.773438 0.95703,2.820313 2.42187,2.820313 0.67188,0 1.15625,-0.28125 1.76172,-0.832032 l 0.082,0.01172 c -0.29687,2.179688 -1.8164,3.378906 -3.67578,3.59375 z m 0.55078,-6.066406 c 0,-1.722656 0.60547,-2.339844 1.47657,-2.339844 1.18359,0 1.66796,1.195313 1.66796,2.875 0,1.160156 -0.71093,1.574219 -1.49218,1.574219 -1.11719,0 -1.65235,-0.859375 -1.65235,-2.109375 m 11.3711,3.765625 v -0.929688 h -1.3711 v -5.621093 h -0.82031 l -4.10156,5.703125 v 0.847656 h 3.72656 v 2.125 h 1.19531 v -2.125 z m -2.56641,-0.929688 h -2.98828 v -0.05078 l 2.93359,-4.101562 h 0.0547 v 4.152343 m 19.04297,3.230469 c 2.97266,-0.02734 4.91016,-1.734375 4.91016,-5.207031 0,-1.988281 -0.82422,-3.65625 -2.82422,-3.65625 -1.69532,0 -2.70313,1.0625 -2.70313,2.878906 0,1.773438 0.95313,2.820313 2.41797,2.820313 0.67188,0 1.15625,-0.28125 1.76172,-0.832032 l 0.082,0.01172 c -0.29687,2.179688 -1.81641,3.378906 -3.67187,3.59375 z m 0.55078,-6.066406 c 0,-1.722656 0.60547,-2.339844 1.47656,-2.339844 1.1875,0 1.67188,1.195313 1.67188,2.875 0,1.160156 -0.71485,1.574219 -1.4961,1.574219 -1.11328,0 -1.65234,-0.859375 -1.65234,-2.109375 m 10.51172,-1.492188 0.21484,-1.089843 h -3.68359 l -0.83203,3.507812 0.16015,0.203125 c 0.1875,0 0.25782,0 0.60547,0.02734 1.85547,0.09375 2.90625,0.644531 2.90625,2.324219 0,1.398437 -0.84765,1.914062 -1.80468,1.914062 -0.85938,0 -1.30469,-0.660156 -1.83985,-0.660156 -0.33594,0 -0.53906,0.269531 -0.53906,0.578125 0,0.496094 0.51172,0.753906 1.54687,0.753906 2.13672,0 3.61719,-1.050781 3.61719,-3.121094 0,-2.113281 -1.65625,-2.746093 -3.24219,-2.863281 l -0.63281,-0.04297 0.36328,-1.53125 h 3.16016"
     id="path4" />
  <path
     d="M 0.397498,22.989521 C 1.8190205,20.001239 5.1421095,18.009052 9.8867224,18.009052 H 90.33898 c 4.744614,0 8.067711,-1.992188 9.489229,-4.984375 1.425251,2.992187 4.744611,4.984375 9.492941,4.984375 h 68.27551 c 4.74462,0 8.06771,1.992187 9.49295,4.980469"
     fill="none"
     stroke-width="0.797"
     stroke-linecap="round"
     stroke-linejoin="round"
     stroke="#55a4e0"
     stroke-miterlimit="10"
     id="path5"
     sodipodi:nodetypes="csscssc"
     style="stroke:#858585;stroke-opacity:1" />
  <path
     d="m 211.47243,22.989521 c 1.42416,-2.988282 4.74098,-4.980469 9.48196,-4.980469 h 68.45241 c 4.74098,0 8.06152,-1.992188 9.48196,-4.984375 1.42415,2.992187 4.74469,4.984375 9.48567,4.984375 h 80.16138 c 4.74098,0 8.06152,1.992187 9.48568,4.980469"
     fill="none"
     stroke-width="0.797"
     stroke-linecap="round"
     stroke-linejoin="round"
     stroke="#55a4e0"
     stroke-miterlimit="10"
     id="path7"
     sodipodi:nodetypes="csscssc"
     style="stroke:#858585;stroke-opacity:1" />
  <path
     d="m 1.3171765,71.68427 c 1.729501,2.988281 5.772552,4.980468 11.5451055,4.980468 h 26.286623 c 5.772552,0 9.815604,1.992188 11.545105,4.984374 1.73403,-2.992186 5.772554,-4.984374 11.549634,-4.984374 h 26.282093 c 5.77255,0 9.81561,-1.992187 11.545103,-4.980468"
     fill="none"
     stroke-width="0.797"
     stroke-linecap="round"
     stroke-linejoin="round"
     stroke="#55a4e0"
     stroke-miterlimit="10"
     id="path13"
     style="stroke:#858585;stroke-opacity:1" />
  <path
     d="m 102.02689,71.684278 c 1.78646,2.988281 5.94712,4.980469 11.89889,4.980469 h 23.68585 c 5.94712,0 10.11244,1.992187 11.89889,4.984375 1.78181,-2.992188 5.94713,-4.984375 11.89424,-4.984375 h 23.68586 c 5.94711,0 10.11242,-1.992188 11.89889,-4.980469"
     fill="none"
     stroke-width="0.797001"
     stroke-linecap="round"
     stroke-linejoin="round"
     stroke="#55a4e0"
     stroke-miterlimit="10"
     id="path17"
     style="stroke:#858585;stroke-opacity:1" />
  <path
     d="m 201.47751,71.68429 c 1.83648,2.988281 6.11362,4.980469 12.22723,4.980469 h 24.35381 c 6.11362,0 10.39555,1.992187 12.22723,4.984373 1.83649,-2.992186 6.11363,-4.984373 12.23205,-4.984373 h 24.349 c 6.11361,0 10.39555,-1.992188 12.22722,-4.980469"
     fill="none"
     stroke-width="0.797"
     stroke-linecap="round"
     stroke-linejoin="round"
     stroke="#55a4e0"
     stroke-miterlimit="10"
     id="path21"
     style="stroke:#858585;stroke-opacity:1" />
  <path
     d="m 301.67367,71.68429 c 1.69173,2.988281 5.63175,4.980469 11.26791,4.980469 h 25.64103 c 5.63176,0 9.57619,1.992187 11.26793,4.984373 1.68731,-2.992186 5.63174,-4.984373 11.2635,-4.984373 h 25.64103 c 5.63175,0 9.57619,-1.992188 11.26793,-4.980469"
     fill="none"
     stroke-width="0.797"
     stroke-linecap="round"
     stroke-linejoin="round"
     stroke="#55a4e0"
     stroke-miterlimit="10"
     id="path25"
     style="stroke:#858585;stroke-opacity:1" />
  <path
     d="m 111.16362,38.059833 c 0,-6.273437 -5.08593,-11.359375 -11.359363,-11.359375 -6.27344,0 -11.35938,5.085938 -11.35938,11.359375 0,6.273438 5.08594,11.359375 11.35938,11.359375 6.273433,0 11.359363,-5.085937 11.359363,-11.359375 z m 0,0"
     fill="none"
     stroke-width="0.797"
     stroke-linecap="round"
     stroke-linejoin="round"
     stroke="#55a4e0"
     stroke-miterlimit="10"
     id="path29"
     style="stroke:#800000;stroke-opacity:1;opacity:0.5" />
  <path
     d="m 309.97612,38.059833 c 0,-6.273437 -5.08593,-11.359375 -11.35937,-11.359375 -6.27344,0 -11.35938,5.085938 -11.35938,11.359375 0,6.273438 5.08594,11.359375 11.35938,11.359375 6.27344,0 11.35937,-5.085937 11.35937,-11.359375 z m 0,0"
     fill="none"
     stroke-width="0.797"
     stroke-linecap="round"
     stroke-linejoin="round"
     stroke="#55a4e0"
     stroke-miterlimit="10"
     id="path31"
     style="stroke:#800000;stroke-opacity:1;opacity:0.5" />
  <text
     xml:space="preserve"
     style="font-size:13.3499px;line-height:100%;font-family:'Roboto Mono';-inkscape-font-specification:'Roboto Mono';text-align:center;text-anchor:middle;fill:#858585;fill-opacity:1;stroke-width:2.26772;stroke-linecap:round"
     x="50.632175"
     y="94.278671"
     id="text32"><tspan
       sodipodi:role="line"
       id="tspan32"
       style="font-style:normal;font-variant:normal;font-weight:normal;font-stretch:normal;font-family:'Times New Roman';-inkscape-font-specification:'Times New Roman, ';fill:#858585;fill-opacity:1;stroke-width:2.26772"
       x="50.632175"
       y="94.278671">25%</tspan></text>
  <text
     xml:space="preserve"
     style="font-size:13.3499px;line-height:100%;font-family:'Roboto Mono';-inkscape-font-specification:'Roboto Mono';text-align:center;text-anchor:middle;fill:#858585;fill-opacity:1;stroke-width:2.26772;stroke-linecap:round"
     x="148.13234"
     y="94.278671"
     id="text33"><tspan
       sodipodi:role="line"
       id="tspan33"
       style="font-style:normal;font-variant:normal;font-weight:normal;font-stretch:normal;font-family:'Times New Roman';-inkscape-font-specification:'Times New Roman, ';fill:#858585;fill-opacity:1;stroke-width:2.26772"
       x="148.13234"
       y="94.278671">25%</tspan></text>
  <text
     xml:space="preserve"
     style="font-size:10.1343px;line-height:100%;font-family:'Roboto Mono';-inkscape-font-specification:'Roboto Mono';text-align:center;text-anchor:middle;fill:#55a4e0;fill-opacity:1;stroke-width:2.26772;stroke-linecap:round"
     x="231.12083"
     y="66.125053"
     id="text34"><tspan
       sodipodi:role="line"
       style="font-style:normal;font-variant:normal;font-weight:normal;font-stretch:normal;font-family:'Times New Roman';-inkscape-font-specification:'Times New Roman, ';fill:#800000;fill-opacity:1;stroke-width:2.26772"
       x="231.12083"
       y="66.125053"
       id="tspan39">Q<tspan
   style="font-size:6.58731px;baseline-shift:sub;fill:#800000;fill-opacity:1;stroke-width:2.26772"
   id="tspan50">2</tspan>=69 (=Median)</tspan></text>
  <text
     xml:space="preserve"
     style="font-size:13.3499px;line-height:100%;font-family:'Roboto Mono';-inkscape-font-specification:'Roboto Mono';text-align:center;text-anchor:middle;fill:#858585;fill-opacity:1;stroke-width:2.26772;stroke-linecap:round"
     x="254.63255"
     y="94.278671"
     id="text35"><tspan
       sodipodi:role="line"
       id="tspan35"
       style="font-style:normal;font-variant:normal;font-weight:normal;font-stretch:normal;font-family:'Times New Roman';-inkscape-font-specification:'Times New Roman, ';fill:#858585;fill-opacity:1;stroke-width:2.26772"
       x="254.63255"
       y="94.278671">25%</tspan></text>
  <text
     xml:space="preserve"
     style="font-size:13.3499px;line-height:100%;font-family:'Roboto Mono';-inkscape-font-specification:'Roboto Mono';text-align:center;text-anchor:middle;fill:#858585;fill-opacity:1;stroke-width:2.26772;stroke-linecap:round"
     x="352.13278"
     y="94.278671"
     id="text36"><tspan
       sodipodi:role="line"
       id="tspan36"
       style="font-style:normal;font-variant:normal;font-weight:normal;font-stretch:normal;font-family:'Times New Roman';-inkscape-font-specification:'Times New Roman, ';fill:#858585;fill-opacity:1;stroke-width:2.26772"
       x="352.13278"
       y="94.278671">25%</tspan></text>
  <text
     xml:space="preserve"
     style="font-size:12.1996px;line-height:100%;font-family:'Roboto Mono';-inkscape-font-specification:'Roboto Mono';text-align:center;text-anchor:middle;fill:#858585;fill-opacity:1;stroke-width:2.26772;stroke-linecap:round"
     x="101.09502"
     y="8.4706211"
     id="text37"><tspan
       sodipodi:role="line"
       id="tspan37"
       style="font-style:normal;font-variant:normal;font-weight:normal;font-stretch:normal;font-family:'Times New Roman';-inkscape-font-specification:'Times New Roman, ';fill:#858585;fill-opacity:1;stroke-width:2.26772"
       x="101.09502"
       y="8.4706211">Untere Hälfte (50%)</tspan></text>
  <text
     xml:space="preserve"
     style="font-size:12.1996px;line-height:100%;font-family:'Roboto Mono';-inkscape-font-specification:'Roboto Mono';text-align:center;text-anchor:middle;fill:#858585;fill-opacity:1;stroke-width:2.26772;stroke-linecap:round"
     x="297.5954"
     y="8.4706211"
     id="text38"><tspan
       sodipodi:role="line"
       id="tspan38"
       style="font-style:normal;font-variant:normal;font-weight:normal;font-stretch:normal;font-family:'Times New Roman';-inkscape-font-specification:'Times New Roman, ';fill:#858585;fill-opacity:1;stroke-width:2.26772"
       x="297.5954"
       y="8.4706211">Obere Hälfte (50%)</tspan></text>
  <text
     xml:space="preserve"
     style="font-size:13.9677px;line-height:100%;font-family:'Roboto Mono';-inkscape-font-specification:'Roboto Mono';text-align:center;text-anchor:middle;fill:#800000;fill-opacity:1;stroke-width:2.26772;stroke-linecap:round"
     x="103.48563"
     y="67.63868"
     id="text43"><tspan
       sodipodi:role="line"
       style="font-style:normal;font-variant:normal;font-weight:normal;font-stretch:normal;font-family:'Times New Roman';-inkscape-font-specification:'Times New Roman, ';fill:#800000;fill-opacity:1;stroke-width:2.26772"
       x="103.48563"
       y="67.63868"
       id="tspan43">Q<tspan
   style="font-size:9.07901px;baseline-shift:sub;fill:#800000;stroke-width:2.26772"
   id="tspan42">1</tspan></tspan></text>
  <text
     xml:space="preserve"
     style="font-size:13.9677px;line-height:100%;font-family:'Roboto Mono';-inkscape-font-specification:'Roboto Mono';text-align:center;text-anchor:middle;fill:#800000;fill-opacity:1;stroke-width:2.26772;stroke-linecap:round"
     x="301.48599"
     y="67.63868"
     id="text45"><tspan
       sodipodi:role="line"
       style="font-style:normal;font-variant:normal;font-weight:normal;font-stretch:normal;font-family:'Times New Roman';-inkscape-font-specification:'Times New Roman, ';fill:#800000;fill-opacity:1;stroke-width:2.26772"
       x="301.48599"
       y="67.63868"
       id="tspan45">Q<tspan
   style="font-size:9.07901px;baseline-shift:sub;fill:#800000;stroke-width:2.26772"
   id="tspan44">3</tspan></tspan></text>
  <text
     xml:space="preserve"
     style="font-size:13.3499px;line-height:100%;font-family:'Roboto Mono';-inkscape-font-specification:'Roboto Mono';text-align:center;text-anchor:middle;fill:#858585;fill-opacity:1;stroke-width:2.26772;stroke-linecap:round"
     x="50.632175"
     y="109.2787"
     id="text46"><tspan
       sodipodi:role="line"
       id="tspan46"
       style="font-style:normal;font-variant:normal;font-weight:normal;font-stretch:normal;font-family:'Times New Roman';-inkscape-font-specification:'Times New Roman, ';fill:#858585;fill-opacity:1;stroke-width:2.26772"
       x="50.632175"
       y="109.2787">1. Quartil</tspan></text>
  <text
     xml:space="preserve"
     style="font-size:13.3499px;line-height:100%;font-family:'Roboto Mono';-inkscape-font-specification:'Roboto Mono';text-align:center;text-anchor:middle;fill:#858585;fill-opacity:1;stroke-width:2.26772;stroke-linecap:round"
     x="148.13234"
     y="109.2787"
     id="text47"><tspan
       sodipodi:role="line"
       id="tspan47"
       style="font-style:normal;font-variant:normal;font-weight:normal;font-stretch:normal;font-family:'Times New Roman';-inkscape-font-specification:'Times New Roman, ';fill:#858585;fill-opacity:1;stroke-width:2.26772"
       x="148.13234"
       y="109.2787">2. Quartil</tspan></text>
  <text
     xml:space="preserve"
     style="font-size:13.3499px;line-height:100%;font-family:'Roboto Mono';-inkscape-font-specification:'Roboto Mono';text-align:center;text-anchor:middle;fill:#858585;fill-opacity:1;stroke-width:2.26772;stroke-linecap:round"
     x="254.63255"
     y="109.2787"
     id="text48"><tspan
       sodipodi:role="line"
       id="tspan48"
       style="font-style:normal;font-variant:normal;font-weight:normal;font-stretch:normal;font-family:'Times New Roman';-inkscape-font-specification:'Times New Roman, ';fill:#858585;fill-opacity:1;stroke-width:2.26772"
       x="254.63255"
       y="109.2787">3. Quartil</tspan></text>
  <text
     xml:space="preserve"
     style="font-size:13.3499px;line-height:100%;font-family:'Roboto Mono';-inkscape-font-specification:'Roboto Mono';text-align:center;text-anchor:middle;fill:#858585;fill-opacity:1;stroke-width:2.26772;stroke-linecap:round"
     x="352.13278"
     y="109.2787"
     id="text49"><tspan
       sodipodi:role="line"
       id="tspan49"
       style="font-style:normal;font-variant:normal;font-weight:normal;font-stretch:normal;font-family:'Times New Roman';-inkscape-font-specification:'Times New Roman, ';fill:#858585;fill-opacity:1;stroke-width:2.26772"
       x="352.13278"
       y="109.2787">4. Quartil</tspan></text>
  <path
     style="opacity:0.5;fill:#800000;fill-opacity:1;stroke:#800000;stroke-width:1.125;stroke-linecap:round;stroke-dasharray:1.125, 3.37502;stroke-dashoffset:0;stroke-opacity:1"
     d="M 99.97045,18.880477 V 57.997389"
     id="path50" />
  <path
     d="m 199.2105,47.583815 h 2.72232 V 27.117883 h -2.72232 z m 0,0"
     fill="#b4ddb5"
     id="path52"
     style="stroke-width:0.999997" />
  <path
     d="m 195.98891,47.583815 h 3.22159 V 27.117776 h -3.22159 z m 0,0"
     fill="#b0d5ef"
     id="path53"
     style="stroke-width:1;fill:#ffc979;fill-opacity:1" />
  <path
     style="opacity:0.5;fill:#800000;fill-opacity:1;stroke:#800000;stroke-width:1.125;stroke-linecap:round;stroke-dasharray:1.125, 3.37502;stroke-dashoffset:0;stroke-opacity:1"
     d="M 199.15213,19.100395 V 55.949347"
     id="path51" />
  <path
     style="opacity:0.5;fill:#800000;fill-opacity:1;stroke:#800000;stroke-width:1.125;stroke-linecap:round;stroke-dasharray:1.125, 3.37502;stroke-dashoffset:0;stroke-opacity:1"
     d="M 298.61329,19.055335 V 59.20664"
     id="path54" />
  <rect
     style="opacity:0.746885;fill:#ffffff;fill-opacity:0.977646;stroke:none;stroke-width:2.25;stroke-linecap:square;stroke-dasharray:none;stroke-dashoffset:0;stroke-opacity:0.999916"
     id="rect59"
     width="21.661293"
     height="10.971833"
     x="188.90833"
     y="12.633794" />
  <text
     xml:space="preserve"
     style="font-size:12.1996px;line-height:100%;font-family:'Roboto Mono';-inkscape-font-specification:'Roboto Mono';text-align:center;text-anchor:middle;fill:#189bff;fill-opacity:0.988235;stroke-width:2.26772;stroke-linecap:round"
     x="199.39433"
     y="21.863434"
     id="text54"><tspan
       sodipodi:role="line"
       id="tspan54"
       style="font-style:normal;font-variant:normal;font-weight:bold;font-stretch:normal;font-family:'Roboto Mono';-inkscape-font-specification:'Roboto Mono';fill:#189bff;fill-opacity:0.988235;stroke-width:2.26772"
       x="199.39433"
       y="21.863434">IQR</tspan></text>
  <path
     style="opacity:1;fill:none;fill-opacity:0.988235;stroke:#189bff;stroke-width:2.25001;stroke-linecap:square;stroke-dasharray:none;stroke-dashoffset:0;stroke-opacity:0.999916"
     d="M 104.20047,24.604406 H 293.87739"
     id="path55" />
  <path
     sodipodi:type="star"
     style="opacity:1;fill:#189bff;fill-opacity:0.97764611;stroke:none;stroke-width:0.687171;stroke-linecap:square;stroke-dasharray:none;stroke-dashoffset:0;stroke-opacity:1"
     id="path58"
     inkscape:flatsided="false"
     sodipodi:sides="3"
     sodipodi:cx="136.03461"
     sodipodi:cy="-18.529633"
     sodipodi:r1="0.61251432"
     sodipodi:r2="1.2250286"
     sodipodi:arg1="0.52359878"
     sodipodi:arg2="1.5707963"
     inkscape:rounded="0"
     inkscape:randomized="0"
     d="m 136.56506,-18.223375 -0.53045,0.918771 -0.53046,-0.918771 -0.53045,-0.918772 1.06091,0 1.0609,0 z"
     transform="matrix(2.5117313,-2.0814349,1.4452563,1.2033046,-210.97358,329.69931)"
     inkscape:transform-center-y="-1.4726134"
     inkscape:transform-center-x="1.7704895" />
  <path
     sodipodi:type="star"
     style="opacity:1;fill:#189bff;fill-opacity:0.977646;stroke:none;stroke-width:0.687171;stroke-linecap:square;stroke-dasharray:none;stroke-dashoffset:0;stroke-opacity:1"
     id="path59"
     inkscape:flatsided="false"
     sodipodi:sides="3"
     sodipodi:cx="136.03461"
     sodipodi:cy="-18.529633"
     sodipodi:r1="0.61251432"
     sodipodi:r2="1.2250286"
     sodipodi:arg1="0.52359878"
     sodipodi:arg2="1.5707963"
     inkscape:rounded="0"
     inkscape:randomized="0"
     d="m 136.56506,-18.223375 -0.53045,0.918771 -0.53046,-0.918771 -0.53045,-0.918772 1.06091,0 1.0609,0 z"
     transform="matrix(-2.5117313,-2.0814349,-1.4452563,1.2033046,609.60192,329.69931)"
     inkscape:transform-center-y="-1.4726134"
     inkscape:transform-center-x="-1.7704891" />
</svg>
