<?xml version="1.0" encoding="UTF-8" standalone="no"?>
<svg
   width="359.00293pt"
   height="240.77094pt"
   viewBox="0 0 359.00293 240.77094"
   version="1.1"
   id="svg50"
   sodipodi:docname="IQ_blond_brunette_means_sds_extended.svg"
   inkscape:version="1.3-alpha (1:1.2.0-alpha1+devel+202304091641+e205916a96)"
   xmlns:inkscape="http://www.inkscape.org/namespaces/inkscape"
   xmlns:sodipodi="http://sodipodi.sourceforge.net/DTD/sodipodi-0.dtd"
   xmlns:xlink="http://www.w3.org/1999/xlink"
   xmlns="http://www.w3.org/2000/svg"
   xmlns:svg="http://www.w3.org/2000/svg"
   xmlns:rdf="http://www.w3.org/1999/02/22-rdf-syntax-ns#"
   xmlns:cc="http://creativecommons.org/ns#"
   xmlns:dc="http://purl.org/dc/elements/1.1/">
  <sodipodi:namedview
     id="namedview50"
     pagecolor="#ffffff"
     bordercolor="#000000"
     borderopacity="0.25"
     inkscape:showpageshadow="2"
     inkscape:pageopacity="0.0"
     inkscape:pagecheckerboard="0"
     inkscape:deskcolor="#d1d1d1"
     inkscape:document-units="pt"
     inkscape:zoom="4"
     inkscape:cx="285"
     inkscape:cy="55.125"
     inkscape:window-width="2560"
     inkscape:window-height="1367"
     inkscape:window-x="0"
     inkscape:window-y="0"
     inkscape:window-maximized="1"
     inkscape:current-layer="svg50" />
  <metadata
     id="metadata1">
    <rdf:RDF>
      <cc:Work>
        <dc:type
           rdf:resource="http://purl.org/dc/dcmitype/StillImage" />
        <dc:date>2023-08-08T16:43:44.416714</dc:date>
        <dc:format>image/svg+xml</dc:format>
        <dc:creator>
          <cc:Agent>
            <dc:title>Matplotlib v3.7.2, https://matplotlib.org/</dc:title>
          </cc:Agent>
        </dc:creator>
      </cc:Work>
    </rdf:RDF>
  </metadata>
  <defs
     id="defs1">
    <style
       type="text/css"
       id="style1">*{stroke-linejoin: round; stroke-linecap: butt}</style>
  </defs>
  <g
     id="patch_3"
     transform="translate(-7.4648435,-6.8)">
    <path
       d="M 65.140028,228.96 H 132.77639 V 74.358832 H 65.140028 Z"
       clip-path="url(#pa4447e9323)"
       style="fill:#c6c600"
       id="path3" />
  </g>
  <g
     id="patch_4"
     transform="translate(61.535156,-6.8)">
    <path
       d="m 149.68548,228.96 h 67.63637 V 58.085025 h -67.63637 z"
       clip-path="url(#pa4447e9323)"
       style="fill:#4a2500"
       id="path4" />
  </g>
  <g
     id="xtick_1"
     transform="translate(-7.4648435,-6.8)">
    <g
       id="line2d_1">
      <defs
         id="defs4">
        <path
           id="m72bbb94c6e"
           d="M 0,0 V 3.5"
           style="stroke:#000000;stroke-width:0.8" />
      </defs>
      <g
         id="g4">
        <use
           xlink:href="#m72bbb94c6e"
           x="98.958214"
           y="228.96001"
           style="stroke:#000000;stroke-width:0.8"
           id="use4" />
      </g>
    </g>
    <g
       id="text_1">
      <!-- Blond -->
      <g
         transform="matrix(0.15,0,0,-0.15,77.625398,247.35766)"
         id="g9">
        <defs
           id="defs5">
          <path
             id="DejaVuSans-42"
             d="M 1259,2228 V 519 h 1013 q 509,0 754,211 246,211 246,645 0,438 -246,645 -245,208 -754,208 z m 0,1919 V 2741 h 935 q 462,0 688,173 227,174 227,530 0,353 -227,528 -226,175 -688,175 z m -631,519 h 1613 q 722,0 1112,-300 391,-300 391,-853 0,-429 -200,-682 -200,-253 -588,-315 466,-100 724,-418 258,-317 258,-792 0,-625 -425,-966 Q 3088,0 2303,0 H 628 Z"
             transform="scale(0.015625)" />
          <path
             id="DejaVuSans-6c"
             d="m 603,4863 h 575 V 0 H 603 Z"
             transform="scale(0.015625)" />
          <path
             id="DejaVuSans-6f"
             d="m 1959,3097 q -462,0 -731,-361 -269,-361 -269,-989 0,-628 267,-989 268,-361 733,-361 460,0 728,362 269,363 269,988 0,622 -269,986 -268,364 -728,364 z m 0,487 q 750,0 1178,-488 429,-487 429,-1349 Q 3566,888 3137,398 2709,-91 1959,-91 1206,-91 779,398 353,888 353,1747 q 0,862 426,1349 427,488 1180,488 z"
             transform="scale(0.015625)" />
          <path
             id="DejaVuSans-6e"
             d="M 3513,2113 V 0 h -575 v 2094 q 0,497 -194,743 -194,247 -581,247 -466,0 -735,-297 -269,-296 -269,-809 V 0 H 581 v 3500 h 578 v -544 q 207,316 486,472 280,156 646,156 603,0 912,-373 310,-373 310,-1098 z"
             transform="scale(0.015625)" />
          <path
             id="DejaVuSans-64"
             d="m 2906,2969 v 1894 h 575 V 0 H 2906 V 525 Q 2725,213 2448,61 2172,-91 1784,-91 1150,-91 751,415 353,922 353,1747 q 0,825 398,1331 399,506 1033,506 388,0 664,-152 277,-151 458,-463 z M 947,1747 q 0,-634 261,-995 261,-361 717,-361 456,0 718,361 263,361 263,995 0,634 -263,995 -262,361 -718,361 -456,0 -717,-361 -261,-361 -261,-995 z"
             transform="scale(0.015625)" />
        </defs>
        <use
           xlink:href="#DejaVuSans-42"
           id="use5" />
        <use
           xlink:href="#DejaVuSans-6c"
           x="68.603516"
           id="use6" />
        <use
           xlink:href="#DejaVuSans-6f"
           x="96.386719"
           id="use7" />
        <use
           xlink:href="#DejaVuSans-6e"
           x="157.56836"
           id="use8" />
        <use
           xlink:href="#DejaVuSans-64"
           x="220.94727"
           id="use9" />
      </g>
    </g>
  </g>
  <g
     id="xtick_2"
     transform="translate(60.978219,-6.8)">
    <g
       id="line2d_2">
      <g
         id="g10">
        <use
           xlink:href="#m72bbb94c6e"
           x="183.50366"
           y="228.96001"
           style="stroke:#000000;stroke-width:0.8"
           id="use10" />
      </g>
    </g>
    <g
       id="text_2">
      <!-- Brünett -->
      <g
         transform="matrix(0.15,0,0,-0.15,155.2732,247.35766)"
         id="g17">
        <defs
           id="defs10">
          <path
             id="DejaVuSans-72"
             d="m 2631,2963 q -97,56 -211,82 -114,27 -251,27 -488,0 -749,-317 -261,-317 -261,-911 V 0 H 581 v 3500 h 578 v -544 q 182,319 472,473 291,155 707,155 59,0 131,-8 72,-7 159,-23 z"
             transform="scale(0.015625)" />
          <path
             id="DejaVuSans-fc"
             d="m 544,1381 v 2119 h 575 V 1403 q 0,-497 193,-746 194,-248 582,-248 465,0 735,297 271,297 271,810 v 1984 h 575 V 0 H 2900 V 538 Q 2691,219 2414,64 2138,-91 1772,-91 1169,-91 856,284 544,659 544,1381 Z m 1447,2203 z m 287,1266 h 634 v -631 h -634 z m -1222,0 h 634 v -631 h -634 z"
             transform="scale(0.015625)" />
          <path
             id="DejaVuSans-65"
             d="M 3597,1894 V 1613 H 953 q 38,-594 358,-905 320,-311 892,-311 331,0 642,81 311,81 618,244 V 178 Q 3153,47 2828,-22 2503,-91 2169,-91 1331,-91 842,396 353,884 353,1716 q 0,859 464,1363 464,505 1252,505 706,0 1117,-455 411,-454 411,-1235 z m -575,169 q -6,471 -264,752 -258,282 -683,282 -481,0 -770,-272 -289,-272 -333,-766 z"
             transform="scale(0.015625)" />
          <path
             id="DejaVuSans-74"
             d="M 1172,4494 V 3500 H 2356 V 3053 H 1172 V 1153 q 0,-428 117,-550 117,-122 477,-122 h 590 V 0 H 1766 Q 1100,0 847,248 594,497 594,1153 V 3053 H 172 v 447 h 422 v 994 z"
             transform="scale(0.015625)" />
        </defs>
        <use
           xlink:href="#DejaVuSans-42"
           id="use11" />
        <use
           xlink:href="#DejaVuSans-72"
           x="68.603516"
           id="use12" />
        <use
           xlink:href="#DejaVuSans-fc"
           x="109.7168"
           id="use13" />
        <use
           xlink:href="#DejaVuSans-6e"
           x="173.0957"
           id="use14" />
        <use
           xlink:href="#DejaVuSans-65"
           x="236.47461"
           id="use15" />
        <use
           xlink:href="#DejaVuSans-74"
           x="297.99805"
           id="use16" />
        <use
           xlink:href="#DejaVuSans-74"
           x="337.20703"
           id="use17" />
      </g>
    </g>
  </g>
  <g
     id="matplotlib.axis_2"
     transform="translate(-7.4648435,-6.8)">
    <g
       id="ytick_1">
      <g
         id="line2d_3">
        <defs
           id="defs17">
          <path
             id="m360333a8e1"
             d="M 0,0 H -3.5"
             style="stroke:#000000;stroke-width:0.8" />
        </defs>
        <g
           id="g18">
          <use
             xlink:href="#m360333a8e1"
             x="57.530937"
             y="228.96001"
             style="stroke:#000000;stroke-width:0.8"
             id="use18" />
        </g>
      </g>
      <g
         id="text_3">
        <!-- 0 -->
        <g
           transform="matrix(0.13,0,0,-0.13,42.259687,233.89898)"
           id="g19">
          <defs
             id="defs18">
            <path
               id="DejaVuSans-30"
               d="m 2034,4250 q -487,0 -733,-480 -245,-479 -245,-1442 0,-959 245,-1439 246,-480 733,-480 491,0 736,480 246,480 246,1439 0,963 -246,1442 -245,480 -736,480 z m 0,500 q 785,0 1199,-621 414,-620 414,-1801 0,-1178 -414,-1799 -414,-620 -1199,-620 -784,0 -1198,620 -414,621 -414,1799 0,1181 414,1801 414,621 1198,621 z"
               transform="scale(0.015625)" />
          </defs>
          <use
             xlink:href="#DejaVuSans-30"
             id="use19" />
        </g>
      </g>
    </g>
    <g
       id="ytick_2">
      <g
         id="line2d_4">
        <g
           id="g20">
          <use
             xlink:href="#m360333a8e1"
             x="57.530937"
             y="196.41238"
             style="stroke:#000000;stroke-width:0.8"
             id="use20" />
        </g>
      </g>
      <g
         id="text_4">
        <!-- 20 -->
        <g
           transform="matrix(0.13,0,0,-0.13,33.988438,201.35137)"
           id="g22">
          <defs
             id="defs20">
            <path
               id="DejaVuSans-32"
               d="M 1228,531 H 3431 V 0 H 469 v 531 q 359,372 979,998 621,627 780,809 303,340 423,576 121,236 121,464 0,372 -261,606 -261,235 -680,235 -297,0 -627,-103 -329,-103 -704,-313 v 638 q 381,153 712,231 332,78 607,78 725,0 1156,-363 431,-362 431,-968 0,-288 -108,-546 -107,-257 -392,-607 -78,-91 -497,-524 Q 1991,1309 1228,531 Z"
               transform="scale(0.015625)" />
          </defs>
          <use
             xlink:href="#DejaVuSans-32"
             id="use21" />
          <use
             xlink:href="#DejaVuSans-30"
             x="63.623047"
             id="use22" />
        </g>
      </g>
    </g>
    <g
       id="ytick_3">
      <g
         id="line2d_5">
        <g
           id="g23">
          <use
             xlink:href="#m360333a8e1"
             x="57.530937"
             y="163.86478"
             style="stroke:#000000;stroke-width:0.8"
             id="use23" />
        </g>
      </g>
      <g
         id="text_5">
        <!-- 40 -->
        <g
           transform="matrix(0.13,0,0,-0.13,33.988438,168.80376)"
           id="g25">
          <defs
             id="defs23">
            <path
               id="DejaVuSans-34"
               d="M 2419,4116 825,1625 h 1594 z m -166,550 h 794 V 1625 h 666 V 1100 H 3047 V 0 H 2419 V 1100 H 313 v 609 z"
               transform="scale(0.015625)" />
          </defs>
          <use
             xlink:href="#DejaVuSans-34"
             id="use24" />
          <use
             xlink:href="#DejaVuSans-30"
             x="63.623047"
             id="use25" />
        </g>
      </g>
    </g>
    <g
       id="ytick_4">
      <g
         id="line2d_6">
        <g
           id="g26">
          <use
             xlink:href="#m360333a8e1"
             x="57.530937"
             y="131.31715"
             style="stroke:#000000;stroke-width:0.8"
             id="use26" />
        </g>
      </g>
      <g
         id="text_6">
        <!-- 60 -->
        <g
           transform="matrix(0.13,0,0,-0.13,33.988438,136.25614)"
           id="g28">
          <defs
             id="defs26">
            <path
               id="DejaVuSans-36"
               d="m 2113,2584 q -425,0 -674,-291 -248,-290 -248,-796 0,-503 248,-796 249,-292 674,-292 425,0 673,292 248,293 248,796 0,506 -248,796 -248,291 -673,291 z m 1253,1979 v -575 q -238,112 -480,171 -242,60 -480,60 -625,0 -955,-422 -329,-422 -376,-1275 184,272 462,417 279,145 613,145 703,0 1111,-427 408,-426 408,-1160 0,-719 -425,-1154 -425,-434 -1131,-434 -810,0 -1238,620 -428,621 -428,1799 0,1106 525,1764 525,658 1409,658 238,0 480,-47 242,-47 505,-140 z"
               transform="scale(0.015625)" />
          </defs>
          <use
             xlink:href="#DejaVuSans-36"
             id="use27" />
          <use
             xlink:href="#DejaVuSans-30"
             x="63.623047"
             id="use28" />
        </g>
      </g>
    </g>
    <g
       id="ytick_5">
      <g
         id="line2d_7">
        <g
           id="g29">
          <use
             xlink:href="#m360333a8e1"
             x="57.530937"
             y="98.769547"
             style="stroke:#000000;stroke-width:0.8"
             id="use29" />
        </g>
      </g>
      <g
         id="text_7">
        <!-- 80 -->
        <g
           transform="matrix(0.13,0,0,-0.13,33.988438,103.70853)"
           id="g31">
          <defs
             id="defs29">
            <path
               id="DejaVuSans-38"
               d="m 2034,2216 q -450,0 -708,-241 -257,-241 -257,-662 0,-422 257,-663 258,-241 708,-241 450,0 709,242 260,243 260,662 0,421 -258,662 -257,241 -711,241 z m -631,268 q -406,100 -633,378 -226,279 -226,679 0,559 398,884 399,325 1092,325 697,0 1094,-325 397,-325 397,-884 0,-400 -227,-679 -226,-278 -629,-378 456,-106 710,-416 255,-309 255,-755 Q 3634,634 3220,271 2806,-91 2034,-91 1263,-91 848,271 434,634 434,1313 q 0,446 256,755 257,310 713,416 z m -231,997 q 0,-362 226,-565 227,-203 636,-203 407,0 636,203 230,203 230,565 0,363 -230,566 -229,203 -636,203 -409,0 -636,-203 -226,-203 -226,-566 z"
               transform="scale(0.015625)" />
          </defs>
          <use
             xlink:href="#DejaVuSans-38"
             id="use30" />
          <use
             xlink:href="#DejaVuSans-30"
             x="63.623047"
             id="use31" />
        </g>
      </g>
    </g>
    <g
       id="ytick_6">
      <g
         id="line2d_8">
        <g
           id="g32">
          <use
             xlink:href="#m360333a8e1"
             x="57.530937"
             y="66.221931"
             style="stroke:#000000;stroke-width:0.8"
             id="use32" />
        </g>
      </g>
      <g
         id="text_8">
        <!-- 100 -->
        <g
           transform="matrix(0.13,0,0,-0.13,25.717187,71.160913)"
           id="g35">
          <defs
             id="defs32">
            <path
               id="DejaVuSans-31"
               d="M 794,531 H 1825 V 4091 L 703,3866 v 575 l 1116,225 h 631 V 531 H 3481 V 0 H 794 Z"
               transform="scale(0.015625)" />
          </defs>
          <use
             xlink:href="#DejaVuSans-31"
             id="use33" />
          <use
             xlink:href="#DejaVuSans-30"
             x="63.623047"
             id="use34" />
          <use
             xlink:href="#DejaVuSans-30"
             x="127.24609"
             id="use35" />
        </g>
      </g>
    </g>
    <g
       id="ytick_7">
      <g
         id="line2d_9">
        <g
           id="g36">
          <use
             xlink:href="#m360333a8e1"
             x="57.530937"
             y="33.674313"
             style="stroke:#000000;stroke-width:0.8"
             id="use36" />
        </g>
      </g>
      <g
         id="text_9">
        <!-- 120 -->
        <g
           transform="matrix(0.13,0,0,-0.13,25.717187,38.613298)"
           id="g39">
          <use
             xlink:href="#DejaVuSans-31"
             id="use37" />
          <use
             xlink:href="#DejaVuSans-32"
             x="63.623047"
             id="use38" />
          <use
             xlink:href="#DejaVuSans-30"
             x="127.24609"
             id="use39" />
        </g>
      </g>
    </g>
    <g
       id="text_10">
      <!-- IQ -->
      <g
         transform="matrix(0,-0.15,-0.15,0,18.597656,126.19641)"
         id="g41">
        <defs
           id="defs39">
          <path
             id="DejaVuSans-49"
             d="m 628,4666 h 631 V 0 H 628 Z"
             transform="scale(0.015625)" />
          <path
             id="DejaVuSans-51"
             d="m 2522,4238 q -688,0 -1093,-513 -404,-512 -404,-1397 0,-881 404,-1394 405,-512 1093,-512 687,0 1089,512 402,513 402,1394 0,885 -402,1397 -402,513 -1089,513 z M 3406,84 4238,-825 h -763 l -691,747 q -103,-6 -158,-9 -54,-4 -104,-4 -984,0 -1574,658 -589,658 -589,1761 0,1106 589,1764 590,658 1574,658 981,0 1568,-658 588,-658 588,-1764 0,-812 -327,-1391 Q 4025,359 3406,84 Z"
             transform="scale(0.015625)" />
        </defs>
        <use
           xlink:href="#DejaVuSans-49"
           id="use40" />
        <use
           xlink:href="#DejaVuSans-51"
           x="29.492188"
           id="use41" />
      </g>
    </g>
  </g>
  <g
     id="LineCollection_1"
     transform="translate(-7.4648435,-6.8)">
    <path
       d="M 98.95821,116.01806 V 32.699601"
       clip-path="url(#pa4447e9323)"
       style="fill:none;stroke:#000000;stroke-width:2"
       id="path41" />
  </g>
  <g
     id="line2d_10"
     transform="translate(-7.4648435,-6.8)">
    <defs
       id="defs41">
      <path
         id="mf9b0bdf8c3"
         d="M 10,0 H -10"
         style="stroke:#000000;stroke-width:2" />
    </defs>
    <g
       clip-path="url(#pa4447e9323)"
       id="g42">
      <use
         xlink:href="#mf9b0bdf8c3"
         x="98.958214"
         y="116.01806"
         style="stroke:#000000;stroke-width:2"
         id="use42" />
    </g>
  </g>
  <g
     id="line2d_11"
     transform="translate(-7.4648435,-6.8)">
    <g
       clip-path="url(#pa4447e9323)"
       id="g43">
      <use
         xlink:href="#mf9b0bdf8c3"
         x="98.958214"
         y="32.6996"
         style="stroke:#000000;stroke-width:2"
         id="use43" />
    </g>
  </g>
  <g
     id="LineCollection_2"
     transform="translate(61.535156,-6.8)">
    <path
       d="M 183.50366,98.410049 V 17.76"
       clip-path="url(#pa4447e9323)"
       style="fill:none;stroke:#000000;stroke-width:2"
       id="path43" />
  </g>
  <g
     id="line2d_12"
     transform="translate(61.535156,-6.8)">
    <g
       clip-path="url(#pa4447e9323)"
       id="g44">
      <use
         xlink:href="#mf9b0bdf8c3"
         x="183.50366"
         y="98.410049"
         style="stroke:#000000;stroke-width:2"
         id="use44" />
    </g>
  </g>
  <g
     id="line2d_13"
     transform="translate(61.535156,-6.8)">
    <g
       clip-path="url(#pa4447e9323)"
       id="g45">
      <use
         xlink:href="#mf9b0bdf8c3"
         x="183.50366"
         y="17.76"
         style="stroke:#000000;stroke-width:2"
         id="use45" />
    </g>
  </g>
  <g
     id="line2d_14"
     transform="translate(-7.4648435,-6.8)">
    <defs
       id="defs45">
      <path
         id="mff338efb26"
         d="M 0,1 C 0.265203,1 0.51958,0.894634 0.707107,0.707107 0.894634,0.51958 1,0.265203 1,0 1,-0.265203 0.894634,-0.51958 0.707107,-0.707107 0.51958,-0.894634 0.265203,-1 0,-1 -0.265203,-1 -0.51958,-0.894634 -0.707107,-0.707107 -0.894634,-0.51958 -1,-0.265203 -1,0 -1,0.265203 -0.894634,0.51958 -0.707107,0.707107 -0.51958,0.894634 -0.265203,1 0,1 Z"
         style="stroke:#000000" />
    </defs>
    <g
       clip-path="url(#pa4447e9323)"
       id="g46">
      <use
         xlink:href="#mff338efb26"
         x="98.958214"
         y="74.358833"
         style="stroke:#000000"
         id="use46" />
    </g>
  </g>
  <g
     id="line2d_15"
     transform="translate(61.535156,-6.8)">
    <g
       clip-path="url(#pa4447e9323)"
       id="g47">
      <use
         xlink:href="#mff338efb26"
         x="183.50366"
         y="58.085026"
         style="stroke:#000000"
         id="use47" />
    </g>
  </g>
  <g
     id="patch_5"
     transform="translate(-7.4648435,-6.8)">
    <path
       d="M 57.530938,228.96 V 7.2"
       style="fill:none;stroke:#000000;stroke-width:0.8;stroke-linecap:square;stroke-linejoin:miter"
       id="path47" />
  </g>
  <g
     id="patch_6"
     transform="matrix(1,0,0,0.99871256,133.672,-6.650499)">
    <path
       d="M 224.93094,228.96 V 7.2"
       style="fill:none;stroke:#000000;stroke-width:0.8;stroke-linecap:square;stroke-linejoin:miter"
       id="path48" />
  </g>
  <g
     id="patch_7"
     transform="matrix(1.8354002,0,0,0.99872291,-55.359794,-6.6492008)">
    <path
       d="M 57.530937,228.96 H 224.93094"
       style="fill:none;stroke:#000000;stroke-width:0.8;stroke-linecap:square;stroke-linejoin:miter"
       id="path49" />
  </g>
  <g
     id="patch_8"
     transform="matrix(1.8354002,0,0,0.99872291,-55.359794,-6.6492008)">
    <path
       d="M 57.530937,7.2 H 224.93094"
       style="fill:none;stroke:#000000;stroke-width:0.8;stroke-linecap:square;stroke-linejoin:miter"
       id="path50" />
  </g>
  <defs
     id="defs50">
    <clipPath
       id="pa4447e9323">
      <rect
         x="57.530937"
         y="7.1999998"
         width="167.39999"
         height="221.75999"
         id="rect50" />
    </clipPath>
  </defs>
  <g
     id="page1"
     transform="matrix(-3.5920659,0,0,3.4229642,514.43222,-184.51506)"
     style="font-size:40px;line-height:0%;font-family:Calibri;-inkscape-font-specification:'Calibri, Normal';text-align:end;text-anchor:end;stroke-width:2.83465;fill:#666666;fill-opacity:1">
    <path
       d="m 59.79661,58.377063 c 0,-0.47821 0.31084,-1.24334 1.61395,-1.32702 0.05978,-0.01196 0.1076,-0.05978 0.1076,-0.13151 0,-0.13151 -0.09564,-0.13151 -0.22715,-0.13151 -1.19552,0 -2.28344,0.60972 -2.29539,1.4944 v 2.72578 c 0,0.46625 0,0.84882 -0.47821,1.24334 -0.41843,0.3467 -0.87273,0.37061 -1.135741,0.38256 -0.05978,0.01196 -0.107597,0.05978 -0.107597,0.13151 0,0.11955 0.07173,0.11955 0.191278,0.1315 0.78905,0.04783 1.36289,0.47821 1.4944,1.06401 0.03587,0.13151 0.03587,0.15542 0.03587,0.58581 v 2.36712 c 0,0.50212 0,0.88468 0.57384,1.33898 0.46626,0.35866 1.2553,0.49016 1.72155,0.49016 0.13151,0 0.22715,0 0.22715,-0.1315 0,-0.11956 -0.07173,-0.11956 -0.19129,-0.13151 -0.75317,-0.04782 -1.33897,-0.43039 -1.49439,-1.0401 -0.03587,-0.1076 -0.03587,-0.13151 -0.03587,-0.56189 v -2.51059 c 0,-0.54994 -0.09564,-0.75318 -0.4782,-1.13574 -0.25106,-0.25106 -0.59776,-0.37061 -0.93251,-0.46625 0.98033,-0.27497 1.41071,-0.82491 1.41071,-1.51831 z"
       id="use1"
       style="fill:#666666;fill-opacity:1" />
  </g>
  <path
     style="font-size:40px;line-height:0%;font-family:Calibri;-inkscape-font-specification:'Calibri, Normal';text-align:end;text-anchor:end;fill:#000000;stroke-width:0.999997;stroke-linecap:round;stroke-dasharray:none"
     d="m 246.95581,51.196745 h 44.33544"
     id="path51" />
  <path
     style="font-size:40px;line-height:0%;font-family:Calibri;-inkscape-font-specification:'Calibri, Normal';text-align:end;text-anchor:end;fill:none;stroke:#666666;stroke-width:1.16123;stroke-linecap:round;stroke-dasharray:2.32248, 2.32248;stroke-dashoffset:0;stroke-opacity:1"
     d="m 247.3905,50.999457 h 59.99736"
     id="path52" />
  <path
     style="font-size:40px;line-height:0%;font-family:Calibri;-inkscape-font-specification:'Calibri, Normal';text-align:end;text-anchor:end;fill:#666666;stroke:#666666;stroke-width:0.915743;stroke-linecap:round;stroke-dasharray:1.83149, 1.83149;stroke-dashoffset:0;stroke-opacity:1"
     d="m 254.82178,10.513667 h 37.31096"
     id="path53" />
  <text
     xml:space="preserve"
     style="font-size:18.8594px;line-height:0%;font-family:Calibri;-inkscape-font-specification:'Calibri, Normal';text-align:end;text-anchor:end;fill:#666666;stroke:#000000;stroke-width:0.471484;stroke-linecap:round;stroke-dasharray:none;stroke-dashoffset:0;stroke-opacity:1"
     x="353.48999"
     y="35.477581"
     id="text53"><tspan
       sodipodi:role="line"
       id="tspan53"
       style="fill:#666666;fill-opacity:1;stroke:none;stroke-width:0.471486;stroke-dasharray:none;stroke-opacity:1"
       x="353.48999"
       y="35.477581">+1 SD</tspan></text>
  <path
     d="m 299.63886,56.585927 c 0,-1.636481 -1.11656,-4.254829 -5.79742,-4.54119 -0.21473,-0.04093 -0.3865,-0.204573 -0.3865,-0.45004 0,-0.45004 0.34354,-0.45004 0.81593,-0.45004 4.29439,0 8.20227,2.086521 8.2452,5.113981 v 9.327882 c 0,1.595552 0,2.904744 1.71776,4.254829 1.50303,1.186441 3.1349,1.268263 4.07965,1.309157 0.21474,0.04093 0.3865,0.204573 0.3865,0.45004 0,0.409112 -0.25766,0.409112 -0.68708,0.450006 -2.83432,0.163679 -4.89559,1.636481 -5.36799,3.641145 -0.12884,0.45004 -0.12884,0.531862 -0.12884,2.004698 v 8.100513 c 0,1.718303 0,3.02746 -2.06128,4.582118 -1.67483,1.22737 -4.50912,1.677375 -6.18392,1.677375 -0.47239,0 -0.81593,0 -0.81593,-0.450005 0,-0.409146 0.25765,-0.409146 0.68712,-0.45004 2.70544,-0.163645 4.80967,-1.472836 5.36795,-3.559323 0.12885,-0.368217 0.12885,-0.45004 0.12885,-1.922842 V 77.08271 c 0,-1.881947 0.34354,-2.577454 1.71772,-3.886611 0.90183,-0.859152 2.1472,-1.268264 3.34964,-1.595553 -3.52141,-0.940974 -5.06736,-2.822921 -5.06736,-5.195803 z"
     id="path62"
     style="font-size:40px;line-height:0%;font-family:Calibri;-inkscape-font-specification:'Calibri, Normal';text-align:end;text-anchor:end;stroke-width:9.93843;fill:#666666;fill-opacity:1" />
  <path
     style="font-size:40px;line-height:0%;font-family:Calibri;-inkscape-font-specification:'Calibri, Normal';text-align:end;text-anchor:end;fill:#666666;stroke:#666666;stroke-width:1;stroke-linecap:round;stroke-dasharray:2, 2;stroke-dashoffset:0;stroke-opacity:1"
     d="m 247.21955,91.51367 h 44.4927"
     id="path64" />
  <text
     xml:space="preserve"
     style="font-size:18.8594px;line-height:0%;font-family:Calibri;-inkscape-font-specification:'Calibri, Normal';text-align:end;text-anchor:end;fill:#666666;stroke:#000000;stroke-width:0.471484;stroke-linecap:round;stroke-dasharray:none;stroke-dashoffset:0;stroke-opacity:1"
     x="353.48999"
     y="76.763275"
     id="text65"><tspan
       sodipodi:role="line"
       id="tspan65"
       style="fill:#666666;fill-opacity:1;stroke:none;stroke-width:0.471486;stroke-dasharray:none;stroke-opacity:1"
       x="353.48999"
       y="76.763275">−1 SD</tspan></text>
  <g
     id="g65"
     transform="matrix(-3.5920659,0,0,3.4941172,361.43222,-172.80074)"
     style="font-size:40px;line-height:0%;font-family:Calibri;-inkscape-font-specification:'Calibri, Normal';text-align:end;text-anchor:end;stroke-width:2.83465">
    <path
       d="m 59.79661,58.377063 c 0,-0.47821 0.31084,-1.24334 1.61395,-1.32702 0.05978,-0.01196 0.1076,-0.05978 0.1076,-0.13151 0,-0.13151 -0.09564,-0.13151 -0.22715,-0.13151 -1.19552,0 -2.28344,0.60972 -2.29539,1.4944 v 2.72578 c 0,0.46625 0,0.84882 -0.47821,1.24334 -0.41843,0.3467 -0.87273,0.37061 -1.135741,0.38256 -0.05978,0.01196 -0.107597,0.05978 -0.107597,0.13151 0,0.11955 0.07173,0.11955 0.191278,0.1315 0.78905,0.04783 1.36289,0.47821 1.4944,1.06401 0.03587,0.13151 0.03587,0.15542 0.03587,0.58581 v 2.36712 c 0,0.50212 0,0.88468 0.57384,1.33898 0.46626,0.35866 1.2553,0.49016 1.72155,0.49016 0.13151,0 0.22715,0 0.22715,-0.1315 0,-0.11956 -0.07173,-0.11956 -0.19129,-0.13151 -0.75317,-0.04782 -1.33897,-0.43039 -1.49439,-1.0401 -0.03587,-0.1076 -0.03587,-0.13151 -0.03587,-0.56189 v -2.51059 c 0,-0.54994 -0.09564,-0.75318 -0.4782,-1.13574 -0.25106,-0.25106 -0.59776,-0.37061 -0.93251,-0.46625 0.98033,-0.27497 1.41071,-0.82491 1.41071,-1.51831 z"
       id="path65"
       style="fill:#666666;fill-opacity:1" />
  </g>
  <path
     style="font-size:40px;line-height:0%;font-family:Calibri;-inkscape-font-specification:'Calibri, Normal';text-align:end;text-anchor:end;fill:#000000;stroke-width:0.999997;stroke-linecap:round;stroke-dasharray:none"
     d="M 93.955806,67.696745 H 138.29125"
     id="path66" />
  <path
     style="font-size:40px;line-height:0%;font-family:Calibri;-inkscape-font-specification:'Calibri, Normal';text-align:end;text-anchor:end;fill:none;stroke:#666666;stroke-width:1.16717;stroke-linecap:round;stroke-dasharray:2.33435, 2.33435;stroke-dashoffset:0;stroke-opacity:1"
     d="M 94.400693,67.513667 H 155.01283"
     id="path67" />
  <path
     style="font-size:40px;line-height:0%;font-family:Calibri;-inkscape-font-specification:'Calibri, Normal';text-align:end;text-anchor:end;fill:#666666;stroke:#666666;stroke-width:0.915743;stroke-linecap:round;stroke-dasharray:1.83149, 1.83149;stroke-dashoffset:0;stroke-opacity:1"
     d="m 101.76071,25.923118 h 37.31096"
     id="path68" />
  <text
     xml:space="preserve"
     style="font-size:18.8594px;line-height:0%;font-family:Calibri;-inkscape-font-specification:'Calibri, Normal';text-align:end;text-anchor:end;fill:#666666;stroke:#000000;stroke-width:0.471484;stroke-linecap:round;stroke-dasharray:none;stroke-dashoffset:0;stroke-opacity:1"
     x="200.48999"
     y="51.965443"
     id="text68"><tspan
       sodipodi:role="line"
       id="tspan68"
       style="fill:#666666;fill-opacity:1;stroke:none;stroke-width:0.471486;stroke-dasharray:none;stroke-opacity:1"
       x="200.48999"
       y="51.965443">+1 SD</tspan></text>
  <g
     id="g70"
     transform="matrix(-3.5920659,0,0,3.4875884,361.43222,-130.40511)"
     style="font-size:40px;line-height:0%;font-family:Calibri;-inkscape-font-specification:'Calibri, Normal';text-align:end;text-anchor:end;stroke-width:2.83465;fill:#666666;fill-opacity:1">
    <path
       d="m 59.79661,58.377063 c 0,-0.47821 0.31084,-1.24334 1.61395,-1.32702 0.05978,-0.01196 0.1076,-0.05978 0.1076,-0.13151 0,-0.13151 -0.09564,-0.13151 -0.22715,-0.13151 -1.19552,0 -2.28344,0.60972 -2.29539,1.4944 v 2.72578 c 0,0.46625 0,0.84882 -0.47821,1.24334 -0.41843,0.3467 -0.87273,0.37061 -1.135741,0.38256 -0.05978,0.01196 -0.107597,0.05978 -0.107597,0.13151 0,0.11955 0.07173,0.11955 0.191278,0.1315 0.78905,0.04783 1.36289,0.47821 1.4944,1.06401 0.03587,0.13151 0.03587,0.15542 0.03587,0.58581 v 2.36712 c 0,0.50212 0,0.88468 0.57384,1.33898 0.46626,0.35866 1.2553,0.49016 1.72155,0.49016 0.13151,0 0.22715,0 0.22715,-0.1315 0,-0.11956 -0.07173,-0.11956 -0.19129,-0.13151 -0.75317,-0.04782 -1.33897,-0.43039 -1.49439,-1.0401 -0.03587,-0.1076 -0.03587,-0.13151 -0.03587,-0.56189 v -2.51059 c 0,-0.54994 -0.09564,-0.75318 -0.4782,-1.13574 -0.25106,-0.25106 -0.59776,-0.37061 -0.93251,-0.46625 0.98033,-0.27497 1.41071,-0.82491 1.41071,-1.51831 z"
       id="path70"
       style="fill:#666666;fill-opacity:1" />
  </g>
  <path
     style="font-size:40px;line-height:0%;font-family:Calibri;-inkscape-font-specification:'Calibri, Normal';text-align:end;text-anchor:end;fill:#666666;stroke:#666666;stroke-width:1;stroke-linecap:round;stroke-dasharray:2, 2;stroke-dashoffset:0;stroke-opacity:1"
     d="M 94.386106,109.30136 H 138.87881"
     id="path71" />
  <text
     xml:space="preserve"
     style="font-size:18.8594px;line-height:0%;font-family:Calibri;-inkscape-font-specification:'Calibri, Normal';text-align:end;text-anchor:end;fill:#666666;stroke:#000000;stroke-width:0.471484;stroke-linecap:round;stroke-dasharray:none;stroke-dashoffset:0;stroke-opacity:1"
     x="200.55627"
     y="93.622444"
     id="text71"><tspan
       sodipodi:role="line"
       id="tspan71"
       style="fill:#666666;fill-opacity:1;stroke:none;stroke-width:0.471486;stroke-dasharray:none;stroke-opacity:1"
       x="200.55627"
       y="93.622444">−1 SD</tspan></text>
  <g
     id="g54"
     transform="translate(61.535156,-6.8)">
    <g
       clip-path="url(#pa4447e9323)"
       id="g53">
      <use
         xlink:href="#mff338efb26"
         x="183.50366"
         y="58.085026"
         style="stroke:#000000"
         id="use53" />
    </g>
  </g>
  <text
     xml:space="preserve"
     style="font-size:10.8453px;line-height:0%;font-family:Calibri;-inkscape-font-specification:'Calibri, Normal';text-align:end;text-anchor:end;fill:#666666;stroke:#000000;stroke-width:0.271132;stroke-linecap:round;stroke-dasharray:none;stroke-dashoffset:0;stroke-opacity:1"
     x="356.24478"
     y="53.764858"
     id="text1"><tspan
       sodipodi:role="line"
       id="tspan1"
       style="fill:#666666;fill-opacity:1;stroke:none;stroke-width:0.271133;stroke-dasharray:none;stroke-opacity:1"
       x="356.24478"
       y="53.764858">Mittelwert</tspan></text>
  <text
     xml:space="preserve"
     style="font-size:10.8453px;line-height:0%;font-family:Calibri;-inkscape-font-specification:'Calibri, Normal';text-align:end;text-anchor:end;fill:#666666;stroke:#000000;stroke-width:0.271132;stroke-linecap:round;stroke-dasharray:none;stroke-dashoffset:0;stroke-opacity:1"
     x="203.53833"
     y="70.226723"
     id="text2"><tspan
       sodipodi:role="line"
       id="tspan2"
       style="fill:#666666;fill-opacity:1;stroke:none;stroke-width:0.271133;stroke-dasharray:none;stroke-opacity:1"
       x="203.53833"
       y="70.226723">Mittelwert</tspan></text>
</svg>
