<?xml version="1.0" encoding="UTF-8" standalone="no"?>
<!-- Created with Inkscape (http://www.inkscape.org/) -->

<svg
   width="106.65589mm"
   height="55.266655mm"
   viewBox="0 0 106.65589 55.266655"
   version="1.1"
   id="svg1"
   inkscape:version="1.4-dev (1:1.2.0-alpha1+devel+202309191445+0218cc37c8)"
   sodipodi:docname="neyman_pearson1.svg"
   inkscape:export-filename="neyman_pearson1.png"
   inkscape:export-xdpi="300"
   inkscape:export-ydpi="300"
   xmlns:inkscape="http://www.inkscape.org/namespaces/inkscape"
   xmlns:sodipodi="http://sodipodi.sourceforge.net/DTD/sodipodi-0.dtd"
   xmlns="http://www.w3.org/2000/svg"
   xmlns:svg="http://www.w3.org/2000/svg"
   xmlns:ns2="http://www.iki.fi/pav/software/textext/">
  <sodipodi:namedview
     id="namedview1"
     pagecolor="#ffffff"
     bordercolor="#000000"
     borderopacity="0.25"
     inkscape:showpageshadow="2"
     inkscape:pageopacity="0.0"
     inkscape:pagecheckerboard="0"
     inkscape:deskcolor="#d1d1d1"
     inkscape:document-units="mm"
     inkscape:zoom="6.7944708"
     inkscape:cx="219.66391"
     inkscape:cy="232.39485"
     inkscape:window-width="2560"
     inkscape:window-height="1367"
     inkscape:window-x="0"
     inkscape:window-y="0"
     inkscape:window-maximized="1"
     inkscape:current-layer="layer1" />
  <defs
     id="defs1">
    <clipPath
       clipPathUnits="userSpaceOnUse"
       id="clipPath93">
      <path
         fill="none"
         stroke="#0071bc"
         stroke-width="0.198437"
         stroke-linecap="round"
         stroke-linejoin="round"
         stroke-miterlimit="10"
         d="m 102.1407,153.03366 c 1.83127,-0.0572 3.66892,-0.15026 5.4883,-0.42283 1.92641,-0.28931 3.81842,-0.76982 5.63186,-1.64381 1.80707,-0.87146 3.40434,-2.19207 4.88014,-3.73724 1.43462,-1.50118 2.69001,-3.34476 3.79421,-5.22173 1.13648,-1.93059 2.18972,-3.9335 3.16736,-5.99558 1.00737,-2.1243 1.97228,-4.27794 2.92868,-6.43814 0.93772,-2.11772 1.87672,-4.23242 2.85182,-6.32332 0.95301,-2.04439 1.98288,-4.0741 3.1886,-5.90455 0.62472,-0.94834 1.31314,-1.7935 2.08353,-2.55622 0.74959,-0.742 1.65461,-1.15976 2.60167,-1.24829 0.96066,-0.0895 1.87205,0.49568 2.64669,1.12992 0.79249,0.64893 1.45246,1.56086 2.06443,2.45003 1.26262,1.83043 2.27848,3.9168 3.27184,5.97939 0.96277,1.99937 1.85252,4.05336 2.75582,6.0942 0.95132,2.14959 1.90221,4.30019 2.90534,6.41437 0.97254,2.05147 1.9918,4.07562 3.12318,5.99761 1.15984,1.97154 2.43095,3.82576 3.88977,5.46703 1.43462,1.61244 3.07265,2.86932 4.84872,3.80705 1.70896,0.90282 3.5844,1.39545 5.42248,1.67162 1.88946,0.28476 3.78487,0.40615 5.68664,0.47443"
         id="path94"
         style="fill:#ffcccc;fill-opacity:1;stroke:#5d5d5d;stroke-width:0.797999;stroke-dasharray:none;stroke-opacity:1"
         sodipodi:nodetypes="ccccccccccccccccccccc" />
    </clipPath>
    <g
       id="id-e4d9abdf-6bbd-4142-9bf5-18e34651ed3f">
      <symbol
         overflow="visible"
         id="id-f67988ce-1b9d-404a-b255-69bf21c692bd">
        <path
           style="stroke:none"
           d=""
           id="id-0f4a74ee-e13e-4290-98e2-f2538ca3b6cd" />
      </symbol>
      <symbol
         overflow="visible"
         id="id-20273d3e-0967-4ca5-bfd0-9246ae4e0084">
        <path
           style="stroke:none"
           d="m 1.328125,-0.828125 c 0.53125,-0.578125 0.828125,-0.828125 1.1875,-1.140625 0,0 0.609375,-0.53125 0.96875,-0.890625 C 4.4375,-3.78125 4.65625,-4.265625 4.65625,-4.3125 c 0,-0.09375 -0.09375,-0.09375 -0.109375,-0.09375 -0.078125,0 -0.09375,0.015625 -0.15625,0.109375 -0.296875,0.484375 -0.5,0.640625 -0.734375,0.640625 -0.25,0 -0.359375,-0.15625 -0.515625,-0.328125 -0.1875,-0.21875 -0.359375,-0.421875 -0.6875,-0.421875 -0.75,0 -1.203125,0.921875 -1.203125,1.140625 0,0.046875 0.03125,0.109375 0.109375,0.109375 0.09375,0 0.109375,-0.046875 0.140625,-0.109375 0.1875,-0.46875 0.765625,-0.46875 0.84375,-0.46875 0.203125,0 0.390625,0.0625 0.625,0.140625 0.40625,0.15625 0.515625,0.15625 0.765625,0.15625 -0.359375,0.421875 -1.1875,1.140625 -1.375,1.296875 l -0.90625,0.84375 C 0.78125,-0.625 0.421875,-0.0625 0.421875,0.015625 c 0,0.09375 0.109375,0.09375 0.125,0.09375 0.078125,0 0.09375,-0.015625 0.15625,-0.125 0.234375,-0.359375 0.53125,-0.625 0.859375,-0.625 0.21875,0 0.328125,0.09375 0.578125,0.375 0.15625,0.21875 0.34375,0.375 0.625,0.375 1,0 1.578125,-1.265625 1.578125,-1.53125 0,-0.046875 -0.046875,-0.109375 -0.125,-0.109375 -0.09375,0 -0.109375,0.0625 -0.140625,0.140625 C 3.84375,-0.75 3.203125,-0.5625 2.875,-0.5625 c -0.1875,0 -0.375,-0.0625 -0.578125,-0.125 -0.34375,-0.125 -0.5,-0.171875 -0.703125,-0.171875 -0.015625,0 -0.171875,0 -0.265625,0.03125 z m 0,0"
           id="id-82efb623-32fb-4710-bc35-b895332acee8" />
      </symbol>
      <symbol
         overflow="visible"
         id="id-b5698854-3995-48cb-9e2d-076da333420c">
        <path
           style="stroke:none"
           d=""
           id="id-e7d30890-743b-4604-8950-94a1132b1a41" />
      </symbol>
      <symbol
         overflow="visible"
         id="id-0b6cb207-3bf8-4565-982c-a21812b59cdb">
        <path
           style="stroke:none"
           d="m 2.703125,-2.78125 c -0.125,0.0625 -0.1875,0.171875 -0.1875,0.3125 0,0.1875 0.125,0.328125 0.328125,0.328125 0.1875,0 0.328125,-0.125 0.328125,-0.34375 0,-0.625 -0.96875,-0.625 -1.15625,-0.625 -1.046875,0 -1.6875,0.796875 -1.6875,1.609375 0,0.875 0.734375,1.5625 1.65625,1.5625 1.03125,0 1.28125,-0.8125 1.28125,-0.90625 0,-0.078125 -0.09375,-0.078125 -0.125,-0.078125 -0.09375,0 -0.09375,0.015625 -0.125,0.125 C 2.859375,-0.375 2.484375,-0.15625 2.0625,-0.15625 c -0.484375,0 -1.109375,-0.359375 -1.109375,-1.359375 0,-0.875 0.4375,-1.375 1.078125,-1.375 0.09375,0 0.421875,0 0.671875,0.109375 z m 0,0"
           id="id-d2dc7187-54cb-4fe7-918b-101e2fa1c0bf" />
      </symbol>
      <symbol
         overflow="visible"
         id="id-d49c93e5-cb36-4ada-b36b-5d1e400805a0">
        <path
           style="stroke:none"
           d="m 1.390625,-1.59375 c 0,-0.578125 0.265625,-1.28125 0.9375,-1.28125 -0.0625,0.046875 -0.125,0.140625 -0.125,0.25 0,0.234375 0.1875,0.3125 0.3125,0.3125 0.171875,0 0.328125,-0.109375 0.328125,-0.3125 0,-0.234375 -0.234375,-0.453125 -0.5625,-0.453125 -0.34375,0 -0.734375,0.21875 -0.9375,0.75 v -0.75 L 0.34375,-3 v 0.25 c 0.46875,0 0.515625,0.046875 0.515625,0.390625 v 1.8125 C 0.859375,-0.25 0.796875,-0.25 0.34375,-0.25 V 0 c 0.03125,0 0.5,-0.03125 0.796875,-0.03125 0.296875,0 0.59375,0.015625 0.90625,0.03125 V -0.25 H 1.90625 c -0.515625,0 -0.515625,-0.078125 -0.515625,-0.3125 z m 0,0"
           id="id-31ec00f8-c913-4d62-8568-4561429be2dc" />
      </symbol>
      <symbol
         overflow="visible"
         id="id-cec0ed1c-c9d0-4efe-95b8-cdb1206634a7">
        <path
           style="stroke:none"
           d="m 1.46875,-4.296875 c 0,-0.203125 -0.171875,-0.40625 -0.40625,-0.40625 -0.203125,0 -0.390625,0.171875 -0.390625,0.40625 0,0.25 0.203125,0.40625 0.390625,0.40625 0.234375,0 0.40625,-0.171875 0.40625,-0.40625 z M 0.40625,-3 v 0.25 c 0.4375,0 0.5,0.046875 0.5,0.390625 v 1.8125 C 0.90625,-0.25 0.84375,-0.25 0.390625,-0.25 V 0 c 0.015625,0 0.5,-0.03125 0.78125,-0.03125 0.25,0 0.5,0.015625 0.734375,0.03125 V -0.25 C 1.5,-0.25 1.4375,-0.25 1.4375,-0.546875 v -2.53125 z m 0,0"
           id="id-66802831-02dd-4a5e-acaa-ecf62226d9d5" />
      </symbol>
      <symbol
         overflow="visible"
         id="id-993d7281-2da6-44de-b674-975fcf61b191">
        <path
           style="stroke:none"
           d="M 1.40625,-2.75 H 2.484375 V -3 H 1.40625 v -1.28125 h -0.25 c 0,0.625 -0.28125,1.3125 -0.953125,1.328125 V -2.75 H 0.84375 v 1.875 c 0,0.78125 0.59375,0.9375 0.984375,0.9375 0.46875,0 0.78125,-0.390625 0.78125,-0.9375 V -1.265625 H 2.375 v 0.375 c 0,0.484375 -0.21875,0.734375 -0.5,0.734375 -0.46875,0 -0.46875,-0.578125 -0.46875,-0.703125 z m 0,0"
           id="id-84cd6be8-5640-4857-bf35-d94cbbf1aad7" />
      </symbol>
    </g>
  </defs>
  <g
     inkscape:label="Layer 1"
     inkscape:groupmode="layer"
     id="layer1"
     transform="translate(-101.14815,-103.41283)">
    <rect
       style="fill:none;stroke:#000000;stroke-width:0.599999;stroke-dasharray:none;stroke-opacity:1"
       id="rect57"
       width="103.30764"
       height="49.573048"
       x="101.44815"
       y="103.71283" />
    <path
       style="fill:none;stroke:#000000;stroke-width:0.600001;stroke-dasharray:none;stroke-opacity:1"
       d="m 138.84217,152.53547 v 2.3952"
       id="path58" />
    <text
       xml:space="preserve"
       style="font-size:4.07351px;line-height:90%;font-family:sans-serif;text-decoration-color:#000000;fill:#000000;stroke-width:0.264583;-inkscape-stroke:none;stop-color:#000000"
       x="137.76732"
       y="158.43275"
       id="text45"><tspan
         sodipodi:role="line"
         id="tspan45"
         style="stroke-width:0.264583"
         x="137.76732"
         y="158.43275">0</tspan></text>
    <path
       style="fill:none;stroke:#000000;stroke-width:0.3;stroke-dasharray:none;stroke-dashoffset:0;stroke-opacity:1"
       d="m 138.84218,113.26332 v 39.5273"
       id="path46" />
    <path
       fill="none"
       stroke="#0071bc"
       stroke-width="0.198437"
       stroke-linecap="round"
       stroke-linejoin="round"
       stroke-miterlimit="10"
       d="m 102.1407,153.03366 c 1.83127,-0.0572 3.66892,-0.15026 5.4883,-0.42283 1.92641,-0.28931 3.81842,-0.76982 5.63186,-1.64381 1.80707,-0.87146 3.40434,-2.19207 4.88014,-3.73724 1.43462,-1.50118 2.69001,-3.34476 3.79421,-5.22173 1.13648,-1.93059 2.18972,-3.9335 3.16736,-5.99558 1.00737,-2.1243 1.97228,-4.27794 2.92868,-6.43814 0.93772,-2.11772 1.87672,-4.23242 2.85182,-6.32332 0.95301,-2.04439 1.98288,-4.0741 3.1886,-5.90455 0.62472,-0.94834 1.31314,-1.79351 2.08353,-2.55623 0.74959,-0.742 1.65461,-1.15976 2.60167,-1.24829 0.96066,-0.0895 1.87205,0.49568 2.64669,1.12992 0.79249,0.64893 1.45246,1.56087 2.06443,2.45004 1.26262,1.83043 2.27848,3.9168 3.27184,5.97939 0.96277,1.99937 1.85252,4.05336 2.75582,6.0942 0.95132,2.14959 1.90221,4.30019 2.90534,6.41437 0.97254,2.05147 1.9918,4.07562 3.12318,5.99761 1.15984,1.97154 2.43095,3.82576 3.88977,5.46703 1.43462,1.61244 3.07265,2.86932 4.84872,3.80705 1.70896,0.90282 3.5844,1.39545 5.42248,1.67162 1.88946,0.28476 3.78487,0.40615 5.68664,0.47443"
       id="path60"
       style="fill:none;fill-opacity:1;stroke:#5d5d5d;stroke-width:0.798;stroke-dasharray:none;stroke-opacity:1"
       sodipodi:nodetypes="ccccccccccccccccccccc" />
    <path
       style="fill:none;stroke:#a50404;stroke-width:0.600001;stroke-dasharray:1.2, 1.2;stroke-dashoffset:0;stroke-opacity:1"
       d="m 167.89418,114.68458 v 40.77236"
       id="path48" />
    <path
       fill="none"
       stroke="#0071bc"
       stroke-width="0.198437"
       stroke-linecap="round"
       stroke-linejoin="round"
       stroke-miterlimit="10"
       d="m 131.24484,153.03366 c 1.83127,-0.0572 3.66892,-0.15026 5.4883,-0.42283 1.92641,-0.28931 3.81842,-0.76982 5.63186,-1.64381 1.80707,-0.87146 3.40434,-2.19207 4.88014,-3.73724 1.43462,-1.50118 2.69001,-3.34476 3.79421,-5.22173 1.13648,-1.93059 2.18972,-3.9335 3.16736,-5.99558 1.00737,-2.1243 1.97228,-4.27794 2.92868,-6.43814 0.93772,-2.11772 1.87672,-4.23242 2.85182,-6.32332 0.95301,-2.04439 1.98288,-4.0741 3.1886,-5.90455 0.62472,-0.94834 1.31314,-1.79351 2.08353,-2.55623 0.74959,-0.742 1.65461,-1.15976 2.60167,-1.24829 0.96066,-0.0895 1.87205,0.49568 2.64669,1.12992 0.79249,0.64893 1.45246,1.56087 2.06443,2.45004 1.26262,1.83043 2.27848,3.9168 3.27184,5.97939 0.96277,1.99937 1.85252,4.05336 2.75582,6.0942 0.95132,2.14959 1.90221,4.30019 2.90534,6.41437 0.97254,2.05147 1.9918,4.07562 3.12318,5.99761 1.15984,1.97154 2.43095,3.82576 3.88977,5.46703 1.43462,1.61244 3.07265,2.86932 4.84872,3.80705 1.70896,0.90282 3.5844,1.39545 5.42248,1.67162 1.88946,0.28476 3.78487,0.40615 5.68664,0.47443"
       id="path2"
       style="fill:none;fill-opacity:1;stroke:#a50404;stroke-width:0.798;stroke-dasharray:0.798, 1.596;stroke-dashoffset:0;stroke-opacity:1"
       sodipodi:nodetypes="ccccccccccccccccccccc" />
    <g
       transform="matrix(0.534379,0,0,0.534379,136.26232,108.226)"
       ns2:version="1.9.0"
       ns2:texconverter="pdflatex"
       ns2:pdfconverter="inkscape"
       ns2:text="\\definecolor{mygrey}{RGB}{93, 93, 93}\n$\\color{mygrey}{H_0}$"
       ns2:preamble="/home/matteo/.config/inkscape/extensions/textext/default_packages.tex"
       ns2:scale="1.5147761764323922"
       ns2:alignment="middle center"
       ns2:stroke-to-path="0"
       ns2:inkscapeversion="1.4-dev"
       ns2:jacobian_sqrt="0.534379"
       id="g25">
      <defs
         id="defs19">
        <g
           id="g19">
          <symbol
             overflow="visible"
             id="symbol16">
            <path
               style="stroke:none"
               d=""
               id="path16" />
          </symbol>
          <symbol
             overflow="visible"
             id="symbol17">
            <path
               style="stroke:none"
               d="M 7.609375,-6.046875 C 7.703125,-6.40625 7.71875,-6.5 8.4375,-6.5 c 0.265625,0 0.34375,0 0.34375,-0.203125 0,-0.109375 -0.109375,-0.109375 -0.140625,-0.109375 -0.28125,0 -1,0.03125 -1.28125,0.03125 -0.28125,0 -0.984375,-0.03125 -1.28125,-0.03125 -0.078125,0 -0.1875,0 -0.1875,0.203125 0,0.109375 0.09375,0.109375 0.28125,0.109375 0.015625,0 0.203125,0 0.375,0.015625 0.1875,0.03125 0.265625,0.03125 0.265625,0.171875 0,0.03125 0,0.046875 -0.03125,0.1875 L 6.1875,-3.703125 H 3.140625 l 0.59375,-2.34375 C 3.8125,-6.40625 3.84375,-6.5 4.5625,-6.5 c 0.265625,0 0.34375,0 0.34375,-0.203125 0,-0.109375 -0.109375,-0.109375 -0.140625,-0.109375 -0.28125,0 -1,0.03125 -1.28125,0.03125 -0.28125,0 -0.984375,-0.03125 -1.28125,-0.03125 -0.078125,0 -0.1875,0 -0.1875,0.203125 0,0.109375 0.09375,0.109375 0.28125,0.109375 0.015625,0 0.203125,0 0.375,0.015625 0.171875,0.03125 0.265625,0.03125 0.265625,0.171875 0,0.03125 0,0.0625 -0.03125,0.1875 L 1.5625,-0.78125 c -0.09375,0.390625 -0.109375,0.46875 -0.90625,0.46875 -0.171875,0 -0.265625,0 -0.265625,0.203125 C 0.390625,0 0.515625,0 0.53125,0 0.8125,0 1.515625,-0.03125 1.796875,-0.03125 2,-0.03125 2.21875,-0.015625 2.4375,-0.015625 2.65625,-0.015625 2.875,0 3.078125,0 3.15625,0 3.28125,0 3.28125,-0.203125 3.28125,-0.3125 3.1875,-0.3125 3,-0.3125 c -0.375,0 -0.640625,0 -0.640625,-0.171875 0,-0.0625 0.015625,-0.109375 0.015625,-0.171875 l 0.6875,-2.734375 h 3.03125 c -0.40625,1.65625 -0.640625,2.609375 -0.6875,2.75 C 5.3125,-0.3125 5.125,-0.3125 4.5,-0.3125 c -0.140625,0 -0.234375,0 -0.234375,0.203125 C 4.265625,0 4.390625,0 4.40625,0 4.6875,0 5.390625,-0.03125 5.671875,-0.03125 5.875,-0.03125 6.09375,-0.015625 6.3125,-0.015625 6.53125,-0.015625 6.75,0 6.953125,0 7.03125,0 7.15625,0 7.15625,-0.203125 7.15625,-0.3125 7.0625,-0.3125 6.875,-0.3125 c -0.359375,0 -0.640625,0 -0.640625,-0.171875 0,-0.0625 0.015625,-0.109375 0.03125,-0.171875 z m 0,0"
               id="path17" />
          </symbol>
          <symbol
             overflow="visible"
             id="symbol18">
            <path
               style="stroke:none"
               d=""
               id="path18" />
          </symbol>
          <symbol
             overflow="visible"
             id="symbol19">
            <path
               style="stroke:none"
               d="M 3.59375,-2.21875 C 3.59375,-2.984375 3.5,-3.546875 3.1875,-4.03125 2.96875,-4.34375 2.53125,-4.625 1.984375,-4.625 c -1.625,0 -1.625,1.90625 -1.625,2.40625 0,0.5 0,2.359375 1.625,2.359375 1.609375,0 1.609375,-1.859375 1.609375,-2.359375 z M 1.984375,-0.0625 c -0.328125,0 -0.75,-0.1875 -0.890625,-0.75 C 1,-1.21875 1,-1.796875 1,-2.3125 1,-2.828125 1,-3.359375 1.09375,-3.734375 1.25,-4.28125 1.6875,-4.4375 1.984375,-4.4375 c 0.375,0 0.734375,0.234375 0.859375,0.640625 0.109375,0.375 0.125,0.875 0.125,1.484375 0,0.515625 0,1.03125 -0.09375,1.46875 -0.140625,0.640625 -0.609375,0.78125 -0.890625,0.78125 z m 0,0"
               id="path19" />
          </symbol>
        </g>
      </defs>
      <g
         id="g24"
         transform="translate(-149.103,-127.953)">
        <g
           style="fill:#5c5c5c;fill-opacity:1"
           id="g21">
          <g
             transform="translate(148.712,134.765)"
             id="g20">
            <path
               style="stroke:none"
               d="M 7.609375,-6.046875 C 7.703125,-6.40625 7.71875,-6.5 8.4375,-6.5 c 0.265625,0 0.34375,0 0.34375,-0.203125 0,-0.109375 -0.109375,-0.109375 -0.140625,-0.109375 -0.28125,0 -1,0.03125 -1.28125,0.03125 -0.28125,0 -0.984375,-0.03125 -1.28125,-0.03125 -0.078125,0 -0.1875,0 -0.1875,0.203125 0,0.109375 0.09375,0.109375 0.28125,0.109375 0.015625,0 0.203125,0 0.375,0.015625 0.1875,0.03125 0.265625,0.03125 0.265625,0.171875 0,0.03125 0,0.046875 -0.03125,0.1875 L 6.1875,-3.703125 H 3.140625 l 0.59375,-2.34375 C 3.8125,-6.40625 3.84375,-6.5 4.5625,-6.5 c 0.265625,0 0.34375,0 0.34375,-0.203125 0,-0.109375 -0.109375,-0.109375 -0.140625,-0.109375 -0.28125,0 -1,0.03125 -1.28125,0.03125 -0.28125,0 -0.984375,-0.03125 -1.28125,-0.03125 -0.078125,0 -0.1875,0 -0.1875,0.203125 0,0.109375 0.09375,0.109375 0.28125,0.109375 0.015625,0 0.203125,0 0.375,0.015625 0.171875,0.03125 0.265625,0.03125 0.265625,0.171875 0,0.03125 0,0.0625 -0.03125,0.1875 L 1.5625,-0.78125 c -0.09375,0.390625 -0.109375,0.46875 -0.90625,0.46875 -0.171875,0 -0.265625,0 -0.265625,0.203125 C 0.390625,0 0.515625,0 0.53125,0 0.8125,0 1.515625,-0.03125 1.796875,-0.03125 2,-0.03125 2.21875,-0.015625 2.4375,-0.015625 2.65625,-0.015625 2.875,0 3.078125,0 3.15625,0 3.28125,0 3.28125,-0.203125 3.28125,-0.3125 3.1875,-0.3125 3,-0.3125 c -0.375,0 -0.640625,0 -0.640625,-0.171875 0,-0.0625 0.015625,-0.109375 0.015625,-0.171875 l 0.6875,-2.734375 h 3.03125 c -0.40625,1.65625 -0.640625,2.609375 -0.6875,2.75 C 5.3125,-0.3125 5.125,-0.3125 4.5,-0.3125 c -0.140625,0 -0.234375,0 -0.234375,0.203125 C 4.265625,0 4.390625,0 4.40625,0 4.6875,0 5.390625,-0.03125 5.671875,-0.03125 5.875,-0.03125 6.09375,-0.015625 6.3125,-0.015625 6.53125,-0.015625 6.75,0 6.953125,0 7.03125,0 7.15625,0 7.15625,-0.203125 7.15625,-0.3125 7.0625,-0.3125 6.875,-0.3125 c -0.359375,0 -0.640625,0 -0.640625,-0.171875 0,-0.0625 0.015625,-0.109375 0.03125,-0.171875 z m 0,0"
               id="path20" />
          </g>
        </g>
        <g
           style="fill:#5c5c5c;fill-opacity:1"
           id="g23">
          <g
             transform="translate(156.994,136.259)"
             id="g22">
            <path
               style="stroke:none"
               d="M 3.59375,-2.21875 C 3.59375,-2.984375 3.5,-3.546875 3.1875,-4.03125 2.96875,-4.34375 2.53125,-4.625 1.984375,-4.625 c -1.625,0 -1.625,1.90625 -1.625,2.40625 0,0.5 0,2.359375 1.625,2.359375 1.609375,0 1.609375,-1.859375 1.609375,-2.359375 z M 1.984375,-0.0625 c -0.328125,0 -0.75,-0.1875 -0.890625,-0.75 C 1,-1.21875 1,-1.796875 1,-2.3125 1,-2.828125 1,-3.359375 1.09375,-3.734375 1.25,-4.28125 1.6875,-4.4375 1.984375,-4.4375 c 0.375,0 0.734375,0.234375 0.859375,0.640625 0.109375,0.375 0.125,0.875 0.125,1.484375 0,0.515625 0,1.03125 -0.09375,1.46875 -0.140625,0.640625 -0.609375,0.78125 -0.890625,0.78125 z m 0,0"
               id="path21" />
          </g>
        </g>
      </g>
    </g>
    <g
       transform="matrix(0.534379,0,0,0.534379,165.44552,108.263)"
       ns2:version="1.9.0"
       ns2:texconverter="pdflatex"
       ns2:pdfconverter="inkscape"
       ns2:text="\\definecolor{myred}{RGB}{165, 4, 4}\n$\\color{myred}{H_1}$"
       ns2:preamble="/home/matteo/.config/inkscape/extensions/textext/default_packages.tex"
       ns2:scale="1.5147761764323922"
       ns2:alignment="middle center"
       ns2:stroke-to-path="0"
       ns2:inkscapeversion="1.4-dev"
       ns2:jacobian_sqrt="0.534379"
       id="g16">
      <defs
         id="id-23bac397-a947-4fb6-a57c-a16dfc62b8b6">
        <g
           id="id-f549e359-fe95-46f4-8ce9-c73df6f17094">
          <symbol
             overflow="visible"
             id="id-3cab95ba-b317-496d-813a-3c4b58adf116">
            <path
               style="stroke:none"
               d=""
               id="id-3bb1beba-8923-4a9c-a52e-684b29cb4268" />
          </symbol>
          <symbol
             overflow="visible"
             id="id-4fcb00af-c20d-4e85-923e-3ab5521fb362">
            <path
               style="stroke:none"
               d="M 7.609375,-6.046875 C 7.703125,-6.40625 7.71875,-6.5 8.4375,-6.5 c 0.265625,0 0.34375,0 0.34375,-0.203125 0,-0.109375 -0.109375,-0.109375 -0.140625,-0.109375 -0.28125,0 -1,0.03125 -1.28125,0.03125 -0.28125,0 -0.984375,-0.03125 -1.28125,-0.03125 -0.078125,0 -0.1875,0 -0.1875,0.203125 0,0.109375 0.09375,0.109375 0.28125,0.109375 0.015625,0 0.203125,0 0.375,0.015625 0.1875,0.03125 0.265625,0.03125 0.265625,0.171875 0,0.03125 0,0.046875 -0.03125,0.1875 L 6.1875,-3.703125 H 3.140625 l 0.59375,-2.34375 C 3.8125,-6.40625 3.84375,-6.5 4.5625,-6.5 c 0.265625,0 0.34375,0 0.34375,-0.203125 0,-0.109375 -0.109375,-0.109375 -0.140625,-0.109375 -0.28125,0 -1,0.03125 -1.28125,0.03125 -0.28125,0 -0.984375,-0.03125 -1.28125,-0.03125 -0.078125,0 -0.1875,0 -0.1875,0.203125 0,0.109375 0.09375,0.109375 0.28125,0.109375 0.015625,0 0.203125,0 0.375,0.015625 0.171875,0.03125 0.265625,0.03125 0.265625,0.171875 0,0.03125 0,0.0625 -0.03125,0.1875 L 1.5625,-0.78125 c -0.09375,0.390625 -0.109375,0.46875 -0.90625,0.46875 -0.171875,0 -0.265625,0 -0.265625,0.203125 C 0.390625,0 0.515625,0 0.53125,0 0.8125,0 1.515625,-0.03125 1.796875,-0.03125 2,-0.03125 2.21875,-0.015625 2.4375,-0.015625 2.65625,-0.015625 2.875,0 3.078125,0 3.15625,0 3.28125,0 3.28125,-0.203125 3.28125,-0.3125 3.1875,-0.3125 3,-0.3125 c -0.375,0 -0.640625,0 -0.640625,-0.171875 0,-0.0625 0.015625,-0.109375 0.015625,-0.171875 l 0.6875,-2.734375 h 3.03125 c -0.40625,1.65625 -0.640625,2.609375 -0.6875,2.75 C 5.3125,-0.3125 5.125,-0.3125 4.5,-0.3125 c -0.140625,0 -0.234375,0 -0.234375,0.203125 C 4.265625,0 4.390625,0 4.40625,0 4.6875,0 5.390625,-0.03125 5.671875,-0.03125 5.875,-0.03125 6.09375,-0.015625 6.3125,-0.015625 6.53125,-0.015625 6.75,0 6.953125,0 7.03125,0 7.15625,0 7.15625,-0.203125 7.15625,-0.3125 7.0625,-0.3125 6.875,-0.3125 c -0.359375,0 -0.640625,0 -0.640625,-0.171875 0,-0.0625 0.015625,-0.109375 0.03125,-0.171875 z m 0,0"
               id="id-d02ca4cb-5992-4996-8a1b-6782b4726fd3" />
          </symbol>
          <symbol
             overflow="visible"
             id="id-18577eda-947e-442b-97ae-6b74a4338293">
            <path
               style="stroke:none"
               d=""
               id="id-e7d45e1a-9a37-4931-ae61-b2a3a6e99b2e" />
          </symbol>
          <symbol
             overflow="visible"
             id="id-d00d96b1-04b1-4aa1-8722-c5a2c980d992">
            <path
               style="stroke:none"
               d="m 2.328125,-4.4375 c 0,-0.1875 0,-0.1875 -0.203125,-0.1875 -0.453125,0.4375 -1.078125,0.4375 -1.359375,0.4375 v 0.25 c 0.15625,0 0.625,0 1,-0.1875 v 3.546875 c 0,0.234375 0,0.328125 -0.6875,0.328125 H 0.8125 V 0 c 0.125,0 0.984375,-0.03125 1.234375,-0.03125 0.21875,0 1.09375,0.03125 1.25,0.03125 V -0.25 H 3.03125 c -0.703125,0 -0.703125,-0.09375 -0.703125,-0.328125 z m 0,0"
               id="id-f7c872d0-f833-4c76-a54a-f8a4c90b54b5" />
          </symbol>
        </g>
      </defs>
      <g
         id="id-0c4c0a3c-4c97-4c55-b9ab-7314080ba839"
         transform="translate(-149.103,-127.953)">
        <g
           style="fill:#a30202;fill-opacity:1"
           id="id-73121ed9-689b-4e04-8122-bd4e450fbf37">
          <g
             transform="translate(148.712,134.765)"
             id="g31">
            <path
               style="stroke:none"
               d="M 7.609375,-6.046875 C 7.703125,-6.40625 7.71875,-6.5 8.4375,-6.5 c 0.265625,0 0.34375,0 0.34375,-0.203125 0,-0.109375 -0.109375,-0.109375 -0.140625,-0.109375 -0.28125,0 -1,0.03125 -1.28125,0.03125 -0.28125,0 -0.984375,-0.03125 -1.28125,-0.03125 -0.078125,0 -0.1875,0 -0.1875,0.203125 0,0.109375 0.09375,0.109375 0.28125,0.109375 0.015625,0 0.203125,0 0.375,0.015625 0.1875,0.03125 0.265625,0.03125 0.265625,0.171875 0,0.03125 0,0.046875 -0.03125,0.1875 L 6.1875,-3.703125 H 3.140625 l 0.59375,-2.34375 C 3.8125,-6.40625 3.84375,-6.5 4.5625,-6.5 c 0.265625,0 0.34375,0 0.34375,-0.203125 0,-0.109375 -0.109375,-0.109375 -0.140625,-0.109375 -0.28125,0 -1,0.03125 -1.28125,0.03125 -0.28125,0 -0.984375,-0.03125 -1.28125,-0.03125 -0.078125,0 -0.1875,0 -0.1875,0.203125 0,0.109375 0.09375,0.109375 0.28125,0.109375 0.015625,0 0.203125,0 0.375,0.015625 0.171875,0.03125 0.265625,0.03125 0.265625,0.171875 0,0.03125 0,0.0625 -0.03125,0.1875 L 1.5625,-0.78125 c -0.09375,0.390625 -0.109375,0.46875 -0.90625,0.46875 -0.171875,0 -0.265625,0 -0.265625,0.203125 C 0.390625,0 0.515625,0 0.53125,0 0.8125,0 1.515625,-0.03125 1.796875,-0.03125 2,-0.03125 2.21875,-0.015625 2.4375,-0.015625 2.65625,-0.015625 2.875,0 3.078125,0 3.15625,0 3.28125,0 3.28125,-0.203125 3.28125,-0.3125 3.1875,-0.3125 3,-0.3125 c -0.375,0 -0.640625,0 -0.640625,-0.171875 0,-0.0625 0.015625,-0.109375 0.015625,-0.171875 l 0.6875,-2.734375 h 3.03125 c -0.40625,1.65625 -0.640625,2.609375 -0.6875,2.75 C 5.3125,-0.3125 5.125,-0.3125 4.5,-0.3125 c -0.140625,0 -0.234375,0 -0.234375,0.203125 C 4.265625,0 4.390625,0 4.40625,0 4.6875,0 5.390625,-0.03125 5.671875,-0.03125 5.875,-0.03125 6.09375,-0.015625 6.3125,-0.015625 6.53125,-0.015625 6.75,0 6.953125,0 7.03125,0 7.15625,0 7.15625,-0.203125 7.15625,-0.3125 7.0625,-0.3125 6.875,-0.3125 c -0.359375,0 -0.640625,0 -0.640625,-0.171875 0,-0.0625 0.015625,-0.109375 0.03125,-0.171875 z m 0,0"
               id="id-38b38078-50e9-4f28-83c5-2af960577013" />
          </g>
        </g>
        <g
           style="fill:#a30202;fill-opacity:1"
           id="id-2794b4b2-7445-46a5-82d1-07ca33f5c751">
          <g
             transform="translate(156.994,136.259)"
             id="g32">
            <path
               style="stroke:none"
               d="m 2.328125,-4.4375 c 0,-0.1875 0,-0.1875 -0.203125,-0.1875 -0.453125,0.4375 -1.078125,0.4375 -1.359375,0.4375 v 0.25 c 0.15625,0 0.625,0 1,-0.1875 v 3.546875 c 0,0.234375 0,0.328125 -0.6875,0.328125 H 0.8125 V 0 c 0.125,0 0.984375,-0.03125 1.234375,-0.03125 0.21875,0 1.09375,0.03125 1.25,0.03125 V -0.25 H 3.03125 c -0.703125,0 -0.703125,-0.09375 -0.703125,-0.328125 z m 0,0"
               id="id-278ac62a-2e3f-42e6-92b8-ea248316c4c3" />
          </g>
        </g>
      </g>
    </g>
    <text
       xml:space="preserve"
       style="font-size:4.07351px;line-height:90%;font-family:sans-serif;text-decoration-color:#000000;fill:#000000;stroke-width:0.264583;-inkscape-stroke:none;stop-color:#000000"
       x="186.19933"
       y="157.83415"
       id="text41"><tspan
         sodipodi:role="line"
         id="tspan41"
         style="stroke-width:0.264583"
         x="186.19933"
         y="157.83415">Prüfgröße Z</tspan></text>
    <g
       transform="matrix(0.458139,0,0,0.458139,166.83137,155.35998)"
       ns2:version="1.9.0"
       ns2:texconverter="pdflatex"
       ns2:pdfconverter="inkscape"
       ns2:text="\\definecolor{myred}{RGB}{165, 4, 4}\r\n$\\color{myred}{z_1}$"
       ns2:preamble="/home/matteo/.config/inkscape/extensions/textext/default_packages.tex"
       ns2:scale="1.2986617853854339"
       ns2:alignment="middle center"
       ns2:stroke-to-path="0"
       ns2:inkscapeversion="1.4-dev"
       ns2:jacobian_sqrt="0.458139"
       id="g92">
      <defs
         id="id-1839d306-12af-416d-b561-7aecb9525abd">
        <g
           id="id-85ca8898-b3ec-4df2-abc7-44168c7a47d1">
          <symbol
             overflow="visible"
             id="id-391cd40f-2e80-455b-8bde-7c721c17b19e">
            <path
               style="stroke:none"
               d=""
               id="id-4e51eea9-5e73-4a30-b287-ccf5b0a5730e" />
          </symbol>
          <symbol
             overflow="visible"
             id="id-0a2f763a-0563-4ad6-b3e0-3aa39aa0bd9b">
            <path
               style="stroke:none"
               d="m 1.328125,-0.828125 c 0.53125,-0.578125 0.828125,-0.828125 1.1875,-1.140625 0,0 0.609375,-0.53125 0.96875,-0.890625 C 4.4375,-3.78125 4.65625,-4.265625 4.65625,-4.3125 c 0,-0.09375 -0.09375,-0.09375 -0.109375,-0.09375 -0.078125,0 -0.09375,0.015625 -0.15625,0.109375 -0.296875,0.484375 -0.5,0.640625 -0.734375,0.640625 -0.25,0 -0.359375,-0.15625 -0.515625,-0.328125 -0.1875,-0.21875 -0.359375,-0.421875 -0.6875,-0.421875 -0.75,0 -1.203125,0.921875 -1.203125,1.140625 0,0.046875 0.03125,0.109375 0.109375,0.109375 0.09375,0 0.109375,-0.046875 0.140625,-0.109375 0.1875,-0.46875 0.765625,-0.46875 0.84375,-0.46875 0.203125,0 0.390625,0.0625 0.625,0.140625 0.40625,0.15625 0.515625,0.15625 0.765625,0.15625 -0.359375,0.421875 -1.1875,1.140625 -1.375,1.296875 l -0.90625,0.84375 C 0.78125,-0.625 0.421875,-0.0625 0.421875,0.015625 c 0,0.09375 0.109375,0.09375 0.125,0.09375 0.078125,0 0.09375,-0.015625 0.15625,-0.125 0.234375,-0.359375 0.53125,-0.625 0.859375,-0.625 0.21875,0 0.328125,0.09375 0.578125,0.375 0.15625,0.21875 0.34375,0.375 0.625,0.375 1,0 1.578125,-1.265625 1.578125,-1.53125 0,-0.046875 -0.046875,-0.109375 -0.125,-0.109375 -0.09375,0 -0.109375,0.0625 -0.140625,0.140625 C 3.84375,-0.75 3.203125,-0.5625 2.875,-0.5625 c -0.1875,0 -0.375,-0.0625 -0.578125,-0.125 -0.34375,-0.125 -0.5,-0.171875 -0.703125,-0.171875 -0.015625,0 -0.171875,0 -0.265625,0.03125 z m 0,0"
               id="id-8311e771-f1a1-4939-a20e-2abd3e0692e4" />
          </symbol>
          <symbol
             overflow="visible"
             id="id-5e705de9-8054-45ca-99c6-48a6cab2e203">
            <path
               style="stroke:none"
               d=""
               id="id-e83dc258-4e91-4145-8980-17278757d51d" />
          </symbol>
          <symbol
             overflow="visible"
             id="id-d3cf3163-ed09-4476-aae1-ed3993d7a9d3">
            <path
               style="stroke:none"
               d="m 2.328125,-4.4375 c 0,-0.1875 0,-0.1875 -0.203125,-0.1875 -0.453125,0.4375 -1.078125,0.4375 -1.359375,0.4375 v 0.25 c 0.15625,0 0.625,0 1,-0.1875 v 3.546875 c 0,0.234375 0,0.328125 -0.6875,0.328125 H 0.8125 V 0 c 0.125,0 0.984375,-0.03125 1.234375,-0.03125 0.21875,0 1.09375,0.03125 1.25,0.03125 V -0.25 H 3.03125 c -0.703125,0 -0.703125,-0.09375 -0.703125,-0.328125 z m 0,0"
               id="id-4fe73b1b-f0ee-4b37-b870-fd131c93043c" />
          </symbol>
        </g>
      </defs>
      <g
         id="id-a28f891f-e6c6-4068-bd33-078f3637e309"
         transform="translate(-149.134,-130.359)">
        <g
           style="fill:#a30202;fill-opacity:1"
           id="id-b4a25a14-5664-4bcc-8b59-2c8f30776524">
          <g
             transform="translate(148.712,134.765)"
             id="g70">
            <path
               style="stroke:none"
               d="m 1.328125,-0.828125 c 0.53125,-0.578125 0.828125,-0.828125 1.1875,-1.140625 0,0 0.609375,-0.53125 0.96875,-0.890625 C 4.4375,-3.78125 4.65625,-4.265625 4.65625,-4.3125 c 0,-0.09375 -0.09375,-0.09375 -0.109375,-0.09375 -0.078125,0 -0.09375,0.015625 -0.15625,0.109375 -0.296875,0.484375 -0.5,0.640625 -0.734375,0.640625 -0.25,0 -0.359375,-0.15625 -0.515625,-0.328125 -0.1875,-0.21875 -0.359375,-0.421875 -0.6875,-0.421875 -0.75,0 -1.203125,0.921875 -1.203125,1.140625 0,0.046875 0.03125,0.109375 0.109375,0.109375 0.09375,0 0.109375,-0.046875 0.140625,-0.109375 0.1875,-0.46875 0.765625,-0.46875 0.84375,-0.46875 0.203125,0 0.390625,0.0625 0.625,0.140625 0.40625,0.15625 0.515625,0.15625 0.765625,0.15625 -0.359375,0.421875 -1.1875,1.140625 -1.375,1.296875 l -0.90625,0.84375 C 0.78125,-0.625 0.421875,-0.0625 0.421875,0.015625 c 0,0.09375 0.109375,0.09375 0.125,0.09375 0.078125,0 0.09375,-0.015625 0.15625,-0.125 0.234375,-0.359375 0.53125,-0.625 0.859375,-0.625 0.21875,0 0.328125,0.09375 0.578125,0.375 0.15625,0.21875 0.34375,0.375 0.625,0.375 1,0 1.578125,-1.265625 1.578125,-1.53125 0,-0.046875 -0.046875,-0.109375 -0.125,-0.109375 -0.09375,0 -0.109375,0.0625 -0.140625,0.140625 C 3.84375,-0.75 3.203125,-0.5625 2.875,-0.5625 c -0.1875,0 -0.375,-0.0625 -0.578125,-0.125 -0.34375,-0.125 -0.5,-0.171875 -0.703125,-0.171875 -0.015625,0 -0.171875,0 -0.265625,0.03125 z m 0,0"
               id="id-c3daf75e-3c88-4736-a7c3-d6009c442a36" />
          </g>
        </g>
        <g
           style="fill:#a30202;fill-opacity:1"
           id="id-f7838a30-2b0a-43ab-82d0-024b1a103415">
          <g
             transform="translate(153.345,136.259)"
             id="g71">
            <path
               style="stroke:none"
               d="m 2.328125,-4.4375 c 0,-0.1875 0,-0.1875 -0.203125,-0.1875 -0.453125,0.4375 -1.078125,0.4375 -1.359375,0.4375 v 0.25 c 0.15625,0 0.625,0 1,-0.1875 v 3.546875 c 0,0.234375 0,0.328125 -0.6875,0.328125 H 0.8125 V 0 c 0.125,0 0.984375,-0.03125 1.234375,-0.03125 0.21875,0 1.09375,0.03125 1.25,0.03125 V -0.25 H 3.03125 c -0.703125,0 -0.703125,-0.09375 -0.703125,-0.328125 z m 0,0"
               id="id-c24e4c97-3c03-409d-923b-634a5c1e5807" />
          </g>
        </g>
      </g>
    </g>
    <g
       transform="matrix(0.31958282,0,0,0.458139,170.75637,155.96708)"
       ns2:version="1.9.0"
       ns2:texconverter="pdflatex"
       ns2:pdfconverter="inkscape"
       ns2:text="\\definecolor{myred}{RGB}{165, 4, 4}\r\n$\\color{myred}{=}$"
       ns2:preamble="/home/matteo/.config/inkscape/extensions/textext/default_packages.tex"
       ns2:scale="1.2986617853854339"
       ns2:alignment="middle center"
       ns2:stroke-to-path="0"
       ns2:inkscapeversion="1.4-dev"
       ns2:jacobian_sqrt="0.458139"
       id="g43"
       style="stroke-width:1.19731">
      <defs
         id="id-e7c3fcce-27a5-4c72-a1c8-48535c086d9d">
        <g
           id="id-e4c5876e-1c23-4552-bad1-810e890e4c08">
          <symbol
             overflow="visible"
             id="id-de8195b7-7f7d-42e1-9697-84b9ec7f5945">
            <path
               style="stroke:none"
               d=""
               id="id-e4ee6c1d-84b5-4e30-8125-ed008752fb95" />
          </symbol>
          <symbol
             overflow="visible"
             id="id-aca5420f-d12d-43d8-9a04-0cc29add390d">
            <path
               style="stroke:none"
               d="m 6.84375,-3.265625 c 0.15625,0 0.34375,0 0.34375,-0.1875 C 7.1875,-3.65625 7,-3.65625 6.859375,-3.65625 h -5.96875 c -0.140625,0 -0.328125,0 -0.328125,0.203125 0,0.1875 0.1875,0.1875 0.328125,0.1875 z m 0.015625,1.9375 c 0.140625,0 0.328125,0 0.328125,-0.203125 0,-0.1875 -0.1875,-0.1875 -0.34375,-0.1875 H 0.890625 c -0.140625,0 -0.328125,0 -0.328125,0.1875 0,0.203125 0.1875,0.203125 0.328125,0.203125 z m 0,0"
               id="id-0cca553b-4275-4918-8a5b-d44f50becc39" />
          </symbol>
        </g>
      </defs>
      <g
         id="id-9251d854-bb2b-40b3-9784-58f41e2688a6"
         transform="translate(-149.275,-131.109)"
         style="stroke-width:1.19731">
        <g
           style="fill:#a30202;fill-opacity:1;stroke-width:1.19731"
           id="id-9d970fd3-89ad-4e6b-a70a-01d5d04360a0">
          <g
             transform="translate(148.712,134.765)"
             id="g72"
             style="stroke-width:1.19731">
            <path
               style="stroke:none;stroke-width:1.19731"
               d="m 6.84375,-3.265625 c 0.15625,0 0.34375,0 0.34375,-0.1875 C 7.1875,-3.65625 7,-3.65625 6.859375,-3.65625 h -5.96875 c -0.140625,0 -0.328125,0 -0.328125,0.203125 0,0.1875 0.1875,0.1875 0.328125,0.1875 z m 0.015625,1.9375 c 0.140625,0 0.328125,0 0.328125,-0.203125 0,-0.1875 -0.1875,-0.1875 -0.34375,-0.1875 H 0.890625 c -0.140625,0 -0.328125,0 -0.328125,0.1875 0,0.203125 0.1875,0.203125 0.328125,0.203125 z m 0,0"
               id="id-acd990b6-70a6-4898-b495-19810e32342c" />
          </g>
        </g>
      </g>
    </g>
    <g
       transform="matrix(0.402873,0,0,0.402873,173.42065,154.36718)"
       ns2:version="1.9.0"
       ns2:texconverter="pdflatex"
       ns2:pdfconverter="inkscape"
       ns2:text="\\definecolor{myred}{RGB}{165, 4, 4}\r\n$\\color{myred}{\\sqrt{n}d_1}$"
       ns2:preamble="/home/matteo/.config/inkscape/extensions/textext/default_packages.tex"
       ns2:scale="1.142001117562294"
       ns2:alignment="middle center"
       ns2:stroke-to-path="0"
       ns2:inkscapeversion="1.4-dev"
       ns2:jacobian_sqrt="0.402873"
       id="g69">
      <defs
         id="id-e11e0867-1d85-479a-bf84-a17bfb97f418">
        <g
           id="id-b48e60d0-6b55-4623-9d27-5e0bc53ba622">
          <symbol
             overflow="visible"
             id="id-61fa8eaf-ea12-49dc-be11-493428b2a9dd">
            <path
               style="stroke:none"
               d=""
               id="id-d0464111-50cc-46a1-a7f0-6281d9d5d155" />
          </symbol>
          <symbol
             overflow="visible"
             id="id-d8647650-bc42-49c7-93b9-c94e7bfe1f2a">
            <path
               style="stroke:none"
               d="m 3.875,8.515625 -1.75,-3.875 C 2.046875,4.484375 2,4.484375 1.96875,4.484375 c 0,0 -0.0625,0 -0.171875,0.078125 l -0.9375,0.71875 c -0.125,0.109375 -0.125,0.125 -0.125,0.15625 0,0.0625 0.015625,0.109375 0.09375,0.109375 0.0625,0 0.234375,-0.140625 0.34375,-0.21875 C 1.21875,5.28125 1.375,5.171875 1.484375,5.09375 l 1.96875,4.3125 C 3.515625,9.5625 3.5625,9.5625 3.65625,9.5625 c 0.15625,0 0.1875,-0.046875 0.25,-0.1875 L 8.4375,0 C 8.5,-0.140625 8.5,-0.171875 8.5,-0.203125 8.5,-0.296875 8.421875,-0.40625 8.296875,-0.40625 c -0.078125,0 -0.140625,0.0625 -0.21875,0.21875 z m 0,0"
               id="id-cedec1d1-db51-4bff-bae8-8d335caaefc5" />
          </symbol>
          <symbol
             overflow="visible"
             id="id-d0b95873-49bc-4032-9cf7-ce338a887fed">
            <path
               style="stroke:none"
               d=""
               id="id-41d01af6-1c3f-4d34-8cee-85eea45a8e44" />
          </symbol>
          <symbol
             overflow="visible"
             id="id-5aa8fa93-4674-4c89-aa65-2e8119262ad2">
            <path
               style="stroke:none"
               d="m 0.875,-0.59375 c -0.03125,0.15625 -0.09375,0.390625 -0.09375,0.4375 0,0.171875 0.140625,0.265625 0.296875,0.265625 0.125,0 0.296875,-0.078125 0.375,-0.28125 0,-0.015625 0.125,-0.484375 0.1875,-0.734375 l 0.21875,-0.890625 C 1.90625,-2.03125 1.96875,-2.25 2.03125,-2.46875 c 0.03125,-0.171875 0.109375,-0.46875 0.125,-0.5 0.140625,-0.3125 0.671875,-1.21875 1.625,-1.21875 0.453125,0 0.53125,0.375 0.53125,0.703125 0,0.609375 -0.484375,1.890625 -0.640625,2.3125 C 3.578125,-0.9375 3.5625,-0.8125 3.5625,-0.703125 c 0,0.46875 0.359375,0.8125 0.828125,0.8125 0.9375,0 1.296875,-1.453125 1.296875,-1.53125 0,-0.109375 -0.078125,-0.109375 -0.109375,-0.109375 -0.109375,0 -0.109375,0.03125 -0.15625,0.1875 -0.203125,0.671875 -0.53125,1.234375 -1.015625,1.234375 -0.171875,0 -0.234375,-0.09375 -0.234375,-0.328125 0,-0.25 0.078125,-0.484375 0.171875,-0.703125 0.1875,-0.53125 0.609375,-1.625 0.609375,-2.203125 0,-0.65625 -0.421875,-1.0625 -1.140625,-1.0625 -0.90625,0 -1.390625,0.640625 -1.5625,0.875 -0.046875,-0.5625 -0.453125,-0.875 -0.921875,-0.875 -0.453125,0 -0.640625,0.390625 -0.734375,0.5625 C 0.421875,-3.5 0.296875,-2.90625 0.296875,-2.875 c 0,0.109375 0.09375,0.109375 0.109375,0.109375 0.109375,0 0.109375,-0.015625 0.171875,-0.234375 0.171875,-0.703125 0.375,-1.1875 0.734375,-1.1875 0.1875,0 0.296875,0.125 0.296875,0.453125 0,0.21875 -0.03125,0.328125 -0.15625,0.84375 z m 0,0"
               id="id-e8dc7c20-6a49-443d-819a-9d4aebcae590" />
          </symbol>
          <symbol
             overflow="visible"
             id="id-03cc2af1-c9e1-4978-b5d4-9ea9a6fc36c1">
            <path
               style="stroke:none"
               d="m 5.140625,-6.8125 c 0,0 0,-0.109375 -0.125,-0.109375 -0.15625,0 -1.09375,0.09375 -1.265625,0.109375 -0.078125,0.015625 -0.140625,0.0625 -0.140625,0.1875 0,0.125 0.09375,0.125 0.234375,0.125 0.484375,0 0.5,0.0625 0.5,0.171875 L 4.3125,-6.125 3.71875,-3.765625 C 3.53125,-4.140625 3.25,-4.40625 2.796875,-4.40625 c -1.15625,0 -2.390625,1.46875 -2.390625,2.921875 0,0.9375 0.546875,1.59375 1.3125,1.59375 0.203125,0 0.703125,-0.046875 1.296875,-0.75 0.078125,0.421875 0.4375,0.75 0.90625,0.75 0.359375,0 0.578125,-0.234375 0.75,-0.546875 0.15625,-0.359375 0.296875,-0.96875 0.296875,-0.984375 0,-0.109375 -0.09375,-0.109375 -0.125,-0.109375 -0.09375,0 -0.109375,0.046875 -0.140625,0.1875 -0.171875,0.640625 -0.34375,1.234375 -0.75,1.234375 -0.28125,0 -0.296875,-0.265625 -0.296875,-0.453125 0,-0.25 0.015625,-0.3125 0.046875,-0.484375 z m -2.0625,5.625 C 3.015625,-1 3.015625,-0.984375 2.875,-0.8125 2.4375,-0.265625 2.03125,-0.109375 1.75,-0.109375 c -0.5,0 -0.640625,-0.546875 -0.640625,-0.9375 0,-0.5 0.3125,-1.71875 0.546875,-2.1875 0.3125,-0.578125 0.75,-0.953125 1.15625,-0.953125 0.640625,0 0.78125,0.8125 0.78125,0.875 0,0.0625 -0.015625,0.125 -0.03125,0.171875 z m 0,0"
               id="id-6d84bc5f-67d9-4bb5-9563-cceca722dfad" />
          </symbol>
          <symbol
             overflow="visible"
             id="id-d822fb8a-71a8-4b05-a8b9-5ba517255af2">
            <path
               style="stroke:none"
               d=""
               id="id-43ccbedb-4f6f-418d-ab72-b87ff016c6cc" />
          </symbol>
          <symbol
             overflow="visible"
             id="id-d8ecb1f7-66de-446e-a532-b04585688685">
            <path
               style="stroke:none"
               d="m 2.328125,-4.4375 c 0,-0.1875 0,-0.1875 -0.203125,-0.1875 -0.453125,0.4375 -1.078125,0.4375 -1.359375,0.4375 v 0.25 c 0.15625,0 0.625,0 1,-0.1875 v 3.546875 c 0,0.234375 0,0.328125 -0.6875,0.328125 H 0.8125 V 0 c 0.125,0 0.984375,-0.03125 1.234375,-0.03125 0.21875,0 1.09375,0.03125 1.25,0.03125 V -0.25 H 3.03125 c -0.703125,0 -0.703125,-0.09375 -0.703125,-0.328125 z m 0,0"
               id="id-d94f4695-eb88-44db-9a38-9c1b79169d6e" />
          </symbol>
        </g>
      </defs>
      <g
         id="id-65b73779-db5e-4cf6-9391-c16595c41716"
         transform="translate(-149.446,-127.183)">
        <g
           style="fill:#a30202;fill-opacity:1"
           id="id-207f56ef-f081-4d2c-a988-72a8396ac5e2">
          <g
             transform="translate(148.712,127.589)"
             id="g1">
            <path
               style="stroke:none"
               d="m 3.875,8.515625 -1.75,-3.875 C 2.046875,4.484375 2,4.484375 1.96875,4.484375 c 0,0 -0.0625,0 -0.171875,0.078125 l -0.9375,0.71875 c -0.125,0.109375 -0.125,0.125 -0.125,0.15625 0,0.0625 0.015625,0.109375 0.09375,0.109375 0.0625,0 0.234375,-0.140625 0.34375,-0.21875 C 1.21875,5.28125 1.375,5.171875 1.484375,5.09375 l 1.96875,4.3125 C 3.515625,9.5625 3.5625,9.5625 3.65625,9.5625 c 0.15625,0 0.1875,-0.046875 0.25,-0.1875 L 8.4375,0 C 8.5,-0.140625 8.5,-0.171875 8.5,-0.203125 8.5,-0.296875 8.421875,-0.40625 8.296875,-0.40625 c -0.078125,0 -0.140625,0.0625 -0.21875,0.21875 z m 0,0"
               id="id-95f65a7d-1514-4a1c-b9a9-f59625d745b9" />
          </g>
        </g>
        <path
           style="fill:none;stroke:#a30202;stroke-width:0.398;stroke-linecap:butt;stroke-linejoin:miter;stroke-miterlimit:10;stroke-opacity:1"
           d="M 6.25e-4,-6.25e-4 H 5.981094"
           transform="matrix(1,0,0,-1,157.015,127.39)"
           id="id-49775f99-0fa5-4a2b-b3dd-060fa132bd5b" />
        <g
           style="fill:#a30202;fill-opacity:1"
           id="id-eaaad4a8-87d1-47f6-adf0-4e31a14038fb">
          <g
             transform="translate(157.015,134.765)"
             id="g2">
            <path
               style="stroke:none"
               d="m 0.875,-0.59375 c -0.03125,0.15625 -0.09375,0.390625 -0.09375,0.4375 0,0.171875 0.140625,0.265625 0.296875,0.265625 0.125,0 0.296875,-0.078125 0.375,-0.28125 0,-0.015625 0.125,-0.484375 0.1875,-0.734375 l 0.21875,-0.890625 C 1.90625,-2.03125 1.96875,-2.25 2.03125,-2.46875 c 0.03125,-0.171875 0.109375,-0.46875 0.125,-0.5 0.140625,-0.3125 0.671875,-1.21875 1.625,-1.21875 0.453125,0 0.53125,0.375 0.53125,0.703125 0,0.609375 -0.484375,1.890625 -0.640625,2.3125 C 3.578125,-0.9375 3.5625,-0.8125 3.5625,-0.703125 c 0,0.46875 0.359375,0.8125 0.828125,0.8125 0.9375,0 1.296875,-1.453125 1.296875,-1.53125 0,-0.109375 -0.078125,-0.109375 -0.109375,-0.109375 -0.109375,0 -0.109375,0.03125 -0.15625,0.1875 -0.203125,0.671875 -0.53125,1.234375 -1.015625,1.234375 -0.171875,0 -0.234375,-0.09375 -0.234375,-0.328125 0,-0.25 0.078125,-0.484375 0.171875,-0.703125 0.1875,-0.53125 0.609375,-1.625 0.609375,-2.203125 0,-0.65625 -0.421875,-1.0625 -1.140625,-1.0625 -0.90625,0 -1.390625,0.640625 -1.5625,0.875 -0.046875,-0.5625 -0.453125,-0.875 -0.921875,-0.875 -0.453125,0 -0.640625,0.390625 -0.734375,0.5625 C 0.421875,-3.5 0.296875,-2.90625 0.296875,-2.875 c 0,0.109375 0.09375,0.109375 0.109375,0.109375 0.109375,0 0.109375,-0.015625 0.171875,-0.234375 0.171875,-0.703125 0.375,-1.1875 0.734375,-1.1875 0.1875,0 0.296875,0.125 0.296875,0.453125 0,0.21875 -0.03125,0.328125 -0.15625,0.84375 z m 0,0"
               id="id-380924ec-1ff1-45d5-91d1-a201843e9395" />
          </g>
          <g
             transform="translate(162.995,134.765)"
             id="g3">
            <path
               style="stroke:none"
               d="m 5.140625,-6.8125 c 0,0 0,-0.109375 -0.125,-0.109375 -0.15625,0 -1.09375,0.09375 -1.265625,0.109375 -0.078125,0.015625 -0.140625,0.0625 -0.140625,0.1875 0,0.125 0.09375,0.125 0.234375,0.125 0.484375,0 0.5,0.0625 0.5,0.171875 L 4.3125,-6.125 3.71875,-3.765625 C 3.53125,-4.140625 3.25,-4.40625 2.796875,-4.40625 c -1.15625,0 -2.390625,1.46875 -2.390625,2.921875 0,0.9375 0.546875,1.59375 1.3125,1.59375 0.203125,0 0.703125,-0.046875 1.296875,-0.75 0.078125,0.421875 0.4375,0.75 0.90625,0.75 0.359375,0 0.578125,-0.234375 0.75,-0.546875 0.15625,-0.359375 0.296875,-0.96875 0.296875,-0.984375 0,-0.109375 -0.09375,-0.109375 -0.125,-0.109375 -0.09375,0 -0.109375,0.046875 -0.140625,0.1875 -0.171875,0.640625 -0.34375,1.234375 -0.75,1.234375 -0.28125,0 -0.296875,-0.265625 -0.296875,-0.453125 0,-0.25 0.015625,-0.3125 0.046875,-0.484375 z m -2.0625,5.625 C 3.015625,-1 3.015625,-0.984375 2.875,-0.8125 2.4375,-0.265625 2.03125,-0.109375 1.75,-0.109375 c -0.5,0 -0.640625,-0.546875 -0.640625,-0.9375 0,-0.5 0.3125,-1.71875 0.546875,-2.1875 0.3125,-0.578125 0.75,-0.953125 1.15625,-0.953125 0.640625,0 0.78125,0.8125 0.78125,0.875 0,0.0625 -0.015625,0.125 -0.03125,0.171875 z m 0,0"
               id="id-601174a2-9334-4698-b13f-25851c92cfdc" />
          </g>
        </g>
        <g
           style="fill:#a30202;fill-opacity:1"
           id="id-a9e7588e-85a3-4520-bf33-9ace3475de9e">
          <g
             transform="translate(168.18,136.259)"
             id="g4">
            <path
               style="stroke:none"
               d="m 2.328125,-4.4375 c 0,-0.1875 0,-0.1875 -0.203125,-0.1875 -0.453125,0.4375 -1.078125,0.4375 -1.359375,0.4375 v 0.25 c 0.15625,0 0.625,0 1,-0.1875 v 3.546875 c 0,0.234375 0,0.328125 -0.6875,0.328125 H 0.8125 V 0 c 0.125,0 0.984375,-0.03125 1.234375,-0.03125 0.21875,0 1.09375,0.03125 1.25,0.03125 V -0.25 H 3.03125 c -0.703125,0 -0.703125,-0.09375 -0.703125,-0.328125 z m 0,0"
               id="id-a26349ca-0bca-458a-adfe-61ab3e3df01d" />
          </g>
        </g>
      </g>
    </g>
  </g>
</svg>
