<?xml version="1.0" encoding="UTF-8" standalone="no"?>
<!-- Created with Inkscape (http://www.inkscape.org/) -->

<svg
   width="107.31111mm"
   height="65.666725mm"
   viewBox="0 0 107.31111 65.666726"
   version="1.1"
   id="svg1"
   inkscape:version="1.4-dev (1:1.2.0-alpha1+devel+202308312119+2886f59210)"
   sodipodi:docname="neyman_pearson2.svg"
   inkscape:export-filename="neyman_pearson2.png"
   inkscape:export-xdpi="300"
   inkscape:export-ydpi="300"
   xmlns:inkscape="http://www.inkscape.org/namespaces/inkscape"
   xmlns:sodipodi="http://sodipodi.sourceforge.net/DTD/sodipodi-0.dtd"
   xmlns="http://www.w3.org/2000/svg"
   xmlns:svg="http://www.w3.org/2000/svg"
   xmlns:ns2="http://www.iki.fi/pav/software/textext/">
  <sodipodi:namedview
     id="namedview1"
     pagecolor="#ffffff"
     bordercolor="#000000"
     borderopacity="0.25"
     inkscape:showpageshadow="2"
     inkscape:pageopacity="0.0"
     inkscape:pagecheckerboard="0"
     inkscape:deskcolor="#d1d1d1"
     inkscape:document-units="mm"
     inkscape:zoom="2.1364489"
     inkscape:cx="236.13951"
     inkscape:cy="211.09796"
     inkscape:window-width="1920"
     inkscape:window-height="1007"
     inkscape:window-x="0"
     inkscape:window-y="0"
     inkscape:window-maximized="1"
     inkscape:current-layer="layer1" />
  <defs
     id="defs1">
    <marker
       style="overflow:visible"
       id="Triangle"
       refX="0"
       refY="0"
       orient="auto-start-reverse"
       inkscape:stockid="Triangle arrow"
       markerWidth="0.69999999"
       markerHeight="0.69999999"
       viewBox="0 0 1 1"
       inkscape:isstock="true"
       inkscape:collect="always"
       preserveAspectRatio="xMidYMid">
      <path
         transform="scale(0.5)"
         style="fill:context-stroke;fill-rule:evenodd;stroke:context-stroke;stroke-width:1pt"
         d="M 5.77,0 -2.88,5 V -5 Z"
         id="path135" />
    </marker>
    <inkscape:path-effect
       effect="powerclip"
       id="path-effect65"
       is_visible="true"
       lpeversion="1"
       inverse="true"
       flatten="false"
       hide_clip="false"
       message="Use fill-rule evenodd on &lt;b&gt;fill and stroke&lt;/b&gt; dialog if no flatten result after convert clip to paths." />
    <clipPath
       clipPathUnits="userSpaceOnUse"
       id="clipPath93">
      <path
         fill="none"
         stroke="#0071bc"
         stroke-width="0.198437"
         stroke-linecap="round"
         stroke-linejoin="round"
         stroke-miterlimit="10"
         d="m 102.1407,153.03366 c 1.83127,-0.0572 3.66892,-0.15026 5.4883,-0.42283 1.92641,-0.28931 3.81842,-0.76982 5.63186,-1.64381 1.80707,-0.87146 3.40434,-2.19207 4.88014,-3.73724 1.43462,-1.50118 2.69001,-3.34476 3.79421,-5.22173 1.13648,-1.93059 2.18972,-3.9335 3.16736,-5.99558 1.00737,-2.1243 1.97228,-4.27794 2.92868,-6.43814 0.93772,-2.11772 1.87672,-4.23242 2.85182,-6.32332 0.95301,-2.04439 1.98288,-4.0741 3.1886,-5.90455 0.62472,-0.94834 1.31314,-1.7935 2.08353,-2.55622 0.74959,-0.742 1.65461,-1.15976 2.60167,-1.24829 0.96066,-0.0895 1.87205,0.49568 2.64669,1.12992 0.79249,0.64893 1.45246,1.56086 2.06443,2.45003 1.26262,1.83043 2.27848,3.9168 3.27184,5.97939 0.96277,1.99937 1.85252,4.05336 2.75582,6.0942 0.95132,2.14959 1.90221,4.30019 2.90534,6.41437 0.97254,2.05147 1.9918,4.07562 3.12318,5.99761 1.15984,1.97154 2.43095,3.82576 3.88977,5.46703 1.43462,1.61244 3.07265,2.86932 4.84872,3.80705 1.70896,0.90282 3.5844,1.39545 5.42248,1.67162 1.88946,0.28476 3.78487,0.40615 5.68664,0.47443"
         id="path94"
         style="fill:#ffcccc;fill-opacity:1;stroke:#5d5d5d;stroke-width:0.797999;stroke-dasharray:none;stroke-opacity:1"
         sodipodi:nodetypes="ccccccccccccccccccccc" />
    </clipPath>
    <g
       id="id-e4d9abdf-6bbd-4142-9bf5-18e34651ed3f">
      <symbol
         overflow="visible"
         id="id-f67988ce-1b9d-404a-b255-69bf21c692bd">
        <path
           style="stroke:none"
           d=""
           id="id-0f4a74ee-e13e-4290-98e2-f2538ca3b6cd" />
      </symbol>
      <symbol
         overflow="visible"
         id="id-20273d3e-0967-4ca5-bfd0-9246ae4e0084">
        <path
           style="stroke:none"
           d="m 1.328125,-0.828125 c 0.53125,-0.578125 0.828125,-0.828125 1.1875,-1.140625 0,0 0.609375,-0.53125 0.96875,-0.890625 C 4.4375,-3.78125 4.65625,-4.265625 4.65625,-4.3125 c 0,-0.09375 -0.09375,-0.09375 -0.109375,-0.09375 -0.078125,0 -0.09375,0.015625 -0.15625,0.109375 -0.296875,0.484375 -0.5,0.640625 -0.734375,0.640625 -0.25,0 -0.359375,-0.15625 -0.515625,-0.328125 -0.1875,-0.21875 -0.359375,-0.421875 -0.6875,-0.421875 -0.75,0 -1.203125,0.921875 -1.203125,1.140625 0,0.046875 0.03125,0.109375 0.109375,0.109375 0.09375,0 0.109375,-0.046875 0.140625,-0.109375 0.1875,-0.46875 0.765625,-0.46875 0.84375,-0.46875 0.203125,0 0.390625,0.0625 0.625,0.140625 0.40625,0.15625 0.515625,0.15625 0.765625,0.15625 -0.359375,0.421875 -1.1875,1.140625 -1.375,1.296875 l -0.90625,0.84375 C 0.78125,-0.625 0.421875,-0.0625 0.421875,0.015625 c 0,0.09375 0.109375,0.09375 0.125,0.09375 0.078125,0 0.09375,-0.015625 0.15625,-0.125 0.234375,-0.359375 0.53125,-0.625 0.859375,-0.625 0.21875,0 0.328125,0.09375 0.578125,0.375 0.15625,0.21875 0.34375,0.375 0.625,0.375 1,0 1.578125,-1.265625 1.578125,-1.53125 0,-0.046875 -0.046875,-0.109375 -0.125,-0.109375 -0.09375,0 -0.109375,0.0625 -0.140625,0.140625 C 3.84375,-0.75 3.203125,-0.5625 2.875,-0.5625 c -0.1875,0 -0.375,-0.0625 -0.578125,-0.125 -0.34375,-0.125 -0.5,-0.171875 -0.703125,-0.171875 -0.015625,0 -0.171875,0 -0.265625,0.03125 z m 0,0"
           id="id-82efb623-32fb-4710-bc35-b895332acee8" />
      </symbol>
      <symbol
         overflow="visible"
         id="id-b5698854-3995-48cb-9e2d-076da333420c">
        <path
           style="stroke:none"
           d=""
           id="id-e7d30890-743b-4604-8950-94a1132b1a41" />
      </symbol>
      <symbol
         overflow="visible"
         id="id-0b6cb207-3bf8-4565-982c-a21812b59cdb">
        <path
           style="stroke:none"
           d="m 2.703125,-2.78125 c -0.125,0.0625 -0.1875,0.171875 -0.1875,0.3125 0,0.1875 0.125,0.328125 0.328125,0.328125 0.1875,0 0.328125,-0.125 0.328125,-0.34375 0,-0.625 -0.96875,-0.625 -1.15625,-0.625 -1.046875,0 -1.6875,0.796875 -1.6875,1.609375 0,0.875 0.734375,1.5625 1.65625,1.5625 1.03125,0 1.28125,-0.8125 1.28125,-0.90625 0,-0.078125 -0.09375,-0.078125 -0.125,-0.078125 -0.09375,0 -0.09375,0.015625 -0.125,0.125 C 2.859375,-0.375 2.484375,-0.15625 2.0625,-0.15625 c -0.484375,0 -1.109375,-0.359375 -1.109375,-1.359375 0,-0.875 0.4375,-1.375 1.078125,-1.375 0.09375,0 0.421875,0 0.671875,0.109375 z m 0,0"
           id="id-d2dc7187-54cb-4fe7-918b-101e2fa1c0bf" />
      </symbol>
      <symbol
         overflow="visible"
         id="id-d49c93e5-cb36-4ada-b36b-5d1e400805a0">
        <path
           style="stroke:none"
           d="m 1.390625,-1.59375 c 0,-0.578125 0.265625,-1.28125 0.9375,-1.28125 -0.0625,0.046875 -0.125,0.140625 -0.125,0.25 0,0.234375 0.1875,0.3125 0.3125,0.3125 0.171875,0 0.328125,-0.109375 0.328125,-0.3125 0,-0.234375 -0.234375,-0.453125 -0.5625,-0.453125 -0.34375,0 -0.734375,0.21875 -0.9375,0.75 v -0.75 L 0.34375,-3 v 0.25 c 0.46875,0 0.515625,0.046875 0.515625,0.390625 v 1.8125 C 0.859375,-0.25 0.796875,-0.25 0.34375,-0.25 V 0 c 0.03125,0 0.5,-0.03125 0.796875,-0.03125 0.296875,0 0.59375,0.015625 0.90625,0.03125 V -0.25 H 1.90625 c -0.515625,0 -0.515625,-0.078125 -0.515625,-0.3125 z m 0,0"
           id="id-31ec00f8-c913-4d62-8568-4561429be2dc" />
      </symbol>
      <symbol
         overflow="visible"
         id="id-cec0ed1c-c9d0-4efe-95b8-cdb1206634a7">
        <path
           style="stroke:none"
           d="m 1.46875,-4.296875 c 0,-0.203125 -0.171875,-0.40625 -0.40625,-0.40625 -0.203125,0 -0.390625,0.171875 -0.390625,0.40625 0,0.25 0.203125,0.40625 0.390625,0.40625 0.234375,0 0.40625,-0.171875 0.40625,-0.40625 z M 0.40625,-3 v 0.25 c 0.4375,0 0.5,0.046875 0.5,0.390625 v 1.8125 C 0.90625,-0.25 0.84375,-0.25 0.390625,-0.25 V 0 c 0.015625,0 0.5,-0.03125 0.78125,-0.03125 0.25,0 0.5,0.015625 0.734375,0.03125 V -0.25 C 1.5,-0.25 1.4375,-0.25 1.4375,-0.546875 v -2.53125 z m 0,0"
           id="id-66802831-02dd-4a5e-acaa-ecf62226d9d5" />
      </symbol>
      <symbol
         overflow="visible"
         id="id-993d7281-2da6-44de-b674-975fcf61b191">
        <path
           style="stroke:none"
           d="M 1.40625,-2.75 H 2.484375 V -3 H 1.40625 v -1.28125 h -0.25 c 0,0.625 -0.28125,1.3125 -0.953125,1.328125 V -2.75 H 0.84375 v 1.875 c 0,0.78125 0.59375,0.9375 0.984375,0.9375 0.46875,0 0.78125,-0.390625 0.78125,-0.9375 V -1.265625 H 2.375 v 0.375 c 0,0.484375 -0.21875,0.734375 -0.5,0.734375 -0.46875,0 -0.46875,-0.578125 -0.46875,-0.703125 z m 0,0"
           id="id-84cd6be8-5640-4857-bf35-d94cbbf1aad7" />
      </symbol>
    </g>
    <clipPath
       clipPathUnits="userSpaceOnUse"
       id="clipPath65">
      <rect
         style="display:none;fill:#b6b6b6;fill-opacity:0.569584;stroke:#009d0d;stroke-width:0.3;stroke-dasharray:none;stroke-dashoffset:0;stroke-opacity:1"
         id="rect65"
         width="64.389694"
         height="53.959675"
         x="91.159615"
         y="108.37527"
         d="m 91.159615,108.37527 h 64.389695 v 53.95967 H 91.159615 Z" />
      <path
         id="lpe_path-effect65"
         style="fill:#b6b6b6;fill-opacity:0.569584;stroke:#009d0d;stroke-width:0.3;stroke-dasharray:none;stroke-dashoffset:0;stroke-opacity:1"
         class="powerclip"
         d="m 96.7417,108.13342 h 84.02908 v 50.29924 H 96.7417 Z m -5.582085,0.24185 v 53.95967 h 64.389695 v -53.95967 z" />
    </clipPath>
    <clipPath
       clipPathUnits="userSpaceOnUse"
       id="clipPath68">
      <rect
         style="fill:#b6b6b6;fill-opacity:0.569584;stroke:#009d0d;stroke-width:0.3;stroke-dasharray:none;stroke-dashoffset:0;stroke-opacity:1"
         id="rect68"
         width="59.284832"
         height="47.194347"
         x="96.161797"
         y="113.10232" />
    </clipPath>
  </defs>
  <path
     style="fill:none;stroke:#009d0d;stroke-width:0.600001;stroke-dasharray:none;stroke-dashoffset:0;stroke-opacity:1"
     d="m 54.565708,11.337577 v 40.77236"
     id="path48-2" />
  <g
     inkscape:label="Layer 1"
     inkscape:groupmode="layer"
     id="layer1"
     transform="translate(-101.14815,-103.41283)">
    <path
       fill="none"
       stroke="#0071bc"
       stroke-width="0.198437"
       stroke-linecap="round"
       stroke-linejoin="round"
       stroke-miterlimit="10"
       d="m 102.1407,153.03366 c 1.83127,-0.0572 3.66892,-0.15026 5.4883,-0.42283 1.92641,-0.28931 3.81842,-0.76982 5.63186,-1.64381 1.80707,-0.87146 3.40434,-2.19207 4.88014,-3.73724 1.43462,-1.50118 2.69001,-3.34476 3.79421,-5.22173 1.13648,-1.93059 2.18972,-3.9335 3.16736,-5.99558 1.00737,-2.1243 1.97228,-4.27794 2.92868,-6.43814 0.93772,-2.11772 1.87672,-4.23242 2.85182,-6.32332 0.95301,-2.04439 1.98288,-4.0741 3.1886,-5.90455 0.62472,-0.94834 1.31314,-1.79351 2.08353,-2.55623 0.74959,-0.742 1.65461,-1.15976 2.60167,-1.24829 0.96066,-0.0895 1.87205,0.49568 2.64669,1.12992 0.79249,0.64893 1.45246,1.56087 2.06443,2.45004 1.26262,1.83043 2.27848,3.9168 3.27184,5.97939 0.96277,1.99937 1.85252,4.05336 2.75582,6.0942 0.95132,2.14959 1.90221,4.30019 2.90534,6.41437 0.97254,2.05147 1.9918,4.07562 3.12318,5.99761 1.15984,1.97154 2.43095,3.82576 3.88977,5.46703 1.43462,1.61244 3.07265,2.86932 4.84872,3.80705 1.70896,0.90282 3.5844,1.39545 5.42248,1.67162 1.88946,0.28476 3.78487,0.40615 5.68664,0.47443"
       id="path64"
       style="fill:#b6b6b6;fill-opacity:0.569584;stroke:#5d5d5d;stroke-width:0.798;stroke-dasharray:none;stroke-opacity:1"
       sodipodi:nodetypes="ccccccccccccccccccccc"
       clip-path="url(#clipPath65)"
       inkscape:path-effect="#path-effect65"
       inkscape:original-d="m 102.1407,153.03366 c 1.83127,-0.0572 3.66892,-0.15026 5.4883,-0.42283 1.92641,-0.28931 3.81842,-0.76982 5.63186,-1.64381 1.80707,-0.87146 3.40434,-2.19207 4.88014,-3.73724 1.43462,-1.50118 2.69001,-3.34476 3.79421,-5.22173 1.13648,-1.93059 2.18972,-3.9335 3.16736,-5.99558 1.00737,-2.1243 1.97228,-4.27794 2.92868,-6.43814 0.93772,-2.11772 1.87672,-4.23242 2.85182,-6.32332 0.95301,-2.04439 1.98288,-4.0741 3.1886,-5.90455 0.62472,-0.94834 1.31314,-1.79351 2.08353,-2.55623 0.74959,-0.742 1.65461,-1.15976 2.60167,-1.24829 0.96066,-0.0895 1.87205,0.49568 2.64669,1.12992 0.79249,0.64893 1.45246,1.56087 2.06443,2.45004 1.26262,1.83043 2.27848,3.9168 3.27184,5.97939 0.96277,1.99937 1.85252,4.05336 2.75582,6.0942 0.95132,2.14959 1.90221,4.30019 2.90534,6.41437 0.97254,2.05147 1.9918,4.07562 3.12318,5.99761 1.15984,1.97154 2.43095,3.82576 3.88977,5.46703 1.43462,1.61244 3.07265,2.86932 4.84872,3.80705 1.70896,0.90282 3.5844,1.39545 5.42248,1.67162 1.88946,0.28476 3.78487,0.40615 5.68664,0.47443" />
    <path
       fill="none"
       stroke="#0071bc"
       stroke-width="0.198437"
       stroke-linecap="round"
       stroke-linejoin="round"
       stroke-miterlimit="10"
       d="m 131.24484,153.03366 c 1.83127,-0.0572 3.66892,-0.15026 5.4883,-0.42283 1.92641,-0.28931 3.81842,-0.76982 5.63186,-1.64381 1.80707,-0.87146 3.40434,-2.19207 4.88014,-3.73724 1.43462,-1.50118 2.69001,-3.34476 3.79421,-5.22173 1.13648,-1.93059 2.18972,-3.9335 3.16736,-5.99558 1.00737,-2.1243 1.97228,-4.27794 2.92868,-6.43814 0.93772,-2.11772 1.87672,-4.23242 2.85182,-6.32332 0.95301,-2.04439 1.98288,-4.0741 3.1886,-5.90455 0.62472,-0.94834 1.31314,-1.79351 2.08353,-2.55623 0.74959,-0.742 1.65461,-1.15976 2.60167,-1.24829 0.96066,-0.0895 1.87205,0.49568 2.64669,1.12992 0.79249,0.64893 1.45246,1.56087 2.06443,2.45004 1.26262,1.83043 2.27848,3.9168 3.27184,5.97939 0.96277,1.99937 1.85252,4.05336 2.75582,6.0942 0.95132,2.14959 1.90221,4.30019 2.90534,6.41437 0.97254,2.05147 1.9918,4.07562 3.12318,5.99761 1.15984,1.97154 2.43095,3.82576 3.88977,5.46703 1.43462,1.61244 3.07265,2.86932 4.84872,3.80705 1.70896,0.90282 3.5844,1.39545 5.42248,1.67162 1.88946,0.28476 3.78487,0.40615 5.68664,0.47443"
       id="path2"
       style="fill:#ffbaba;fill-opacity:0.569584;stroke:#a50404;stroke-width:0.798;stroke-dasharray:0.798, 1.596;stroke-dashoffset:0;stroke-opacity:1"
       sodipodi:nodetypes="ccccccccccccccccccccc"
       clip-path="url(#clipPath68)" />
    <path
       fill="none"
       stroke="#0071bc"
       stroke-width="0.198437"
       stroke-linecap="round"
       stroke-linejoin="round"
       stroke-miterlimit="10"
       d="m 131.24484,153.03366 c 1.83127,-0.0572 3.66892,-0.15026 5.4883,-0.42283 1.92641,-0.28931 3.81842,-0.76982 5.63186,-1.64381 1.80707,-0.87146 3.40434,-2.19207 4.88014,-3.73724 1.43462,-1.50118 2.69001,-3.34476 3.79421,-5.22173 1.13648,-1.93059 2.18972,-3.9335 3.16736,-5.99558 1.00737,-2.1243 1.97228,-4.27794 2.92868,-6.43814 0.93772,-2.11772 1.87672,-4.23242 2.85182,-6.32332 0.95301,-2.04439 1.98288,-4.0741 3.1886,-5.90455 0.62472,-0.94834 1.31314,-1.79351 2.08353,-2.55623 0.74959,-0.742 1.65461,-1.15976 2.60167,-1.24829 0.96066,-0.0895 1.87205,0.49568 2.64669,1.12992 0.79249,0.64893 1.45246,1.56087 2.06443,2.45004 1.26262,1.83043 2.27848,3.9168 3.27184,5.97939 0.96277,1.99937 1.85252,4.05336 2.75582,6.0942 0.95132,2.14959 1.90221,4.30019 2.90534,6.41437 0.97254,2.05147 1.9918,4.07562 3.12318,5.99761 1.15984,1.97154 2.43095,3.82576 3.88977,5.46703 1.43462,1.61244 3.07265,2.86932 4.84872,3.80705 1.70896,0.90282 3.5844,1.39545 5.42248,1.67162 1.88946,0.28476 3.78487,0.40615 5.68664,0.47443"
       id="path68"
       style="fill:none;fill-opacity:0.569584;stroke:#a50404;stroke-width:0.798;stroke-dasharray:0.798, 1.596;stroke-dashoffset:0;stroke-opacity:1"
       sodipodi:nodetypes="ccccccccccccccccccccc" />
    <rect
       style="fill:none;stroke:#000000;stroke-width:0.599999;stroke-dasharray:none;stroke-opacity:1"
       id="rect57"
       width="103.30764"
       height="49.573048"
       x="101.44815"
       y="103.71283" />
    <path
       style="fill:none;stroke:#000000;stroke-width:0.600001;stroke-dasharray:none;stroke-opacity:1"
       d="m 138.84217,152.53547 v 2.3952"
       id="path58" />
    <text
       xml:space="preserve"
       style="font-size:4.07351px;line-height:90%;font-family:sans-serif;text-decoration-color:#000000;fill:#000000;stroke-width:0.264583;-inkscape-stroke:none;stop-color:#000000"
       x="137.76732"
       y="158.43275"
       id="text45"><tspan
         sodipodi:role="line"
         id="tspan45"
         style="stroke-width:0.264583"
         x="137.76732"
         y="158.43275">0</tspan></text>
    <path
       style="fill:none;stroke:#000000;stroke-width:0.3;stroke-dasharray:none;stroke-dashoffset:0;stroke-opacity:1"
       d="m 138.84218,113.26332 v 39.5273"
       id="path46" />
    <path
       fill="none"
       stroke="#0071bc"
       stroke-width="0.198437"
       stroke-linecap="round"
       stroke-linejoin="round"
       stroke-miterlimit="10"
       d="m 102.1407,153.03366 c 1.83127,-0.0572 3.66892,-0.15026 5.4883,-0.42283 1.92641,-0.28931 3.81842,-0.76982 5.63186,-1.64381 1.80707,-0.87146 3.40434,-2.19207 4.88014,-3.73724 1.43462,-1.50118 2.69001,-3.34476 3.79421,-5.22173 1.13648,-1.93059 2.18972,-3.9335 3.16736,-5.99558 1.00737,-2.1243 1.97228,-4.27794 2.92868,-6.43814 0.93772,-2.11772 1.87672,-4.23242 2.85182,-6.32332 0.95301,-2.04439 1.98288,-4.0741 3.1886,-5.90455 0.62472,-0.94834 1.31314,-1.79351 2.08353,-2.55623 0.74959,-0.742 1.65461,-1.15976 2.60167,-1.24829 0.96066,-0.0895 1.87205,0.49568 2.64669,1.12992 0.79249,0.64893 1.45246,1.56087 2.06443,2.45004 1.26262,1.83043 2.27848,3.9168 3.27184,5.97939 0.96277,1.99937 1.85252,4.05336 2.75582,6.0942 0.95132,2.14959 1.90221,4.30019 2.90534,6.41437 0.97254,2.05147 1.9918,4.07562 3.12318,5.99761 1.15984,1.97154 2.43095,3.82576 3.88977,5.46703 1.43462,1.61244 3.07265,2.86932 4.84872,3.80705 1.70896,0.90282 3.5844,1.39545 5.42248,1.67162 1.88946,0.28476 3.78487,0.40615 5.68664,0.47443"
       id="path60"
       style="fill:none;fill-opacity:1;stroke:#5d5d5d;stroke-width:0.798;stroke-dasharray:none;stroke-opacity:1"
       sodipodi:nodetypes="ccccccccccccccccccccc" />
    <path
       style="fill:none;stroke:#a50404;stroke-width:0.600001;stroke-dasharray:1.2, 1.2;stroke-dashoffset:0;stroke-opacity:1"
       d="m 167.89418,114.68458 v 40.77236"
       id="path48" />
    <g
       transform="matrix(0.534379,0,0,0.534379,136.26232,108.226)"
       ns2:version="1.9.0"
       ns2:texconverter="pdflatex"
       ns2:pdfconverter="inkscape"
       ns2:text="\\definecolor{mygrey}{RGB}{93, 93, 93}\n$\\color{mygrey}{H_0}$"
       ns2:preamble="/home/matteo/.config/inkscape/extensions/textext/default_packages.tex"
       ns2:scale="1.5147761764323922"
       ns2:alignment="middle center"
       ns2:stroke-to-path="0"
       ns2:inkscapeversion="1.4-dev"
       ns2:jacobian_sqrt="0.534379"
       id="g25">
      <defs
         id="defs19">
        <g
           id="g19">
          <symbol
             overflow="visible"
             id="symbol16">
            <path
               style="stroke:none"
               d=""
               id="path16" />
          </symbol>
          <symbol
             overflow="visible"
             id="symbol17">
            <path
               style="stroke:none"
               d="M 7.609375,-6.046875 C 7.703125,-6.40625 7.71875,-6.5 8.4375,-6.5 c 0.265625,0 0.34375,0 0.34375,-0.203125 0,-0.109375 -0.109375,-0.109375 -0.140625,-0.109375 -0.28125,0 -1,0.03125 -1.28125,0.03125 -0.28125,0 -0.984375,-0.03125 -1.28125,-0.03125 -0.078125,0 -0.1875,0 -0.1875,0.203125 0,0.109375 0.09375,0.109375 0.28125,0.109375 0.015625,0 0.203125,0 0.375,0.015625 0.1875,0.03125 0.265625,0.03125 0.265625,0.171875 0,0.03125 0,0.046875 -0.03125,0.1875 L 6.1875,-3.703125 H 3.140625 l 0.59375,-2.34375 C 3.8125,-6.40625 3.84375,-6.5 4.5625,-6.5 c 0.265625,0 0.34375,0 0.34375,-0.203125 0,-0.109375 -0.109375,-0.109375 -0.140625,-0.109375 -0.28125,0 -1,0.03125 -1.28125,0.03125 -0.28125,0 -0.984375,-0.03125 -1.28125,-0.03125 -0.078125,0 -0.1875,0 -0.1875,0.203125 0,0.109375 0.09375,0.109375 0.28125,0.109375 0.015625,0 0.203125,0 0.375,0.015625 0.171875,0.03125 0.265625,0.03125 0.265625,0.171875 0,0.03125 0,0.0625 -0.03125,0.1875 L 1.5625,-0.78125 c -0.09375,0.390625 -0.109375,0.46875 -0.90625,0.46875 -0.171875,0 -0.265625,0 -0.265625,0.203125 C 0.390625,0 0.515625,0 0.53125,0 0.8125,0 1.515625,-0.03125 1.796875,-0.03125 2,-0.03125 2.21875,-0.015625 2.4375,-0.015625 2.65625,-0.015625 2.875,0 3.078125,0 3.15625,0 3.28125,0 3.28125,-0.203125 3.28125,-0.3125 3.1875,-0.3125 3,-0.3125 c -0.375,0 -0.640625,0 -0.640625,-0.171875 0,-0.0625 0.015625,-0.109375 0.015625,-0.171875 l 0.6875,-2.734375 h 3.03125 c -0.40625,1.65625 -0.640625,2.609375 -0.6875,2.75 C 5.3125,-0.3125 5.125,-0.3125 4.5,-0.3125 c -0.140625,0 -0.234375,0 -0.234375,0.203125 C 4.265625,0 4.390625,0 4.40625,0 4.6875,0 5.390625,-0.03125 5.671875,-0.03125 5.875,-0.03125 6.09375,-0.015625 6.3125,-0.015625 6.53125,-0.015625 6.75,0 6.953125,0 7.03125,0 7.15625,0 7.15625,-0.203125 7.15625,-0.3125 7.0625,-0.3125 6.875,-0.3125 c -0.359375,0 -0.640625,0 -0.640625,-0.171875 0,-0.0625 0.015625,-0.109375 0.03125,-0.171875 z m 0,0"
               id="path17" />
          </symbol>
          <symbol
             overflow="visible"
             id="symbol18">
            <path
               style="stroke:none"
               d=""
               id="path18" />
          </symbol>
          <symbol
             overflow="visible"
             id="symbol19">
            <path
               style="stroke:none"
               d="M 3.59375,-2.21875 C 3.59375,-2.984375 3.5,-3.546875 3.1875,-4.03125 2.96875,-4.34375 2.53125,-4.625 1.984375,-4.625 c -1.625,0 -1.625,1.90625 -1.625,2.40625 0,0.5 0,2.359375 1.625,2.359375 1.609375,0 1.609375,-1.859375 1.609375,-2.359375 z M 1.984375,-0.0625 c -0.328125,0 -0.75,-0.1875 -0.890625,-0.75 C 1,-1.21875 1,-1.796875 1,-2.3125 1,-2.828125 1,-3.359375 1.09375,-3.734375 1.25,-4.28125 1.6875,-4.4375 1.984375,-4.4375 c 0.375,0 0.734375,0.234375 0.859375,0.640625 0.109375,0.375 0.125,0.875 0.125,1.484375 0,0.515625 0,1.03125 -0.09375,1.46875 -0.140625,0.640625 -0.609375,0.78125 -0.890625,0.78125 z m 0,0"
               id="path19" />
          </symbol>
        </g>
      </defs>
      <g
         id="g24"
         transform="translate(-149.103,-127.953)">
        <g
           style="fill:#5c5c5c;fill-opacity:1"
           id="g21">
          <g
             transform="translate(148.712,134.765)"
             id="g20">
            <path
               style="stroke:none"
               d="M 7.609375,-6.046875 C 7.703125,-6.40625 7.71875,-6.5 8.4375,-6.5 c 0.265625,0 0.34375,0 0.34375,-0.203125 0,-0.109375 -0.109375,-0.109375 -0.140625,-0.109375 -0.28125,0 -1,0.03125 -1.28125,0.03125 -0.28125,0 -0.984375,-0.03125 -1.28125,-0.03125 -0.078125,0 -0.1875,0 -0.1875,0.203125 0,0.109375 0.09375,0.109375 0.28125,0.109375 0.015625,0 0.203125,0 0.375,0.015625 0.1875,0.03125 0.265625,0.03125 0.265625,0.171875 0,0.03125 0,0.046875 -0.03125,0.1875 L 6.1875,-3.703125 H 3.140625 l 0.59375,-2.34375 C 3.8125,-6.40625 3.84375,-6.5 4.5625,-6.5 c 0.265625,0 0.34375,0 0.34375,-0.203125 0,-0.109375 -0.109375,-0.109375 -0.140625,-0.109375 -0.28125,0 -1,0.03125 -1.28125,0.03125 -0.28125,0 -0.984375,-0.03125 -1.28125,-0.03125 -0.078125,0 -0.1875,0 -0.1875,0.203125 0,0.109375 0.09375,0.109375 0.28125,0.109375 0.015625,0 0.203125,0 0.375,0.015625 0.171875,0.03125 0.265625,0.03125 0.265625,0.171875 0,0.03125 0,0.0625 -0.03125,0.1875 L 1.5625,-0.78125 c -0.09375,0.390625 -0.109375,0.46875 -0.90625,0.46875 -0.171875,0 -0.265625,0 -0.265625,0.203125 C 0.390625,0 0.515625,0 0.53125,0 0.8125,0 1.515625,-0.03125 1.796875,-0.03125 2,-0.03125 2.21875,-0.015625 2.4375,-0.015625 2.65625,-0.015625 2.875,0 3.078125,0 3.15625,0 3.28125,0 3.28125,-0.203125 3.28125,-0.3125 3.1875,-0.3125 3,-0.3125 c -0.375,0 -0.640625,0 -0.640625,-0.171875 0,-0.0625 0.015625,-0.109375 0.015625,-0.171875 l 0.6875,-2.734375 h 3.03125 c -0.40625,1.65625 -0.640625,2.609375 -0.6875,2.75 C 5.3125,-0.3125 5.125,-0.3125 4.5,-0.3125 c -0.140625,0 -0.234375,0 -0.234375,0.203125 C 4.265625,0 4.390625,0 4.40625,0 4.6875,0 5.390625,-0.03125 5.671875,-0.03125 5.875,-0.03125 6.09375,-0.015625 6.3125,-0.015625 6.53125,-0.015625 6.75,0 6.953125,0 7.03125,0 7.15625,0 7.15625,-0.203125 7.15625,-0.3125 7.0625,-0.3125 6.875,-0.3125 c -0.359375,0 -0.640625,0 -0.640625,-0.171875 0,-0.0625 0.015625,-0.109375 0.03125,-0.171875 z m 0,0"
               id="path20" />
          </g>
        </g>
        <g
           style="fill:#5c5c5c;fill-opacity:1"
           id="g23">
          <g
             transform="translate(156.994,136.259)"
             id="g22">
            <path
               style="stroke:none"
               d="M 3.59375,-2.21875 C 3.59375,-2.984375 3.5,-3.546875 3.1875,-4.03125 2.96875,-4.34375 2.53125,-4.625 1.984375,-4.625 c -1.625,0 -1.625,1.90625 -1.625,2.40625 0,0.5 0,2.359375 1.625,2.359375 1.609375,0 1.609375,-1.859375 1.609375,-2.359375 z M 1.984375,-0.0625 c -0.328125,0 -0.75,-0.1875 -0.890625,-0.75 C 1,-1.21875 1,-1.796875 1,-2.3125 1,-2.828125 1,-3.359375 1.09375,-3.734375 1.25,-4.28125 1.6875,-4.4375 1.984375,-4.4375 c 0.375,0 0.734375,0.234375 0.859375,0.640625 0.109375,0.375 0.125,0.875 0.125,1.484375 0,0.515625 0,1.03125 -0.09375,1.46875 -0.140625,0.640625 -0.609375,0.78125 -0.890625,0.78125 z m 0,0"
               id="path21" />
          </g>
        </g>
      </g>
    </g>
    <g
       transform="matrix(0.534379,0,0,0.534379,165.44552,108.263)"
       ns2:version="1.9.0"
       ns2:texconverter="pdflatex"
       ns2:pdfconverter="inkscape"
       ns2:text="\\definecolor{myred}{RGB}{165, 4, 4}\n$\\color{myred}{H_1}$"
       ns2:preamble="/home/matteo/.config/inkscape/extensions/textext/default_packages.tex"
       ns2:scale="1.5147761764323922"
       ns2:alignment="middle center"
       ns2:stroke-to-path="0"
       ns2:inkscapeversion="1.4-dev"
       ns2:jacobian_sqrt="0.534379"
       id="g16">
      <defs
         id="id-23bac397-a947-4fb6-a57c-a16dfc62b8b6">
        <g
           id="id-f549e359-fe95-46f4-8ce9-c73df6f17094">
          <symbol
             overflow="visible"
             id="id-3cab95ba-b317-496d-813a-3c4b58adf116">
            <path
               style="stroke:none"
               d=""
               id="id-3bb1beba-8923-4a9c-a52e-684b29cb4268" />
          </symbol>
          <symbol
             overflow="visible"
             id="id-4fcb00af-c20d-4e85-923e-3ab5521fb362">
            <path
               style="stroke:none"
               d="M 7.609375,-6.046875 C 7.703125,-6.40625 7.71875,-6.5 8.4375,-6.5 c 0.265625,0 0.34375,0 0.34375,-0.203125 0,-0.109375 -0.109375,-0.109375 -0.140625,-0.109375 -0.28125,0 -1,0.03125 -1.28125,0.03125 -0.28125,0 -0.984375,-0.03125 -1.28125,-0.03125 -0.078125,0 -0.1875,0 -0.1875,0.203125 0,0.109375 0.09375,0.109375 0.28125,0.109375 0.015625,0 0.203125,0 0.375,0.015625 0.1875,0.03125 0.265625,0.03125 0.265625,0.171875 0,0.03125 0,0.046875 -0.03125,0.1875 L 6.1875,-3.703125 H 3.140625 l 0.59375,-2.34375 C 3.8125,-6.40625 3.84375,-6.5 4.5625,-6.5 c 0.265625,0 0.34375,0 0.34375,-0.203125 0,-0.109375 -0.109375,-0.109375 -0.140625,-0.109375 -0.28125,0 -1,0.03125 -1.28125,0.03125 -0.28125,0 -0.984375,-0.03125 -1.28125,-0.03125 -0.078125,0 -0.1875,0 -0.1875,0.203125 0,0.109375 0.09375,0.109375 0.28125,0.109375 0.015625,0 0.203125,0 0.375,0.015625 0.171875,0.03125 0.265625,0.03125 0.265625,0.171875 0,0.03125 0,0.0625 -0.03125,0.1875 L 1.5625,-0.78125 c -0.09375,0.390625 -0.109375,0.46875 -0.90625,0.46875 -0.171875,0 -0.265625,0 -0.265625,0.203125 C 0.390625,0 0.515625,0 0.53125,0 0.8125,0 1.515625,-0.03125 1.796875,-0.03125 2,-0.03125 2.21875,-0.015625 2.4375,-0.015625 2.65625,-0.015625 2.875,0 3.078125,0 3.15625,0 3.28125,0 3.28125,-0.203125 3.28125,-0.3125 3.1875,-0.3125 3,-0.3125 c -0.375,0 -0.640625,0 -0.640625,-0.171875 0,-0.0625 0.015625,-0.109375 0.015625,-0.171875 l 0.6875,-2.734375 h 3.03125 c -0.40625,1.65625 -0.640625,2.609375 -0.6875,2.75 C 5.3125,-0.3125 5.125,-0.3125 4.5,-0.3125 c -0.140625,0 -0.234375,0 -0.234375,0.203125 C 4.265625,0 4.390625,0 4.40625,0 4.6875,0 5.390625,-0.03125 5.671875,-0.03125 5.875,-0.03125 6.09375,-0.015625 6.3125,-0.015625 6.53125,-0.015625 6.75,0 6.953125,0 7.03125,0 7.15625,0 7.15625,-0.203125 7.15625,-0.3125 7.0625,-0.3125 6.875,-0.3125 c -0.359375,0 -0.640625,0 -0.640625,-0.171875 0,-0.0625 0.015625,-0.109375 0.03125,-0.171875 z m 0,0"
               id="id-d02ca4cb-5992-4996-8a1b-6782b4726fd3" />
          </symbol>
          <symbol
             overflow="visible"
             id="id-18577eda-947e-442b-97ae-6b74a4338293">
            <path
               style="stroke:none"
               d=""
               id="id-e7d45e1a-9a37-4931-ae61-b2a3a6e99b2e" />
          </symbol>
          <symbol
             overflow="visible"
             id="id-d00d96b1-04b1-4aa1-8722-c5a2c980d992">
            <path
               style="stroke:none"
               d="m 2.328125,-4.4375 c 0,-0.1875 0,-0.1875 -0.203125,-0.1875 -0.453125,0.4375 -1.078125,0.4375 -1.359375,0.4375 v 0.25 c 0.15625,0 0.625,0 1,-0.1875 v 3.546875 c 0,0.234375 0,0.328125 -0.6875,0.328125 H 0.8125 V 0 c 0.125,0 0.984375,-0.03125 1.234375,-0.03125 0.21875,0 1.09375,0.03125 1.25,0.03125 V -0.25 H 3.03125 c -0.703125,0 -0.703125,-0.09375 -0.703125,-0.328125 z m 0,0"
               id="id-f7c872d0-f833-4c76-a54a-f8a4c90b54b5" />
          </symbol>
        </g>
      </defs>
      <g
         id="id-0c4c0a3c-4c97-4c55-b9ab-7314080ba839"
         transform="translate(-149.103,-127.953)">
        <g
           style="fill:#a30202;fill-opacity:1"
           id="id-73121ed9-689b-4e04-8122-bd4e450fbf37">
          <g
             transform="translate(148.712,134.765)"
             id="g31">
            <path
               style="stroke:none"
               d="M 7.609375,-6.046875 C 7.703125,-6.40625 7.71875,-6.5 8.4375,-6.5 c 0.265625,0 0.34375,0 0.34375,-0.203125 0,-0.109375 -0.109375,-0.109375 -0.140625,-0.109375 -0.28125,0 -1,0.03125 -1.28125,0.03125 -0.28125,0 -0.984375,-0.03125 -1.28125,-0.03125 -0.078125,0 -0.1875,0 -0.1875,0.203125 0,0.109375 0.09375,0.109375 0.28125,0.109375 0.015625,0 0.203125,0 0.375,0.015625 0.1875,0.03125 0.265625,0.03125 0.265625,0.171875 0,0.03125 0,0.046875 -0.03125,0.1875 L 6.1875,-3.703125 H 3.140625 l 0.59375,-2.34375 C 3.8125,-6.40625 3.84375,-6.5 4.5625,-6.5 c 0.265625,0 0.34375,0 0.34375,-0.203125 0,-0.109375 -0.109375,-0.109375 -0.140625,-0.109375 -0.28125,0 -1,0.03125 -1.28125,0.03125 -0.28125,0 -0.984375,-0.03125 -1.28125,-0.03125 -0.078125,0 -0.1875,0 -0.1875,0.203125 0,0.109375 0.09375,0.109375 0.28125,0.109375 0.015625,0 0.203125,0 0.375,0.015625 0.171875,0.03125 0.265625,0.03125 0.265625,0.171875 0,0.03125 0,0.0625 -0.03125,0.1875 L 1.5625,-0.78125 c -0.09375,0.390625 -0.109375,0.46875 -0.90625,0.46875 -0.171875,0 -0.265625,0 -0.265625,0.203125 C 0.390625,0 0.515625,0 0.53125,0 0.8125,0 1.515625,-0.03125 1.796875,-0.03125 2,-0.03125 2.21875,-0.015625 2.4375,-0.015625 2.65625,-0.015625 2.875,0 3.078125,0 3.15625,0 3.28125,0 3.28125,-0.203125 3.28125,-0.3125 3.1875,-0.3125 3,-0.3125 c -0.375,0 -0.640625,0 -0.640625,-0.171875 0,-0.0625 0.015625,-0.109375 0.015625,-0.171875 l 0.6875,-2.734375 h 3.03125 c -0.40625,1.65625 -0.640625,2.609375 -0.6875,2.75 C 5.3125,-0.3125 5.125,-0.3125 4.5,-0.3125 c -0.140625,0 -0.234375,0 -0.234375,0.203125 C 4.265625,0 4.390625,0 4.40625,0 4.6875,0 5.390625,-0.03125 5.671875,-0.03125 5.875,-0.03125 6.09375,-0.015625 6.3125,-0.015625 6.53125,-0.015625 6.75,0 6.953125,0 7.03125,0 7.15625,0 7.15625,-0.203125 7.15625,-0.3125 7.0625,-0.3125 6.875,-0.3125 c -0.359375,0 -0.640625,0 -0.640625,-0.171875 0,-0.0625 0.015625,-0.109375 0.03125,-0.171875 z m 0,0"
               id="id-38b38078-50e9-4f28-83c5-2af960577013" />
          </g>
        </g>
        <g
           style="fill:#a30202;fill-opacity:1"
           id="id-2794b4b2-7445-46a5-82d1-07ca33f5c751">
          <g
             transform="translate(156.994,136.259)"
             id="g32">
            <path
               style="stroke:none"
               d="m 2.328125,-4.4375 c 0,-0.1875 0,-0.1875 -0.203125,-0.1875 -0.453125,0.4375 -1.078125,0.4375 -1.359375,0.4375 v 0.25 c 0.15625,0 0.625,0 1,-0.1875 v 3.546875 c 0,0.234375 0,0.328125 -0.6875,0.328125 H 0.8125 V 0 c 0.125,0 0.984375,-0.03125 1.234375,-0.03125 0.21875,0 1.09375,0.03125 1.25,0.03125 V -0.25 H 3.03125 c -0.703125,0 -0.703125,-0.09375 -0.703125,-0.328125 z m 0,0"
               id="id-278ac62a-2e3f-42e6-92b8-ea248316c4c3" />
          </g>
        </g>
      </g>
    </g>
    <g
       transform="matrix(0.458139,0,0,0.458139,167.0229,155.77343)"
       ns2:version="1.9.0"
       ns2:texconverter="pdflatex"
       ns2:pdfconverter="inkscape"
       ns2:text="\\definecolor{myred}{RGB}{165, 4, 4}\r\n$\\color{myred}{z_1}$"
       ns2:preamble="/home/matteo/.config/inkscape/extensions/textext/default_packages.tex"
       ns2:scale="1.2986617853854339"
       ns2:alignment="middle center"
       ns2:stroke-to-path="0"
       ns2:inkscapeversion="1.4-dev"
       ns2:jacobian_sqrt="0.458139"
       id="g92">
      <defs
         id="id-55b5c772-d5f3-4d37-9344-f9733802be7e">
        <g
           id="id-ce1773b2-eb9e-43ad-a74d-af37975ae0ed">
          <symbol
             overflow="visible"
             id="id-bdcc023b-2931-452f-a609-01672807e735">
            <path
               style="stroke:none"
               d=""
               id="id-6d508126-ad18-4a53-af96-804fcacac53e" />
          </symbol>
          <symbol
             overflow="visible"
             id="id-8675aaeb-d26a-4ce0-9e71-35e9c10c3b3e">
            <path
               style="stroke:none"
               d="m 1.328125,-0.828125 c 0.53125,-0.578125 0.828125,-0.828125 1.1875,-1.140625 0,0 0.609375,-0.53125 0.96875,-0.890625 C 4.4375,-3.78125 4.65625,-4.265625 4.65625,-4.3125 c 0,-0.09375 -0.09375,-0.09375 -0.109375,-0.09375 -0.078125,0 -0.09375,0.015625 -0.15625,0.109375 -0.296875,0.484375 -0.5,0.640625 -0.734375,0.640625 -0.25,0 -0.359375,-0.15625 -0.515625,-0.328125 -0.1875,-0.21875 -0.359375,-0.421875 -0.6875,-0.421875 -0.75,0 -1.203125,0.921875 -1.203125,1.140625 0,0.046875 0.03125,0.109375 0.109375,0.109375 0.09375,0 0.109375,-0.046875 0.140625,-0.109375 0.1875,-0.46875 0.765625,-0.46875 0.84375,-0.46875 0.203125,0 0.390625,0.0625 0.625,0.140625 0.40625,0.15625 0.515625,0.15625 0.765625,0.15625 -0.359375,0.421875 -1.1875,1.140625 -1.375,1.296875 l -0.90625,0.84375 C 0.78125,-0.625 0.421875,-0.0625 0.421875,0.015625 c 0,0.09375 0.109375,0.09375 0.125,0.09375 0.078125,0 0.09375,-0.015625 0.15625,-0.125 0.234375,-0.359375 0.53125,-0.625 0.859375,-0.625 0.21875,0 0.328125,0.09375 0.578125,0.375 0.15625,0.21875 0.34375,0.375 0.625,0.375 1,0 1.578125,-1.265625 1.578125,-1.53125 0,-0.046875 -0.046875,-0.109375 -0.125,-0.109375 -0.09375,0 -0.109375,0.0625 -0.140625,0.140625 C 3.84375,-0.75 3.203125,-0.5625 2.875,-0.5625 c -0.1875,0 -0.375,-0.0625 -0.578125,-0.125 -0.34375,-0.125 -0.5,-0.171875 -0.703125,-0.171875 -0.015625,0 -0.171875,0 -0.265625,0.03125 z m 0,0"
               id="id-6b26eef2-8603-4991-89d4-94fb4cb8bee4" />
          </symbol>
          <symbol
             overflow="visible"
             id="id-c258c019-eec8-4beb-a679-f4995381374e">
            <path
               style="stroke:none"
               d=""
               id="id-68841ccb-e346-49aa-b85e-c4099617e03f" />
          </symbol>
          <symbol
             overflow="visible"
             id="id-c83104d1-a4da-4723-a21f-df4e25340728">
            <path
               style="stroke:none"
               d="m 2.328125,-4.4375 c 0,-0.1875 0,-0.1875 -0.203125,-0.1875 -0.453125,0.4375 -1.078125,0.4375 -1.359375,0.4375 v 0.25 c 0.15625,0 0.625,0 1,-0.1875 v 3.546875 c 0,0.234375 0,0.328125 -0.6875,0.328125 H 0.8125 V 0 c 0.125,0 0.984375,-0.03125 1.234375,-0.03125 0.21875,0 1.09375,0.03125 1.25,0.03125 V -0.25 H 3.03125 c -0.703125,0 -0.703125,-0.09375 -0.703125,-0.328125 z m 0,0"
               id="id-325fb218-c47f-487b-891e-3463c4b0f217" />
          </symbol>
        </g>
      </defs>
      <g
         id="id-f360e72c-f596-45ac-8b3d-c84950c2d1b8"
         transform="translate(-149.134,-130.359)">
        <g
           style="fill:#a30202;fill-opacity:1"
           id="id-e1057069-6349-4b70-af2f-ab3200aa498e">
          <g
             transform="translate(148.712,134.765)"
             id="g40">
            <path
               style="stroke:none"
               d="m 1.328125,-0.828125 c 0.53125,-0.578125 0.828125,-0.828125 1.1875,-1.140625 0,0 0.609375,-0.53125 0.96875,-0.890625 C 4.4375,-3.78125 4.65625,-4.265625 4.65625,-4.3125 c 0,-0.09375 -0.09375,-0.09375 -0.109375,-0.09375 -0.078125,0 -0.09375,0.015625 -0.15625,0.109375 -0.296875,0.484375 -0.5,0.640625 -0.734375,0.640625 -0.25,0 -0.359375,-0.15625 -0.515625,-0.328125 -0.1875,-0.21875 -0.359375,-0.421875 -0.6875,-0.421875 -0.75,0 -1.203125,0.921875 -1.203125,1.140625 0,0.046875 0.03125,0.109375 0.109375,0.109375 0.09375,0 0.109375,-0.046875 0.140625,-0.109375 0.1875,-0.46875 0.765625,-0.46875 0.84375,-0.46875 0.203125,0 0.390625,0.0625 0.625,0.140625 0.40625,0.15625 0.515625,0.15625 0.765625,0.15625 -0.359375,0.421875 -1.1875,1.140625 -1.375,1.296875 l -0.90625,0.84375 C 0.78125,-0.625 0.421875,-0.0625 0.421875,0.015625 c 0,0.09375 0.109375,0.09375 0.125,0.09375 0.078125,0 0.09375,-0.015625 0.15625,-0.125 0.234375,-0.359375 0.53125,-0.625 0.859375,-0.625 0.21875,0 0.328125,0.09375 0.578125,0.375 0.15625,0.21875 0.34375,0.375 0.625,0.375 1,0 1.578125,-1.265625 1.578125,-1.53125 0,-0.046875 -0.046875,-0.109375 -0.125,-0.109375 -0.09375,0 -0.109375,0.0625 -0.140625,0.140625 C 3.84375,-0.75 3.203125,-0.5625 2.875,-0.5625 c -0.1875,0 -0.375,-0.0625 -0.578125,-0.125 -0.34375,-0.125 -0.5,-0.171875 -0.703125,-0.171875 -0.015625,0 -0.171875,0 -0.265625,0.03125 z m 0,0"
               id="id-5a73ba2d-35c0-4829-980e-62a1cd360435" />
          </g>
        </g>
        <g
           style="fill:#a30202;fill-opacity:1"
           id="id-e4033534-bc5d-42d2-a636-0d7710689450">
          <g
             transform="translate(153.345,136.259)"
             id="g41">
            <path
               style="stroke:none"
               d="m 2.328125,-4.4375 c 0,-0.1875 0,-0.1875 -0.203125,-0.1875 -0.453125,0.4375 -1.078125,0.4375 -1.359375,0.4375 v 0.25 c 0.15625,0 0.625,0 1,-0.1875 v 3.546875 c 0,0.234375 0,0.328125 -0.6875,0.328125 H 0.8125 V 0 c 0.125,0 0.984375,-0.03125 1.234375,-0.03125 0.21875,0 1.09375,0.03125 1.25,0.03125 V -0.25 H 3.03125 c -0.703125,0 -0.703125,-0.09375 -0.703125,-0.328125 z m 0,0"
               id="id-6922f668-e972-4641-87d4-d2ff66368efc" />
          </g>
        </g>
      </g>
    </g>
    <text
       xml:space="preserve"
       style="font-size:4.07351px;line-height:90%;font-family:sans-serif;text-decoration-color:#000000;fill:#000000;stroke-width:0.264583;-inkscape-stroke:none;stop-color:#000000"
       x="185.93256"
       y="158.02864"
       id="text41"><tspan
         sodipodi:role="line"
         id="tspan41"
         style="stroke-width:0.264583"
         x="185.93256"
         y="158.02864">Prüfgröße Z</tspan></text>
    <path
       style="fill:none;fill-opacity:0.569584;stroke:#000000;stroke-width:0.3;stroke-dasharray:none;stroke-dashoffset:0;stroke-opacity:1"
       d="m 152.3607,144.49475 36.82927,-28.97003"
       id="path70" />
    <path
       style="fill:none;fill-opacity:0.569584;stroke:#000000;stroke-width:0.300001;stroke-dasharray:none;stroke-dashoffset:0;stroke-opacity:1"
       d="M 158.60485,150.85129 112.37786,130.05488"
       id="path69" />
    <rect
       style="fill:#d6d6d6;fill-opacity:1;stroke:none;stroke-width:0.300001;stroke-dasharray:none;stroke-dashoffset:0;stroke-opacity:1"
       id="rect73"
       width="24.727261"
       height="13.595064"
       x="102.64598"
       y="116.78816" />
    <text
       xml:space="preserve"
       style="font-size:3.04863px;line-height:100%;font-family:sans-serif;text-decoration-color:#000000;fill:#000000;stroke-width:0.264583;-inkscape-stroke:none;stop-color:#000000"
       x="104.95659"
       y="118.28017"
       id="text69"
       transform="scale(0.98531943,1.0148993)"><tspan
         sodipodi:role="line"
         id="tspan69"
         style="font-weight:bold;line-height:100%;stroke-width:0.264583"
         x="104.95659"
         y="118.28017">Falls H<tspan
   style="font-size:65%;baseline-shift:sub"
   id="tspan82">0</tspan> korrekt:</tspan><tspan
         sodipodi:role="line"
         style="line-height:100%;stroke-width:0.264583"
         x="104.95659"
         y="121.62303"
         id="tspan79">Fehler 1. Art</tspan><tspan
         sodipodi:role="line"
         style="line-height:100%;stroke-width:0.264583"
         x="104.95659"
         y="124.67166"
         id="tspan70">(false positive)</tspan><tspan
         sodipodi:role="line"
         style="line-height:100%;stroke-width:0.264583"
         x="104.95659"
         y="127.72029"
         id="tspan77">Flächeninhalt = α</tspan></text>
    <rect
       style="fill:#ffd8d8;fill-opacity:1;stroke:none;stroke-width:0.3;stroke-dasharray:none;stroke-dashoffset:0;stroke-opacity:1"
       id="rect72"
       width="25.765932"
       height="13.862416"
       x="177.55272"
       y="108.53932" />
    <text
       xml:space="preserve"
       style="font-size:3.09405px;line-height:100%;font-family:sans-serif;text-decoration-color:#000000;fill:#000000;stroke-width:0.264583;-inkscape-stroke:none;stop-color:#000000"
       x="178.77847"
       y="111.92877"
       id="text72"><tspan
         sodipodi:role="line"
         id="tspan71"
         style="font-weight:bold;line-height:100%;stroke-width:0.264583"
         x="178.77847"
         y="111.92877">Falls H<tspan
   style="font-size:65%;line-height:100%;baseline-shift:sub"
   id="tspan81">1</tspan> korrekt:</tspan><tspan
         sodipodi:role="line"
         style="line-height:100%;stroke-width:0.264583"
         x="178.77847"
         y="115.02282"
         id="tspan80">Fehler 2. Art</tspan><tspan
         sodipodi:role="line"
         style="line-height:100%;stroke-width:0.264583"
         x="178.77847"
         y="118.11687"
         id="tspan72">(false negative)</tspan><tspan
         sodipodi:role="line"
         style="line-height:100%;stroke-width:0.264583"
         x="178.77847"
         y="121.21092"
         id="tspan78">Flächeninhalt = β</tspan></text>
    <text
       xml:space="preserve"
       style="font-size:3.41701px;line-height:90%;font-family:sans-serif;text-decoration-color:#000000;fill:#000000;stroke-width:0.264583;-inkscape-stroke:none;stop-color:#000000"
       x="157.30344"
       y="165.71912"
       id="text75"><tspan
         sodipodi:role="line"
         style="stroke-width:0.264583"
         x="157.30344"
         y="165.71912"
         id="tspan75">Ablehnungsbereich der H<tspan
   style="font-size:2.22105px;baseline-shift:sub;stroke-width:0.264583"
   id="tspan76">0</tspan></tspan></text>
  </g>
  <g
     transform="matrix(0.458139,0,0,0.458139,52.087418,52.457687)"
     ns2:version="1.9.0"
     ns2:texconverter="pdflatex"
     ns2:pdfconverter="inkscape"
     ns2:text="\\definecolor{mygreen}{RGB}{0, 157, 13}\r\n$\\color{mygreen}{z_\\text{crit}}$"
     ns2:preamble="/home/matteo/.config/inkscape/extensions/textext/default_packages.tex"
     ns2:scale="1.2986617853854339"
     ns2:alignment="middle center"
     ns2:stroke-to-path="0"
     ns2:inkscapeversion="1.4-dev"
     ns2:jacobian_sqrt="0.458139"
     id="g55">
    <defs
       id="id-9c2abe31-e418-4746-93e3-1fe2e605ba49">
      <g
         id="g63">
        <symbol
           overflow="visible"
           id="symbol55">
          <path
             style="stroke:none"
             d=""
             id="path55" />
        </symbol>
        <symbol
           overflow="visible"
           id="symbol56">
          <path
             style="stroke:none"
             d="m 1.328125,-0.828125 c 0.53125,-0.578125 0.828125,-0.828125 1.1875,-1.140625 0,0 0.609375,-0.53125 0.96875,-0.890625 C 4.4375,-3.78125 4.65625,-4.265625 4.65625,-4.3125 c 0,-0.09375 -0.09375,-0.09375 -0.109375,-0.09375 -0.078125,0 -0.09375,0.015625 -0.15625,0.109375 -0.296875,0.484375 -0.5,0.640625 -0.734375,0.640625 -0.25,0 -0.359375,-0.15625 -0.515625,-0.328125 -0.1875,-0.21875 -0.359375,-0.421875 -0.6875,-0.421875 -0.75,0 -1.203125,0.921875 -1.203125,1.140625 0,0.046875 0.03125,0.109375 0.109375,0.109375 0.09375,0 0.109375,-0.046875 0.140625,-0.109375 0.1875,-0.46875 0.765625,-0.46875 0.84375,-0.46875 0.203125,0 0.390625,0.0625 0.625,0.140625 0.40625,0.15625 0.515625,0.15625 0.765625,0.15625 -0.359375,0.421875 -1.1875,1.140625 -1.375,1.296875 l -0.90625,0.84375 C 0.78125,-0.625 0.421875,-0.0625 0.421875,0.015625 c 0,0.09375 0.109375,0.09375 0.125,0.09375 0.078125,0 0.09375,-0.015625 0.15625,-0.125 0.234375,-0.359375 0.53125,-0.625 0.859375,-0.625 0.21875,0 0.328125,0.09375 0.578125,0.375 0.15625,0.21875 0.34375,0.375 0.625,0.375 1,0 1.578125,-1.265625 1.578125,-1.53125 0,-0.046875 -0.046875,-0.109375 -0.125,-0.109375 -0.09375,0 -0.109375,0.0625 -0.140625,0.140625 C 3.84375,-0.75 3.203125,-0.5625 2.875,-0.5625 c -0.1875,0 -0.375,-0.0625 -0.578125,-0.125 -0.34375,-0.125 -0.5,-0.171875 -0.703125,-0.171875 -0.015625,0 -0.171875,0 -0.265625,0.03125 z m 0,0"
             id="path56" />
        </symbol>
        <symbol
           overflow="visible"
           id="symbol57">
          <path
             style="stroke:none"
             d=""
             id="path57" />
        </symbol>
        <symbol
           overflow="visible"
           id="symbol59">
          <path
             style="stroke:none"
             d="m 2.703125,-2.78125 c -0.125,0.0625 -0.1875,0.171875 -0.1875,0.3125 0,0.1875 0.125,0.328125 0.328125,0.328125 0.1875,0 0.328125,-0.125 0.328125,-0.34375 0,-0.625 -0.96875,-0.625 -1.15625,-0.625 -1.046875,0 -1.6875,0.796875 -1.6875,1.609375 0,0.875 0.734375,1.5625 1.65625,1.5625 1.03125,0 1.28125,-0.8125 1.28125,-0.90625 0,-0.078125 -0.09375,-0.078125 -0.125,-0.078125 -0.09375,0 -0.09375,0.015625 -0.125,0.125 C 2.859375,-0.375 2.484375,-0.15625 2.0625,-0.15625 c -0.484375,0 -1.109375,-0.359375 -1.109375,-1.359375 0,-0.875 0.4375,-1.375 1.078125,-1.375 0.09375,0 0.421875,0 0.671875,0.109375 z m 0,0"
             id="path59" />
        </symbol>
        <symbol
           overflow="visible"
           id="symbol61">
          <path
             style="stroke:none"
             d="m 1.390625,-1.59375 c 0,-0.578125 0.265625,-1.28125 0.9375,-1.28125 -0.0625,0.046875 -0.125,0.140625 -0.125,0.25 0,0.234375 0.1875,0.3125 0.3125,0.3125 0.171875,0 0.328125,-0.109375 0.328125,-0.3125 0,-0.234375 -0.234375,-0.453125 -0.5625,-0.453125 -0.34375,0 -0.734375,0.21875 -0.9375,0.75 v -0.75 L 0.34375,-3 v 0.25 c 0.46875,0 0.515625,0.046875 0.515625,0.390625 v 1.8125 C 0.859375,-0.25 0.796875,-0.25 0.34375,-0.25 V 0 c 0.03125,0 0.5,-0.03125 0.796875,-0.03125 0.296875,0 0.59375,0.015625 0.90625,0.03125 V -0.25 H 1.90625 c -0.515625,0 -0.515625,-0.078125 -0.515625,-0.3125 z m 0,0"
             id="path61" />
        </symbol>
        <symbol
           overflow="visible"
           id="symbol62">
          <path
             style="stroke:none"
             d="m 1.46875,-4.296875 c 0,-0.203125 -0.171875,-0.40625 -0.40625,-0.40625 -0.203125,0 -0.390625,0.171875 -0.390625,0.40625 0,0.25 0.203125,0.40625 0.390625,0.40625 0.234375,0 0.40625,-0.171875 0.40625,-0.40625 z M 0.40625,-3 v 0.25 c 0.4375,0 0.5,0.046875 0.5,0.390625 v 1.8125 C 0.90625,-0.25 0.84375,-0.25 0.390625,-0.25 V 0 c 0.015625,0 0.5,-0.03125 0.78125,-0.03125 0.25,0 0.5,0.015625 0.734375,0.03125 V -0.25 C 1.5,-0.25 1.4375,-0.25 1.4375,-0.546875 v -2.53125 z m 0,0"
             id="path62" />
        </symbol>
        <symbol
           overflow="visible"
           id="symbol63">
          <path
             style="stroke:none"
             d="M 1.40625,-2.75 H 2.484375 V -3 H 1.40625 v -1.28125 h -0.25 c 0,0.625 -0.28125,1.3125 -0.953125,1.328125 V -2.75 H 0.84375 v 1.875 c 0,0.78125 0.59375,0.9375 0.984375,0.9375 0.46875,0 0.78125,-0.390625 0.78125,-0.9375 V -1.265625 H 2.375 v 0.375 c 0,0.484375 -0.21875,0.734375 -0.5,0.734375 -0.46875,0 -0.46875,-0.578125 -0.46875,-0.703125 z m 0,0"
             id="path63" />
        </symbol>
      </g>
    </defs>
    <g
       id="id-bd885806-a17d-4303-a508-2125189492c5"
       transform="translate(-149.134,-130.359)">
      <g
         style="fill:#009c0c;fill-opacity:1"
         id="id-826d59b7-883b-452a-98d1-ac953776b972">
        <g
           transform="translate(148.712,134.765)"
           id="g50">
          <path
             style="stroke:none"
             d="m 1.328125,-0.828125 c 0.53125,-0.578125 0.828125,-0.828125 1.1875,-1.140625 0,0 0.609375,-0.53125 0.96875,-0.890625 C 4.4375,-3.78125 4.65625,-4.265625 4.65625,-4.3125 c 0,-0.09375 -0.09375,-0.09375 -0.109375,-0.09375 -0.078125,0 -0.09375,0.015625 -0.15625,0.109375 -0.296875,0.484375 -0.5,0.640625 -0.734375,0.640625 -0.25,0 -0.359375,-0.15625 -0.515625,-0.328125 -0.1875,-0.21875 -0.359375,-0.421875 -0.6875,-0.421875 -0.75,0 -1.203125,0.921875 -1.203125,1.140625 0,0.046875 0.03125,0.109375 0.109375,0.109375 0.09375,0 0.109375,-0.046875 0.140625,-0.109375 0.1875,-0.46875 0.765625,-0.46875 0.84375,-0.46875 0.203125,0 0.390625,0.0625 0.625,0.140625 0.40625,0.15625 0.515625,0.15625 0.765625,0.15625 -0.359375,0.421875 -1.1875,1.140625 -1.375,1.296875 l -0.90625,0.84375 C 0.78125,-0.625 0.421875,-0.0625 0.421875,0.015625 c 0,0.09375 0.109375,0.09375 0.125,0.09375 0.078125,0 0.09375,-0.015625 0.15625,-0.125 0.234375,-0.359375 0.53125,-0.625 0.859375,-0.625 0.21875,0 0.328125,0.09375 0.578125,0.375 0.15625,0.21875 0.34375,0.375 0.625,0.375 1,0 1.578125,-1.265625 1.578125,-1.53125 0,-0.046875 -0.046875,-0.109375 -0.125,-0.109375 -0.09375,0 -0.109375,0.0625 -0.140625,0.140625 C 3.84375,-0.75 3.203125,-0.5625 2.875,-0.5625 c -0.1875,0 -0.375,-0.0625 -0.578125,-0.125 -0.34375,-0.125 -0.5,-0.171875 -0.703125,-0.171875 -0.015625,0 -0.171875,0 -0.265625,0.03125 z m 0,0"
             id="id-cc23d0b8-d331-427f-8705-f509ae370cea" />
        </g>
      </g>
      <g
         style="fill:#009c0c;fill-opacity:1"
         id="id-fbd3b499-d26b-4d6f-a015-dc5d3b90779b">
        <g
           transform="translate(153.345,136.259)"
           id="g51">
          <path
             style="stroke:none"
             d="m 2.703125,-2.78125 c -0.125,0.0625 -0.1875,0.171875 -0.1875,0.3125 0,0.1875 0.125,0.328125 0.328125,0.328125 0.1875,0 0.328125,-0.125 0.328125,-0.34375 0,-0.625 -0.96875,-0.625 -1.15625,-0.625 -1.046875,0 -1.6875,0.796875 -1.6875,1.609375 0,0.875 0.734375,1.5625 1.65625,1.5625 1.03125,0 1.28125,-0.8125 1.28125,-0.90625 0,-0.078125 -0.09375,-0.078125 -0.125,-0.078125 -0.09375,0 -0.09375,0.015625 -0.125,0.125 C 2.859375,-0.375 2.484375,-0.15625 2.0625,-0.15625 c -0.484375,0 -1.109375,-0.359375 -1.109375,-1.359375 0,-0.875 0.4375,-1.375 1.078125,-1.375 0.09375,0 0.421875,0 0.671875,0.109375 z m 0,0"
             id="id-cf11fd79-9026-480e-8295-223f08a2a5d6" />
        </g>
        <g
           transform="translate(156.887,136.259)"
           id="g52">
          <path
             style="stroke:none"
             d="m 1.390625,-1.59375 c 0,-0.578125 0.265625,-1.28125 0.9375,-1.28125 -0.0625,0.046875 -0.125,0.140625 -0.125,0.25 0,0.234375 0.1875,0.3125 0.3125,0.3125 0.171875,0 0.328125,-0.109375 0.328125,-0.3125 0,-0.234375 -0.234375,-0.453125 -0.5625,-0.453125 -0.34375,0 -0.734375,0.21875 -0.9375,0.75 v -0.75 L 0.34375,-3 v 0.25 c 0.46875,0 0.515625,0.046875 0.515625,0.390625 v 1.8125 C 0.859375,-0.25 0.796875,-0.25 0.34375,-0.25 V 0 c 0.03125,0 0.5,-0.03125 0.796875,-0.03125 0.296875,0 0.59375,0.015625 0.90625,0.03125 V -0.25 H 1.90625 c -0.515625,0 -0.515625,-0.078125 -0.515625,-0.3125 z m 0,0"
             id="id-0199516c-df16-45ac-867d-c90560000b7c" />
        </g>
        <g
           transform="translate(160,136.259)"
           id="g53">
          <path
             style="stroke:none"
             d="m 1.46875,-4.296875 c 0,-0.203125 -0.171875,-0.40625 -0.40625,-0.40625 -0.203125,0 -0.390625,0.171875 -0.390625,0.40625 0,0.25 0.203125,0.40625 0.390625,0.40625 0.234375,0 0.40625,-0.171875 0.40625,-0.40625 z M 0.40625,-3 v 0.25 c 0.4375,0 0.5,0.046875 0.5,0.390625 v 1.8125 C 0.90625,-0.25 0.84375,-0.25 0.390625,-0.25 V 0 c 0.015625,0 0.5,-0.03125 0.78125,-0.03125 0.25,0 0.5,0.015625 0.734375,0.03125 V -0.25 C 1.5,-0.25 1.4375,-0.25 1.4375,-0.546875 v -2.53125 z m 0,0"
             id="id-f653c016-a1ef-4e09-abf4-ec433b0b87da" />
        </g>
        <g
           transform="translate(162.255,136.259)"
           id="g54">
          <path
             style="stroke:none"
             d="M 1.40625,-2.75 H 2.484375 V -3 H 1.40625 v -1.28125 h -0.25 c 0,0.625 -0.28125,1.3125 -0.953125,1.328125 V -2.75 H 0.84375 v 1.875 c 0,0.78125 0.59375,0.9375 0.984375,0.9375 0.46875,0 0.78125,-0.390625 0.78125,-0.9375 V -1.265625 H 2.375 v 0.375 c 0,0.484375 -0.21875,0.734375 -0.5,0.734375 -0.46875,0 -0.46875,-0.578125 -0.46875,-0.703125 z m 0,0"
             id="id-77a54e18-7aac-412c-9509-f2b328e5dec1" />
        </g>
      </g>
    </g>
  </g>
  <path
     style="fill:none;stroke:#009d0d;stroke-width:0.6;stroke-dasharray:none;stroke-dashoffset:0;stroke-opacity:1"
     d="m 54.565708,56.303904 v 9.362823"
     id="path73" />
  <path
     style="fill:none;fill-opacity:1;stroke:#000000;stroke-width:0.5;stroke-dasharray:none;stroke-dashoffset:0;stroke-opacity:1;marker-end:url(#Triangle)"
     d="M 54.978874,58.400706 H 106.06824"
     id="path74" />
</svg>
