<?xml version="1.0" encoding="UTF-8" standalone="no"?>
<!-- Created with Inkscape (http://www.inkscape.org/) -->

<svg
   width="78.18644mm"
   height="60.532185mm"
   viewBox="0 0 78.186438 60.532185"
   version="1.1"
   id="svg1"
   inkscape:version="1.4-dev (1:1.2.0-alpha1+devel+202308312119+2886f59210)"
   sodipodi:docname="nulldist2b.svg"
   inkscape:export-filename="nulldist2b.png"
   inkscape:export-xdpi="300"
   inkscape:export-ydpi="300"
   xmlns:inkscape="http://www.inkscape.org/namespaces/inkscape"
   xmlns:sodipodi="http://sodipodi.sourceforge.net/DTD/sodipodi-0.dtd"
   xmlns="http://www.w3.org/2000/svg"
   xmlns:svg="http://www.w3.org/2000/svg"
   xmlns:ns2="http://www.iki.fi/pav/software/textext/">
  <sodipodi:namedview
     id="namedview1"
     pagecolor="#ffffff"
     bordercolor="#000000"
     borderopacity="0.25"
     inkscape:showpageshadow="2"
     inkscape:pageopacity="0.0"
     inkscape:pagecheckerboard="0"
     inkscape:deskcolor="#d1d1d1"
     inkscape:document-units="mm"
     inkscape:zoom="2.9279062"
     inkscape:cx="135.76255"
     inkscape:cy="147.20417"
     inkscape:window-width="1920"
     inkscape:window-height="1007"
     inkscape:window-x="0"
     inkscape:window-y="0"
     inkscape:window-maximized="1"
     inkscape:current-layer="layer1" />
  <defs
     id="defs1">
    <marker
       style="overflow:visible"
       id="Triangle"
       refX="0"
       refY="0"
       orient="auto-start-reverse"
       inkscape:stockid="Triangle arrow"
       markerWidth="0.5"
       markerHeight="0.60000002"
       viewBox="0 0 1 1"
       inkscape:isstock="true"
       inkscape:collect="always"
       preserveAspectRatio="xMidYMid">
      <path
         transform="scale(0.5)"
         style="fill:context-stroke;fill-rule:evenodd;stroke:context-stroke;stroke-width:1pt"
         d="M 5.77,0 -2.88,5 V -5 Z"
         id="path135" />
    </marker>
    <clipPath
       clipPathUnits="userSpaceOnUse"
       id="clipPath93">
      <path
         fill="none"
         stroke="#0071bc"
         stroke-width="0.198437"
         stroke-linecap="round"
         stroke-linejoin="round"
         stroke-miterlimit="10"
         d="m 102.1407,153.03366 c 1.83127,-0.0572 3.66892,-0.15026 5.4883,-0.42283 1.92641,-0.28931 3.81842,-0.76982 5.63186,-1.64381 1.80707,-0.87146 3.40434,-2.19207 4.88014,-3.73724 1.43462,-1.50118 2.69001,-3.34476 3.79421,-5.22173 1.13648,-1.93059 2.18972,-3.9335 3.16736,-5.99558 1.00737,-2.1243 1.97228,-4.27794 2.92868,-6.43814 0.93772,-2.11772 1.87672,-4.23242 2.85182,-6.32332 0.95301,-2.04439 1.98288,-4.0741 3.1886,-5.90455 0.62472,-0.94834 1.31314,-1.7935 2.08353,-2.55622 0.74959,-0.742 1.65461,-1.15976 2.60167,-1.24829 0.96066,-0.0895 1.87205,0.49568 2.64669,1.12992 0.79249,0.64893 1.45246,1.56086 2.06443,2.45003 1.26262,1.83043 2.27848,3.9168 3.27184,5.97939 0.96277,1.99937 1.85252,4.05336 2.75582,6.0942 0.95132,2.14959 1.90221,4.30019 2.90534,6.41437 0.97254,2.05147 1.9918,4.07562 3.12318,5.99761 1.15984,1.97154 2.43095,3.82576 3.88977,5.46703 1.43462,1.61244 3.07265,2.86932 4.84872,3.80705 1.70896,0.90282 3.5844,1.39545 5.42248,1.67162 1.88946,0.28476 3.78487,0.40615 5.68664,0.47443"
         id="path94"
         style="fill:#ffcccc;fill-opacity:1;stroke:#5d5d5d;stroke-width:0.797999;stroke-dasharray:none;stroke-opacity:1"
         sodipodi:nodetypes="ccccccccccccccccccccc" />
    </clipPath>
  </defs>
  <g
     inkscape:label="Layer 1"
     inkscape:groupmode="layer"
     id="layer1"
     transform="translate(-101.14815,-105.07851)">
    <rect
       style="fill:none;stroke:#000000;stroke-width:0.6;stroke-dasharray:none;stroke-opacity:1"
       id="rect57"
       width="77.586441"
       height="42.863972"
       x="101.44815"
       y="110.4219" />
    <path
       style="fill:none;stroke:#000000;stroke-width:0.600001;stroke-dasharray:none;stroke-opacity:1"
       d="m 138.84217,152.53547 v 2.3952"
       id="path58" />
    <text
       xml:space="preserve"
       style="font-size:4.76944px;line-height:90%;font-family:sans-serif;text-decoration-color:#000000;fill:#000000;stroke-width:0.264583;-inkscape-stroke:none;stop-color:#000000"
       x="140.2926"
       y="108.32256"
       id="text44"><tspan
         sodipodi:role="line"
         id="tspan44"
         style="font-style:normal;font-variant:normal;font-weight:normal;font-stretch:normal;font-size:4.76944px;font-family:Calibri;-inkscape-font-specification:Calibri;text-align:center;text-anchor:middle;stroke-width:0.264583"
         x="140.2926"
         y="108.32256">Theoretische Nullhypothesenverteilung</tspan></text>
    <text
       xml:space="preserve"
       style="font-size:4.07351px;line-height:90%;font-family:sans-serif;text-decoration-color:#000000;fill:#000000;stroke-width:0.264583;-inkscape-stroke:none;stop-color:#000000"
       x="137.76732"
       y="158.43275"
       id="text45"><tspan
         sodipodi:role="line"
         id="tspan45"
         style="stroke-width:0.264583"
         x="137.76732"
         y="158.43275">0</tspan></text>
    <path
       style="fill:none;stroke:#000000;stroke-width:0.3;stroke-dasharray:none;stroke-dashoffset:0;stroke-opacity:1"
       d="m 138.84218,113.26332 v 39.5273"
       id="path46" />
    <path
       style="fill:none;stroke:#a50404;stroke-width:0.600001;stroke-dasharray:none;stroke-opacity:1;marker-end:url(#Triangle)"
       d="m 146.25277,161.11177 v -3.9674"
       id="path49" />
    <rect
       style="fill:#ffcccc;fill-opacity:1;stroke:none;stroke-width:0.3;stroke-dasharray:none;stroke-opacity:1"
       id="rect92"
       width="50.692749"
       height="50.536354"
       x="146.18529"
       y="113.45021"
       clip-path="url(#clipPath93)" />
    <path
       fill="none"
       stroke="#0071bc"
       stroke-width="0.198437"
       stroke-linecap="round"
       stroke-linejoin="round"
       stroke-miterlimit="10"
       d="m 102.1407,153.03366 c 1.83127,-0.0572 3.66892,-0.15026 5.4883,-0.42283 1.92641,-0.28931 3.81842,-0.76982 5.63186,-1.64381 1.80707,-0.87146 3.40434,-2.19207 4.88014,-3.73724 1.43462,-1.50118 2.69001,-3.34476 3.79421,-5.22173 1.13648,-1.93059 2.18972,-3.9335 3.16736,-5.99558 1.00737,-2.1243 1.97228,-4.27794 2.92868,-6.43814 0.93772,-2.11772 1.87672,-4.23242 2.85182,-6.32332 0.95301,-2.04439 1.98288,-4.0741 3.1886,-5.90455 0.62472,-0.94834 1.31314,-1.79351 2.08353,-2.55623 0.74959,-0.742 1.65461,-1.15976 2.60167,-1.24829 0.96066,-0.0895 1.87205,0.49568 2.64669,1.12992 0.79249,0.64893 1.45246,1.56087 2.06443,2.45004 1.26262,1.83043 2.27848,3.9168 3.27184,5.97939 0.96277,1.99937 1.85252,4.05336 2.75582,6.0942 0.95132,2.14959 1.90221,4.30019 2.90534,6.41437 0.97254,2.05147 1.9918,4.07562 3.12318,5.99761 1.15984,1.97154 2.43095,3.82576 3.88977,5.46703 1.43462,1.61244 3.07265,2.86932 4.84872,3.80705 1.70896,0.90282 3.5844,1.39545 5.42248,1.67162 1.88946,0.28476 3.78487,0.40615 5.68664,0.47443"
       id="path60"
       style="fill:none;fill-opacity:1;stroke:#5d5d5d;stroke-width:0.798;stroke-dasharray:none;stroke-opacity:1"
       sodipodi:nodetypes="ccccccccccccccccccccc" />
    <path
       style="fill:none;stroke:#a50404;stroke-width:0.600001;stroke-dasharray:1.2, 1.2;stroke-dashoffset:0;stroke-opacity:1"
       d="m 146.25051,113.0089 v 42.35076"
       id="path48" />
    <path
       style="fill:none;stroke:#000000;stroke-width:0.600001;stroke-dasharray:none;stroke-opacity:1;marker-end:url(#Triangle)"
       d="m 123.98703,122.9463 3.29214,2.21405"
       id="path1"
       inkscape:transform-center-x="0.46608882"
       inkscape:transform-center-y="1.8612037" />
    <text
       xml:space="preserve"
       style="font-size:3.86681px;line-height:90%;font-family:sans-serif;text-decoration-color:#000000;fill:#000000;stroke-width:0.264583;-inkscape-stroke:none;stop-color:#000000"
       x="102.97182"
       y="117.71468"
       id="text1"><tspan
         sodipodi:role="line"
         id="tspan1"
         style="font-style:normal;font-variant:normal;font-weight:normal;font-stretch:normal;font-size:3.86681px;font-family:Calibri;-inkscape-font-specification:Calibri;stroke-width:0.264583"
         x="102.97182"
         y="117.71468">Wir benötigen </tspan><tspan
         sodipodi:role="line"
         style="font-style:normal;font-variant:normal;font-weight:normal;font-stretch:normal;font-size:3.86681px;font-family:Calibri;-inkscape-font-specification:Calibri;stroke-width:0.264583"
         x="102.97182"
         y="121.2944"
         id="tspan2">diese Verteilung...</tspan></text>
    <text
       xml:space="preserve"
       style="font-size:3.86681px;line-height:90%;font-family:sans-serif;text-decoration-color:#000000;fill:#000000;stroke-width:0.264583;-inkscape-stroke:none;stop-color:#000000"
       x="177.73267"
       y="121.78387"
       id="text4"><tspan
         sodipodi:role="line"
         style="font-style:normal;font-variant:normal;font-weight:normal;font-stretch:normal;font-size:3.86681px;font-family:Calibri;-inkscape-font-specification:Calibri;text-align:end;text-anchor:end;stroke-width:0.264583"
         x="177.73267"
         y="121.78387"
         id="tspan4">...um diese </tspan><tspan
         sodipodi:role="line"
         style="font-style:normal;font-variant:normal;font-weight:normal;font-stretch:normal;font-size:3.86681px;font-family:Calibri;-inkscape-font-specification:Calibri;text-align:end;text-anchor:end;stroke-width:0.264583"
         x="177.73267"
         y="125.36359"
         id="tspan5">Fläche (=p-Wert) </tspan><tspan
         sodipodi:role="line"
         style="font-style:normal;font-variant:normal;font-weight:normal;font-stretch:normal;font-size:3.86681px;font-family:Calibri;-inkscape-font-specification:Calibri;text-align:end;text-anchor:end;stroke-width:0.264583"
         x="177.73267"
         y="128.9433"
         id="tspan9">berechnen </tspan><tspan
         sodipodi:role="line"
         style="font-style:normal;font-variant:normal;font-weight:normal;font-stretch:normal;font-size:3.86681px;font-family:Calibri;-inkscape-font-specification:Calibri;text-align:end;text-anchor:end;stroke-width:0.264583"
         x="177.73267"
         y="132.52301"
         id="tspan6">zu  können</tspan></text>
    <path
       style="fill:none;stroke:#000000;stroke-width:0.600002;stroke-dasharray:none;stroke-opacity:1;marker-end:url(#Triangle)"
       d="m 158.34726,130.37703 -6.58341,11.18355"
       id="path4"
       inkscape:transform-center-x="4.677739"
       inkscape:transform-center-y="-2.3981594" />
    <g
       transform="matrix(0.490246,0,0,0.490246,133.35203,161.3517)"
       ns2:version="1.9.0"
       ns2:texconverter="pdflatex"
       ns2:pdfconverter="inkscape"
       ns2:text="\\definecolor{myred}{RGB}{165, 4, 4}\r\n$\\color{myred}{\\bar{x}_\\text{med} -  \\bar{x}_\\text{psych}}$"
       ns2:preamble="/home/matteo/.config/inkscape/extensions/textext/default_packages.tex"
       ns2:scale="1.3896734239477337"
       ns2:alignment="middle center"
       ns2:stroke-to-path="0"
       ns2:inkscapeversion="1.4-dev"
       ns2:jacobian_sqrt="0.490246"
       id="g92">
      <defs
         id="id-c0f2a2f1-b791-4da9-9724-618c27c77a65">
        <g
           id="id-eab0a91e-9105-43bc-b99d-0db5499a5eed">
          <symbol
             overflow="visible"
             id="id-afaf2756-ebdf-488a-bbab-4ca55a23b2ac">
            <path
               style="stroke:none"
               d=""
               id="id-34e62936-685e-4035-93f9-ca99e6589428" />
          </symbol>
          <symbol
             overflow="visible"
             id="id-c5eec1eb-9be6-4107-ad15-fa06858b1964">
            <path
               style="stroke:none"
               d="M 4.28125,-5.578125 V -5.875 H 0.6875 v 0.296875 z m 0,0"
               id="id-6a9625e4-31a9-4c23-ae33-1a81b3ead67b" />
          </symbol>
          <symbol
             overflow="visible"
             id="id-e4058e03-f760-4fd9-a68c-244c5bfc0006">
            <path
               style="stroke:none"
               d=""
               id="id-e0bf602b-3850-4818-b53a-94c0dd7ffeb9" />
          </symbol>
          <symbol
             overflow="visible"
             id="id-704b0638-3fbd-4338-80d4-125cb7644876">
            <path
               style="stroke:none"
               d="M 3.328125,-3.015625 C 3.390625,-3.265625 3.625,-4.1875 4.3125,-4.1875 c 0.046875,0 0.296875,0 0.5,0.125 C 4.53125,-4 4.34375,-3.765625 4.34375,-3.515625 c 0,0.15625 0.109375,0.34375 0.375,0.34375 0.21875,0 0.53125,-0.171875 0.53125,-0.578125 0,-0.515625 -0.578125,-0.65625 -0.921875,-0.65625 -0.578125,0 -0.921875,0.53125 -1.046875,0.75 -0.25,-0.65625 -0.78125,-0.75 -1.078125,-0.75 -1.03125,0 -1.609375,1.28125 -1.609375,1.53125 0,0.109375 0.109375,0.109375 0.125,0.109375 0.078125,0 0.109375,-0.03125 0.125,-0.109375 0.34375,-1.0625 1,-1.3125 1.34375,-1.3125 0.1875,0 0.53125,0.09375 0.53125,0.671875 0,0.3125 -0.171875,0.96875 -0.53125,2.375 -0.15625,0.609375 -0.515625,1.03125 -0.953125,1.03125 -0.0625,0 -0.28125,0 -0.5,-0.125 0.25,-0.0625 0.46875,-0.265625 0.46875,-0.546875 0,-0.265625 -0.21875,-0.34375 -0.359375,-0.34375 -0.3125,0 -0.546875,0.25 -0.546875,0.578125 0,0.453125 0.484375,0.65625 0.921875,0.65625 0.671875,0 1.03125,-0.703125 1.046875,-0.75 0.125,0.359375 0.484375,0.75 1.078125,0.75 1.03125,0 1.59375,-1.28125 1.59375,-1.53125 0,-0.109375 -0.078125,-0.109375 -0.109375,-0.109375 -0.09375,0 -0.109375,0.046875 -0.140625,0.109375 -0.328125,1.078125 -1,1.3125 -1.3125,1.3125 -0.390625,0 -0.546875,-0.3125 -0.546875,-0.65625 0,-0.21875 0.046875,-0.4375 0.15625,-0.875 z m 0,0"
               id="id-e46bb216-509b-42dc-b5f8-c59811444ae6" />
          </symbol>
          <symbol
             overflow="visible"
             id="id-5d9c227b-52ba-4a4b-8989-7064796cda68">
            <path
               style="stroke:none"
               d=""
               id="id-aa5369ef-358c-44fe-9bf6-dc61f05130af" />
          </symbol>
          <symbol
             overflow="visible"
             id="id-f62b07b1-1a65-4f75-b676-dc213c4469fb">
            <path
               style="stroke:none"
               d="m 5.734375,-2.109375 c 0,-0.609375 -0.3125,-0.96875 -1.046875,-0.96875 -0.5625,0 -0.9375,0.296875 -1.125,0.65625 -0.140625,-0.5 -0.515625,-0.65625 -1.015625,-0.65625 -0.578125,0 -0.9375,0.3125 -1.140625,0.6875 v -0.6875 L 0.375,-3 v 0.25 c 0.46875,0 0.53125,0.046875 0.53125,0.390625 v 1.8125 C 0.90625,-0.25 0.828125,-0.25 0.375,-0.25 V 0 C 0.390625,0 0.875,-0.03125 1.171875,-0.03125 1.421875,-0.03125 1.90625,0 1.96875,0 v -0.25 c -0.453125,0 -0.515625,0 -0.515625,-0.296875 V -1.8125 c 0,-0.71875 0.578125,-1.0625 1.03125,-1.0625 0.484375,0 0.546875,0.375 0.546875,0.734375 v 1.59375 C 3.03125,-0.25 2.96875,-0.25 2.515625,-0.25 V 0 C 2.53125,0 3.015625,-0.03125 3.3125,-0.03125 3.5625,-0.03125 4.046875,0 4.109375,0 v -0.25 c -0.453125,0 -0.515625,0 -0.515625,-0.296875 V -1.8125 c 0,-0.71875 0.578125,-1.0625 1.03125,-1.0625 0.484375,0 0.546875,0.375 0.546875,0.734375 v 1.59375 C 5.171875,-0.25 5.109375,-0.25 4.65625,-0.25 V 0 c 0.015625,0 0.5,-0.03125 0.796875,-0.03125 C 5.703125,-0.03125 6.1875,0 6.25,0 v -0.25 c -0.453125,0 -0.515625,0 -0.515625,-0.296875 z m 0,0"
               id="id-f9d46b1a-642b-4b75-bade-0b26c5027da4" />
          </symbol>
          <symbol
             overflow="visible"
             id="id-b6222439-4e02-4b45-bf01-6a7febf88ca8">
            <path
               style="stroke:none"
               d="m 3.0625,-1.59375 c 0.15625,0 0.203125,0 0.203125,-0.140625 0,-0.625 -0.34375,-1.375 -1.390625,-1.375 -0.90625,0 -1.609375,0.71875 -1.609375,1.578125 0,0.890625 0.78125,1.59375 1.703125,1.59375 0.9375,0 1.296875,-0.75 1.296875,-0.90625 0,-0.015625 -0.015625,-0.09375 -0.125,-0.09375 -0.09375,0 -0.109375,0.046875 -0.125,0.109375 -0.21875,0.5625 -0.75,0.671875 -1,0.671875 C 1.6875,-0.15625 1.375,-0.296875 1.171875,-0.5625 0.90625,-0.890625 0.90625,-1.3125 0.90625,-1.59375 Z M 0.90625,-1.765625 C 0.984375,-2.75 1.609375,-2.90625 1.875,-2.90625 c 0.859375,0 0.890625,0.96875 0.90625,1.140625 z m 0,0"
               id="id-b387b118-9c16-4d27-898e-6404f5384619" />
          </symbol>
          <symbol
             overflow="visible"
             id="id-56923ee4-6660-4984-b652-f551579b4e19">
            <path
               style="stroke:none"
               d="m 2.484375,-4.765625 v 0.25 C 2.953125,-4.515625 3,-4.453125 3,-4.125 v 1.453125 c -0.25,-0.25 -0.59375,-0.40625 -0.96875,-0.40625 -0.9375,0 -1.703125,0.703125 -1.703125,1.578125 0,0.875 0.734375,1.5625 1.609375,1.5625 0.578125,0 0.921875,-0.296875 1.03125,-0.421875 V 0.0625 L 4.046875,0 V -0.25 C 3.578125,-0.25 3.53125,-0.296875 3.53125,-0.640625 V -4.84375 Z m 0.484375,4.03125 C 2.796875,-0.40625 2.4375,-0.125 1.984375,-0.125 1.59375,-0.125 1.3125,-0.359375 1.171875,-0.5625 1.03125,-0.765625 0.953125,-1.046875 0.953125,-1.484375 c 0,-0.171875 0,-0.6875 0.28125,-1.015625 0.28125,-0.3125 0.625,-0.375 0.828125,-0.375 0.328125,0 0.640625,0.15625 0.828125,0.40625 0.078125,0.109375 0.078125,0.109375 0.078125,0.25 z m 0,0"
               id="id-b282c42e-0c96-4ecb-a926-e21677abe846" />
          </symbol>
          <symbol
             overflow="visible"
             id="id-b50689cb-12f6-46e1-b529-b49d976961d3">
            <path
               style="stroke:none"
               d="m 1.9375,1.09375 c -0.453125,0 -0.515625,0 -0.515625,-0.296875 v -1.125 C 1.453125,-0.296875 1.78125,0.0625 2.359375,0.0625 3.28125,0.0625 4.0625,-0.625 4.0625,-1.5 c 0,-0.859375 -0.703125,-1.578125 -1.59375,-1.578125 -0.390625,0 -0.796875,0.15625 -1.078125,0.4375 v -0.4375 L 0.34375,-3 v 0.25 c 0.484375,0 0.515625,0.046875 0.515625,0.328125 v 3.21875 c 0,0.296875 -0.0625,0.296875 -0.515625,0.296875 v 0.265625 c 0.015625,0 0.5,-0.03125 0.796875,-0.03125 0.25,0 0.734375,0.015625 0.796875,0.03125 z M 1.421875,-2.328125 C 1.625,-2.671875 2.03125,-2.84375 2.390625,-2.84375 c 0.59375,0 1.046875,0.609375 1.046875,1.34375 0,0.796875 -0.53125,1.375 -1.109375,1.375 -0.625,0 -0.890625,-0.53125 -0.90625,-0.578125 z m 0,0"
               id="id-5e2debee-ee75-4b01-aaca-be2bdcc1d919" />
          </symbol>
          <symbol
             overflow="visible"
             id="id-9b0d4fd2-d0ca-4209-a2c2-eca474f8dff0">
            <path
               style="stroke:none"
               d="m 2.640625,-2.921875 c 0,-0.125 0,-0.1875 -0.09375,-0.1875 -0.03125,0 -0.046875,0 -0.140625,0.078125 -0.015625,0.015625 -0.078125,0.078125 -0.125,0.109375 -0.21875,-0.140625 -0.46875,-0.1875 -0.734375,-0.1875 -1,0 -1.234375,0.53125 -1.234375,0.875 0,0.21875 0.09375,0.40625 0.265625,0.546875 0.265625,0.21875 0.53125,0.265625 0.96875,0.34375 0.34375,0.0625 0.90625,0.15625 0.90625,0.625 0,0.265625 -0.1875,0.59375 -0.859375,0.59375 -0.671875,0 -0.90625,-0.4375 -1.03125,-0.90625 -0.03125,-0.09375 -0.03125,-0.125 -0.125,-0.125 -0.125,0 -0.125,0.046875 -0.125,0.1875 v 0.859375 C 0.3125,0 0.3125,0.0625 0.40625,0.0625 0.46875,0.0625 0.609375,-0.078125 0.75,-0.234375 1.046875,0.0625 1.421875,0.0625 1.59375,0.0625 c 0.90625,0 1.25,-0.484375 1.25,-0.96875 0,-0.265625 -0.125,-0.484375 -0.3125,-0.640625 -0.265625,-0.25 -0.578125,-0.3125 -0.828125,-0.34375 -0.546875,-0.109375 -1,-0.1875 -1,-0.5625 0,-0.21875 0.1875,-0.484375 0.84375,-0.484375 0.8125,0 0.84375,0.5625 0.859375,0.765625 0,0.078125 0.09375,0.078125 0.109375,0.078125 0.125,0 0.125,-0.046875 0.125,-0.1875 z m 0,0"
               id="id-f4e24126-6277-49ae-8ee2-1a90e70a81f8" />
          </symbol>
          <symbol
             overflow="visible"
             id="id-96befe73-0f23-4f70-94fd-4fcfdbd0a46d">
            <path
               style="stroke:none"
               d="M 3.296875,-2.328125 C 3.484375,-2.75 3.84375,-2.75 3.953125,-2.75 V -3 c -0.1875,0.015625 -0.328125,0.03125 -0.53125,0.03125 -0.1875,0 -0.4375,-0.015625 -0.625,-0.03125 v 0.25 c 0.234375,0.015625 0.28125,0.15625 0.28125,0.265625 0,0.078125 -0.03125,0.140625 -0.0625,0.21875 L 2.25,-0.625 1.390625,-2.453125 C 1.359375,-2.5 1.34375,-2.546875 1.34375,-2.59375 1.34375,-2.75 1.578125,-2.75 1.703125,-2.75 V -3 C 1.59375,-3 1.09375,-2.96875 0.90625,-2.96875 0.6875,-2.96875 0.421875,-2.984375 0.21875,-3 v 0.25 c 0.390625,0 0.46875,0.015625 0.5625,0.234375 L 1.953125,0 c -0.0625,0.140625 -0.125,0.265625 -0.1875,0.40625 -0.15625,0.34375 -0.375,0.8125 -0.859375,0.8125 -0.171875,0 -0.21875,-0.03125 -0.296875,-0.078125 0.015625,0 0.203125,-0.0625 0.203125,-0.296875 0,-0.171875 -0.125,-0.296875 -0.296875,-0.296875 -0.1875,0 -0.3125,0.125 -0.3125,0.296875 0,0.328125 0.328125,0.578125 0.703125,0.578125 0.59375,0 0.9375,-0.625 1.03125,-0.828125 z m 0,0"
               id="id-1b03d0ce-006a-4875-93f0-05574adeb108" />
          </symbol>
          <symbol
             overflow="visible"
             id="id-f3134e40-06a1-402e-bcf4-faff6382f9af">
            <path
               style="stroke:none"
               d="m 2.703125,-2.78125 c -0.125,0.0625 -0.1875,0.171875 -0.1875,0.3125 0,0.1875 0.125,0.328125 0.328125,0.328125 0.1875,0 0.328125,-0.125 0.328125,-0.34375 0,-0.625 -0.96875,-0.625 -1.15625,-0.625 -1.046875,0 -1.6875,0.796875 -1.6875,1.609375 0,0.875 0.734375,1.5625 1.65625,1.5625 1.03125,0 1.28125,-0.8125 1.28125,-0.90625 0,-0.078125 -0.09375,-0.078125 -0.125,-0.078125 -0.09375,0 -0.09375,0.015625 -0.125,0.125 C 2.859375,-0.375 2.484375,-0.15625 2.0625,-0.15625 c -0.484375,0 -1.109375,-0.359375 -1.109375,-1.359375 0,-0.875 0.4375,-1.375 1.078125,-1.375 0.09375,0 0.421875,0 0.671875,0.109375 z m 0,0"
               id="id-e57647bf-56aa-4f85-8b26-ee9af7d350d5" />
          </symbol>
          <symbol
             overflow="visible"
             id="id-5ba1e560-a5b3-4d75-9693-867e77c0a48d">
            <path
               style="stroke:none"
               d="m 3.59375,-2.109375 c 0,-0.609375 -0.296875,-0.96875 -1.046875,-0.96875 -0.625,0 -0.96875,0.375 -1.125,0.640625 V -4.84375 L 0.375,-4.765625 v 0.25 c 0.46875,0 0.53125,0.0625 0.53125,0.390625 v 3.578125 C 0.90625,-0.25 0.828125,-0.25 0.375,-0.25 V 0 C 0.390625,0 0.875,-0.03125 1.171875,-0.03125 1.421875,-0.03125 1.90625,0 1.96875,0 v -0.25 c -0.453125,0 -0.515625,0 -0.515625,-0.296875 V -1.8125 c 0,-0.71875 0.578125,-1.0625 1.03125,-1.0625 0.484375,0 0.546875,0.375 0.546875,0.734375 v 1.59375 C 3.03125,-0.25 2.96875,-0.25 2.515625,-0.25 V 0 C 2.53125,0 3.015625,-0.03125 3.3125,-0.03125 3.5625,-0.03125 4.046875,0 4.109375,0 v -0.25 c -0.453125,0 -0.515625,0 -0.515625,-0.296875 z m 0,0"
               id="id-e8c8dc85-b549-42cf-906d-828fa7bbe05d" />
          </symbol>
          <symbol
             overflow="visible"
             id="id-cfb2d2bb-d97a-4498-9e28-25dbdd447ef8">
            <path
               style="stroke:none"
               d=""
               id="id-9fdb699d-6b5e-4882-aea8-8ea055bf3e50" />
          </symbol>
          <symbol
             overflow="visible"
             id="id-fd52c7b7-b15d-4bef-9a7b-369dcb0250b5">
            <path
               style="stroke:none"
               d="m 6.5625,-2.296875 c 0.171875,0 0.359375,0 0.359375,-0.203125 0,-0.1875 -0.1875,-0.1875 -0.359375,-0.1875 H 1.171875 c -0.171875,0 -0.34375,0 -0.34375,0.1875 0,0.203125 0.171875,0.203125 0.34375,0.203125 z m 0,0"
               id="id-05e4d0f0-99f7-41e5-b0c9-ddcebc7aa07d" />
          </symbol>
        </g>
      </defs>
      <g
         id="id-58d77c7e-978e-4fe9-9912-ea226785c6c5"
         transform="translate(-149.009,-128.89)">
        <g
           style="fill:#a30202;fill-opacity:1"
           id="id-deabe176-1ed1-4769-be06-78f50a640b72">
          <g
             transform="translate(149.345,134.765)"
             id="g1">
            <path
               style="stroke:none"
               d="M 4.28125,-5.578125 V -5.875 H 0.6875 v 0.296875 z m 0,0"
               id="id-5d701090-0f01-4aab-960b-a105bbadefbf" />
          </g>
        </g>
        <g
           style="fill:#a30202;fill-opacity:1"
           id="id-4e6aa4c4-9863-48f2-aca4-73f6c295ebcd">
          <g
             transform="translate(148.712,134.765)"
             id="g2">
            <path
               style="stroke:none"
               d="M 3.328125,-3.015625 C 3.390625,-3.265625 3.625,-4.1875 4.3125,-4.1875 c 0.046875,0 0.296875,0 0.5,0.125 C 4.53125,-4 4.34375,-3.765625 4.34375,-3.515625 c 0,0.15625 0.109375,0.34375 0.375,0.34375 0.21875,0 0.53125,-0.171875 0.53125,-0.578125 0,-0.515625 -0.578125,-0.65625 -0.921875,-0.65625 -0.578125,0 -0.921875,0.53125 -1.046875,0.75 -0.25,-0.65625 -0.78125,-0.75 -1.078125,-0.75 -1.03125,0 -1.609375,1.28125 -1.609375,1.53125 0,0.109375 0.109375,0.109375 0.125,0.109375 0.078125,0 0.109375,-0.03125 0.125,-0.109375 0.34375,-1.0625 1,-1.3125 1.34375,-1.3125 0.1875,0 0.53125,0.09375 0.53125,0.671875 0,0.3125 -0.171875,0.96875 -0.53125,2.375 -0.15625,0.609375 -0.515625,1.03125 -0.953125,1.03125 -0.0625,0 -0.28125,0 -0.5,-0.125 0.25,-0.0625 0.46875,-0.265625 0.46875,-0.546875 0,-0.265625 -0.21875,-0.34375 -0.359375,-0.34375 -0.3125,0 -0.546875,0.25 -0.546875,0.578125 0,0.453125 0.484375,0.65625 0.921875,0.65625 0.671875,0 1.03125,-0.703125 1.046875,-0.75 0.125,0.359375 0.484375,0.75 1.078125,0.75 1.03125,0 1.59375,-1.28125 1.59375,-1.53125 0,-0.109375 -0.078125,-0.109375 -0.109375,-0.109375 -0.09375,0 -0.109375,0.046875 -0.140625,0.109375 -0.328125,1.078125 -1,1.3125 -1.3125,1.3125 -0.390625,0 -0.546875,-0.3125 -0.546875,-0.65625 0,-0.21875 0.046875,-0.4375 0.15625,-0.875 z m 0,0"
               id="id-698848f9-5a07-495a-806d-775f71fc69c0" />
          </g>
        </g>
        <g
           style="fill:#a30202;fill-opacity:1"
           id="id-c31161b9-ea0b-4a30-b720-9d5c916f107d">
          <g
             transform="translate(154.406,136.259)"
             id="g3">
            <path
               style="stroke:none"
               d="m 5.734375,-2.109375 c 0,-0.609375 -0.3125,-0.96875 -1.046875,-0.96875 -0.5625,0 -0.9375,0.296875 -1.125,0.65625 -0.140625,-0.5 -0.515625,-0.65625 -1.015625,-0.65625 -0.578125,0 -0.9375,0.3125 -1.140625,0.6875 v -0.6875 L 0.375,-3 v 0.25 c 0.46875,0 0.53125,0.046875 0.53125,0.390625 v 1.8125 C 0.90625,-0.25 0.828125,-0.25 0.375,-0.25 V 0 C 0.390625,0 0.875,-0.03125 1.171875,-0.03125 1.421875,-0.03125 1.90625,0 1.96875,0 v -0.25 c -0.453125,0 -0.515625,0 -0.515625,-0.296875 V -1.8125 c 0,-0.71875 0.578125,-1.0625 1.03125,-1.0625 0.484375,0 0.546875,0.375 0.546875,0.734375 v 1.59375 C 3.03125,-0.25 2.96875,-0.25 2.515625,-0.25 V 0 C 2.53125,0 3.015625,-0.03125 3.3125,-0.03125 3.5625,-0.03125 4.046875,0 4.109375,0 v -0.25 c -0.453125,0 -0.515625,0 -0.515625,-0.296875 V -1.8125 c 0,-0.71875 0.578125,-1.0625 1.03125,-1.0625 0.484375,0 0.546875,0.375 0.546875,0.734375 v 1.59375 C 5.171875,-0.25 5.109375,-0.25 4.65625,-0.25 V 0 c 0.015625,0 0.5,-0.03125 0.796875,-0.03125 C 5.703125,-0.03125 6.1875,0 6.25,0 v -0.25 c -0.453125,0 -0.515625,0 -0.515625,-0.296875 z m 0,0"
               id="id-13d5dc3a-447f-4270-8e95-eee034b70a45" />
          </g>
          <g
             transform="translate(160.951,136.259)"
             id="g4">
            <path
               style="stroke:none"
               d="m 3.0625,-1.59375 c 0.15625,0 0.203125,0 0.203125,-0.140625 0,-0.625 -0.34375,-1.375 -1.390625,-1.375 -0.90625,0 -1.609375,0.71875 -1.609375,1.578125 0,0.890625 0.78125,1.59375 1.703125,1.59375 0.9375,0 1.296875,-0.75 1.296875,-0.90625 0,-0.015625 -0.015625,-0.09375 -0.125,-0.09375 -0.09375,0 -0.109375,0.046875 -0.125,0.109375 -0.21875,0.5625 -0.75,0.671875 -1,0.671875 C 1.6875,-0.15625 1.375,-0.296875 1.171875,-0.5625 0.90625,-0.890625 0.90625,-1.3125 0.90625,-1.59375 Z M 0.90625,-1.765625 C 0.984375,-2.75 1.609375,-2.90625 1.875,-2.90625 c 0.859375,0 0.890625,0.96875 0.90625,1.140625 z m 0,0"
               id="id-32e5f143-0558-430f-b0c1-4e5792f0b4c6" />
          </g>
          <g
             transform="translate(164.493,136.259)"
             id="g5">
            <path
               style="stroke:none"
               d="m 2.484375,-4.765625 v 0.25 C 2.953125,-4.515625 3,-4.453125 3,-4.125 v 1.453125 c -0.25,-0.25 -0.59375,-0.40625 -0.96875,-0.40625 -0.9375,0 -1.703125,0.703125 -1.703125,1.578125 0,0.875 0.734375,1.5625 1.609375,1.5625 0.578125,0 0.921875,-0.296875 1.03125,-0.421875 V 0.0625 L 4.046875,0 V -0.25 C 3.578125,-0.25 3.53125,-0.296875 3.53125,-0.640625 V -4.84375 Z m 0.484375,4.03125 C 2.796875,-0.40625 2.4375,-0.125 1.984375,-0.125 1.59375,-0.125 1.3125,-0.359375 1.171875,-0.5625 1.03125,-0.765625 0.953125,-1.046875 0.953125,-1.484375 c 0,-0.171875 0,-0.6875 0.28125,-1.015625 0.28125,-0.3125 0.625,-0.375 0.828125,-0.375 0.328125,0 0.640625,0.15625 0.828125,0.40625 0.078125,0.109375 0.078125,0.109375 0.078125,0.25 z m 0,0"
               id="id-5c6f6230-0c13-4e9e-aaa6-a3f0c77bd888" />
          </g>
        </g>
        <g
           style="fill:#a30202;fill-opacity:1"
           id="id-b9da2cf1-00b9-416e-856a-e0362b3a6ddc">
          <g
             transform="translate(171.606,134.765)"
             id="g6">
            <path
               style="stroke:none"
               d="m 6.5625,-2.296875 c 0.171875,0 0.359375,0 0.359375,-0.203125 0,-0.1875 -0.1875,-0.1875 -0.359375,-0.1875 H 1.171875 c -0.171875,0 -0.34375,0 -0.34375,0.1875 0,0.203125 0.171875,0.203125 0.34375,0.203125 z m 0,0"
               id="id-3ead1df5-0086-40b8-8e25-dbd8ba3220c4" />
          </g>
        </g>
        <g
           style="fill:#a30202;fill-opacity:1"
           id="id-2f4fce17-67b1-4c02-b84f-3a151256eec9">
          <g
             transform="translate(182.201,134.765)"
             id="g7">
            <path
               style="stroke:none"
               d="M 4.28125,-5.578125 V -5.875 H 0.6875 v 0.296875 z m 0,0"
               id="id-ce424955-6db8-44e5-b596-fe369bc5e6d8" />
          </g>
        </g>
        <g
           style="fill:#a30202;fill-opacity:1"
           id="id-a0f22d67-a619-47b6-af02-1e2b3630d824">
          <g
             transform="translate(181.568,134.765)"
             id="g8">
            <path
               style="stroke:none"
               d="M 3.328125,-3.015625 C 3.390625,-3.265625 3.625,-4.1875 4.3125,-4.1875 c 0.046875,0 0.296875,0 0.5,0.125 C 4.53125,-4 4.34375,-3.765625 4.34375,-3.515625 c 0,0.15625 0.109375,0.34375 0.375,0.34375 0.21875,0 0.53125,-0.171875 0.53125,-0.578125 0,-0.515625 -0.578125,-0.65625 -0.921875,-0.65625 -0.578125,0 -0.921875,0.53125 -1.046875,0.75 -0.25,-0.65625 -0.78125,-0.75 -1.078125,-0.75 -1.03125,0 -1.609375,1.28125 -1.609375,1.53125 0,0.109375 0.109375,0.109375 0.125,0.109375 0.078125,0 0.109375,-0.03125 0.125,-0.109375 0.34375,-1.0625 1,-1.3125 1.34375,-1.3125 0.1875,0 0.53125,0.09375 0.53125,0.671875 0,0.3125 -0.171875,0.96875 -0.53125,2.375 -0.15625,0.609375 -0.515625,1.03125 -0.953125,1.03125 -0.0625,0 -0.28125,0 -0.5,-0.125 0.25,-0.0625 0.46875,-0.265625 0.46875,-0.546875 0,-0.265625 -0.21875,-0.34375 -0.359375,-0.34375 -0.3125,0 -0.546875,0.25 -0.546875,0.578125 0,0.453125 0.484375,0.65625 0.921875,0.65625 0.671875,0 1.03125,-0.703125 1.046875,-0.75 0.125,0.359375 0.484375,0.75 1.078125,0.75 1.03125,0 1.59375,-1.28125 1.59375,-1.53125 0,-0.109375 -0.078125,-0.109375 -0.109375,-0.109375 -0.09375,0 -0.109375,0.046875 -0.140625,0.109375 -0.328125,1.078125 -1,1.3125 -1.3125,1.3125 -0.390625,0 -0.546875,-0.3125 -0.546875,-0.65625 0,-0.21875 0.046875,-0.4375 0.15625,-0.875 z m 0,0"
               id="id-b74bf2eb-2294-4b3f-b139-99b797a1504b" />
          </g>
        </g>
        <g
           style="fill:#a30202;fill-opacity:1"
           id="id-24efd0c0-1ada-418c-8e89-19b4c7b0132f">
          <g
             transform="translate(187.262,136.259)"
             id="g9">
            <path
               style="stroke:none"
               d="m 1.9375,1.09375 c -0.453125,0 -0.515625,0 -0.515625,-0.296875 v -1.125 C 1.453125,-0.296875 1.78125,0.0625 2.359375,0.0625 3.28125,0.0625 4.0625,-0.625 4.0625,-1.5 c 0,-0.859375 -0.703125,-1.578125 -1.59375,-1.578125 -0.390625,0 -0.796875,0.15625 -1.078125,0.4375 v -0.4375 L 0.34375,-3 v 0.25 c 0.484375,0 0.515625,0.046875 0.515625,0.328125 v 3.21875 c 0,0.296875 -0.0625,0.296875 -0.515625,0.296875 v 0.265625 c 0.015625,0 0.5,-0.03125 0.796875,-0.03125 0.25,0 0.734375,0.015625 0.796875,0.03125 z M 1.421875,-2.328125 C 1.625,-2.671875 2.03125,-2.84375 2.390625,-2.84375 c 0.59375,0 1.046875,0.609375 1.046875,1.34375 0,0.796875 -0.53125,1.375 -1.109375,1.375 -0.625,0 -0.890625,-0.53125 -0.90625,-0.578125 z m 0,0"
               id="id-88f56fac-95f2-4174-9330-0a0444352787" />
          </g>
          <g
             transform="translate(191.662,136.259)"
             id="g10">
            <path
               style="stroke:none"
               d="m 2.640625,-2.921875 c 0,-0.125 0,-0.1875 -0.09375,-0.1875 -0.03125,0 -0.046875,0 -0.140625,0.078125 -0.015625,0.015625 -0.078125,0.078125 -0.125,0.109375 -0.21875,-0.140625 -0.46875,-0.1875 -0.734375,-0.1875 -1,0 -1.234375,0.53125 -1.234375,0.875 0,0.21875 0.09375,0.40625 0.265625,0.546875 0.265625,0.21875 0.53125,0.265625 0.96875,0.34375 0.34375,0.0625 0.90625,0.15625 0.90625,0.625 0,0.265625 -0.1875,0.59375 -0.859375,0.59375 -0.671875,0 -0.90625,-0.4375 -1.03125,-0.90625 -0.03125,-0.09375 -0.03125,-0.125 -0.125,-0.125 -0.125,0 -0.125,0.046875 -0.125,0.1875 v 0.859375 C 0.3125,0 0.3125,0.0625 0.40625,0.0625 0.46875,0.0625 0.609375,-0.078125 0.75,-0.234375 1.046875,0.0625 1.421875,0.0625 1.59375,0.0625 c 0.90625,0 1.25,-0.484375 1.25,-0.96875 0,-0.265625 -0.125,-0.484375 -0.3125,-0.640625 -0.265625,-0.25 -0.578125,-0.3125 -0.828125,-0.34375 -0.546875,-0.109375 -1,-0.1875 -1,-0.5625 0,-0.21875 0.1875,-0.484375 0.84375,-0.484375 0.8125,0 0.84375,0.5625 0.859375,0.765625 0,0.078125 0.09375,0.078125 0.109375,0.078125 0.125,0 0.125,-0.046875 0.125,-0.1875 z m 0,0"
               id="id-7e7dbf08-5835-4bdf-881d-293070c788ea" />
          </g>
          <g
             transform="translate(194.819,136.259)"
             id="g11">
            <path
               style="stroke:none"
               d="M 3.296875,-2.328125 C 3.484375,-2.75 3.84375,-2.75 3.953125,-2.75 V -3 c -0.1875,0.015625 -0.328125,0.03125 -0.53125,0.03125 -0.1875,0 -0.4375,-0.015625 -0.625,-0.03125 v 0.25 c 0.234375,0.015625 0.28125,0.15625 0.28125,0.265625 0,0.078125 -0.03125,0.140625 -0.0625,0.21875 L 2.25,-0.625 1.390625,-2.453125 C 1.359375,-2.5 1.34375,-2.546875 1.34375,-2.59375 1.34375,-2.75 1.578125,-2.75 1.703125,-2.75 V -3 C 1.59375,-3 1.09375,-2.96875 0.90625,-2.96875 0.6875,-2.96875 0.421875,-2.984375 0.21875,-3 v 0.25 c 0.390625,0 0.46875,0.015625 0.5625,0.234375 L 1.953125,0 c -0.0625,0.140625 -0.125,0.265625 -0.1875,0.40625 -0.15625,0.34375 -0.375,0.8125 -0.859375,0.8125 -0.171875,0 -0.21875,-0.03125 -0.296875,-0.078125 0.015625,0 0.203125,-0.0625 0.203125,-0.296875 0,-0.171875 -0.125,-0.296875 -0.296875,-0.296875 -0.1875,0 -0.3125,0.125 -0.3125,0.296875 0,0.328125 0.328125,0.578125 0.703125,0.578125 0.59375,0 0.9375,-0.625 1.03125,-0.828125 z m 0,0"
               id="id-df9419a4-cfce-4499-b053-5873d4faece8" />
          </g>
          <g
             transform="translate(199.004,136.259)"
             id="g12">
            <path
               style="stroke:none"
               d="m 2.703125,-2.78125 c -0.125,0.0625 -0.1875,0.171875 -0.1875,0.3125 0,0.1875 0.125,0.328125 0.328125,0.328125 0.1875,0 0.328125,-0.125 0.328125,-0.34375 0,-0.625 -0.96875,-0.625 -1.15625,-0.625 -1.046875,0 -1.6875,0.796875 -1.6875,1.609375 0,0.875 0.734375,1.5625 1.65625,1.5625 1.03125,0 1.28125,-0.8125 1.28125,-0.90625 0,-0.078125 -0.09375,-0.078125 -0.125,-0.078125 -0.09375,0 -0.09375,0.015625 -0.125,0.125 C 2.859375,-0.375 2.484375,-0.15625 2.0625,-0.15625 c -0.484375,0 -1.109375,-0.359375 -1.109375,-1.359375 0,-0.875 0.4375,-1.375 1.078125,-1.375 0.09375,0 0.421875,0 0.671875,0.109375 z m 0,0"
               id="id-4b431607-43d5-47d0-bc57-1149ddb4ffc5" />
          </g>
        </g>
        <g
           style="fill:#a30202;fill-opacity:1"
           id="id-a20e32b2-3170-49c4-8fab-d28acaf706db">
          <g
             transform="translate(202.33,136.259)"
             id="g13">
            <path
               style="stroke:none"
               d="m 3.59375,-2.109375 c 0,-0.609375 -0.296875,-0.96875 -1.046875,-0.96875 -0.625,0 -0.96875,0.375 -1.125,0.640625 V -4.84375 L 0.375,-4.765625 v 0.25 c 0.46875,0 0.53125,0.0625 0.53125,0.390625 v 3.578125 C 0.90625,-0.25 0.828125,-0.25 0.375,-0.25 V 0 C 0.390625,0 0.875,-0.03125 1.171875,-0.03125 1.421875,-0.03125 1.90625,0 1.96875,0 v -0.25 c -0.453125,0 -0.515625,0 -0.515625,-0.296875 V -1.8125 c 0,-0.71875 0.578125,-1.0625 1.03125,-1.0625 0.484375,0 0.546875,0.375 0.546875,0.734375 v 1.59375 C 3.03125,-0.25 2.96875,-0.25 2.515625,-0.25 V 0 C 2.53125,0 3.015625,-0.03125 3.3125,-0.03125 3.5625,-0.03125 4.046875,0 4.109375,0 v -0.25 c -0.453125,0 -0.515625,0 -0.515625,-0.296875 z m 0,0"
               id="id-ba08d690-0b79-43f7-b098-e860af245504" />
          </g>
        </g>
      </g>
    </g>
  </g>
</svg>
