<?xml version="1.0" encoding="UTF-8" standalone="no"?>
<!-- Created with Inkscape (http://www.inkscape.org/) -->

<svg
   width="327.79214mm"
   height="65.016876mm"
   viewBox="0 0 327.79214 65.016877"
   version="1.1"
   id="svg1"
   inkscape:version="1.4-dev (1:1.2.0-alpha1+devel+202308081135+c38551a022)"
   sodipodi:docname="patsy_simple.svg"
   inkscape:export-filename="patsy_simple.png"
   inkscape:export-xdpi="200"
   inkscape:export-ydpi="200"
   xmlns:inkscape="http://www.inkscape.org/namespaces/inkscape"
   xmlns:sodipodi="http://sodipodi.sourceforge.net/DTD/sodipodi-0.dtd"
   xmlns="http://www.w3.org/2000/svg"
   xmlns:svg="http://www.w3.org/2000/svg"
   xmlns:ns5="http://www.iki.fi/pav/software/textext/">
  <sodipodi:namedview
     id="namedview1"
     pagecolor="#ffffff"
     bordercolor="#000000"
     borderopacity="0.25"
     inkscape:showpageshadow="2"
     inkscape:pageopacity="0.0"
     inkscape:pagecheckerboard="0"
     inkscape:deskcolor="#d1d1d1"
     inkscape:document-units="mm"
     inkscape:zoom="2.072124"
     inkscape:cx="311.27481"
     inkscape:cy="134.88575"
     inkscape:window-width="2560"
     inkscape:window-height="1367"
     inkscape:window-x="0"
     inkscape:window-y="0"
     inkscape:window-maximized="1"
     inkscape:current-layer="layer1" />
  <defs
     id="defs1">
    <marker
       style="overflow:visible"
       id="Triangle"
       refX="0"
       refY="0"
       orient="auto-start-reverse"
       inkscape:stockid="Triangle arrow"
       markerWidth="1"
       markerHeight="1"
       viewBox="0 0 1 1"
       inkscape:isstock="true"
       inkscape:collect="always"
       preserveAspectRatio="xMidYMid">
      <path
         transform="scale(0.5)"
         style="fill:context-stroke;fill-rule:evenodd;stroke:context-stroke;stroke-width:1pt"
         d="M 5.77,0 -2.88,5 V -5 Z"
         id="path135" />
    </marker>
  </defs>
  <g
     inkscape:label="Layer 1"
     inkscape:groupmode="layer"
     id="layer1"
     transform="translate(-51.071445,-44.066467)">
    <rect
       style="fill:#ededed;fill-opacity:1;stroke:#000000;stroke-width:0.0999993;stroke-dasharray:none;stroke-opacity:1"
       id="rect21"
       width="50.442921"
       height="9.0146217"
       x="57.15667"
       y="54.444771"
       rx="2"
       ry="2" />
    <text
       xml:space="preserve"
       style="font-size:5.91431px;line-height:90%;font-family:sans-serif;text-decoration-color:#000000;fill:#000000;stroke-width:0.264583;-inkscape-stroke:none;stop-color:#000000"
       x="60.634731"
       y="60.803635"
       id="text21"><tspan
         sodipodi:role="line"
         style="font-style:normal;font-variant:normal;font-weight:normal;font-stretch:normal;font-family:Calibri;-inkscape-font-specification:Calibri;stroke-width:0.264583"
         x="60.634731"
         y="60.803635"
         id="tspan22">y-Achsenabschnitt</tspan></text>
    <g
       transform="matrix(1.2128,0,0,1.21307,206.30144,73.175915)"
       ns5:version="1.9.0"
       ns5:texconverter="xelatex"
       ns5:pdfconverter="inkscape"
       ns5:text="$\\longleftrightarrow$"
       ns5:preamble="/home/matteo/.config/inkscape/extensions/textext/default_packages.tex"
       ns5:scale="3.43824579297851"
       ns5:alignment="middle center"
       ns5:stroke-to-path="0"
       ns5:jacobian_sqrt="1.2129349924872315"
       style="stroke-width:0"
       id="g43">
      <defs
         id="id-1bbbcb0f-bf66-462b-b0dc-21e5d3d413a9"
         style="stroke-width:0">
        <g
           id="id-3f1eb554-61e3-420e-8d42-2cd260e2c0c5"
           style="stroke-width:0">
          <symbol
             overflow="visible"
             id="id-b2cdcd46-e31e-4e61-a046-7b1786440881"
             style="stroke-width:0">
            <path
               style="stroke:none;stroke-width:0"
               d=""
               id="id-da56d262-0e74-4807-8b87-baeb79aa6cd0" />
          </symbol>
          <symbol
             overflow="visible"
             id="id-dfc994af-ac6a-455b-b083-7083eae589fa"
             style="stroke-width:0">
            <path
               style="stroke:none;stroke-width:0"
               d="m 9.046875,-2.296875 c 0.1875,0 0.359375,0 0.359375,-0.203125 0,-0.1875 -0.171875,-0.1875 -0.359375,-0.1875 h -7.40625 c 0.546875,-0.421875 0.828125,-0.828125 0.90625,-0.96875 0.4375,-0.6875 0.53125,-1.3125 0.53125,-1.3125 0,-0.125 -0.125,-0.125 -0.203125,-0.125 -0.171875,0 -0.1875,0.015625 -0.21875,0.203125 C 2.421875,-3.921875 1.828125,-3.09375 0.703125,-2.625 0.59375,-2.578125 0.5625,-2.5625 0.5625,-2.5 c 0,0.078125 0.046875,0.09375 0.140625,0.140625 1.046875,0.421875 1.703125,1.203125 1.953125,2.3125 0.03125,0.125 0.046875,0.15625 0.21875,0.15625 0.078125,0 0.203125,0 0.203125,-0.125 0,-0.015625 -0.09375,-0.640625 -0.515625,-1.3125 C 2.359375,-1.625 2.078125,-1.96875 1.640625,-2.296875 Z m 0,0"
               id="id-cdd8b789-9550-459b-a86a-6829ca2b39bb" />
          </symbol>
          <symbol
             overflow="visible"
             id="id-11b66efe-5db9-4376-b8b3-f056feff28b9"
             style="stroke-width:0">
            <path
               style="stroke:none;stroke-width:0"
               d="M 8.3125,-2.296875 C 7.765625,-1.875 7.5,-1.46875 7.421875,-1.328125 c -0.453125,0.6875 -0.53125,1.3125 -0.53125,1.3125 0,0.125 0.125,0.125 0.203125,0.125 C 7.25,0.109375 7.265625,0.09375 7.3125,-0.09375 7.53125,-1.0625 8.125,-1.90625 9.25,-2.359375 9.375,-2.40625 9.40625,-2.421875 9.40625,-2.5 c 0,-0.0625 -0.0625,-0.09375 -0.078125,-0.109375 C 8.875,-2.765625 7.671875,-3.265625 7.296875,-4.9375 7.265625,-5.0625 7.25,-5.09375 7.09375,-5.09375 c -0.078125,0 -0.203125,0 -0.203125,0.125 0,0.015625 0.09375,0.640625 0.5,1.3125 0.203125,0.296875 0.5,0.640625 0.921875,0.96875 H 0.90625 c -0.171875,0 -0.359375,0 -0.359375,0.1875 0,0.203125 0.1875,0.203125 0.359375,0.203125 z m 0,0"
               id="id-2923041d-c765-47ac-a897-d11cd18e79a4" />
          </symbol>
        </g>
      </defs>
      <g
         id="id-fb215841-46c2-4818-8dbd-24233fa3b902"
         transform="translate(-149.275,-129.671)"
         style="stroke-width:0">
        <g
           style="fill:#000000;fill-opacity:1;stroke-width:0"
           id="id-6c1cd5c5-1383-474f-8509-a106fcd451a1">
          <g
             transform="translate(148.712,134.765)"
             style="stroke-width:0"
             id="g41">
            <path
               style="stroke:none;stroke-width:0"
               d="m 9.046875,-2.296875 c 0.1875,0 0.359375,0 0.359375,-0.203125 0,-0.1875 -0.171875,-0.1875 -0.359375,-0.1875 h -7.40625 c 0.546875,-0.421875 0.828125,-0.828125 0.90625,-0.96875 0.4375,-0.6875 0.53125,-1.3125 0.53125,-1.3125 0,-0.125 -0.125,-0.125 -0.203125,-0.125 -0.171875,0 -0.1875,0.015625 -0.21875,0.203125 C 2.421875,-3.921875 1.828125,-3.09375 0.703125,-2.625 0.59375,-2.578125 0.5625,-2.5625 0.5625,-2.5 c 0,0.078125 0.046875,0.09375 0.140625,0.140625 1.046875,0.421875 1.703125,1.203125 1.953125,2.3125 0.03125,0.125 0.046875,0.15625 0.21875,0.15625 0.078125,0 0.203125,0 0.203125,-0.125 0,-0.015625 -0.09375,-0.640625 -0.515625,-1.3125 C 2.359375,-1.625 2.078125,-1.96875 1.640625,-2.296875 Z m 0,0"
               id="id-6f9d8327-02bb-474b-ae8b-f212a9b47b7f" />
          </g>
        </g>
        <g
           style="fill:#000000;fill-opacity:1;stroke-width:0"
           id="id-552574e6-475c-4f96-ad23-5e9336e8ffe7">
          <g
             transform="translate(157.021,134.765)"
             style="stroke-width:0"
             id="g42">
            <path
               style="stroke:none;stroke-width:0"
               d="M 8.3125,-2.296875 C 7.765625,-1.875 7.5,-1.46875 7.421875,-1.328125 c -0.453125,0.6875 -0.53125,1.3125 -0.53125,1.3125 0,0.125 0.125,0.125 0.203125,0.125 C 7.25,0.109375 7.265625,0.09375 7.3125,-0.09375 7.53125,-1.0625 8.125,-1.90625 9.25,-2.359375 9.375,-2.40625 9.40625,-2.421875 9.40625,-2.5 c 0,-0.0625 -0.0625,-0.09375 -0.078125,-0.109375 C 8.875,-2.765625 7.671875,-3.265625 7.296875,-4.9375 7.265625,-5.0625 7.25,-5.09375 7.09375,-5.09375 c -0.078125,0 -0.203125,0 -0.203125,0.125 0,0.015625 0.09375,0.640625 0.5,1.3125 0.203125,0.296875 0.5,0.640625 0.921875,0.96875 H 0.90625 c -0.171875,0 -0.359375,0 -0.359375,0.1875 0,0.203125 0.1875,0.203125 0.359375,0.203125 z m 0,0"
               id="id-ec8ad9bc-7494-4c86-acd8-d941ef6ffb9b" />
          </g>
        </g>
      </g>
    </g>
    <path
       style="fill:none;fill-opacity:1;stroke:#0200eb;stroke-width:0.6;stroke-dasharray:none;stroke-opacity:1;marker-end:url(#Triangle)"
       d="M 62.644135,99.386696 V 85.166535"
       id="path71" />
    <rect
       style="fill:#ededed;fill-opacity:1;stroke:#000000;stroke-width:0.0999993;stroke-dasharray:none;stroke-opacity:1"
       id="rect71"
       width="119.81499"
       height="9.0146217"
       x="115.39353"
       y="44.116467"
       rx="2.0000002"
       ry="2" />
    <text
       xml:space="preserve"
       style="font-size:5.91431px;line-height:90%;font-family:sans-serif;text-decoration-color:#000000;fill:#000000;stroke-width:0.264583;-inkscape-stroke:none;stop-color:#000000"
       x="118.55273"
       y="50.439148"
       id="text71"><tspan
         sodipodi:role="line"
         style="font-style:normal;font-variant:normal;font-weight:normal;font-stretch:normal;font-family:Calibri;-inkscape-font-specification:Calibri;stroke-width:0.264583"
         x="118.55273"
         y="50.439148"
         id="tspan71">Unabh채ngige Variablen (Independent Variables)</tspan></text>
    <path
       style="fill:none;fill-opacity:1;stroke:#0200eb;stroke-width:0.6;stroke-dasharray:none;stroke-opacity:1;marker-end:url(#Triangle)"
       d="M 122.8668,53.998645 V 68.011097"
       id="path72" />
    <rect
       style="fill:#ededed;fill-opacity:1;stroke:#000000;stroke-width:0.0999994;stroke-dasharray:none;stroke-opacity:1"
       id="rect72"
       width="108.05362"
       height="9.0146217"
       x="51.121445"
       y="100.01872"
       rx="2"
       ry="2" />
    <text
       xml:space="preserve"
       style="font-size:5.91431px;line-height:90%;font-family:sans-serif;text-decoration-color:#000000;fill:#000000;stroke-width:0.264583;-inkscape-stroke:none;stop-color:#000000"
       x="55.864265"
       y="106.17434"
       id="text72"><tspan
         sodipodi:role="line"
         style="font-style:normal;font-variant:normal;font-weight:normal;font-stretch:normal;font-family:Calibri;-inkscape-font-specification:Calibri;stroke-width:0.264583"
         x="55.864265"
         y="106.17434"
         id="tspan72">Abh채ngige Variable (Dependent Variable)</tspan></text>
    <path
       style="fill:none;fill-opacity:1;stroke:#0200eb;stroke-width:0.6;stroke-dasharray:none;stroke-opacity:1;marker-end:url(#Triangle)"
       d="m 91.488773,63.936508 v 4.041051"
       id="path73" />
    <rect
       style="fill:#ededed;fill-opacity:1;stroke:#000000;stroke-width:0.0999993;stroke-dasharray:none;stroke-opacity:1"
       id="rect73"
       width="113.67227"
       height="9.0146217"
       x="77.138695"
       y="87.856651"
       rx="2"
       ry="2" />
    <text
       xml:space="preserve"
       style="font-size:5.91431px;line-height:90%;font-family:sans-serif;text-decoration-color:#000000;fill:#000000;stroke-width:0.264583;-inkscape-stroke:none;stop-color:#000000"
       x="79.301094"
       y="94.012276"
       id="text73"><tspan
         sodipodi:role="line"
         style="font-style:normal;font-variant:normal;font-weight:normal;font-stretch:normal;font-family:Calibri;-inkscape-font-specification:Calibri;stroke-width:0.264583"
         x="79.301094"
         y="94.012276"
         id="tspan73">Trennt abh채ngige und unabh채ngige Variablen</tspan></text>
    <path
       style="fill:none;fill-opacity:1;stroke:#0200eb;stroke-width:0.600002;stroke-dasharray:none;stroke-opacity:1;marker-end:url(#Triangle)"
       d="M 80.593889,87.078934 V 81.533468"
       id="path74" />
    <g
       transform="matrix(1.2128,0,0,1.21307,52.8821,71.7455)"
       ns5:version="1.9.0"
       ns5:texconverter="xelatex"
       ns5:pdfconverter="inkscape"
       ns5:text="$DV \\sim 1 + IV1 + IV2 + ...$"
       ns5:preamble="/home/matteo/.config/inkscape/extensions/textext/default_packages.tex"
       ns5:scale="3.43824579297851"
       ns5:alignment="middle center"
       ns5:stroke-to-path="0"
       ns5:inkscapeversion="1.4-dev"
       ns5:jacobian_sqrt="1.2129349924872315"
       style="stroke-width:0"
       id="g21">
      <defs
         id="id-cf026c9f-dc36-4902-a276-f1cf439a6a65"
         style="stroke-width:0">
        <g
           id="id-59fbe4b9-0baa-4fb1-851c-df04bfb10249"
           style="stroke-width:0">
          <symbol
             overflow="visible"
             id="id-77093573-cfaa-4d73-8756-7e506ec6dddc"
             style="stroke-width:0">
            <path
               style="stroke:none;stroke-width:0"
               d=""
               id="id-4f5a1b18-40a6-4f87-abce-127dcba22c3f" />
          </symbol>
          <symbol
             overflow="visible"
             id="id-add1c37b-6a03-4db9-b1fa-a2c587366bea"
             style="stroke-width:0">
            <path
               style="stroke:none;stroke-width:0"
               d="m 1.578125,-0.78125 c -0.09375,0.390625 -0.109375,0.46875 -0.90625,0.46875 -0.15625,0 -0.265625,0 -0.265625,0.1875 C 0.40625,0 0.484375,0 0.671875,0 h 3.3125 c 2.0625,0 4.03125,-2.109375 4.03125,-4.28125 0,-1.40625 -0.84375,-2.53125 -2.34375,-2.53125 h -3.34375 c -0.1875,0 -0.296875,0 -0.296875,0.1875 0,0.125 0.078125,0.125 0.28125,0.125 0.125,0 0.3125,0.015625 0.421875,0.015625 0.171875,0.03125 0.21875,0.046875 0.21875,0.171875 0,0.03125 0,0.0625 -0.03125,0.1875 z M 3.734375,-6.125 C 3.828125,-6.46875 3.84375,-6.5 4.28125,-6.5 h 1.0625 c 0.96875,0 1.796875,0.53125 1.796875,1.84375 0,0.484375 -0.1875,2.125 -1.046875,3.21875 -0.28125,0.375 -1.0625,1.125 -2.296875,1.125 h -1.125 c -0.140625,0 -0.15625,0 -0.21875,0 -0.09375,-0.015625 -0.125,-0.03125 -0.125,-0.109375 0,-0.03125 0,-0.046875 0.046875,-0.21875 z m 0,0"
               id="id-a6babf99-384c-47ca-93ca-479f34ba03f3" />
          </symbol>
          <symbol
             overflow="visible"
             id="id-319ae40e-a654-489f-a868-c8f3f2fe9006"
             style="stroke-width:0">
            <path
               style="stroke:none;stroke-width:0"
               d="M 6.265625,-5.671875 C 6.75,-6.453125 7.171875,-6.484375 7.53125,-6.5 c 0.125,-0.015625 0.140625,-0.171875 0.140625,-0.1875 0,-0.078125 -0.0625,-0.125 -0.140625,-0.125 -0.25,0 -0.546875,0.03125 -0.8125,0.03125 -0.328125,0 -0.671875,-0.03125 -0.984375,-0.03125 -0.0625,0 -0.1875,0 -0.1875,0.1875 0,0.109375 0.078125,0.125 0.15625,0.125 0.265625,0.015625 0.453125,0.125 0.453125,0.328125 0,0.15625 -0.140625,0.375 -0.140625,0.375 l -3.0625,4.875 -0.6875,-5.28125 C 2.265625,-6.375 2.5,-6.5 2.953125,-6.5 c 0.140625,0 0.25,0 0.25,-0.203125 0,-0.078125 -0.078125,-0.109375 -0.125,-0.109375 -0.40625,0 -0.828125,0.03125 -1.25,0.03125 -0.171875,0 -0.359375,0 -0.546875,0 -0.171875,0 -0.359375,-0.03125 -0.53125,-0.03125 -0.078125,0 -0.1875,0 -0.1875,0.1875 0,0.125 0.078125,0.125 0.25,0.125 0.546875,0 0.5625,0.09375 0.59375,0.34375 L 2.1875,-0.015625 C 2.21875,0.1875 2.265625,0.21875 2.390625,0.21875 c 0.15625,0 0.203125,-0.046875 0.28125,-0.171875 z m 0,0"
               id="id-8209abb2-4789-4a49-8bef-e5f2ef7b84da" />
          </symbol>
          <symbol
             overflow="visible"
             id="id-c0d74f57-1753-4561-b4fa-0a928a844143"
             style="stroke-width:0">
            <path
               style="stroke:none;stroke-width:0"
               d="M 3.734375,-6.046875 C 3.8125,-6.40625 3.84375,-6.5 4.640625,-6.5 c 0.234375,0 0.3125,0 0.3125,-0.1875 0,-0.125 -0.109375,-0.125 -0.140625,-0.125 -0.296875,0 -1.03125,0.03125 -1.328125,0.03125 -0.296875,0 -1.015625,-0.03125 -1.328125,-0.03125 -0.0625,0 -0.1875,0 -0.1875,0.203125 C 1.96875,-6.5 2.046875,-6.5 2.25,-6.5 c 0.40625,0 0.6875,0 0.6875,0.1875 0,0.046875 0,0.078125 -0.03125,0.15625 l -1.34375,5.375 c -0.09375,0.375 -0.109375,0.46875 -0.90625,0.46875 -0.234375,0 -0.3125,0 -0.3125,0.203125 C 0.34375,0 0.453125,0 0.484375,0 0.78125,0 1.5,-0.03125 1.796875,-0.03125 2.09375,-0.03125 2.828125,0 3.125,0 c 0.078125,0 0.203125,0 0.203125,-0.1875 0,-0.125 -0.078125,-0.125 -0.296875,-0.125 -0.1875,0 -0.234375,0 -0.421875,-0.015625 -0.21875,-0.015625 -0.25,-0.0625 -0.25,-0.171875 0,-0.078125 0.015625,-0.15625 0.03125,-0.234375 z m 0,0"
               id="id-67a4cb6a-1ed8-46a0-b9bd-d95a97213a2f" />
          </symbol>
          <symbol
             overflow="visible"
             id="id-bd242551-54d6-4336-84db-8a8f7c5b4955"
             style="stroke-width:0">
            <path
               style="stroke:none;stroke-width:0"
               d="m 1.90625,-0.53125 c 0,-0.28125 -0.234375,-0.53125 -0.515625,-0.53125 -0.296875,0 -0.53125,0.25 -0.53125,0.53125 C 0.859375,-0.234375 1.09375,0 1.390625,0 1.671875,0 1.90625,-0.234375 1.90625,-0.53125 Z m 0,0"
               id="id-1973031b-5215-4796-ae84-68af936e45ff" />
          </symbol>
          <symbol
             overflow="visible"
             id="id-59fb02e8-f043-4e5c-97dd-0f0046973e26"
             style="stroke-width:0">
            <path
               style="stroke:none;stroke-width:0"
               d=""
               id="id-c526b42f-e10b-43ad-a9bc-d14626741c76" />
          </symbol>
          <symbol
             overflow="visible"
             id="id-ca474155-8041-4685-8318-7cbab7ac0bf5"
             style="stroke-width:0">
            <path
               style="stroke:none;stroke-width:0"
               d="m 7.203125,-3.328125 c 0,-0.21875 -0.0625,-0.328125 -0.140625,-0.328125 -0.046875,0 -0.140625,0.078125 -0.140625,0.265625 -0.046875,0.953125 -0.703125,1.5 -1.40625,1.5 -0.625,0 -1.09375,-0.421875 -1.59375,-0.84375 -0.5,-0.46875 -1.015625,-0.921875 -1.703125,-0.921875 -1.078125,0 -1.671875,1.09375 -1.671875,2 0,0.328125 0.125,0.328125 0.140625,0.328125 0.109375,0 0.140625,-0.203125 0.140625,-0.234375 0.046875,-1.09375 0.78125,-1.53125 1.390625,-1.53125 0.625,0 1.109375,0.421875 1.59375,0.84375 0.515625,0.46875 1.03125,0.921875 1.703125,0.921875 1.09375,0 1.6875,-1.09375 1.6875,-2 z m 0,0"
               id="id-ee2d9e03-c49b-4919-890c-90795e53df99" />
          </symbol>
          <symbol
             overflow="visible"
             id="id-6b49607c-acdd-48ba-a380-af95fb1a40fa"
             style="stroke-width:0">
            <path
               style="stroke:none;stroke-width:0"
               d=""
               id="id-9406596d-5375-431d-8ded-78da3dfc6a55" />
          </symbol>
          <symbol
             overflow="visible"
             id="id-73191969-45fc-4d07-a943-bbf540765b65"
             style="stroke-width:0">
            <path
               style="stroke:none;stroke-width:0"
               d="m 2.9375,-6.375 c 0,-0.25 0,-0.265625 -0.234375,-0.265625 C 2.078125,-6 1.203125,-6 0.890625,-6 v 0.3125 c 0.203125,0 0.78125,0 1.296875,-0.265625 v 5.171875 c 0,0.359375 -0.03125,0.46875 -0.921875,0.46875 h -0.3125 V 0 c 0.34375,-0.03125 1.203125,-0.03125 1.609375,-0.03125 0.390625,0 1.265625,0 1.609375,0.03125 v -0.3125 h -0.3125 c -0.90625,0 -0.921875,-0.109375 -0.921875,-0.46875 z m 0,0"
               id="id-4ac808a2-f19b-49b7-8310-e9ba75001ab2" />
          </symbol>
          <symbol
             overflow="visible"
             id="id-14c24040-2ff9-4916-a442-f47db5011a60"
             style="stroke-width:0">
            <path
               style="stroke:none;stroke-width:0"
               d="m 4.078125,-2.296875 h 2.78125 C 7,-2.296875 7.1875,-2.296875 7.1875,-2.5 7.1875,-2.6875 7,-2.6875 6.859375,-2.6875 h -2.78125 v -2.796875 c 0,-0.140625 0,-0.328125 -0.203125,-0.328125 -0.203125,0 -0.203125,0.1875 -0.203125,0.328125 V -2.6875 h -2.78125 c -0.140625,0 -0.328125,0 -0.328125,0.1875 0,0.203125 0.1875,0.203125 0.328125,0.203125 h 2.78125 V 0.5 c 0,0.140625 0,0.328125 0.203125,0.328125 0.203125,0 0.203125,-0.1875 0.203125,-0.328125 z m 0,0"
               id="id-a93395c7-56e2-42bc-89b4-80d1630324d6" />
          </symbol>
          <symbol
             overflow="visible"
             id="id-7c08ea63-c539-4940-a4ed-dfee7328a4d6"
             style="stroke-width:0">
            <path
               style="stroke:none;stroke-width:0"
               d="m 1.265625,-0.765625 1.0625,-1.03125 c 1.546875,-1.375 2.140625,-1.90625 2.140625,-2.90625 0,-1.140625 -0.890625,-1.9375 -2.109375,-1.9375 -1.125,0 -1.859375,0.921875 -1.859375,1.8125 0,0.546875 0.5,0.546875 0.53125,0.546875 0.171875,0 0.515625,-0.109375 0.515625,-0.53125 0,-0.25 -0.1875,-0.515625 -0.53125,-0.515625 -0.078125,0 -0.09375,0 -0.125,0.015625 0.21875,-0.65625 0.765625,-1.015625 1.34375,-1.015625 0.90625,0 1.328125,0.8125 1.328125,1.625 C 3.5625,-3.90625 3.078125,-3.125 2.515625,-2.5 l -1.90625,2.125 C 0.5,-0.265625 0.5,-0.234375 0.5,0 H 4.203125 L 4.46875,-1.734375 H 4.234375 C 4.171875,-1.4375 4.109375,-1 4,-0.84375 3.9375,-0.765625 3.28125,-0.765625 3.0625,-0.765625 Z m 0,0"
               id="id-fd955f54-2e46-4045-85fe-130ad931cdff" />
          </symbol>
        </g>
      </defs>
      <g
         id="id-3dab819a-7d2c-4b91-aadf-76c264b0c787"
         transform="translate(-149.118,-127.953)"
         style="stroke-width:0">
        <g
           style="fill:#000000;fill-opacity:1;stroke-width:0"
           id="id-dc0151f9-42b8-4359-be6c-6c1da3b50795">
          <g
             transform="translate(148.712,134.765)"
             style="stroke-width:0"
             id="g88">
            <path
               style="stroke:none;stroke-width:0"
               d="m 1.578125,-0.78125 c -0.09375,0.390625 -0.109375,0.46875 -0.90625,0.46875 -0.15625,0 -0.265625,0 -0.265625,0.1875 C 0.40625,0 0.484375,0 0.671875,0 h 3.3125 c 2.0625,0 4.03125,-2.109375 4.03125,-4.28125 0,-1.40625 -0.84375,-2.53125 -2.34375,-2.53125 h -3.34375 c -0.1875,0 -0.296875,0 -0.296875,0.1875 0,0.125 0.078125,0.125 0.28125,0.125 0.125,0 0.3125,0.015625 0.421875,0.015625 0.171875,0.03125 0.21875,0.046875 0.21875,0.171875 0,0.03125 0,0.0625 -0.03125,0.1875 z M 3.734375,-6.125 C 3.828125,-6.46875 3.84375,-6.5 4.28125,-6.5 h 1.0625 c 0.96875,0 1.796875,0.53125 1.796875,1.84375 0,0.484375 -0.1875,2.125 -1.046875,3.21875 -0.28125,0.375 -1.0625,1.125 -2.296875,1.125 h -1.125 c -0.140625,0 -0.15625,0 -0.21875,0 -0.09375,-0.015625 -0.125,-0.03125 -0.125,-0.109375 0,-0.03125 0,-0.046875 0.046875,-0.21875 z m 0,0"
               id="id-717552bc-6901-4c5a-a510-45558ddc5ccf" />
          </g>
        </g>
        <g
           style="fill:#000000;fill-opacity:1;stroke-width:0"
           id="id-94503985-0ea4-4470-9f97-c3a8fd788b80">
          <g
             transform="translate(157.22,134.765)"
             style="stroke-width:0"
             id="g89">
            <path
               style="stroke:none;stroke-width:0"
               d="M 6.265625,-5.671875 C 6.75,-6.453125 7.171875,-6.484375 7.53125,-6.5 c 0.125,-0.015625 0.140625,-0.171875 0.140625,-0.1875 0,-0.078125 -0.0625,-0.125 -0.140625,-0.125 -0.25,0 -0.546875,0.03125 -0.8125,0.03125 -0.328125,0 -0.671875,-0.03125 -0.984375,-0.03125 -0.0625,0 -0.1875,0 -0.1875,0.1875 0,0.109375 0.078125,0.125 0.15625,0.125 0.265625,0.015625 0.453125,0.125 0.453125,0.328125 0,0.15625 -0.140625,0.375 -0.140625,0.375 l -3.0625,4.875 -0.6875,-5.28125 C 2.265625,-6.375 2.5,-6.5 2.953125,-6.5 c 0.140625,0 0.25,0 0.25,-0.203125 0,-0.078125 -0.078125,-0.109375 -0.125,-0.109375 -0.40625,0 -0.828125,0.03125 -1.25,0.03125 -0.171875,0 -0.359375,0 -0.546875,0 -0.171875,0 -0.359375,-0.03125 -0.53125,-0.03125 -0.078125,0 -0.1875,0 -0.1875,0.1875 0,0.125 0.078125,0.125 0.25,0.125 0.546875,0 0.5625,0.09375 0.59375,0.34375 L 2.1875,-0.015625 C 2.21875,0.1875 2.265625,0.21875 2.390625,0.21875 c 0.15625,0 0.203125,-0.046875 0.28125,-0.171875 z m 0,0"
               id="id-9b746735-b681-4e70-a086-1e287952aa41" />
          </g>
        </g>
        <g
           style="fill:#000000;fill-opacity:1;stroke-width:0"
           id="id-26542d67-3909-4631-9f1d-21bd04db381a">
          <g
             transform="translate(168.03,134.765)"
             style="stroke-width:0"
             id="g90">
            <path
               style="stroke:none;stroke-width:0"
               d="m 7.203125,-3.328125 c 0,-0.21875 -0.0625,-0.328125 -0.140625,-0.328125 -0.046875,0 -0.140625,0.078125 -0.140625,0.265625 -0.046875,0.953125 -0.703125,1.5 -1.40625,1.5 -0.625,0 -1.09375,-0.421875 -1.59375,-0.84375 -0.5,-0.46875 -1.015625,-0.921875 -1.703125,-0.921875 -1.078125,0 -1.671875,1.09375 -1.671875,2 0,0.328125 0.125,0.328125 0.140625,0.328125 0.109375,0 0.140625,-0.203125 0.140625,-0.234375 0.046875,-1.09375 0.78125,-1.53125 1.390625,-1.53125 0.625,0 1.109375,0.421875 1.59375,0.84375 0.515625,0.46875 1.03125,0.921875 1.703125,0.921875 1.09375,0 1.6875,-1.09375 1.6875,-2 z m 0,0"
               id="id-51f1bb22-5b8e-41a1-8b46-a250cccc8aa0" />
          </g>
        </g>
        <g
           style="fill:#000000;fill-opacity:1;stroke-width:0"
           id="id-00e77e4e-5269-4240-8761-aa584f11af41">
          <g
             transform="translate(178.546,134.765)"
             style="stroke-width:0"
             id="g91">
            <path
               style="stroke:none;stroke-width:0"
               d="m 2.9375,-6.375 c 0,-0.25 0,-0.265625 -0.234375,-0.265625 C 2.078125,-6 1.203125,-6 0.890625,-6 v 0.3125 c 0.203125,0 0.78125,0 1.296875,-0.265625 v 5.171875 c 0,0.359375 -0.03125,0.46875 -0.921875,0.46875 h -0.3125 V 0 c 0.34375,-0.03125 1.203125,-0.03125 1.609375,-0.03125 0.390625,0 1.265625,0 1.609375,0.03125 v -0.3125 h -0.3125 c -0.90625,0 -0.921875,-0.109375 -0.921875,-0.46875 z m 0,0"
               id="id-0a14051c-ba2d-447f-8c1c-46df794cf306" />
          </g>
        </g>
        <g
           style="fill:#000000;fill-opacity:1;stroke-width:0"
           id="id-f18417cc-fba2-4f2c-95af-a899b536d589">
          <g
             transform="translate(185.739,134.765)"
             style="stroke-width:0"
             id="g92">
            <path
               style="stroke:none;stroke-width:0"
               d="m 4.078125,-2.296875 h 2.78125 C 7,-2.296875 7.1875,-2.296875 7.1875,-2.5 7.1875,-2.6875 7,-2.6875 6.859375,-2.6875 h -2.78125 v -2.796875 c 0,-0.140625 0,-0.328125 -0.203125,-0.328125 -0.203125,0 -0.203125,0.1875 -0.203125,0.328125 V -2.6875 h -2.78125 c -0.140625,0 -0.328125,0 -0.328125,0.1875 0,0.203125 0.1875,0.203125 0.328125,0.203125 h 2.78125 V 0.5 c 0,0.140625 0,0.328125 0.203125,0.328125 0.203125,0 0.203125,-0.1875 0.203125,-0.328125 z m 0,0"
               id="id-72f3cee5-80f4-4ff4-96dd-5adc38ccd253" />
          </g>
        </g>
        <g
           style="fill:#000000;fill-opacity:1;stroke-width:0"
           id="id-30d3029c-a04e-492b-a943-2648cf923703">
          <g
             transform="translate(195.704,134.765)"
             style="stroke-width:0"
             id="g93">
            <path
               style="stroke:none;stroke-width:0"
               d="M 3.734375,-6.046875 C 3.8125,-6.40625 3.84375,-6.5 4.640625,-6.5 c 0.234375,0 0.3125,0 0.3125,-0.1875 0,-0.125 -0.109375,-0.125 -0.140625,-0.125 -0.296875,0 -1.03125,0.03125 -1.328125,0.03125 -0.296875,0 -1.015625,-0.03125 -1.328125,-0.03125 -0.0625,0 -0.1875,0 -0.1875,0.203125 C 1.96875,-6.5 2.046875,-6.5 2.25,-6.5 c 0.40625,0 0.6875,0 0.6875,0.1875 0,0.046875 0,0.078125 -0.03125,0.15625 l -1.34375,5.375 c -0.09375,0.375 -0.109375,0.46875 -0.90625,0.46875 -0.234375,0 -0.3125,0 -0.3125,0.203125 C 0.34375,0 0.453125,0 0.484375,0 0.78125,0 1.5,-0.03125 1.796875,-0.03125 2.09375,-0.03125 2.828125,0 3.125,0 c 0.078125,0 0.203125,0 0.203125,-0.1875 0,-0.125 -0.078125,-0.125 -0.296875,-0.125 -0.1875,0 -0.234375,0 -0.421875,-0.015625 -0.21875,-0.015625 -0.25,-0.0625 -0.25,-0.171875 0,-0.078125 0.015625,-0.15625 0.03125,-0.234375 z m 0,0"
               id="id-a0f2bbb4-e368-4521-96d3-2dc1b98205ea" />
          </g>
        </g>
        <g
           style="fill:#000000;fill-opacity:1;stroke-width:0"
           id="id-1a489f3b-54d5-476b-9f86-23b7d2514c53">
          <g
             transform="translate(200.855,134.765)"
             style="stroke-width:0"
             id="g94">
            <path
               style="stroke:none;stroke-width:0"
               d="M 6.265625,-5.671875 C 6.75,-6.453125 7.171875,-6.484375 7.53125,-6.5 c 0.125,-0.015625 0.140625,-0.171875 0.140625,-0.1875 0,-0.078125 -0.0625,-0.125 -0.140625,-0.125 -0.25,0 -0.546875,0.03125 -0.8125,0.03125 -0.328125,0 -0.671875,-0.03125 -0.984375,-0.03125 -0.0625,0 -0.1875,0 -0.1875,0.1875 0,0.109375 0.078125,0.125 0.15625,0.125 0.265625,0.015625 0.453125,0.125 0.453125,0.328125 0,0.15625 -0.140625,0.375 -0.140625,0.375 l -3.0625,4.875 -0.6875,-5.28125 C 2.265625,-6.375 2.5,-6.5 2.953125,-6.5 c 0.140625,0 0.25,0 0.25,-0.203125 0,-0.078125 -0.078125,-0.109375 -0.125,-0.109375 -0.40625,0 -0.828125,0.03125 -1.25,0.03125 -0.171875,0 -0.359375,0 -0.546875,0 -0.171875,0 -0.359375,-0.03125 -0.53125,-0.03125 -0.078125,0 -0.1875,0 -0.1875,0.1875 0,0.125 0.078125,0.125 0.25,0.125 0.546875,0 0.5625,0.09375 0.59375,0.34375 L 2.1875,-0.015625 C 2.21875,0.1875 2.265625,0.21875 2.390625,0.21875 c 0.15625,0 0.203125,-0.046875 0.28125,-0.171875 z m 0,0"
               id="id-4d245907-92fa-4b4d-89e7-3d91415b4bca" />
          </g>
        </g>
        <g
           style="fill:#000000;fill-opacity:1;stroke-width:0"
           id="id-8a2519b1-2956-4556-9ba8-9f80dd420478">
          <g
             transform="translate(208.891,134.765)"
             style="stroke-width:0"
             id="g95">
            <path
               style="stroke:none;stroke-width:0"
               d="m 2.9375,-6.375 c 0,-0.25 0,-0.265625 -0.234375,-0.265625 C 2.078125,-6 1.203125,-6 0.890625,-6 v 0.3125 c 0.203125,0 0.78125,0 1.296875,-0.265625 v 5.171875 c 0,0.359375 -0.03125,0.46875 -0.921875,0.46875 h -0.3125 V 0 c 0.34375,-0.03125 1.203125,-0.03125 1.609375,-0.03125 0.390625,0 1.265625,0 1.609375,0.03125 v -0.3125 h -0.3125 c -0.90625,0 -0.921875,-0.109375 -0.921875,-0.46875 z m 0,0"
               id="id-f89074dd-32e4-4c6c-85c4-04e88be04617" />
          </g>
        </g>
        <g
           style="fill:#000000;fill-opacity:1;stroke-width:0"
           id="id-0c61ff0e-379d-44e2-b69c-7f70cfcfa3ac">
          <g
             transform="translate(216.084,134.765)"
             style="stroke-width:0"
             id="g96">
            <path
               style="stroke:none;stroke-width:0"
               d="m 4.078125,-2.296875 h 2.78125 C 7,-2.296875 7.1875,-2.296875 7.1875,-2.5 7.1875,-2.6875 7,-2.6875 6.859375,-2.6875 h -2.78125 v -2.796875 c 0,-0.140625 0,-0.328125 -0.203125,-0.328125 -0.203125,0 -0.203125,0.1875 -0.203125,0.328125 V -2.6875 h -2.78125 c -0.140625,0 -0.328125,0 -0.328125,0.1875 0,0.203125 0.1875,0.203125 0.328125,0.203125 h 2.78125 V 0.5 c 0,0.140625 0,0.328125 0.203125,0.328125 0.203125,0 0.203125,-0.1875 0.203125,-0.328125 z m 0,0"
               id="id-3b503eb0-ec32-4de5-b7a0-bc92999cf6e5" />
          </g>
        </g>
        <g
           style="fill:#000000;fill-opacity:1;stroke-width:0"
           id="id-e3c69edb-6f47-4367-88b3-a64252e36335">
          <g
             transform="translate(226.049,134.765)"
             style="stroke-width:0"
             id="g97">
            <path
               style="stroke:none;stroke-width:0"
               d="M 3.734375,-6.046875 C 3.8125,-6.40625 3.84375,-6.5 4.640625,-6.5 c 0.234375,0 0.3125,0 0.3125,-0.1875 0,-0.125 -0.109375,-0.125 -0.140625,-0.125 -0.296875,0 -1.03125,0.03125 -1.328125,0.03125 -0.296875,0 -1.015625,-0.03125 -1.328125,-0.03125 -0.0625,0 -0.1875,0 -0.1875,0.203125 C 1.96875,-6.5 2.046875,-6.5 2.25,-6.5 c 0.40625,0 0.6875,0 0.6875,0.1875 0,0.046875 0,0.078125 -0.03125,0.15625 l -1.34375,5.375 c -0.09375,0.375 -0.109375,0.46875 -0.90625,0.46875 -0.234375,0 -0.3125,0 -0.3125,0.203125 C 0.34375,0 0.453125,0 0.484375,0 0.78125,0 1.5,-0.03125 1.796875,-0.03125 2.09375,-0.03125 2.828125,0 3.125,0 c 0.078125,0 0.203125,0 0.203125,-0.1875 0,-0.125 -0.078125,-0.125 -0.296875,-0.125 -0.1875,0 -0.234375,0 -0.421875,-0.015625 -0.21875,-0.015625 -0.25,-0.0625 -0.25,-0.171875 0,-0.078125 0.015625,-0.15625 0.03125,-0.234375 z m 0,0"
               id="id-ae058f6a-7ae3-412c-b432-69ff8574e776" />
          </g>
        </g>
        <g
           style="fill:#000000;fill-opacity:1;stroke-width:0"
           id="id-e601d3a8-414b-40b3-a96b-9fee263bb6bf">
          <g
             transform="translate(231.2,134.765)"
             style="stroke-width:0"
             id="g98">
            <path
               style="stroke:none;stroke-width:0"
               d="M 6.265625,-5.671875 C 6.75,-6.453125 7.171875,-6.484375 7.53125,-6.5 c 0.125,-0.015625 0.140625,-0.171875 0.140625,-0.1875 0,-0.078125 -0.0625,-0.125 -0.140625,-0.125 -0.25,0 -0.546875,0.03125 -0.8125,0.03125 -0.328125,0 -0.671875,-0.03125 -0.984375,-0.03125 -0.0625,0 -0.1875,0 -0.1875,0.1875 0,0.109375 0.078125,0.125 0.15625,0.125 0.265625,0.015625 0.453125,0.125 0.453125,0.328125 0,0.15625 -0.140625,0.375 -0.140625,0.375 l -3.0625,4.875 -0.6875,-5.28125 C 2.265625,-6.375 2.5,-6.5 2.953125,-6.5 c 0.140625,0 0.25,0 0.25,-0.203125 0,-0.078125 -0.078125,-0.109375 -0.125,-0.109375 -0.40625,0 -0.828125,0.03125 -1.25,0.03125 -0.171875,0 -0.359375,0 -0.546875,0 -0.171875,0 -0.359375,-0.03125 -0.53125,-0.03125 -0.078125,0 -0.1875,0 -0.1875,0.1875 0,0.125 0.078125,0.125 0.25,0.125 0.546875,0 0.5625,0.09375 0.59375,0.34375 L 2.1875,-0.015625 C 2.21875,0.1875 2.265625,0.21875 2.390625,0.21875 c 0.15625,0 0.203125,-0.046875 0.28125,-0.171875 z m 0,0"
               id="id-f14745cc-5002-4ed1-a56d-080520a22998" />
          </g>
        </g>
        <g
           style="fill:#000000;fill-opacity:1;stroke-width:0"
           id="id-4a37b54b-2d00-4ab4-bf43-4f4f36bec57a">
          <g
             transform="translate(239.235,134.765)"
             style="stroke-width:0"
             id="g99">
            <path
               style="stroke:none;stroke-width:0"
               d="m 1.265625,-0.765625 1.0625,-1.03125 c 1.546875,-1.375 2.140625,-1.90625 2.140625,-2.90625 0,-1.140625 -0.890625,-1.9375 -2.109375,-1.9375 -1.125,0 -1.859375,0.921875 -1.859375,1.8125 0,0.546875 0.5,0.546875 0.53125,0.546875 0.171875,0 0.515625,-0.109375 0.515625,-0.53125 0,-0.25 -0.1875,-0.515625 -0.53125,-0.515625 -0.078125,0 -0.09375,0 -0.125,0.015625 0.21875,-0.65625 0.765625,-1.015625 1.34375,-1.015625 0.90625,0 1.328125,0.8125 1.328125,1.625 C 3.5625,-3.90625 3.078125,-3.125 2.515625,-2.5 l -1.90625,2.125 C 0.5,-0.265625 0.5,-0.234375 0.5,0 H 4.203125 L 4.46875,-1.734375 H 4.234375 C 4.171875,-1.4375 4.109375,-1 4,-0.84375 3.9375,-0.765625 3.28125,-0.765625 3.0625,-0.765625 Z m 0,0"
               id="id-e032ff15-42e7-46b5-805d-2c32dd7c3ad7" />
          </g>
        </g>
        <g
           style="fill:#000000;fill-opacity:1;stroke-width:0"
           id="id-163fe374-b888-42b2-9f69-4394cc454011">
          <g
             transform="translate(246.428,134.765)"
             style="stroke-width:0"
             id="g100">
            <path
               style="stroke:none;stroke-width:0"
               d="m 4.078125,-2.296875 h 2.78125 C 7,-2.296875 7.1875,-2.296875 7.1875,-2.5 7.1875,-2.6875 7,-2.6875 6.859375,-2.6875 h -2.78125 v -2.796875 c 0,-0.140625 0,-0.328125 -0.203125,-0.328125 -0.203125,0 -0.203125,0.1875 -0.203125,0.328125 V -2.6875 h -2.78125 c -0.140625,0 -0.328125,0 -0.328125,0.1875 0,0.203125 0.1875,0.203125 0.328125,0.203125 h 2.78125 V 0.5 c 0,0.140625 0,0.328125 0.203125,0.328125 0.203125,0 0.203125,-0.1875 0.203125,-0.328125 z m 0,0"
               id="id-d19148d4-9a3c-4f36-89b6-d6f3d324a8ef" />
          </g>
        </g>
        <g
           style="fill:#000000;fill-opacity:1;stroke-width:0"
           id="id-fdb2d278-2b4f-498f-b66b-67694cca8c85">
          <g
             transform="translate(256.393,134.765)"
             style="stroke-width:0"
             id="g101">
            <path
               style="stroke:none;stroke-width:0"
               d="m 1.90625,-0.53125 c 0,-0.28125 -0.234375,-0.53125 -0.515625,-0.53125 -0.296875,0 -0.53125,0.25 -0.53125,0.53125 C 0.859375,-0.234375 1.09375,0 1.390625,0 1.671875,0 1.90625,-0.234375 1.90625,-0.53125 Z m 0,0"
               id="id-0c9dd75a-bd9f-4aa0-b837-d921ef56b62b" />
          </g>
          <g
             transform="translate(259.153,134.765)"
             style="stroke-width:0"
             id="g102">
            <path
               style="stroke:none;stroke-width:0"
               d="m 1.90625,-0.53125 c 0,-0.28125 -0.234375,-0.53125 -0.515625,-0.53125 -0.296875,0 -0.53125,0.25 -0.53125,0.53125 C 0.859375,-0.234375 1.09375,0 1.390625,0 1.671875,0 1.90625,-0.234375 1.90625,-0.53125 Z m 0,0"
               id="id-3f92c88d-f128-4681-8160-45f13d7e1b98" />
          </g>
          <g
             transform="translate(261.912,134.765)"
             style="stroke-width:0"
             id="g103">
            <path
               style="stroke:none;stroke-width:0"
               d="m 1.90625,-0.53125 c 0,-0.28125 -0.234375,-0.53125 -0.515625,-0.53125 -0.296875,0 -0.53125,0.25 -0.53125,0.53125 C 0.859375,-0.234375 1.09375,0 1.390625,0 1.671875,0 1.90625,-0.234375 1.90625,-0.53125 Z m 0,0"
               id="id-7e5b4de8-f287-4f40-a8a1-82e14eb6fc4f" />
          </g>
        </g>
      </g>
    </g>
    <g
       transform="matrix(1.2128,0,0,1.21307,237.48356,69.663)"
       ns5:version="1.9.0"
       ns5:texconverter="xelatex"
       ns5:pdfconverter="inkscape"
       ns5:text="$\\hat{Y} = b_0 + b_1X_1 + b_2X_2 + ...$"
       ns5:preamble="/home/matteo/.config/inkscape/extensions/textext/default_packages.tex"
       ns5:scale="3.43824579297851"
       ns5:alignment="middle center"
       ns5:stroke-to-path="0"
       ns5:inkscapeversion="1.4-dev"
       ns5:jacobian_sqrt="1.2129349924872315"
       style="stroke-width:0"
       id="g71">
      <defs
         id="id-165b2162-ca0f-43d4-9489-ed5ea6091270"
         style="stroke-width:0">
        <g
           id="id-0795f95d-3903-466f-9cf1-1b68b9f743a6"
           style="stroke-width:0">
          <symbol
             overflow="visible"
             id="id-e99ff1cc-451d-4ebd-9201-230925ead7db"
             style="stroke-width:0">
            <path
               style="stroke:none;stroke-width:0"
               d=""
               id="id-26c26207-cbea-4a2b-acc8-2786d67866b4" />
          </symbol>
          <symbol
             overflow="visible"
             id="id-cd0e4391-f3c8-4d52-a5d7-11d5d6c72289"
             style="stroke-width:0">
            <path
               style="stroke:none;stroke-width:0"
               d="M 2.5,-6.921875 1.15625,-5.5625 1.328125,-5.390625 2.5,-6.40625 3.640625,-5.390625 3.8125,-5.5625 Z m 0,0"
               id="id-6b9e56f1-65b0-4094-ad4c-02d2bce3bc18" />
          </symbol>
          <symbol
             overflow="visible"
             id="id-8d585612-dd5d-4336-9dea-f6a95eaf8891"
             style="stroke-width:0">
            <path
               style="stroke:none;stroke-width:0"
               d="m 6.84375,-3.265625 c 0.15625,0 0.34375,0 0.34375,-0.1875 C 7.1875,-3.65625 7,-3.65625 6.859375,-3.65625 h -5.96875 c -0.140625,0 -0.328125,0 -0.328125,0.203125 0,0.1875 0.1875,0.1875 0.328125,0.1875 z m 0.015625,1.9375 c 0.140625,0 0.328125,0 0.328125,-0.203125 0,-0.1875 -0.1875,-0.1875 -0.34375,-0.1875 H 0.890625 c -0.140625,0 -0.328125,0 -0.328125,0.1875 0,0.203125 0.1875,0.203125 0.328125,0.203125 z m 0,0"
               id="id-a75ceec7-5347-4b78-b14a-b28379ce33fe" />
          </symbol>
          <symbol
             overflow="visible"
             id="id-1e223dec-0699-4fc9-9d0d-439515ef7461"
             style="stroke-width:0">
            <path
               style="stroke:none;stroke-width:0"
               d="m 4.078125,-2.296875 h 2.78125 C 7,-2.296875 7.1875,-2.296875 7.1875,-2.5 7.1875,-2.6875 7,-2.6875 6.859375,-2.6875 h -2.78125 v -2.796875 c 0,-0.140625 0,-0.328125 -0.203125,-0.328125 -0.203125,0 -0.203125,0.1875 -0.203125,0.328125 V -2.6875 h -2.78125 c -0.140625,0 -0.328125,0 -0.328125,0.1875 0,0.203125 0.1875,0.203125 0.328125,0.203125 h 2.78125 V 0.5 c 0,0.140625 0,0.328125 0.203125,0.328125 0.203125,0 0.203125,-0.1875 0.203125,-0.328125 z m 0,0"
               id="id-9a47afbe-dd9d-44cc-bfc1-3aebe387a848" />
          </symbol>
          <symbol
             overflow="visible"
             id="id-f96f4176-5d1d-46a4-807d-f74026753a1c"
             style="stroke-width:0">
            <path
               style="stroke:none;stroke-width:0"
               d=""
               id="id-625006a2-3c58-4168-92b1-d8a9c3e97a5c" />
          </symbol>
          <symbol
             overflow="visible"
             id="id-7fb66eee-2a68-4f0a-98db-df272258f663"
             style="stroke-width:0">
            <path
               style="stroke:none;stroke-width:0"
               d="M 5.953125,-5.671875 6.09375,-5.8125 C 6.390625,-6.109375 6.71875,-6.453125 7.390625,-6.5 7.5,-6.515625 7.59375,-6.515625 7.59375,-6.6875 c 0,-0.078125 -0.046875,-0.125 -0.125,-0.125 -0.265625,0 -0.546875,0.03125 -0.8125,0.03125 -0.34375,0 -0.6875,-0.03125 -1,-0.03125 -0.0625,0 -0.1875,0 -0.1875,0.1875 0,0.109375 0.09375,0.125 0.140625,0.125 0.078125,0 0.359375,0.015625 0.359375,0.234375 0,0.171875 -0.234375,0.421875 -0.265625,0.46875 L 3.390625,-3.125 2.296875,-6.09375 C 2.234375,-6.234375 2.234375,-6.25 2.234375,-6.265625 2.234375,-6.5 2.71875,-6.5 2.828125,-6.5 c 0.125,0 0.234375,0 0.234375,-0.203125 0,-0.109375 -0.125,-0.109375 -0.15625,-0.109375 -0.28125,0 -0.96875,0.03125 -1.25,0.03125 -0.25,0 -0.875,-0.03125 -1.125,-0.03125 -0.046875,0 -0.1875,0 -0.1875,0.203125 C 0.34375,-6.5 0.453125,-6.5 0.578125,-6.5 c 0.59375,0 0.640625,0.09375 0.734375,0.34375 L 2.53125,-2.875 c 0.015625,0.03125 0.046875,0.140625 0.046875,0.15625 0,0.03125 -0.40625,1.640625 -0.453125,1.828125 C 2,-0.34375 1.984375,-0.3125 1.1875,-0.3125 c -0.1875,0 -0.265625,0 -0.265625,0.203125 C 0.921875,0 1.03125,0 1.0625,0 c 0.265625,0 0.96875,-0.03125 1.25,-0.03125 0.28125,0 1,0.03125 1.28125,0.03125 0.0625,0 0.1875,0 0.1875,-0.203125 C 3.78125,-0.3125 3.6875,-0.3125 3.5,-0.3125 c -0.015625,0 -0.203125,0 -0.375,-0.015625 C 2.90625,-0.34375 2.84375,-0.375 2.84375,-0.484375 c 0,-0.078125 0.09375,-0.421875 0.140625,-0.625 l 0.359375,-1.40625 c 0.046875,-0.203125 0.0625,-0.21875 0.140625,-0.3125 z m 0,0"
               id="id-d576e9e8-cf8d-4dac-beb1-99477e85bc90" />
          </symbol>
          <symbol
             overflow="visible"
             id="id-2ca520b2-bd60-45cc-950a-cdbae56e23fc"
             style="stroke-width:0">
            <path
               style="stroke:none;stroke-width:0"
               d="m 2.375,-6.8125 c 0,0 0,-0.109375 -0.125,-0.109375 -0.21875,0 -0.953125,0.078125 -1.21875,0.109375 -0.078125,0 -0.1875,0.015625 -0.1875,0.1875 0,0.125 0.09375,0.125 0.25,0.125 0.46875,0 0.484375,0.0625 0.484375,0.171875 0,0.0625 -0.078125,0.40625 -0.125,0.609375 l -0.828125,3.25 c -0.109375,0.5 -0.15625,0.671875 -0.15625,1.015625 0,0.9375 0.53125,1.5625 1.265625,1.5625 1.171875,0 2.40625,-1.484375 2.40625,-2.921875 0,-0.90625 -0.53125,-1.59375 -1.328125,-1.59375 -0.453125,0 -0.875,0.296875 -1.171875,0.59375 z M 1.453125,-3.046875 C 1.5,-3.265625 1.5,-3.28125 1.59375,-3.390625 2.078125,-4.03125 2.53125,-4.1875 2.796875,-4.1875 c 0.359375,0 0.625,0.296875 0.625,0.9375 0,0.59375 -0.328125,1.734375 -0.515625,2.109375 -0.328125,0.671875 -0.78125,1.03125 -1.171875,1.03125 -0.34375,0 -0.671875,-0.265625 -0.671875,-1 0,-0.203125 0,-0.390625 0.15625,-1.015625 z m 0,0"
               id="id-de28df4f-1c7c-4b7c-aa5b-dbd3811c9cf6" />
          </symbol>
          <symbol
             overflow="visible"
             id="id-3a4fd607-e110-441d-b4e3-4735c48de765"
             style="stroke-width:0">
            <path
               style="stroke:none;stroke-width:0"
               d="M 4.828125,-4.09375 4,-6.078125 c -0.03125,-0.078125 -0.046875,-0.125 -0.046875,-0.125 0,-0.0625 0.15625,-0.25 0.578125,-0.296875 0.109375,-0.015625 0.203125,-0.015625 0.203125,-0.1875 0,-0.125 -0.125,-0.125 -0.15625,-0.125 -0.40625,0 -0.828125,0.03125 -1.25,0.03125 -0.25,0 -0.859375,-0.03125 -1.109375,-0.03125 -0.0625,0 -0.1875,0 -0.1875,0.203125 C 2.03125,-6.5 2.140625,-6.5 2.265625,-6.5 c 0.59375,0 0.65625,0.09375 0.75,0.3125 l 1.171875,2.78125 -2.109375,2.265625 -0.125,0.109375 C 1.46875,-0.5 1,-0.34375 0.484375,-0.3125 c -0.125,0.015625 -0.21875,0.015625 -0.21875,0.203125 0,0.015625 0,0.109375 0.140625,0.109375 0.296875,0 0.625,-0.03125 0.921875,-0.03125 C 1.703125,-0.03125 2.09375,0 2.453125,0 2.515625,0 2.625,0 2.625,-0.203125 2.625,-0.296875 2.53125,-0.3125 2.515625,-0.3125 c -0.09375,0 -0.40625,-0.03125 -0.40625,-0.3125 0,-0.15625 0.15625,-0.3125 0.265625,-0.4375 L 3.40625,-2.140625 4.296875,-3.125 l 1,2.390625 c 0.046875,0.109375 0.0625,0.109375 0.0625,0.140625 0,0.078125 -0.203125,0.25 -0.578125,0.28125 C 4.671875,-0.296875 4.578125,-0.296875 4.578125,-0.125 4.578125,0 4.6875,0 4.71875,0 5,0 5.703125,-0.03125 5.984375,-0.03125 6.234375,-0.03125 6.84375,0 7.09375,0 c 0.0625,0 0.1875,0 0.1875,-0.1875 0,-0.125 -0.109375,-0.125 -0.1875,-0.125 -0.65625,0 -0.6875,-0.03125 -0.859375,-0.4375 C 5.859375,-1.671875 5.1875,-3.234375 4.953125,-3.828125 5.625,-4.53125 6.671875,-5.71875 7,-5.984375 7.28125,-6.234375 7.671875,-6.46875 8.265625,-6.5 c 0.125,-0.015625 0.21875,-0.015625 0.21875,-0.203125 0,0 0,-0.109375 -0.125,-0.109375 -0.296875,0 -0.640625,0.03125 -0.9375,0.03125 -0.375,0 -0.75,-0.03125 -1.109375,-0.03125 -0.0625,0 -0.1875,0 -0.1875,0.203125 0,0.0625 0.046875,0.09375 0.109375,0.109375 0.09375,0.015625 0.40625,0.03125 0.40625,0.3125 0,0.140625 -0.109375,0.265625 -0.1875,0.359375 z m 0,0"
               id="id-3a910a34-48c4-45d0-8533-e0d51a38ffbc" />
          </symbol>
          <symbol
             overflow="visible"
             id="id-15d7ad5c-4f93-4aae-b3f0-296f0f1cffaa"
             style="stroke-width:0">
            <path
               style="stroke:none;stroke-width:0"
               d="m 1.90625,-0.53125 c 0,-0.28125 -0.234375,-0.53125 -0.515625,-0.53125 -0.296875,0 -0.53125,0.25 -0.53125,0.53125 C 0.859375,-0.234375 1.09375,0 1.390625,0 1.671875,0 1.90625,-0.234375 1.90625,-0.53125 Z m 0,0"
               id="id-69f4329f-866c-4f91-98ba-b735c0ea7f5a" />
          </symbol>
          <symbol
             overflow="visible"
             id="id-5c44e753-1e3d-4525-9cde-ecfd15de9dd6"
             style="stroke-width:0">
            <path
               style="stroke:none;stroke-width:0"
               d=""
               id="id-c78c7ed4-118f-4e5f-8b4c-5f16374c45c1" />
          </symbol>
          <symbol
             overflow="visible"
             id="id-f0b71fc3-fa41-485e-af20-c32659e9f2d0"
             style="stroke-width:0">
            <path
               style="stroke:none;stroke-width:0"
               d="M 3.59375,-2.21875 C 3.59375,-2.984375 3.5,-3.546875 3.1875,-4.03125 2.96875,-4.34375 2.53125,-4.625 1.984375,-4.625 c -1.625,0 -1.625,1.90625 -1.625,2.40625 0,0.5 0,2.359375 1.625,2.359375 1.609375,0 1.609375,-1.859375 1.609375,-2.359375 z M 1.984375,-0.0625 c -0.328125,0 -0.75,-0.1875 -0.890625,-0.75 C 1,-1.21875 1,-1.796875 1,-2.3125 1,-2.828125 1,-3.359375 1.09375,-3.734375 1.25,-4.28125 1.6875,-4.4375 1.984375,-4.4375 c 0.375,0 0.734375,0.234375 0.859375,0.640625 0.109375,0.375 0.125,0.875 0.125,1.484375 0,0.515625 0,1.03125 -0.09375,1.46875 -0.140625,0.640625 -0.609375,0.78125 -0.890625,0.78125 z m 0,0"
               id="id-f0fcec58-7bd7-4fe9-ab3e-2e28a7f0c07d" />
          </symbol>
          <symbol
             overflow="visible"
             id="id-1a370a79-b53a-4ce1-bf2f-7f196709be66"
             style="stroke-width:0">
            <path
               style="stroke:none;stroke-width:0"
               d="m 2.328125,-4.4375 c 0,-0.1875 0,-0.1875 -0.203125,-0.1875 -0.453125,0.4375 -1.078125,0.4375 -1.359375,0.4375 v 0.25 c 0.15625,0 0.625,0 1,-0.1875 v 3.546875 c 0,0.234375 0,0.328125 -0.6875,0.328125 H 0.8125 V 0 c 0.125,0 0.984375,-0.03125 1.234375,-0.03125 0.21875,0 1.09375,0.03125 1.25,0.03125 V -0.25 H 3.03125 c -0.703125,0 -0.703125,-0.09375 -0.703125,-0.328125 z m 0,0"
               id="id-4225e759-f297-496a-8520-6963476adf3f" />
          </symbol>
          <symbol
             overflow="visible"
             id="id-fa21898b-469e-4b15-b9d5-d2b74df4ac4f"
             style="stroke-width:0">
            <path
               style="stroke:none;stroke-width:0"
               d="M 3.515625,-1.265625 H 3.28125 c -0.015625,0.15625 -0.09375,0.5625 -0.1875,0.625 C 3.046875,-0.59375 2.515625,-0.59375 2.40625,-0.59375 H 1.125 c 0.734375,-0.640625 0.984375,-0.84375 1.390625,-1.171875 0.515625,-0.40625 1,-0.84375 1,-1.5 0,-0.84375 -0.734375,-1.359375 -1.625,-1.359375 -0.859375,0 -1.453125,0.609375 -1.453125,1.25 0,0.34375 0.296875,0.390625 0.375,0.390625 0.15625,0 0.359375,-0.125 0.359375,-0.375 0,-0.125 -0.046875,-0.375 -0.40625,-0.375 C 0.984375,-4.21875 1.453125,-4.375 1.78125,-4.375 c 0.703125,0 1.0625,0.546875 1.0625,1.109375 0,0.609375 -0.4375,1.078125 -0.65625,1.328125 L 0.515625,-0.265625 C 0.4375,-0.203125 0.4375,-0.1875 0.4375,0 h 2.875 z m 0,0"
               id="id-3a3a479d-c9c5-40bf-b29a-f41065200a32" />
          </symbol>
        </g>
      </defs>
      <g
         id="id-62a65ffd-2ff5-42bd-829f-3239d2d7ff8b"
         transform="translate(-149.056,-125.324)"
         style="stroke-width:0">
        <g
           style="fill:#000000;fill-opacity:1;stroke-width:0"
           id="id-0b0c079d-8a4a-4b47-b8d8-8cb9edb2ee6b">
          <g
             transform="translate(150.221,132.246)"
             style="stroke-width:0"
             id="g104">
            <path
               style="stroke:none;stroke-width:0"
               d="M 2.5,-6.921875 1.15625,-5.5625 1.328125,-5.390625 2.5,-6.40625 3.640625,-5.390625 3.8125,-5.5625 Z m 0,0"
               id="id-85787f4f-5993-4d0d-8237-2c2371384bbb" />
          </g>
        </g>
        <g
           style="fill:#000000;fill-opacity:1;stroke-width:0"
           id="id-a4871fb6-3835-4e4c-8501-67664fa7aa1f">
          <g
             transform="translate(148.712,134.765)"
             style="stroke-width:0"
             id="g105">
            <path
               style="stroke:none;stroke-width:0"
               d="M 5.953125,-5.671875 6.09375,-5.8125 C 6.390625,-6.109375 6.71875,-6.453125 7.390625,-6.5 7.5,-6.515625 7.59375,-6.515625 7.59375,-6.6875 c 0,-0.078125 -0.046875,-0.125 -0.125,-0.125 -0.265625,0 -0.546875,0.03125 -0.8125,0.03125 -0.34375,0 -0.6875,-0.03125 -1,-0.03125 -0.0625,0 -0.1875,0 -0.1875,0.1875 0,0.109375 0.09375,0.125 0.140625,0.125 0.078125,0 0.359375,0.015625 0.359375,0.234375 0,0.171875 -0.234375,0.421875 -0.265625,0.46875 L 3.390625,-3.125 2.296875,-6.09375 C 2.234375,-6.234375 2.234375,-6.25 2.234375,-6.265625 2.234375,-6.5 2.71875,-6.5 2.828125,-6.5 c 0.125,0 0.234375,0 0.234375,-0.203125 0,-0.109375 -0.125,-0.109375 -0.15625,-0.109375 -0.28125,0 -0.96875,0.03125 -1.25,0.03125 -0.25,0 -0.875,-0.03125 -1.125,-0.03125 -0.046875,0 -0.1875,0 -0.1875,0.203125 C 0.34375,-6.5 0.453125,-6.5 0.578125,-6.5 c 0.59375,0 0.640625,0.09375 0.734375,0.34375 L 2.53125,-2.875 c 0.015625,0.03125 0.046875,0.140625 0.046875,0.15625 0,0.03125 -0.40625,1.640625 -0.453125,1.828125 C 2,-0.34375 1.984375,-0.3125 1.1875,-0.3125 c -0.1875,0 -0.265625,0 -0.265625,0.203125 C 0.921875,0 1.03125,0 1.0625,0 c 0.265625,0 0.96875,-0.03125 1.25,-0.03125 0.28125,0 1,0.03125 1.28125,0.03125 0.0625,0 0.1875,0 0.1875,-0.203125 C 3.78125,-0.3125 3.6875,-0.3125 3.5,-0.3125 c -0.015625,0 -0.203125,0 -0.375,-0.015625 C 2.90625,-0.34375 2.84375,-0.375 2.84375,-0.484375 c 0,-0.078125 0.09375,-0.421875 0.140625,-0.625 l 0.359375,-1.40625 c 0.046875,-0.203125 0.0625,-0.21875 0.140625,-0.3125 z m 0,0"
               id="id-ebca66fc-2e1e-4e25-888a-fa5b8e17dcd2" />
          </g>
        </g>
        <g
           style="fill:#000000;fill-opacity:1;stroke-width:0"
           id="id-8a2922e5-fd5e-42d4-8a5a-43f8c8f7ecc2">
          <g
             transform="translate(159.477,134.765)"
             style="stroke-width:0"
             id="g106">
            <path
               style="stroke:none;stroke-width:0"
               d="m 6.84375,-3.265625 c 0.15625,0 0.34375,0 0.34375,-0.1875 C 7.1875,-3.65625 7,-3.65625 6.859375,-3.65625 h -5.96875 c -0.140625,0 -0.328125,0 -0.328125,0.203125 0,0.1875 0.1875,0.1875 0.328125,0.1875 z m 0.015625,1.9375 c 0.140625,0 0.328125,0 0.328125,-0.203125 0,-0.1875 -0.1875,-0.1875 -0.34375,-0.1875 H 0.890625 c -0.140625,0 -0.328125,0 -0.328125,0.1875 0,0.203125 0.1875,0.203125 0.328125,0.203125 z m 0,0"
               id="id-62369fb2-85c7-4413-987c-738913af33bc" />
          </g>
        </g>
        <g
           style="fill:#000000;fill-opacity:1;stroke-width:0"
           id="id-b47a0ded-34e5-4855-950c-84721b904ad2">
          <g
             transform="translate(169.994,134.765)"
             style="stroke-width:0"
             id="g107">
            <path
               style="stroke:none;stroke-width:0"
               d="m 2.375,-6.8125 c 0,0 0,-0.109375 -0.125,-0.109375 -0.21875,0 -0.953125,0.078125 -1.21875,0.109375 -0.078125,0 -0.1875,0.015625 -0.1875,0.1875 0,0.125 0.09375,0.125 0.25,0.125 0.46875,0 0.484375,0.0625 0.484375,0.171875 0,0.0625 -0.078125,0.40625 -0.125,0.609375 l -0.828125,3.25 c -0.109375,0.5 -0.15625,0.671875 -0.15625,1.015625 0,0.9375 0.53125,1.5625 1.265625,1.5625 1.171875,0 2.40625,-1.484375 2.40625,-2.921875 0,-0.90625 -0.53125,-1.59375 -1.328125,-1.59375 -0.453125,0 -0.875,0.296875 -1.171875,0.59375 z M 1.453125,-3.046875 C 1.5,-3.265625 1.5,-3.28125 1.59375,-3.390625 2.078125,-4.03125 2.53125,-4.1875 2.796875,-4.1875 c 0.359375,0 0.625,0.296875 0.625,0.9375 0,0.59375 -0.328125,1.734375 -0.515625,2.109375 -0.328125,0.671875 -0.78125,1.03125 -1.171875,1.03125 -0.34375,0 -0.671875,-0.265625 -0.671875,-1 0,-0.203125 0,-0.390625 0.15625,-1.015625 z m 0,0"
               id="id-fd96dca3-90d2-4c8f-ad3d-2b587d6f189e" />
          </g>
        </g>
        <g
           style="fill:#000000;fill-opacity:1;stroke-width:0"
           id="id-82107c1a-1bfb-40c3-b2c8-b401cb30cb6c">
          <g
             transform="translate(174.269,136.259)"
             style="stroke-width:0"
             id="g108">
            <path
               style="stroke:none;stroke-width:0"
               d="M 3.59375,-2.21875 C 3.59375,-2.984375 3.5,-3.546875 3.1875,-4.03125 2.96875,-4.34375 2.53125,-4.625 1.984375,-4.625 c -1.625,0 -1.625,1.90625 -1.625,2.40625 0,0.5 0,2.359375 1.625,2.359375 1.609375,0 1.609375,-1.859375 1.609375,-2.359375 z M 1.984375,-0.0625 c -0.328125,0 -0.75,-0.1875 -0.890625,-0.75 C 1,-1.21875 1,-1.796875 1,-2.3125 1,-2.828125 1,-3.359375 1.09375,-3.734375 1.25,-4.28125 1.6875,-4.4375 1.984375,-4.4375 c 0.375,0 0.734375,0.234375 0.859375,0.640625 0.109375,0.375 0.125,0.875 0.125,1.484375 0,0.515625 0,1.03125 -0.09375,1.46875 -0.140625,0.640625 -0.609375,0.78125 -0.890625,0.78125 z m 0,0"
               id="id-da9613f4-f263-4837-81f4-217845d42dc4" />
          </g>
        </g>
        <g
           style="fill:#000000;fill-opacity:1;stroke-width:0"
           id="id-6b4022df-ac34-47f8-972e-916368a1ea78">
          <g
             transform="translate(180.952,134.765)"
             style="stroke-width:0"
             id="g109">
            <path
               style="stroke:none;stroke-width:0"
               d="m 4.078125,-2.296875 h 2.78125 C 7,-2.296875 7.1875,-2.296875 7.1875,-2.5 7.1875,-2.6875 7,-2.6875 6.859375,-2.6875 h -2.78125 v -2.796875 c 0,-0.140625 0,-0.328125 -0.203125,-0.328125 -0.203125,0 -0.203125,0.1875 -0.203125,0.328125 V -2.6875 h -2.78125 c -0.140625,0 -0.328125,0 -0.328125,0.1875 0,0.203125 0.1875,0.203125 0.328125,0.203125 h 2.78125 V 0.5 c 0,0.140625 0,0.328125 0.203125,0.328125 0.203125,0 0.203125,-0.1875 0.203125,-0.328125 z m 0,0"
               id="id-9821b670-f492-4edf-8d73-78ac2e7760ed" />
          </g>
        </g>
        <g
           style="fill:#000000;fill-opacity:1;stroke-width:0"
           id="id-359dbe73-c9b4-4ebf-9cff-7c71cdbc5942">
          <g
             transform="translate(190.915,134.765)"
             style="stroke-width:0"
             id="g110">
            <path
               style="stroke:none;stroke-width:0"
               d="m 2.375,-6.8125 c 0,0 0,-0.109375 -0.125,-0.109375 -0.21875,0 -0.953125,0.078125 -1.21875,0.109375 -0.078125,0 -0.1875,0.015625 -0.1875,0.1875 0,0.125 0.09375,0.125 0.25,0.125 0.46875,0 0.484375,0.0625 0.484375,0.171875 0,0.0625 -0.078125,0.40625 -0.125,0.609375 l -0.828125,3.25 c -0.109375,0.5 -0.15625,0.671875 -0.15625,1.015625 0,0.9375 0.53125,1.5625 1.265625,1.5625 1.171875,0 2.40625,-1.484375 2.40625,-2.921875 0,-0.90625 -0.53125,-1.59375 -1.328125,-1.59375 -0.453125,0 -0.875,0.296875 -1.171875,0.59375 z M 1.453125,-3.046875 C 1.5,-3.265625 1.5,-3.28125 1.59375,-3.390625 2.078125,-4.03125 2.53125,-4.1875 2.796875,-4.1875 c 0.359375,0 0.625,0.296875 0.625,0.9375 0,0.59375 -0.328125,1.734375 -0.515625,2.109375 -0.328125,0.671875 -0.78125,1.03125 -1.171875,1.03125 -0.34375,0 -0.671875,-0.265625 -0.671875,-1 0,-0.203125 0,-0.390625 0.15625,-1.015625 z m 0,0"
               id="id-b1cc7852-0ca7-45dc-b868-a5a08ad4c1ae" />
          </g>
        </g>
        <g
           style="fill:#000000;fill-opacity:1;stroke-width:0"
           id="id-aafb0953-8186-4728-a8e2-1cc49bfccf7e">
          <g
             transform="translate(195.191,136.259)"
             style="stroke-width:0"
             id="g111">
            <path
               style="stroke:none;stroke-width:0"
               d="m 2.328125,-4.4375 c 0,-0.1875 0,-0.1875 -0.203125,-0.1875 -0.453125,0.4375 -1.078125,0.4375 -1.359375,0.4375 v 0.25 c 0.15625,0 0.625,0 1,-0.1875 v 3.546875 c 0,0.234375 0,0.328125 -0.6875,0.328125 H 0.8125 V 0 c 0.125,0 0.984375,-0.03125 1.234375,-0.03125 0.21875,0 1.09375,0.03125 1.25,0.03125 V -0.25 H 3.03125 c -0.703125,0 -0.703125,-0.09375 -0.703125,-0.328125 z m 0,0"
               id="id-07185214-c9be-4eaa-ab63-18a6ed950418" />
          </g>
        </g>
        <g
           style="fill:#000000;fill-opacity:1;stroke-width:0"
           id="id-37b454f8-ba3b-4b8c-b264-c83ab0d64e22">
          <g
             transform="translate(199.66,134.765)"
             style="stroke-width:0"
             id="g112">
            <path
               style="stroke:none;stroke-width:0"
               d="M 4.828125,-4.09375 4,-6.078125 c -0.03125,-0.078125 -0.046875,-0.125 -0.046875,-0.125 0,-0.0625 0.15625,-0.25 0.578125,-0.296875 0.109375,-0.015625 0.203125,-0.015625 0.203125,-0.1875 0,-0.125 -0.125,-0.125 -0.15625,-0.125 -0.40625,0 -0.828125,0.03125 -1.25,0.03125 -0.25,0 -0.859375,-0.03125 -1.109375,-0.03125 -0.0625,0 -0.1875,0 -0.1875,0.203125 C 2.03125,-6.5 2.140625,-6.5 2.265625,-6.5 c 0.59375,0 0.65625,0.09375 0.75,0.3125 l 1.171875,2.78125 -2.109375,2.265625 -0.125,0.109375 C 1.46875,-0.5 1,-0.34375 0.484375,-0.3125 c -0.125,0.015625 -0.21875,0.015625 -0.21875,0.203125 0,0.015625 0,0.109375 0.140625,0.109375 0.296875,0 0.625,-0.03125 0.921875,-0.03125 C 1.703125,-0.03125 2.09375,0 2.453125,0 2.515625,0 2.625,0 2.625,-0.203125 2.625,-0.296875 2.53125,-0.3125 2.515625,-0.3125 c -0.09375,0 -0.40625,-0.03125 -0.40625,-0.3125 0,-0.15625 0.15625,-0.3125 0.265625,-0.4375 L 3.40625,-2.140625 4.296875,-3.125 l 1,2.390625 c 0.046875,0.109375 0.0625,0.109375 0.0625,0.140625 0,0.078125 -0.203125,0.25 -0.578125,0.28125 C 4.671875,-0.296875 4.578125,-0.296875 4.578125,-0.125 4.578125,0 4.6875,0 4.71875,0 5,0 5.703125,-0.03125 5.984375,-0.03125 6.234375,-0.03125 6.84375,0 7.09375,0 c 0.0625,0 0.1875,0 0.1875,-0.1875 0,-0.125 -0.109375,-0.125 -0.1875,-0.125 -0.65625,0 -0.6875,-0.03125 -0.859375,-0.4375 C 5.859375,-1.671875 5.1875,-3.234375 4.953125,-3.828125 5.625,-4.53125 6.671875,-5.71875 7,-5.984375 7.28125,-6.234375 7.671875,-6.46875 8.265625,-6.5 c 0.125,-0.015625 0.21875,-0.015625 0.21875,-0.203125 0,0 0,-0.109375 -0.125,-0.109375 -0.296875,0 -0.640625,0.03125 -0.9375,0.03125 -0.375,0 -0.75,-0.03125 -1.109375,-0.03125 -0.0625,0 -0.1875,0 -0.1875,0.203125 0,0.0625 0.046875,0.09375 0.109375,0.109375 0.09375,0.015625 0.40625,0.03125 0.40625,0.3125 0,0.140625 -0.109375,0.265625 -0.1875,0.359375 z m 0,0"
               id="id-f2ab662f-becd-4812-bfa4-3d204cc98cc0" />
          </g>
        </g>
        <g
           style="fill:#000000;fill-opacity:1;stroke-width:0"
           id="id-7bab36ce-4809-4970-b4bb-60e6bc27414f">
          <g
             transform="translate(207.914,136.259)"
             style="stroke-width:0"
             id="g113">
            <path
               style="stroke:none;stroke-width:0"
               d="m 2.328125,-4.4375 c 0,-0.1875 0,-0.1875 -0.203125,-0.1875 -0.453125,0.4375 -1.078125,0.4375 -1.359375,0.4375 v 0.25 c 0.15625,0 0.625,0 1,-0.1875 v 3.546875 c 0,0.234375 0,0.328125 -0.6875,0.328125 H 0.8125 V 0 c 0.125,0 0.984375,-0.03125 1.234375,-0.03125 0.21875,0 1.09375,0.03125 1.25,0.03125 V -0.25 H 3.03125 c -0.703125,0 -0.703125,-0.09375 -0.703125,-0.328125 z m 0,0"
               id="id-83e64030-ddc2-46f4-85cf-29613684a96b" />
          </g>
        </g>
        <g
           style="fill:#000000;fill-opacity:1;stroke-width:0"
           id="id-d07babc6-966d-4f54-924a-0c27f920b6c6">
          <g
             transform="translate(214.597,134.765)"
             style="stroke-width:0"
             id="g114">
            <path
               style="stroke:none;stroke-width:0"
               d="m 4.078125,-2.296875 h 2.78125 C 7,-2.296875 7.1875,-2.296875 7.1875,-2.5 7.1875,-2.6875 7,-2.6875 6.859375,-2.6875 h -2.78125 v -2.796875 c 0,-0.140625 0,-0.328125 -0.203125,-0.328125 -0.203125,0 -0.203125,0.1875 -0.203125,0.328125 V -2.6875 h -2.78125 c -0.140625,0 -0.328125,0 -0.328125,0.1875 0,0.203125 0.1875,0.203125 0.328125,0.203125 h 2.78125 V 0.5 c 0,0.140625 0,0.328125 0.203125,0.328125 0.203125,0 0.203125,-0.1875 0.203125,-0.328125 z m 0,0"
               id="id-ee9edaa2-a000-421f-a37f-29f15c7347bf" />
          </g>
        </g>
        <g
           style="fill:#000000;fill-opacity:1;stroke-width:0"
           id="id-cd539200-8de6-41d5-9705-86e5b665f298">
          <g
             transform="translate(224.56,134.765)"
             style="stroke-width:0"
             id="g115">
            <path
               style="stroke:none;stroke-width:0"
               d="m 2.375,-6.8125 c 0,0 0,-0.109375 -0.125,-0.109375 -0.21875,0 -0.953125,0.078125 -1.21875,0.109375 -0.078125,0 -0.1875,0.015625 -0.1875,0.1875 0,0.125 0.09375,0.125 0.25,0.125 0.46875,0 0.484375,0.0625 0.484375,0.171875 0,0.0625 -0.078125,0.40625 -0.125,0.609375 l -0.828125,3.25 c -0.109375,0.5 -0.15625,0.671875 -0.15625,1.015625 0,0.9375 0.53125,1.5625 1.265625,1.5625 1.171875,0 2.40625,-1.484375 2.40625,-2.921875 0,-0.90625 -0.53125,-1.59375 -1.328125,-1.59375 -0.453125,0 -0.875,0.296875 -1.171875,0.59375 z M 1.453125,-3.046875 C 1.5,-3.265625 1.5,-3.28125 1.59375,-3.390625 2.078125,-4.03125 2.53125,-4.1875 2.796875,-4.1875 c 0.359375,0 0.625,0.296875 0.625,0.9375 0,0.59375 -0.328125,1.734375 -0.515625,2.109375 -0.328125,0.671875 -0.78125,1.03125 -1.171875,1.03125 -0.34375,0 -0.671875,-0.265625 -0.671875,-1 0,-0.203125 0,-0.390625 0.15625,-1.015625 z m 0,0"
               id="id-3b12a4cd-5726-481e-b7b3-0c95a6775650" />
          </g>
        </g>
        <g
           style="fill:#000000;fill-opacity:1;stroke-width:0"
           id="id-4b1192cd-8098-46cb-9b3c-7e27f1495006">
          <g
             transform="translate(228.835,136.259)"
             style="stroke-width:0"
             id="g116">
            <path
               style="stroke:none;stroke-width:0"
               d="M 3.515625,-1.265625 H 3.28125 c -0.015625,0.15625 -0.09375,0.5625 -0.1875,0.625 C 3.046875,-0.59375 2.515625,-0.59375 2.40625,-0.59375 H 1.125 c 0.734375,-0.640625 0.984375,-0.84375 1.390625,-1.171875 0.515625,-0.40625 1,-0.84375 1,-1.5 0,-0.84375 -0.734375,-1.359375 -1.625,-1.359375 -0.859375,0 -1.453125,0.609375 -1.453125,1.25 0,0.34375 0.296875,0.390625 0.375,0.390625 0.15625,0 0.359375,-0.125 0.359375,-0.375 0,-0.125 -0.046875,-0.375 -0.40625,-0.375 C 0.984375,-4.21875 1.453125,-4.375 1.78125,-4.375 c 0.703125,0 1.0625,0.546875 1.0625,1.109375 0,0.609375 -0.4375,1.078125 -0.65625,1.328125 L 0.515625,-0.265625 C 0.4375,-0.203125 0.4375,-0.1875 0.4375,0 h 2.875 z m 0,0"
               id="id-e6f332e4-2793-410c-a082-037244f98902" />
          </g>
        </g>
        <g
           style="fill:#000000;fill-opacity:1;stroke-width:0"
           id="id-c744821f-ca3f-497a-87e7-9a1019b81985">
          <g
             transform="translate(233.305,134.765)"
             style="stroke-width:0"
             id="g117">
            <path
               style="stroke:none;stroke-width:0"
               d="M 4.828125,-4.09375 4,-6.078125 c -0.03125,-0.078125 -0.046875,-0.125 -0.046875,-0.125 0,-0.0625 0.15625,-0.25 0.578125,-0.296875 0.109375,-0.015625 0.203125,-0.015625 0.203125,-0.1875 0,-0.125 -0.125,-0.125 -0.15625,-0.125 -0.40625,0 -0.828125,0.03125 -1.25,0.03125 -0.25,0 -0.859375,-0.03125 -1.109375,-0.03125 -0.0625,0 -0.1875,0 -0.1875,0.203125 C 2.03125,-6.5 2.140625,-6.5 2.265625,-6.5 c 0.59375,0 0.65625,0.09375 0.75,0.3125 l 1.171875,2.78125 -2.109375,2.265625 -0.125,0.109375 C 1.46875,-0.5 1,-0.34375 0.484375,-0.3125 c -0.125,0.015625 -0.21875,0.015625 -0.21875,0.203125 0,0.015625 0,0.109375 0.140625,0.109375 0.296875,0 0.625,-0.03125 0.921875,-0.03125 C 1.703125,-0.03125 2.09375,0 2.453125,0 2.515625,0 2.625,0 2.625,-0.203125 2.625,-0.296875 2.53125,-0.3125 2.515625,-0.3125 c -0.09375,0 -0.40625,-0.03125 -0.40625,-0.3125 0,-0.15625 0.15625,-0.3125 0.265625,-0.4375 L 3.40625,-2.140625 4.296875,-3.125 l 1,2.390625 c 0.046875,0.109375 0.0625,0.109375 0.0625,0.140625 0,0.078125 -0.203125,0.25 -0.578125,0.28125 C 4.671875,-0.296875 4.578125,-0.296875 4.578125,-0.125 4.578125,0 4.6875,0 4.71875,0 5,0 5.703125,-0.03125 5.984375,-0.03125 6.234375,-0.03125 6.84375,0 7.09375,0 c 0.0625,0 0.1875,0 0.1875,-0.1875 0,-0.125 -0.109375,-0.125 -0.1875,-0.125 -0.65625,0 -0.6875,-0.03125 -0.859375,-0.4375 C 5.859375,-1.671875 5.1875,-3.234375 4.953125,-3.828125 5.625,-4.53125 6.671875,-5.71875 7,-5.984375 7.28125,-6.234375 7.671875,-6.46875 8.265625,-6.5 c 0.125,-0.015625 0.21875,-0.015625 0.21875,-0.203125 0,0 0,-0.109375 -0.125,-0.109375 -0.296875,0 -0.640625,0.03125 -0.9375,0.03125 -0.375,0 -0.75,-0.03125 -1.109375,-0.03125 -0.0625,0 -0.1875,0 -0.1875,0.203125 0,0.0625 0.046875,0.09375 0.109375,0.109375 0.09375,0.015625 0.40625,0.03125 0.40625,0.3125 0,0.140625 -0.109375,0.265625 -0.1875,0.359375 z m 0,0"
               id="id-d35b40fa-571a-42a6-b434-4d179d32fd91" />
          </g>
        </g>
        <g
           style="fill:#000000;fill-opacity:1;stroke-width:0"
           id="id-deadd803-4ecd-450d-89c3-43b032049a43">
          <g
             transform="translate(241.558,136.259)"
             style="stroke-width:0"
             id="g118">
            <path
               style="stroke:none;stroke-width:0"
               d="M 3.515625,-1.265625 H 3.28125 c -0.015625,0.15625 -0.09375,0.5625 -0.1875,0.625 C 3.046875,-0.59375 2.515625,-0.59375 2.40625,-0.59375 H 1.125 c 0.734375,-0.640625 0.984375,-0.84375 1.390625,-1.171875 0.515625,-0.40625 1,-0.84375 1,-1.5 0,-0.84375 -0.734375,-1.359375 -1.625,-1.359375 -0.859375,0 -1.453125,0.609375 -1.453125,1.25 0,0.34375 0.296875,0.390625 0.375,0.390625 0.15625,0 0.359375,-0.125 0.359375,-0.375 0,-0.125 -0.046875,-0.375 -0.40625,-0.375 C 0.984375,-4.21875 1.453125,-4.375 1.78125,-4.375 c 0.703125,0 1.0625,0.546875 1.0625,1.109375 0,0.609375 -0.4375,1.078125 -0.65625,1.328125 L 0.515625,-0.265625 C 0.4375,-0.203125 0.4375,-0.1875 0.4375,0 h 2.875 z m 0,0"
               id="id-d531c8af-a470-46f0-abb1-bee68b5c61fd" />
          </g>
        </g>
        <g
           style="fill:#000000;fill-opacity:1;stroke-width:0"
           id="id-0b6b4b71-97f1-47b0-829d-185bdee315c2">
          <g
             transform="translate(248.242,134.765)"
             style="stroke-width:0"
             id="g119">
            <path
               style="stroke:none;stroke-width:0"
               d="m 4.078125,-2.296875 h 2.78125 C 7,-2.296875 7.1875,-2.296875 7.1875,-2.5 7.1875,-2.6875 7,-2.6875 6.859375,-2.6875 h -2.78125 v -2.796875 c 0,-0.140625 0,-0.328125 -0.203125,-0.328125 -0.203125,0 -0.203125,0.1875 -0.203125,0.328125 V -2.6875 h -2.78125 c -0.140625,0 -0.328125,0 -0.328125,0.1875 0,0.203125 0.1875,0.203125 0.328125,0.203125 h 2.78125 V 0.5 c 0,0.140625 0,0.328125 0.203125,0.328125 0.203125,0 0.203125,-0.1875 0.203125,-0.328125 z m 0,0"
               id="id-7b0f5b35-194a-4237-aff5-2e6351412c3c" />
          </g>
        </g>
        <g
           style="fill:#000000;fill-opacity:1;stroke-width:0"
           id="id-e5169aef-03f8-4856-8862-7d92597acc96">
          <g
             transform="translate(258.204,134.765)"
             style="stroke-width:0"
             id="g120">
            <path
               style="stroke:none;stroke-width:0"
               d="m 1.90625,-0.53125 c 0,-0.28125 -0.234375,-0.53125 -0.515625,-0.53125 -0.296875,0 -0.53125,0.25 -0.53125,0.53125 C 0.859375,-0.234375 1.09375,0 1.390625,0 1.671875,0 1.90625,-0.234375 1.90625,-0.53125 Z m 0,0"
               id="id-a0a6eaaa-668c-4ad2-b5ca-2371fddda210" />
          </g>
          <g
             transform="translate(260.964,134.765)"
             style="stroke-width:0"
             id="g121">
            <path
               style="stroke:none;stroke-width:0"
               d="m 1.90625,-0.53125 c 0,-0.28125 -0.234375,-0.53125 -0.515625,-0.53125 -0.296875,0 -0.53125,0.25 -0.53125,0.53125 C 0.859375,-0.234375 1.09375,0 1.390625,0 1.671875,0 1.90625,-0.234375 1.90625,-0.53125 Z m 0,0"
               id="id-f7f7704f-3865-4512-9c82-77247c884dad" />
          </g>
          <g
             transform="translate(263.723,134.765)"
             style="stroke-width:0"
             id="g122">
            <path
               style="stroke:none;stroke-width:0"
               d="m 1.90625,-0.53125 c 0,-0.28125 -0.234375,-0.53125 -0.515625,-0.53125 -0.296875,0 -0.53125,0.25 -0.53125,0.53125 C 0.859375,-0.234375 1.09375,0 1.390625,0 1.671875,0 1.90625,-0.234375 1.90625,-0.53125 Z m 0,0"
               id="id-2e4acabc-7bba-4bda-9a2d-81c4d116fa4f" />
          </g>
        </g>
      </g>
    </g>
    <path
       style="fill:none;fill-opacity:1;stroke:#0200eb;stroke-width:0.6;stroke-dasharray:none;stroke-opacity:1;marker-end:url(#Triangle)"
       d="M 157.26267,53.998645 V 68.011097"
       id="path122" />
  </g>
</svg>
