<?xml version="1.0" encoding="UTF-8" standalone="no"?>
<!-- Created with Inkscape (http://www.inkscape.org/) -->

<svg
   width="123.35649mm"
   height="26.307608mm"
   viewBox="0 0 123.35649 26.307608"
   version="1.1"
   id="svg1"
   inkscape:version="1.4-dev (1:1.2.0-alpha1+devel+202308201504+f4f93af4f1)"
   sodipodi:docname="quadratsumme.svg"
   inkscape:export-filename="quadratsumme.png"
   inkscape:export-xdpi="200"
   inkscape:export-ydpi="200"
   xmlns:inkscape="http://www.inkscape.org/namespaces/inkscape"
   xmlns:sodipodi="http://sodipodi.sourceforge.net/DTD/sodipodi-0.dtd"
   xmlns="http://www.w3.org/2000/svg"
   xmlns:svg="http://www.w3.org/2000/svg"
   xmlns:ns13="http://www.iki.fi/pav/software/textext/">
  <sodipodi:namedview
     id="namedview1"
     pagecolor="#ffffff"
     bordercolor="#000000"
     borderopacity="0.25"
     inkscape:showpageshadow="2"
     inkscape:pageopacity="0.0"
     inkscape:pagecheckerboard="0"
     inkscape:deskcolor="#d1d1d1"
     inkscape:document-units="mm"
     inkscape:zoom="1.4639531"
     inkscape:cx="373.30431"
     inkscape:cy="170.7705"
     inkscape:window-width="2560"
     inkscape:window-height="1367"
     inkscape:window-x="0"
     inkscape:window-y="0"
     inkscape:window-maximized="1"
     inkscape:current-layer="layer1" />
  <defs
     id="defs1" />
  <g
     inkscape:label="Layer 1"
     inkscape:groupmode="layer"
     id="layer1"
     transform="translate(-17.581765,-115.76845)">
    <g
       transform="matrix(1.2934807,0,0,1.2934807,17.581765,119.65098)"
       ns13:version="1.9.0"
       ns13:texconverter="pdflatex"
       ns13:pdfconverter="inkscape"
       ns13:text="$\\sigma^2=\\frac{\\sum\\left(x_i-\\bar{X}\\right)^2}{N}$"
       ns13:preamble="/home/matteo/.config/inkscape/extensions/textext/default_packages.tex"
       ns13:scale="1.2748659621314764"
       ns13:alignment="middle center"
       ns13:stroke-to-path="0"
       ns13:jacobian_sqrt="0.449745"
       id="g14"
       style="stroke-width:0.347701">
      <defs
         id="id-ce43f0b7-0f83-4390-885b-f068e894954e">
        <g
           id="id-19235829-0ed1-4fb8-974e-7a54322f6bec">
          <symbol
             overflow="visible"
             id="id-ad18b08d-e0e6-4df0-96bc-70d8445db169">
            <path
               style="stroke:none;stroke-width:0"
               d=""
               id="id-d90aecce-0dce-412a-b0c0-8dae9d445ca3" />
          </symbol>
          <symbol
             overflow="visible"
             id="id-cfbb2f8d-c893-471a-8ddb-41ac64f13845">
            <path
               style="stroke:none;stroke-width:0"
               d="m 5.15625,-3.71875 c 0.140625,0 0.5,0 0.5,-0.34375 0,-0.234375 -0.21875,-0.234375 -0.390625,-0.234375 h -2.28125 c -1.5,0 -2.609375,1.640625 -2.609375,2.828125 0,0.875 0.59375,1.578125 1.5,1.578125 1.171875,0 2.5,-1.203125 2.5,-2.734375 0,-0.171875 0,-0.65625 -0.3125,-1.09375 z M 1.890625,-0.109375 C 1.390625,-0.109375 1,-0.46875 1,-1.1875 c 0,-0.296875 0.109375,-1.109375 0.46875,-1.703125 0.421875,-0.6875 1.015625,-0.828125 1.359375,-0.828125 0.828125,0 0.90625,0.65625 0.90625,0.96875 0,0.46875 -0.203125,1.28125 -0.53125,1.796875 -0.390625,0.578125 -0.9375,0.84375 -1.3125,0.84375 z m 0,0"
               id="id-f8cc577a-7fb5-4528-8e3f-d4d38d6463f1" />
          </symbol>
          <symbol
             overflow="visible"
             id="id-6a180a21-fe47-4f9c-800d-d6675891f78f">
            <path
               style="stroke:none;stroke-width:0"
               d=""
               id="id-cbb20cee-1e92-42a4-a6d5-d3bd577955b3" />
          </symbol>
          <symbol
             overflow="visible"
             id="id-5ff62a63-bac8-45fa-92ee-c2c5470e516d">
            <path
               style="stroke:none;stroke-width:0"
               d="M 3.515625,-1.265625 H 3.28125 c -0.015625,0.15625 -0.09375,0.5625 -0.1875,0.625 C 3.046875,-0.59375 2.515625,-0.59375 2.40625,-0.59375 H 1.125 c 0.734375,-0.640625 0.984375,-0.84375 1.390625,-1.171875 0.515625,-0.40625 1,-0.84375 1,-1.5 0,-0.84375 -0.734375,-1.359375 -1.625,-1.359375 -0.859375,0 -1.453125,0.609375 -1.453125,1.25 0,0.34375 0.296875,0.390625 0.375,0.390625 0.15625,0 0.359375,-0.125 0.359375,-0.375 0,-0.125 -0.046875,-0.375 -0.40625,-0.375 C 0.984375,-4.21875 1.453125,-4.375 1.78125,-4.375 c 0.703125,0 1.0625,0.546875 1.0625,1.109375 0,0.609375 -0.4375,1.078125 -0.65625,1.328125 L 0.515625,-0.265625 C 0.4375,-0.203125 0.4375,-0.1875 0.4375,0 h 2.875 z m 0,0"
               id="id-745f0a06-545b-47d2-9dce-9509b8c0a3a2" />
          </symbol>
          <symbol
             overflow="visible"
             id="id-f1a3995d-1978-4de8-ae71-44ac3701bf80">
            <path
               style="stroke:none;stroke-width:0"
               d="M 3.359375,-3.875 V -4.140625 H 0.59375 V -3.875 Z m 0,0"
               id="id-8b8e2a8f-65fb-46f5-85bf-942a1457448a" />
          </symbol>
          <symbol
             overflow="visible"
             id="id-6289c128-da48-4a91-8f5e-5e51914fbafc">
            <path
               style="stroke:none;stroke-width:0"
               d=""
               id="id-71a56210-2f15-4d90-8676-b5d56b83b4c5" />
          </symbol>
          <symbol
             overflow="visible"
             id="id-6adf4353-e8cc-41cb-999d-e96f7e2e5366">
            <path
               style="stroke:none;stroke-width:0"
               d="m 6.84375,-3.265625 c 0.15625,0 0.34375,0 0.34375,-0.1875 C 7.1875,-3.65625 7,-3.65625 6.859375,-3.65625 h -5.96875 c -0.140625,0 -0.328125,0 -0.328125,0.203125 0,0.1875 0.1875,0.1875 0.328125,0.1875 z m 0.015625,1.9375 c 0.140625,0 0.328125,0 0.328125,-0.203125 0,-0.1875 -0.1875,-0.1875 -0.34375,-0.1875 H 0.890625 c -0.140625,0 -0.328125,0 -0.328125,0.1875 0,0.203125 0.1875,0.203125 0.328125,0.203125 z m 0,0"
               id="id-b8a5774b-486c-4421-a3b4-f699459255c9" />
          </symbol>
          <symbol
             overflow="visible"
             id="id-415cb32d-2cd0-4570-ac56-9ccf3eef5899">
            <path
               style="stroke:none;stroke-width:0"
               d="m 3.296875,2.390625 c 0,-0.03125 0,-0.046875 -0.171875,-0.21875 C 1.890625,0.921875 1.5625,-0.96875 1.5625,-2.5 c 0,-1.734375 0.375,-3.46875 1.609375,-4.703125 0.125,-0.125 0.125,-0.140625 0.125,-0.171875 0,-0.078125 -0.03125,-0.109375 -0.09375,-0.109375 -0.109375,0 -1,0.6875 -1.59375,1.953125 -0.5,1.09375 -0.625,2.203125 -0.625,3.03125 0,0.78125 0.109375,1.984375 0.65625,3.125 C 2.25,1.84375 3.09375,2.5 3.203125,2.5 c 0.0625,0 0.09375,-0.03125 0.09375,-0.109375 z m 0,0"
               id="id-399aeb1a-0434-421e-b08f-ff6f43dd09b7" />
          </symbol>
          <symbol
             overflow="visible"
             id="id-ba9fc7d8-64b6-4e65-a8e0-5757eb85fd9e">
            <path
               style="stroke:none;stroke-width:0"
               d="m 2.875,-2.5 c 0,-0.765625 -0.109375,-1.96875 -0.65625,-3.109375 -0.59375,-1.21875 -1.453125,-1.875 -1.546875,-1.875 -0.0625,0 -0.109375,0.046875 -0.109375,0.109375 0,0.03125 0,0.046875 0.1875,0.234375 0.984375,0.984375 1.546875,2.5625 1.546875,4.640625 0,1.71875 -0.359375,3.46875 -1.59375,4.71875 C 0.5625,2.34375 0.5625,2.359375 0.5625,2.390625 0.5625,2.453125 0.609375,2.5 0.671875,2.5 0.765625,2.5 1.671875,1.8125 2.25,0.546875 2.765625,-0.546875 2.875,-1.65625 2.875,-2.5 Z m 0,0"
               id="id-86eb8f1c-2571-4f34-bbc5-62851b4a1522" />
          </symbol>
          <symbol
             overflow="visible"
             id="id-d9d441c6-7a04-4de0-9cb7-0b08b0a00c14">
            <path
               style="stroke:none;stroke-width:0"
               d=""
               id="id-90bb10f6-babc-4625-806d-c593b2c2b8ce" />
          </symbol>
          <symbol
             overflow="visible"
             id="id-555d1498-7aab-414b-99ad-e5dc002f0547">
            <path
               style="stroke:none;stroke-width:0"
               d="M 3.859375,3.609375 C 3.9375,3.53125 3.9375,3.515625 3.9375,3.484375 3.9375,3.46875 3.9375,3.453125 3.875,3.375 L 1.40625,0.34375 H 4.4375 C 5.453125,0.34375 6,0.484375 6.125,0.515625 6.734375,0.6875 7.34375,1.09375 7.578125,1.6875 H 7.8125 L 7.15625,0 H 0.75 C 0.59375,0 0.59375,0 0.5625,0.046875 0.53125,0.0625 0.53125,0.078125 0.53125,0.265625 L 3.328125,3.703125 0.625,6.75 C 0.53125,6.828125 0.53125,6.84375 0.53125,6.875 0.53125,6.96875 0.625,6.96875 0.75,6.96875 H 7.15625 L 7.8125,5.171875 H 7.578125 C 7.34375,5.8125 6.734375,6.1875 6.234375,6.328125 6.09375,6.375 5.5625,6.53125 4.484375,6.53125 h -3.21875 z m 0,0"
               id="id-1248f4ad-a001-4402-902e-7f6b62bc1fd5" />
          </symbol>
          <symbol
             overflow="visible"
             id="id-5dd8a745-2b9b-4565-b05c-4fa357a9d30b">
            <path
               style="stroke:none;stroke-width:0"
               d=""
               id="id-ceffd8d2-b87a-4088-bcf7-0686d4810140" />
          </symbol>
          <symbol
             overflow="visible"
             id="id-a752c024-991f-4ead-af59-3ba546594ae2">
            <path
               style="stroke:none;stroke-width:0"
               d="M 1.734375,-0.734375 C 1.671875,-0.5 1.4375,-0.125 1.078125,-0.125 c -0.015625,0 -0.234375,0 -0.375,-0.09375 0.28125,-0.09375 0.3125,-0.34375 0.3125,-0.390625 0,-0.15625 -0.125,-0.25 -0.28125,-0.25 -0.203125,0 -0.40625,0.15625 -0.40625,0.421875 0,0.34375 0.390625,0.5 0.734375,0.5 0.328125,0 0.609375,-0.1875 0.78125,-0.484375 C 2.015625,-0.0625 2.390625,0.0625 2.671875,0.0625 c 0.8125,0 1.234375,-0.859375 1.234375,-1.0625 0,-0.09375 -0.09375,-0.09375 -0.109375,-0.09375 -0.109375,0 -0.109375,0.046875 -0.140625,0.125 -0.140625,0.484375 -0.5625,0.84375 -0.953125,0.84375 -0.28125,0 -0.421875,-0.1875 -0.421875,-0.453125 0,-0.1875 0.171875,-0.8125 0.359375,-1.59375 C 2.78125,-2.703125 3.09375,-2.875 3.328125,-2.875 c 0.015625,0 0.21875,0 0.375,0.09375 -0.21875,0.0625 -0.3125,0.265625 -0.3125,0.390625 0,0.140625 0.125,0.25 0.28125,0.25 0.15625,0 0.390625,-0.125 0.390625,-0.421875 0,-0.390625 -0.453125,-0.515625 -0.71875,-0.515625 -0.359375,0 -0.640625,0.234375 -0.78125,0.5 -0.125,-0.28125 -0.453125,-0.5 -0.84375,-0.5 C 0.9375,-3.078125 0.5,-2.21875 0.5,-2 c 0,0.078125 0.09375,0.078125 0.109375,0.078125 0.09375,0 0.09375,-0.015625 0.140625,-0.109375 C 0.921875,-2.578125 1.359375,-2.875 1.703125,-2.875 1.9375,-2.875 2.125,-2.75 2.125,-2.421875 2.125,-2.28125 2.03125,-1.9375 1.96875,-1.6875 Z m 0,0"
               id="id-261404df-b2f9-4c81-9770-0dbb8933238d" />
          </symbol>
          <symbol
             overflow="visible"
             id="id-5a236b78-4ab5-46d7-b2f2-2a5256303060">
            <path
               style="stroke:none;stroke-width:0"
               d="m 3.875,-2.65625 0.65625,-0.671875 c 0.890625,-0.875 1.171875,-1.140625 1.796875,-1.1875 0.09375,0 0.171875,0 0.171875,-0.140625 0,-0.078125 -0.078125,-0.109375 -0.09375,-0.109375 -0.203125,0 -0.453125,0.03125 -0.65625,0.03125 -0.1875,0 -0.625,-0.03125 -0.8125,-0.03125 -0.046875,0 -0.140625,0.03125 -0.140625,0.15625 0,0.015625 0,0.09375 0.109375,0.09375 0.0625,0.015625 0.234375,0.03125 0.234375,0.1875 0,0.09375 -0.109375,0.203125 -0.171875,0.28125 C 4.90625,-4 4.03125,-3.140625 3.765625,-2.875 L 3.0625,-4.234375 C 3.046875,-4.265625 3.03125,-4.3125 3.03125,-4.328125 c 0,-0.0625 0.125,-0.171875 0.375,-0.1875 0.046875,0 0.140625,0 0.140625,-0.140625 0,-0.015625 0,-0.109375 -0.125,-0.109375 -0.140625,0 -0.3125,0.03125 -0.453125,0.03125 -0.15625,0 -0.3125,0 -0.453125,0 -0.125,0 -0.296875,0 -0.421875,0 -0.109375,-0.015625 -0.265625,-0.03125 -0.375,-0.03125 -0.03125,0 -0.140625,0 -0.140625,0.15625 0,0.09375 0.09375,0.09375 0.203125,0.09375 0.40625,0 0.4375,0.078125 0.5,0.21875 L 3.265625,-2.375 2.875,-1.984375 c -0.140625,0.125 -0.46875,0.4375 -0.59375,0.5625 -0.84375,0.84375 -1.125,1.140625 -1.765625,1.171875 -0.09375,0 -0.171875,0 -0.171875,0.15625 C 0.34375,-0.0625 0.375,0 0.453125,0 c 0.1875,0 0.4375,-0.03125 0.640625,-0.03125 0.125,0 0.296875,0 0.40625,0.015625 C 1.625,-0.015625 1.78125,0 1.90625,0 1.9375,0 2.046875,0 2.046875,-0.140625 2.046875,-0.25 1.96875,-0.25 1.921875,-0.25 c -0.0625,-0.015625 -0.21875,-0.03125 -0.21875,-0.171875 0,-0.109375 0.09375,-0.203125 0.25,-0.359375 l 1.40625,-1.390625 0.84375,1.65625 C 4.25,-0.453125 4.25,-0.4375 4.25,-0.421875 c 0,0.03125 -0.125,0.15625 -0.375,0.171875 -0.0625,0 -0.140625,0 -0.140625,0.15625 0,0 0,0.09375 0.109375,0.09375 C 4,0 4.171875,-0.015625 4.3125,-0.015625 c 0.140625,0 0.3125,-0.015625 0.453125,-0.015625 0.125,0 0.28125,0 0.40625,0.015625 C 5.296875,-0.015625 5.4375,0 5.546875,0 5.59375,0 5.703125,0 5.703125,-0.15625 5.703125,-0.25 5.609375,-0.25 5.5,-0.25 5.09375,-0.25 5.0625,-0.328125 5,-0.453125 Z m 0,0"
               id="id-bc4fc9ba-ca61-491b-b56c-9f2a98a030dc" />
          </symbol>
          <symbol
             overflow="visible"
             id="id-433f9451-b89c-474a-b898-760514bc262b">
            <path
               style="stroke:none;stroke-width:0"
               d="M 5.8125,-4 C 5.875,-4.265625 6,-4.5 6.546875,-4.515625 c 0.03125,0 0.140625,0 0.140625,-0.140625 0,-0.046875 -0.03125,-0.109375 -0.109375,-0.109375 -0.21875,0 -0.484375,0.03125 -0.71875,0.03125 -0.171875,0 -0.5625,-0.03125 -0.734375,-0.03125 -0.03125,0 -0.140625,0 -0.140625,0.15625 0,0.09375 0.09375,0.09375 0.15625,0.09375 0.328125,0.015625 0.4375,0.125 0.4375,0.296875 0,0.046875 0,0.09375 -0.03125,0.15625 l -0.75,3.046875 -1.765625,-3.625 c -0.0625,-0.125 -0.078125,-0.125 -0.25,-0.125 H 1.828125 c -0.125,0 -0.21875,0 -0.21875,0.15625 0,0.09375 0.078125,0.09375 0.234375,0.09375 0.140625,0 0.296875,0.015625 0.4375,0.046875 L 1.359375,-0.75 c -0.0625,0.265625 -0.1875,0.484375 -0.734375,0.5 -0.046875,0 -0.140625,0 -0.140625,0.140625 C 0.484375,-0.03125 0.53125,0 0.578125,0 0.8125,0 1.078125,-0.03125 1.3125,-0.03125 1.484375,-0.03125 1.875,0 2.046875,0 2.125,0 2.1875,-0.03125 2.1875,-0.140625 2.1875,-0.25 2.109375,-0.25 2.03125,-0.25 c -0.4375,-0.015625 -0.4375,-0.203125 -0.4375,-0.296875 0,-0.03125 0,-0.0625 0.015625,-0.171875 l 0.90625,-3.5625 2.03125,4.15625 C 4.59375,0 4.625,0 4.703125,0 4.8125,0 4.8125,-0.015625 4.84375,-0.140625 Z m 0,0"
               id="id-f363cb0d-19c3-49db-9a9b-2e2d6b4ca186" />
          </symbol>
          <symbol
             overflow="visible"
             id="id-673f1c3e-fca7-4236-9225-8b678d6ef308">
            <path
               style="stroke:none;stroke-width:0"
               d=""
               id="id-5c3f69e0-da35-49b2-a7b2-6e44a31db250" />
          </symbol>
          <symbol
             overflow="visible"
             id="id-d344a245-a69c-40ce-ae03-d410fba215c6">
            <path
               style="stroke:none;stroke-width:0"
               d="m 1.96875,-3.109375 c 0,-0.125 -0.078125,-0.21875 -0.21875,-0.21875 -0.140625,0 -0.296875,0.140625 -0.296875,0.296875 0,0.140625 0.109375,0.21875 0.21875,0.21875 0.15625,0 0.296875,-0.140625 0.296875,-0.296875 z m 0.234375,2.390625 c 0,-0.0625 -0.078125,-0.0625 -0.09375,-0.0625 -0.09375,0 -0.09375,0.015625 -0.125,0.109375 -0.078125,0.265625 -0.3125,0.5625 -0.5625,0.5625 -0.109375,0 -0.140625,-0.078125 -0.140625,-0.1875 0,-0.109375 0.015625,-0.171875 0.0625,-0.265625 0.03125,-0.09375 0.078125,-0.1875 0.109375,-0.265625 0.015625,-0.046875 0.203125,-0.5 0.28125,-0.6875 0.03125,-0.09375 0.0625,-0.171875 0.0625,-0.25 0,-0.234375 -0.234375,-0.4375 -0.546875,-0.4375 -0.515625,0 -0.796875,0.640625 -0.796875,0.765625 0,0.078125 0.078125,0.078125 0.109375,0.078125 0.078125,0 0.078125,-0.03125 0.109375,-0.09375 0.109375,-0.359375 0.34375,-0.578125 0.5625,-0.578125 0.09375,0 0.15625,0.046875 0.15625,0.1875 0,0.015625 0,0.078125 -0.03125,0.171875 -0.03125,0.09375 -0.265625,0.625 -0.328125,0.796875 -0.046875,0.09375 -0.046875,0.09375 -0.109375,0.265625 -0.03125,0.078125 -0.0625,0.140625 -0.0625,0.21875 0,0.265625 0.25,0.453125 0.546875,0.453125 0.515625,0 0.796875,-0.65625 0.796875,-0.78125 z m 0,0"
               id="id-951f2303-7d32-4981-9dfc-e05eb9acb734" />
          </symbol>
          <symbol
             overflow="visible"
             id="id-57361ca5-c906-4daf-8f4a-fba1062b134a">
            <path
               style="stroke:none;stroke-width:0"
               d=""
               id="id-dc03b31c-96fd-4bc1-b0fe-e9f7f50c54f6" />
          </symbol>
          <symbol
             overflow="visible"
             id="id-f37fd403-f3e4-4293-8be2-327369658324">
            <path
               style="stroke:none;stroke-width:0"
               d="m 5.1875,-1.578125 c 0.109375,0 0.28125,0 0.28125,-0.15625 0,-0.1875 -0.171875,-0.1875 -0.28125,-0.1875 H 1.03125 c -0.109375,0 -0.28125,0 -0.28125,0.171875 0,0.171875 0.15625,0.171875 0.28125,0.171875 z m 0,0"
               id="id-15aade6d-89ad-48e8-aa69-2dfcf37414a6" />
          </symbol>
          <symbol
             overflow="visible"
             id="id-1a4a2664-972a-4b0f-9e8d-54face6d73bc">
            <path
               style="stroke:none;stroke-width:0"
               d=""
               id="id-300772be-14d5-4257-90f5-dd0126fad975" />
          </symbol>
          <symbol
             overflow="visible"
             id="id-15c1d9ef-447e-4e48-b874-f5a897c25517">
            <path
               style="stroke:none;stroke-width:0"
               d="M 2.9375,-0.96875 H 2.71875 c 0,0.09375 -0.0625,0.40625 -0.140625,0.453125 -0.03125,0.03125 -0.453125,0.03125 -0.53125,0.03125 H 1.078125 C 1.40625,-0.71875 1.765625,-1 2.0625,-1.203125 c 0.453125,-0.3125 0.875,-0.59375 0.875,-1.125 0,-0.640625 -0.609375,-0.984375 -1.3125,-0.984375 -0.671875,0 -1.171875,0.375 -1.171875,0.875 0,0.25 0.21875,0.296875 0.296875,0.296875 0.125,0 0.28125,-0.09375 0.28125,-0.296875 0,-0.171875 -0.125,-0.28125 -0.28125,-0.28125 0.140625,-0.234375 0.4375,-0.375 0.765625,-0.375 0.484375,0 0.890625,0.28125 0.890625,0.765625 0,0.421875 -0.296875,0.75 -0.671875,1.0625 l -1.21875,1.03125 C 0.46875,-0.1875 0.453125,-0.1875 0.453125,-0.15625 V 0 h 2.3125 z m 0,0"
               id="id-2f51b14a-476b-4b39-ae51-551c604009a1" />
          </symbol>
        </g>
      </defs>
      <g
         id="id-2acdf197-70c0-4110-83a1-c35cc10fd445"
         transform="translate(-149.087,-124.699)"
         style="stroke-width:0.347701">
        <g
           style="fill:#000000;fill-opacity:1;stroke-width:0.347701"
           id="id-01d8bb42-a275-408e-9d79-50eaea3979a2">
          <g
             transform="translate(148.712,138.6)"
             id="g1"
             style="stroke-width:0.347701">
            <path
               style="stroke:none;stroke-width:0"
               d="m 5.15625,-3.71875 c 0.140625,0 0.5,0 0.5,-0.34375 0,-0.234375 -0.21875,-0.234375 -0.390625,-0.234375 h -2.28125 c -1.5,0 -2.609375,1.640625 -2.609375,2.828125 0,0.875 0.59375,1.578125 1.5,1.578125 1.171875,0 2.5,-1.203125 2.5,-2.734375 0,-0.171875 0,-0.65625 -0.3125,-1.09375 z M 1.890625,-0.109375 C 1.390625,-0.109375 1,-0.46875 1,-1.1875 c 0,-0.296875 0.109375,-1.109375 0.46875,-1.703125 0.421875,-0.6875 1.015625,-0.828125 1.359375,-0.828125 0.828125,0 0.90625,0.65625 0.90625,0.96875 0,0.46875 -0.203125,1.28125 -0.53125,1.796875 -0.390625,0.578125 -0.9375,0.84375 -1.3125,0.84375 z m 0,0"
               id="id-fc8da151-2ce5-4876-9535-8271f9d5bf40" />
          </g>
        </g>
        <g
           style="fill:#000000;fill-opacity:1;stroke-width:0.347701"
           id="id-b65d4b97-ce8c-4a64-bd45-36207072c639">
          <g
             transform="translate(154.763,134.985)"
             id="g2"
             style="stroke-width:0.347701">
            <path
               style="stroke:none;stroke-width:0"
               d="M 3.515625,-1.265625 H 3.28125 c -0.015625,0.15625 -0.09375,0.5625 -0.1875,0.625 C 3.046875,-0.59375 2.515625,-0.59375 2.40625,-0.59375 H 1.125 c 0.734375,-0.640625 0.984375,-0.84375 1.390625,-1.171875 0.515625,-0.40625 1,-0.84375 1,-1.5 0,-0.84375 -0.734375,-1.359375 -1.625,-1.359375 -0.859375,0 -1.453125,0.609375 -1.453125,1.25 0,0.34375 0.296875,0.390625 0.375,0.390625 0.15625,0 0.359375,-0.125 0.359375,-0.375 0,-0.125 -0.046875,-0.375 -0.40625,-0.375 C 0.984375,-4.21875 1.453125,-4.375 1.78125,-4.375 c 0.703125,0 1.0625,0.546875 1.0625,1.109375 0,0.609375 -0.4375,1.078125 -0.65625,1.328125 L 0.515625,-0.265625 C 0.4375,-0.203125 0.4375,-0.1875 0.4375,0 h 2.875 z m 0,0"
               id="id-f72cb265-9ee8-4945-ad8e-9692ce7f68fe" />
          </g>
        </g>
        <g
           style="fill:#000000;fill-opacity:1;stroke-width:0.347701"
           id="id-1f10166f-b665-4440-ad1c-927f78281cac">
          <g
             transform="translate(161.999,138.6)"
             id="g3"
             style="stroke-width:0.347701">
            <path
               style="stroke:none;stroke-width:0"
               d="m 6.84375,-3.265625 c 0.15625,0 0.34375,0 0.34375,-0.1875 C 7.1875,-3.65625 7,-3.65625 6.859375,-3.65625 h -5.96875 c -0.140625,0 -0.328125,0 -0.328125,0.203125 0,0.1875 0.1875,0.1875 0.328125,0.1875 z m 0.015625,1.9375 c 0.140625,0 0.328125,0 0.328125,-0.203125 0,-0.1875 -0.1875,-0.1875 -0.34375,-0.1875 H 0.890625 c -0.140625,0 -0.328125,0 -0.328125,0.1875 0,0.203125 0.1875,0.203125 0.328125,0.203125 z m 0,0"
               id="id-d8021ade-7794-4653-913e-7525f31a76c1" />
          </g>
        </g>
        <g
           style="fill:#000000;fill-opacity:1;stroke-width:0.347701"
           id="id-243bfce3-bccf-487c-aa64-57bb3c74d4b2">
          <g
             transform="translate(173.711,127.044)"
             id="g4"
             style="stroke-width:0.347701">
            <path
               style="stroke:none;stroke-width:0"
               d="M 3.859375,3.609375 C 3.9375,3.53125 3.9375,3.515625 3.9375,3.484375 3.9375,3.46875 3.9375,3.453125 3.875,3.375 L 1.40625,0.34375 H 4.4375 C 5.453125,0.34375 6,0.484375 6.125,0.515625 6.734375,0.6875 7.34375,1.09375 7.578125,1.6875 H 7.8125 L 7.15625,0 H 0.75 C 0.59375,0 0.59375,0 0.5625,0.046875 0.53125,0.0625 0.53125,0.078125 0.53125,0.265625 L 3.328125,3.703125 0.625,6.75 C 0.53125,6.828125 0.53125,6.84375 0.53125,6.875 0.53125,6.96875 0.625,6.96875 0.75,6.96875 H 7.15625 L 7.8125,5.171875 H 7.578125 C 7.34375,5.8125 6.734375,6.1875 6.234375,6.328125 6.09375,6.375 5.5625,6.53125 4.484375,6.53125 h -3.21875 z m 0,0"
               id="id-50656371-778d-4f58-ac19-da210dcc6b50" />
          </g>
        </g>
        <g
           style="fill:#000000;fill-opacity:1;stroke-width:0.347701"
           id="id-9187db40-78a8-434c-b3ad-a349bcfafa47">
          <g
             transform="translate(182.082,133.021)"
             id="g5"
             style="stroke-width:0.347701">
            <path
               style="stroke:none;stroke-width:0"
               d="m 3.296875,2.390625 c 0,-0.03125 0,-0.046875 -0.171875,-0.21875 C 1.890625,0.921875 1.5625,-0.96875 1.5625,-2.5 c 0,-1.734375 0.375,-3.46875 1.609375,-4.703125 0.125,-0.125 0.125,-0.140625 0.125,-0.171875 0,-0.078125 -0.03125,-0.109375 -0.09375,-0.109375 -0.109375,0 -1,0.6875 -1.59375,1.953125 -0.5,1.09375 -0.625,2.203125 -0.625,3.03125 0,0.78125 0.109375,1.984375 0.65625,3.125 C 2.25,1.84375 3.09375,2.5 3.203125,2.5 c 0.0625,0 0.09375,-0.03125 0.09375,-0.109375 z m 0,0"
               id="id-cd629cc0-d8be-48d2-8016-b7583d1690fa" />
          </g>
        </g>
        <g
           style="fill:#000000;fill-opacity:1;stroke-width:0.347701"
           id="id-7b9dddb7-8fd7-4a2d-82c7-62054787ce6a">
          <g
             transform="translate(185.957,132.274)"
             id="g6"
             style="stroke-width:0.347701">
            <path
               style="stroke:none;stroke-width:0"
               d="M 1.734375,-0.734375 C 1.671875,-0.5 1.4375,-0.125 1.078125,-0.125 c -0.015625,0 -0.234375,0 -0.375,-0.09375 0.28125,-0.09375 0.3125,-0.34375 0.3125,-0.390625 0,-0.15625 -0.125,-0.25 -0.28125,-0.25 -0.203125,0 -0.40625,0.15625 -0.40625,0.421875 0,0.34375 0.390625,0.5 0.734375,0.5 0.328125,0 0.609375,-0.1875 0.78125,-0.484375 C 2.015625,-0.0625 2.390625,0.0625 2.671875,0.0625 c 0.8125,0 1.234375,-0.859375 1.234375,-1.0625 0,-0.09375 -0.09375,-0.09375 -0.109375,-0.09375 -0.109375,0 -0.109375,0.046875 -0.140625,0.125 -0.140625,0.484375 -0.5625,0.84375 -0.953125,0.84375 -0.28125,0 -0.421875,-0.1875 -0.421875,-0.453125 0,-0.1875 0.171875,-0.8125 0.359375,-1.59375 C 2.78125,-2.703125 3.09375,-2.875 3.328125,-2.875 c 0.015625,0 0.21875,0 0.375,0.09375 -0.21875,0.0625 -0.3125,0.265625 -0.3125,0.390625 0,0.140625 0.125,0.25 0.28125,0.25 0.15625,0 0.390625,-0.125 0.390625,-0.421875 0,-0.390625 -0.453125,-0.515625 -0.71875,-0.515625 -0.359375,0 -0.640625,0.234375 -0.78125,0.5 -0.125,-0.28125 -0.453125,-0.5 -0.84375,-0.5 C 0.9375,-3.078125 0.5,-2.21875 0.5,-2 c 0,0.078125 0.09375,0.078125 0.109375,0.078125 0.09375,0 0.09375,-0.015625 0.140625,-0.109375 C 0.921875,-2.578125 1.359375,-2.875 1.703125,-2.875 1.9375,-2.875 2.125,-2.75 2.125,-2.421875 2.125,-2.28125 2.03125,-1.9375 1.96875,-1.6875 Z m 0,0"
               id="id-4071c4eb-4709-418a-a0fd-b3b585c51ed7" />
          </g>
        </g>
        <g
           style="fill:#000000;fill-opacity:1;stroke-width:0.347701"
           id="id-cf3a1a79-3ef7-4d01-92d7-76022cb79a3e">
          <g
             transform="translate(190.474,133.27)"
             id="g7"
             style="stroke-width:0.347701">
            <path
               style="stroke:none;stroke-width:0"
               d="m 1.96875,-3.109375 c 0,-0.125 -0.078125,-0.21875 -0.21875,-0.21875 -0.140625,0 -0.296875,0.140625 -0.296875,0.296875 0,0.140625 0.109375,0.21875 0.21875,0.21875 0.15625,0 0.296875,-0.140625 0.296875,-0.296875 z m 0.234375,2.390625 c 0,-0.0625 -0.078125,-0.0625 -0.09375,-0.0625 -0.09375,0 -0.09375,0.015625 -0.125,0.109375 -0.078125,0.265625 -0.3125,0.5625 -0.5625,0.5625 -0.109375,0 -0.140625,-0.078125 -0.140625,-0.1875 0,-0.109375 0.015625,-0.171875 0.0625,-0.265625 0.03125,-0.09375 0.078125,-0.1875 0.109375,-0.265625 0.015625,-0.046875 0.203125,-0.5 0.28125,-0.6875 0.03125,-0.09375 0.0625,-0.171875 0.0625,-0.25 0,-0.234375 -0.234375,-0.4375 -0.546875,-0.4375 -0.515625,0 -0.796875,0.640625 -0.796875,0.765625 0,0.078125 0.078125,0.078125 0.109375,0.078125 0.078125,0 0.078125,-0.03125 0.109375,-0.09375 0.109375,-0.359375 0.34375,-0.578125 0.5625,-0.578125 0.09375,0 0.15625,0.046875 0.15625,0.1875 0,0.015625 0,0.078125 -0.03125,0.171875 -0.03125,0.09375 -0.265625,0.625 -0.328125,0.796875 -0.046875,0.09375 -0.046875,0.09375 -0.109375,0.265625 -0.03125,0.078125 -0.0625,0.140625 -0.0625,0.21875 0,0.265625 0.25,0.453125 0.546875,0.453125 0.515625,0 0.796875,-0.65625 0.796875,-0.78125 z m 0,0"
               id="id-7bde73b8-cf59-4e69-ba3f-14a808966ac2" />
          </g>
        </g>
        <g
           style="fill:#000000;fill-opacity:1;stroke-width:0.347701"
           id="id-2ba7d2e8-f7fc-49a5-96d7-e62e261c47cf">
          <g
             transform="translate(193.63,132.274)"
             id="g8"
             style="stroke-width:0.347701">
            <path
               style="stroke:none;stroke-width:0"
               d="m 5.1875,-1.578125 c 0.109375,0 0.28125,0 0.28125,-0.15625 0,-0.1875 -0.171875,-0.1875 -0.28125,-0.1875 H 1.03125 c -0.109375,0 -0.28125,0 -0.28125,0.171875 0,0.171875 0.15625,0.171875 0.28125,0.171875 z m 0,0"
               id="id-4c699263-edeb-4f27-800b-de805826bd12" />
          </g>
        </g>
        <g
           style="fill:#000000;fill-opacity:1;stroke-width:0.347701"
           id="id-403b6699-af1f-4a51-8957-d56617949f95">
          <g
             transform="translate(202.053,130.511)"
             id="g9"
             style="stroke-width:0.347701">
            <path
               style="stroke:none;stroke-width:0"
               d="M 3.359375,-3.875 V -4.140625 H 0.59375 V -3.875 Z m 0,0"
               id="id-e8148ef6-92d2-457a-8f55-3dc8fbf27cef" />
          </g>
        </g>
        <g
           style="fill:#000000;fill-opacity:1;stroke-width:0.347701"
           id="id-3e667222-5f70-4130-b041-fabb645bfc66">
          <g
             transform="translate(199.857,132.274)"
             id="g10"
             style="stroke-width:0.347701">
            <path
               style="stroke:none;stroke-width:0"
               d="m 3.875,-2.65625 0.65625,-0.671875 c 0.890625,-0.875 1.171875,-1.140625 1.796875,-1.1875 0.09375,0 0.171875,0 0.171875,-0.140625 0,-0.078125 -0.078125,-0.109375 -0.09375,-0.109375 -0.203125,0 -0.453125,0.03125 -0.65625,0.03125 -0.1875,0 -0.625,-0.03125 -0.8125,-0.03125 -0.046875,0 -0.140625,0.03125 -0.140625,0.15625 0,0.015625 0,0.09375 0.109375,0.09375 0.0625,0.015625 0.234375,0.03125 0.234375,0.1875 0,0.09375 -0.109375,0.203125 -0.171875,0.28125 C 4.90625,-4 4.03125,-3.140625 3.765625,-2.875 L 3.0625,-4.234375 C 3.046875,-4.265625 3.03125,-4.3125 3.03125,-4.328125 c 0,-0.0625 0.125,-0.171875 0.375,-0.1875 0.046875,0 0.140625,0 0.140625,-0.140625 0,-0.015625 0,-0.109375 -0.125,-0.109375 -0.140625,0 -0.3125,0.03125 -0.453125,0.03125 -0.15625,0 -0.3125,0 -0.453125,0 -0.125,0 -0.296875,0 -0.421875,0 -0.109375,-0.015625 -0.265625,-0.03125 -0.375,-0.03125 -0.03125,0 -0.140625,0 -0.140625,0.15625 0,0.09375 0.09375,0.09375 0.203125,0.09375 0.40625,0 0.4375,0.078125 0.5,0.21875 L 3.265625,-2.375 2.875,-1.984375 c -0.140625,0.125 -0.46875,0.4375 -0.59375,0.5625 -0.84375,0.84375 -1.125,1.140625 -1.765625,1.171875 -0.09375,0 -0.171875,0 -0.171875,0.15625 C 0.34375,-0.0625 0.375,0 0.453125,0 c 0.1875,0 0.4375,-0.03125 0.640625,-0.03125 0.125,0 0.296875,0 0.40625,0.015625 C 1.625,-0.015625 1.78125,0 1.90625,0 1.9375,0 2.046875,0 2.046875,-0.140625 2.046875,-0.25 1.96875,-0.25 1.921875,-0.25 c -0.0625,-0.015625 -0.21875,-0.03125 -0.21875,-0.171875 0,-0.109375 0.09375,-0.203125 0.25,-0.359375 l 1.40625,-1.390625 0.84375,1.65625 C 4.25,-0.453125 4.25,-0.4375 4.25,-0.421875 c 0,0.03125 -0.125,0.15625 -0.375,0.171875 -0.0625,0 -0.140625,0 -0.140625,0.15625 0,0 0,0.09375 0.109375,0.09375 C 4,0 4.171875,-0.015625 4.3125,-0.015625 c 0.140625,0 0.3125,-0.015625 0.453125,-0.015625 0.125,0 0.28125,0 0.40625,0.015625 C 5.296875,-0.015625 5.4375,0 5.546875,0 5.59375,0 5.703125,0 5.703125,-0.15625 5.703125,-0.25 5.609375,-0.25 5.5,-0.25 5.09375,-0.25 5.0625,-0.328125 5,-0.453125 Z m 0,0"
               id="id-ce7b14fc-84c2-46e4-8b0c-a5893259665d" />
          </g>
        </g>
        <g
           style="fill:#000000;fill-opacity:1;stroke-width:0.347701"
           id="id-1c0456d1-35c3-4c30-96cb-63a93089f3e5">
          <g
             transform="translate(206.933,133.021)"
             id="g11"
             style="stroke-width:0.347701">
            <path
               style="stroke:none;stroke-width:0"
               d="m 2.875,-2.5 c 0,-0.765625 -0.109375,-1.96875 -0.65625,-3.109375 -0.59375,-1.21875 -1.453125,-1.875 -1.546875,-1.875 -0.0625,0 -0.109375,0.046875 -0.109375,0.109375 0,0.03125 0,0.046875 0.1875,0.234375 0.984375,0.984375 1.546875,2.5625 1.546875,4.640625 0,1.71875 -0.359375,3.46875 -1.59375,4.71875 C 0.5625,2.34375 0.5625,2.359375 0.5625,2.390625 0.5625,2.453125 0.609375,2.5 0.671875,2.5 0.765625,2.5 1.671875,1.8125 2.25,0.546875 2.765625,-0.546875 2.875,-1.65625 2.875,-2.5 Z m 0,0"
               id="id-0abb7189-a189-4cc3-90c6-d3ce8535943b" />
          </g>
        </g>
        <g
           style="fill:#000000;fill-opacity:1;stroke-width:0.347701"
           id="id-206c14bb-7ac3-4d8b-a274-f4bd3d3ef837">
          <g
             transform="translate(210.807,128.012)"
             id="g12"
             style="stroke-width:0.347701">
            <path
               style="stroke:none;stroke-width:0"
               d="M 2.9375,-0.96875 H 2.71875 c 0,0.09375 -0.0625,0.40625 -0.140625,0.453125 -0.03125,0.03125 -0.453125,0.03125 -0.53125,0.03125 H 1.078125 C 1.40625,-0.71875 1.765625,-1 2.0625,-1.203125 c 0.453125,-0.3125 0.875,-0.59375 0.875,-1.125 0,-0.640625 -0.609375,-0.984375 -1.3125,-0.984375 -0.671875,0 -1.171875,0.375 -1.171875,0.875 0,0.25 0.21875,0.296875 0.296875,0.296875 0.125,0 0.28125,-0.09375 0.28125,-0.296875 0,-0.171875 -0.125,-0.28125 -0.28125,-0.28125 0.140625,-0.234375 0.4375,-0.375 0.765625,-0.375 0.484375,0 0.890625,0.28125 0.890625,0.765625 0,0.421875 -0.296875,0.75 -0.671875,1.0625 l -1.21875,1.03125 C 0.46875,-0.1875 0.453125,-0.1875 0.453125,-0.15625 V 0 h 2.3125 z m 0,0"
               id="id-6deef19a-ab92-48b2-b341-2b27f222a30e" />
          </g>
        </g>
        <path
           style="fill:none;stroke:#000000;stroke-width:0.138385;stroke-linecap:butt;stroke-linejoin:miter;stroke-miterlimit:10;stroke-opacity:1"
           d="M -6.25e-5,6.25e-4 H 40.984313"
           transform="matrix(1,0,0,-1,173.711,136.11)"
           id="id-e827c0a7-57d5-4a8b-a772-4f95a29eed2c" />
        <g
           style="fill:#000000;fill-opacity:1;stroke-width:0.347701"
           id="id-cc7150e4-5899-4aa7-b548-2879174af4c3">
          <g
             transform="translate(190.674,142.036)"
             id="g13"
             style="stroke-width:0.347701">
            <path
               style="stroke:none;stroke-width:0"
               d="M 5.8125,-4 C 5.875,-4.265625 6,-4.5 6.546875,-4.515625 c 0.03125,0 0.140625,0 0.140625,-0.140625 0,-0.046875 -0.03125,-0.109375 -0.109375,-0.109375 -0.21875,0 -0.484375,0.03125 -0.71875,0.03125 -0.171875,0 -0.5625,-0.03125 -0.734375,-0.03125 -0.03125,0 -0.140625,0 -0.140625,0.15625 0,0.09375 0.09375,0.09375 0.15625,0.09375 0.328125,0.015625 0.4375,0.125 0.4375,0.296875 0,0.046875 0,0.09375 -0.03125,0.15625 l -0.75,3.046875 -1.765625,-3.625 c -0.0625,-0.125 -0.078125,-0.125 -0.25,-0.125 H 1.828125 c -0.125,0 -0.21875,0 -0.21875,0.15625 0,0.09375 0.078125,0.09375 0.234375,0.09375 0.140625,0 0.296875,0.015625 0.4375,0.046875 L 1.359375,-0.75 c -0.0625,0.265625 -0.1875,0.484375 -0.734375,0.5 -0.046875,0 -0.140625,0 -0.140625,0.140625 C 0.484375,-0.03125 0.53125,0 0.578125,0 0.8125,0 1.078125,-0.03125 1.3125,-0.03125 1.484375,-0.03125 1.875,0 2.046875,0 2.125,0 2.1875,-0.03125 2.1875,-0.140625 2.1875,-0.25 2.109375,-0.25 2.03125,-0.25 c -0.4375,-0.015625 -0.4375,-0.203125 -0.4375,-0.296875 0,-0.03125 0,-0.0625 0.015625,-0.171875 l 0.90625,-3.5625 2.03125,4.15625 C 4.59375,0 4.625,0 4.703125,0 4.8125,0 4.8125,-0.015625 4.84375,-0.140625 Z m 0,0"
               id="id-0a4c7469-b0d4-4ae1-a2f5-f0f5786180a0" />
          </g>
        </g>
      </g>
    </g>
    <rect
       style="fill:none;fill-opacity:1;stroke:#ff0000;stroke-width:1.5;stroke-dasharray:none;stroke-opacity:0.52624"
       id="rect14"
       width="55.460567"
       height="16.539728"
       x="49.113571"
       y="116.51845" />
    <text
       xml:space="preserve"
       style="font-size:5.81691px;line-height:90%;font-family:sans-serif;text-decoration-color:#000000;fill:#ff0000;fill-opacity:1;stroke-width:0.264583;-inkscape-stroke:none;stop-color:#000000"
       x="108.33459"
       y="121.67672"
       id="text14"><tspan
         sodipodi:role="line"
         id="tspan14"
         style="fill:#ff0000;fill-opacity:1;stroke-width:0.264583"
         x="108.33459"
         y="121.67672">Quadrat-</tspan><tspan
         sodipodi:role="line"
         style="fill:#ff0000;fill-opacity:1;stroke-width:0.264583"
         x="108.33459"
         y="126.91194"
         id="tspan15">summe (QS)</tspan></text>
  </g>
</svg>
