<?xml version="1.0" encoding="UTF-8" standalone="no"?>
<!-- Created with Inkscape (http://www.inkscape.org/) -->

<svg
   width="120.71896mm"
   height="24.570387mm"
   viewBox="0 0 120.71895 24.570387"
   version="1.1"
   id="svg1"
   inkscape:version="1.4-dev (1:1.2.0-alpha1+devel+202309191445+0218cc37c8)"
   sodipodi:docname="quadratsumme.svg"
   inkscape:export-filename="quadratsumme.png"
   inkscape:export-xdpi="200"
   inkscape:export-ydpi="200"
   xmlns:inkscape="http://www.inkscape.org/namespaces/inkscape"
   xmlns:sodipodi="http://sodipodi.sourceforge.net/DTD/sodipodi-0.dtd"
   xmlns="http://www.w3.org/2000/svg"
   xmlns:svg="http://www.w3.org/2000/svg"
   xmlns:ns3="http://www.iki.fi/pav/software/textext/">
  <sodipodi:namedview
     id="namedview1"
     pagecolor="#ffffff"
     bordercolor="#000000"
     borderopacity="0.25"
     inkscape:showpageshadow="2"
     inkscape:pageopacity="0.0"
     inkscape:pagecheckerboard="0"
     inkscape:deskcolor="#d1d1d1"
     inkscape:document-units="mm"
     inkscape:zoom="1.4639531"
     inkscape:cx="161.54889"
     inkscape:cy="168.72125"
     inkscape:window-width="1920"
     inkscape:window-height="1007"
     inkscape:window-x="0"
     inkscape:window-y="0"
     inkscape:window-maximized="1"
     inkscape:current-layer="layer1" />
  <defs
     id="defs1" />
  <g
     inkscape:label="Layer 1"
     inkscape:groupmode="layer"
     id="layer1"
     transform="translate(-20.2193,-115.76845)">
    <rect
       style="fill:none;fill-opacity:1;stroke:#ff0000;stroke-width:1.5;stroke-dasharray:none;stroke-opacity:0.52624"
       id="rect14"
       width="55.460567"
       height="16.539728"
       x="49.113571"
       y="116.51845" />
    <text
       xml:space="preserve"
       style="font-size:5.81691px;line-height:90%;font-family:sans-serif;text-decoration-color:#000000;fill:#ff0000;fill-opacity:1;stroke-width:0.264583;-inkscape-stroke:none;stop-color:#000000"
       x="108.33459"
       y="121.67672"
       id="text14"><tspan
         sodipodi:role="line"
         id="tspan14"
         style="fill:#ff0000;fill-opacity:1;stroke-width:0.264583"
         x="108.33459"
         y="121.67672">Quadrat-</tspan><tspan
         sodipodi:role="line"
         style="fill:#ff0000;fill-opacity:1;stroke-width:0.264583"
         x="108.33459"
         y="126.91194"
         id="tspan15">summe (QS)</tspan></text>
    <g
       transform="matrix(1.29348,0,0,1.29348,20.2193,121.39)"
       ns3:version="1.9.0"
       ns3:texconverter="pdflatex"
       ns3:pdfconverter="inkscape"
       ns3:text="$\\sigma^2=\\frac{\\sum\\left(x_i-\\bar{x}\\right)^2}{n}$"
       ns3:preamble="/home/matteo/.config/inkscape/extensions/textext/default_packages.tex"
       ns3:scale="3.666554418846225"
       ns3:alignment="middle center"
       ns3:stroke-to-path="0"
       ns3:inkscapeversion="1.4-dev"
       ns3:jacobian_sqrt="1.29348"
       style="stroke-width:0"
       id="g14">
      <defs
         id="id-c0c6d2d8-500e-4f3d-8a54-6149cef67bf6"
         style="stroke-width:0">
        <g
           id="id-a2e5ff80-48bd-4641-a834-0af2d416b01d"
           style="stroke-width:0">
          <symbol
             overflow="visible"
             id="id-80c83fa2-2a31-4512-ac4b-9a73b8854223"
             style="stroke-width:0">
            <path
               style="stroke:none;stroke-width:0"
               d=""
               id="id-fb017d51-74bd-4ed2-aaec-3a0c2d7afec8" />
          </symbol>
          <symbol
             overflow="visible"
             id="id-89050bde-fc48-481c-9e01-b0b22037983d"
             style="stroke-width:0">
            <path
               style="stroke:none;stroke-width:0"
               d="m 5.15625,-3.71875 c 0.140625,0 0.5,0 0.5,-0.34375 0,-0.234375 -0.21875,-0.234375 -0.390625,-0.234375 h -2.28125 c -1.5,0 -2.609375,1.640625 -2.609375,2.828125 0,0.875 0.59375,1.578125 1.5,1.578125 1.171875,0 2.5,-1.203125 2.5,-2.734375 0,-0.171875 0,-0.65625 -0.3125,-1.09375 z M 1.890625,-0.109375 C 1.390625,-0.109375 1,-0.46875 1,-1.1875 c 0,-0.296875 0.109375,-1.109375 0.46875,-1.703125 0.421875,-0.6875 1.015625,-0.828125 1.359375,-0.828125 0.828125,0 0.90625,0.65625 0.90625,0.96875 0,0.46875 -0.203125,1.28125 -0.53125,1.796875 -0.390625,0.578125 -0.9375,0.84375 -1.3125,0.84375 z m 0,0"
               id="id-8411318e-720b-4f54-ac15-f76bd3ae317f" />
          </symbol>
          <symbol
             overflow="visible"
             id="id-4d17ad21-82b8-4f5f-ba30-22ef789072e8"
             style="stroke-width:0">
            <path
               style="stroke:none;stroke-width:0"
               d=""
               id="id-f0292aad-4d8e-4893-a9db-79f630c14ff9" />
          </symbol>
          <symbol
             overflow="visible"
             id="id-48fa4201-2fe3-4ebd-9126-180b7d063340"
             style="stroke-width:0">
            <path
               style="stroke:none;stroke-width:0"
               d="M 3.515625,-1.265625 H 3.28125 c -0.015625,0.15625 -0.09375,0.5625 -0.1875,0.625 C 3.046875,-0.59375 2.515625,-0.59375 2.40625,-0.59375 H 1.125 c 0.734375,-0.640625 0.984375,-0.84375 1.390625,-1.171875 0.515625,-0.40625 1,-0.84375 1,-1.5 0,-0.84375 -0.734375,-1.359375 -1.625,-1.359375 -0.859375,0 -1.453125,0.609375 -1.453125,1.25 0,0.34375 0.296875,0.390625 0.375,0.390625 0.15625,0 0.359375,-0.125 0.359375,-0.375 0,-0.125 -0.046875,-0.375 -0.40625,-0.375 C 0.984375,-4.21875 1.453125,-4.375 1.78125,-4.375 c 0.703125,0 1.0625,0.546875 1.0625,1.109375 0,0.609375 -0.4375,1.078125 -0.65625,1.328125 L 0.515625,-0.265625 C 0.4375,-0.203125 0.4375,-0.1875 0.4375,0 h 2.875 z m 0,0"
               id="id-870e739b-ce60-42fb-a366-d7e39a6791b6" />
          </symbol>
          <symbol
             overflow="visible"
             id="id-e93ec03d-68a7-419e-916d-97ded13dfe1c"
             style="stroke-width:0">
            <path
               style="stroke:none;stroke-width:0"
               d="M 2.46875,-5.21875 C 1.15625,-4.296875 0.796875,-2.8125 0.796875,-1.75 c 0,0.984375 0.296875,2.515625 1.671875,3.484375 0.0625,0 0.140625,0 0.140625,-0.078125 0,-0.046875 -0.015625,-0.0625 -0.0625,-0.109375 C 1.609375,0.703125 1.28125,-0.46875 1.28125,-1.734375 1.28125,-3.625 2,-4.546875 2.5625,-5.0625 2.59375,-5.09375 2.609375,-5.109375 2.609375,-5.140625 2.609375,-5.21875 2.53125,-5.21875 2.46875,-5.21875 Z m 0,0"
               id="id-cb7f5118-9e9b-4c96-b201-7123b4a8018e" />
          </symbol>
          <symbol
             overflow="visible"
             id="id-96000652-4631-43a7-9b09-dac4aba97101"
             style="stroke-width:0">
            <path
               style="stroke:none;stroke-width:0"
               d="M 3.359375,-3.875 V -4.140625 H 0.59375 V -3.875 Z m 0,0"
               id="id-40873646-3edb-4c68-b230-776fd6427953" />
          </symbol>
          <symbol
             overflow="visible"
             id="id-28dd428e-4922-44c3-8323-beb183966034"
             style="stroke-width:0">
            <path
               style="stroke:none;stroke-width:0"
               d="m 0.625,-5.21875 c -0.046875,0 -0.125,0 -0.125,0.078125 0,0.03125 0.015625,0.046875 0.0625,0.109375 0.59375,0.546875 1.265625,1.484375 1.265625,3.28125 0,1.453125 -0.453125,2.5625 -1.203125,3.234375 -0.125,0.125 -0.125,0.125 -0.125,0.171875 0,0.03125 0.015625,0.078125 0.078125,0.078125 0.09375,0 0.75,-0.453125 1.21875,-1.328125 0.296875,-0.578125 0.5,-1.328125 0.5,-2.140625 C 2.296875,-2.71875 2,-4.25 0.625,-5.21875 Z m 0,0"
               id="id-86a1f2cf-e0d1-4494-abcb-c4d4b249250d" />
          </symbol>
          <symbol
             overflow="visible"
             id="id-0d8e4576-b979-4c08-a02f-f717f5f15e3f"
             style="stroke-width:0">
            <path
               style="stroke:none;stroke-width:0"
               d=""
               id="id-d2e41001-c1c8-4715-876c-d27fd356aacc" />
          </symbol>
          <symbol
             overflow="visible"
             id="id-a55f7b77-740a-4b89-961e-10c3044ffb2b"
             style="stroke-width:0">
            <path
               style="stroke:none;stroke-width:0"
               d="m 6.84375,-3.265625 c 0.15625,0 0.34375,0 0.34375,-0.1875 C 7.1875,-3.65625 7,-3.65625 6.859375,-3.65625 h -5.96875 c -0.140625,0 -0.328125,0 -0.328125,0.203125 0,0.1875 0.1875,0.1875 0.328125,0.1875 z m 0.015625,1.9375 c 0.140625,0 0.328125,0 0.328125,-0.203125 0,-0.1875 -0.1875,-0.1875 -0.34375,-0.1875 H 0.890625 c -0.140625,0 -0.328125,0 -0.328125,0.1875 0,0.203125 0.1875,0.203125 0.328125,0.203125 z m 0,0"
               id="id-552b6470-4f58-4cfe-b07c-04390b898d04" />
          </symbol>
          <symbol
             overflow="visible"
             id="id-1964e919-a700-42da-b234-d458f2fdf0ad"
             style="stroke-width:0">
            <path
               style="stroke:none;stroke-width:0"
               d=""
               id="id-b8d6c358-dc41-43b6-af15-6ecbfbd7e7b0" />
          </symbol>
          <symbol
             overflow="visible"
             id="id-e6c0b821-57f2-44c6-9be2-93d1b07484e7"
             style="stroke-width:0">
            <path
               style="stroke:none;stroke-width:0"
               d="M 3.859375,3.609375 C 3.9375,3.53125 3.9375,3.515625 3.9375,3.484375 3.9375,3.46875 3.9375,3.453125 3.875,3.375 L 1.40625,0.34375 H 4.4375 C 5.453125,0.34375 6,0.484375 6.125,0.515625 6.734375,0.6875 7.34375,1.09375 7.578125,1.6875 H 7.8125 L 7.15625,0 H 0.75 C 0.59375,0 0.59375,0 0.5625,0.046875 0.53125,0.0625 0.53125,0.078125 0.53125,0.265625 L 3.328125,3.703125 0.625,6.75 C 0.53125,6.828125 0.53125,6.84375 0.53125,6.875 0.53125,6.96875 0.625,6.96875 0.75,6.96875 H 7.15625 L 7.8125,5.171875 H 7.578125 C 7.34375,5.8125 6.734375,6.1875 6.234375,6.328125 6.09375,6.375 5.5625,6.53125 4.484375,6.53125 h -3.21875 z m 0,0"
               id="id-d72e702c-2af5-4b26-a9c7-a5ccb9ea1ec7" />
          </symbol>
          <symbol
             overflow="visible"
             id="id-6b0104d4-7047-42bc-af2d-08259aff813b"
             style="stroke-width:0">
            <path
               style="stroke:none;stroke-width:0"
               d=""
               id="id-44030f60-8776-40ec-840e-daf84d88c4f7" />
          </symbol>
          <symbol
             overflow="visible"
             id="id-7d0ed5f7-e3c9-49a6-babe-bca96c7f759c"
             style="stroke-width:0">
            <path
               style="stroke:none;stroke-width:0"
               d="M 1.734375,-0.734375 C 1.671875,-0.5 1.4375,-0.125 1.078125,-0.125 c -0.015625,0 -0.234375,0 -0.375,-0.09375 0.28125,-0.09375 0.3125,-0.34375 0.3125,-0.390625 0,-0.15625 -0.125,-0.25 -0.28125,-0.25 -0.203125,0 -0.40625,0.15625 -0.40625,0.421875 0,0.34375 0.390625,0.5 0.734375,0.5 0.328125,0 0.609375,-0.1875 0.78125,-0.484375 C 2.015625,-0.0625 2.390625,0.0625 2.671875,0.0625 c 0.8125,0 1.234375,-0.859375 1.234375,-1.0625 0,-0.09375 -0.09375,-0.09375 -0.109375,-0.09375 -0.109375,0 -0.109375,0.046875 -0.140625,0.125 -0.140625,0.484375 -0.5625,0.84375 -0.953125,0.84375 -0.28125,0 -0.421875,-0.1875 -0.421875,-0.453125 0,-0.1875 0.171875,-0.8125 0.359375,-1.59375 C 2.78125,-2.703125 3.09375,-2.875 3.328125,-2.875 c 0.015625,0 0.21875,0 0.375,0.09375 -0.21875,0.0625 -0.3125,0.265625 -0.3125,0.390625 0,0.140625 0.125,0.25 0.28125,0.25 0.15625,0 0.390625,-0.125 0.390625,-0.421875 0,-0.390625 -0.453125,-0.515625 -0.71875,-0.515625 -0.359375,0 -0.640625,0.234375 -0.78125,0.5 -0.125,-0.28125 -0.453125,-0.5 -0.84375,-0.5 C 0.9375,-3.078125 0.5,-2.21875 0.5,-2 c 0,0.078125 0.09375,0.078125 0.109375,0.078125 0.09375,0 0.09375,-0.015625 0.140625,-0.109375 C 0.921875,-2.578125 1.359375,-2.875 1.703125,-2.875 1.9375,-2.875 2.125,-2.75 2.125,-2.421875 2.125,-2.28125 2.03125,-1.9375 1.96875,-1.6875 Z m 0,0"
               id="id-33a6b6c4-a1a9-4f1c-815a-da5cb23ed2ea" />
          </symbol>
          <symbol
             overflow="visible"
             id="id-e749f544-f61c-480e-ab0a-5ade2b811b8b"
             style="stroke-width:0">
            <path
               style="stroke:none;stroke-width:0"
               d="m 0.84375,-0.4375 c -0.015625,0.09375 -0.0625,0.265625 -0.0625,0.28125 0,0.15625 0.125,0.21875 0.234375,0.21875 0.125,0 0.234375,-0.078125 0.28125,-0.140625 0.03125,-0.0625 0.078125,-0.296875 0.125,-0.4375 0.03125,-0.125 0.109375,-0.453125 0.140625,-0.625 0.046875,-0.15625 0.09375,-0.3125 0.125,-0.46875 0.078125,-0.28125 0.09375,-0.34375 0.296875,-0.625 C 2.171875,-2.515625 2.5,-2.875 3.03125,-2.875 c 0.390625,0 0.40625,0.359375 0.40625,0.484375 0,0.421875 -0.296875,1.1875 -0.40625,1.484375 -0.078125,0.203125 -0.109375,0.265625 -0.109375,0.375 0,0.375 0.296875,0.59375 0.65625,0.59375 0.703125,0 1,-0.953125 1,-1.0625 0,-0.09375 -0.078125,-0.09375 -0.109375,-0.09375 -0.09375,0 -0.09375,0.046875 -0.125,0.125 C 4.1875,-0.40625 3.875,-0.125 3.609375,-0.125 c -0.15625,0 -0.1875,-0.09375 -0.1875,-0.25 0,-0.15625 0.046875,-0.25 0.171875,-0.5625 0.078125,-0.21875 0.359375,-0.953125 0.359375,-1.34375 0,-0.671875 -0.53125,-0.796875 -0.90625,-0.796875 -0.578125,0 -0.96875,0.359375 -1.171875,0.640625 -0.046875,-0.484375 -0.453125,-0.640625 -0.75,-0.640625 -0.296875,0 -0.453125,0.21875 -0.546875,0.375 -0.15625,0.265625 -0.25,0.65625 -0.25,0.703125 0,0.078125 0.09375,0.078125 0.125,0.078125 0.09375,0 0.09375,-0.015625 0.140625,-0.203125 0.109375,-0.40625 0.25,-0.75 0.515625,-0.75 0.1875,0 0.234375,0.15625 0.234375,0.34375 0,0.125 -0.0625,0.390625 -0.125,0.578125 -0.046875,0.1875 -0.109375,0.46875 -0.140625,0.625 z m 0,0"
               id="id-6414d908-f16a-4d4e-b66c-ae277d57b973" />
          </symbol>
          <symbol
             overflow="visible"
             id="id-0c2a4299-4394-4057-a387-ab5504de4237"
             style="stroke-width:0">
            <path
               style="stroke:none;stroke-width:0"
               d=""
               id="id-a8d104cf-ab25-406f-a4c1-a0a159fbd8de" />
          </symbol>
          <symbol
             overflow="visible"
             id="id-d11c96c9-4f52-497b-8908-4213c4dbf9ea"
             style="stroke-width:0">
            <path
               style="stroke:none;stroke-width:0"
               d="m 1.96875,-3.109375 c 0,-0.125 -0.078125,-0.21875 -0.21875,-0.21875 -0.140625,0 -0.296875,0.140625 -0.296875,0.296875 0,0.140625 0.109375,0.21875 0.21875,0.21875 0.15625,0 0.296875,-0.140625 0.296875,-0.296875 z m 0.234375,2.390625 c 0,-0.0625 -0.078125,-0.0625 -0.09375,-0.0625 -0.09375,0 -0.09375,0.015625 -0.125,0.109375 -0.078125,0.265625 -0.3125,0.5625 -0.5625,0.5625 -0.109375,0 -0.140625,-0.078125 -0.140625,-0.1875 0,-0.109375 0.015625,-0.171875 0.0625,-0.265625 0.03125,-0.09375 0.078125,-0.1875 0.109375,-0.265625 0.015625,-0.046875 0.203125,-0.5 0.28125,-0.6875 0.03125,-0.09375 0.0625,-0.171875 0.0625,-0.25 0,-0.234375 -0.234375,-0.4375 -0.546875,-0.4375 -0.515625,0 -0.796875,0.640625 -0.796875,0.765625 0,0.078125 0.078125,0.078125 0.109375,0.078125 0.078125,0 0.078125,-0.03125 0.109375,-0.09375 0.109375,-0.359375 0.34375,-0.578125 0.5625,-0.578125 0.09375,0 0.15625,0.046875 0.15625,0.1875 0,0.015625 0,0.078125 -0.03125,0.171875 -0.03125,0.09375 -0.265625,0.625 -0.328125,0.796875 -0.046875,0.09375 -0.046875,0.09375 -0.109375,0.265625 -0.03125,0.078125 -0.0625,0.140625 -0.0625,0.21875 0,0.265625 0.25,0.453125 0.546875,0.453125 0.515625,0 0.796875,-0.65625 0.796875,-0.78125 z m 0,0"
               id="id-265bc2e7-c090-4f1f-8649-8b4d4c8d7adc" />
          </symbol>
          <symbol
             overflow="visible"
             id="id-23bd8e63-9a38-4fab-b045-896cd3a32893"
             style="stroke-width:0">
            <path
               style="stroke:none;stroke-width:0"
               d=""
               id="id-40c46904-cf7b-475b-9043-71ba95e14fc1" />
          </symbol>
          <symbol
             overflow="visible"
             id="id-d56c37ee-7850-4396-a203-3e1dfb54061b"
             style="stroke-width:0">
            <path
               style="stroke:none;stroke-width:0"
               d="m 5.1875,-1.578125 c 0.109375,0 0.28125,0 0.28125,-0.15625 0,-0.1875 -0.171875,-0.1875 -0.28125,-0.1875 H 1.03125 c -0.109375,0 -0.28125,0 -0.28125,0.171875 0,0.171875 0.15625,0.171875 0.28125,0.171875 z m 0,0"
               id="id-f2218449-7210-4954-bde4-ee96c77fd415" />
          </symbol>
          <symbol
             overflow="visible"
             id="id-89d30b3e-47b5-4944-8675-3679d8399ad8"
             style="stroke-width:0">
            <path
               style="stroke:none;stroke-width:0"
               d=""
               id="id-1a7558f4-43cd-44ff-9f1f-ec2a15ce97ec" />
          </symbol>
          <symbol
             overflow="visible"
             id="id-839b3edc-838f-4f61-ac0a-e22a33eeb355"
             style="stroke-width:0">
            <path
               style="stroke:none;stroke-width:0"
               d="M 2.9375,-0.96875 H 2.71875 c 0,0.09375 -0.0625,0.40625 -0.140625,0.453125 -0.03125,0.03125 -0.453125,0.03125 -0.53125,0.03125 H 1.078125 C 1.40625,-0.71875 1.765625,-1 2.0625,-1.203125 c 0.453125,-0.3125 0.875,-0.59375 0.875,-1.125 0,-0.640625 -0.609375,-0.984375 -1.3125,-0.984375 -0.671875,0 -1.171875,0.375 -1.171875,0.875 0,0.25 0.21875,0.296875 0.296875,0.296875 0.125,0 0.28125,-0.09375 0.28125,-0.296875 0,-0.171875 -0.125,-0.28125 -0.28125,-0.28125 0.140625,-0.234375 0.4375,-0.375 0.765625,-0.375 0.484375,0 0.890625,0.28125 0.890625,0.765625 0,0.421875 -0.296875,0.75 -0.671875,1.0625 l -1.21875,1.03125 C 0.46875,-0.1875 0.453125,-0.1875 0.453125,-0.15625 V 0 h 2.3125 z m 0,0"
               id="id-946fa313-1d0a-4ed8-beb3-b3cf32f21d75" />
          </symbol>
        </g>
      </defs>
      <g
         id="id-47f2bc36-ceae-457c-9842-2a341facbf54"
         transform="translate(-149.087,-124.699)"
         style="stroke-width:0">
        <g
           style="fill:#000000;fill-opacity:1;stroke-width:0"
           id="id-d09d2541-226b-4b66-a72e-0cb2c3228eca">
          <g
             transform="translate(148.712,135.851)"
             style="stroke-width:0"
             id="g1">
            <path
               style="stroke:none;stroke-width:0"
               d="m 5.15625,-3.71875 c 0.140625,0 0.5,0 0.5,-0.34375 0,-0.234375 -0.21875,-0.234375 -0.390625,-0.234375 h -2.28125 c -1.5,0 -2.609375,1.640625 -2.609375,2.828125 0,0.875 0.59375,1.578125 1.5,1.578125 1.171875,0 2.5,-1.203125 2.5,-2.734375 0,-0.171875 0,-0.65625 -0.3125,-1.09375 z M 1.890625,-0.109375 C 1.390625,-0.109375 1,-0.46875 1,-1.1875 c 0,-0.296875 0.109375,-1.109375 0.46875,-1.703125 0.421875,-0.6875 1.015625,-0.828125 1.359375,-0.828125 0.828125,0 0.90625,0.65625 0.90625,0.96875 0,0.46875 -0.203125,1.28125 -0.53125,1.796875 -0.390625,0.578125 -0.9375,0.84375 -1.3125,0.84375 z m 0,0"
               id="id-e262628a-2458-4162-8e86-4baf2793d529" />
          </g>
        </g>
        <g
           style="fill:#000000;fill-opacity:1;stroke-width:0"
           id="id-b5b943c2-61b8-4bac-a281-7cd7bee2acd8">
          <g
             transform="translate(154.763,132.235)"
             style="stroke-width:0"
             id="g2">
            <path
               style="stroke:none;stroke-width:0"
               d="M 3.515625,-1.265625 H 3.28125 c -0.015625,0.15625 -0.09375,0.5625 -0.1875,0.625 C 3.046875,-0.59375 2.515625,-0.59375 2.40625,-0.59375 H 1.125 c 0.734375,-0.640625 0.984375,-0.84375 1.390625,-1.171875 0.515625,-0.40625 1,-0.84375 1,-1.5 0,-0.84375 -0.734375,-1.359375 -1.625,-1.359375 -0.859375,0 -1.453125,0.609375 -1.453125,1.25 0,0.34375 0.296875,0.390625 0.375,0.390625 0.15625,0 0.359375,-0.125 0.359375,-0.375 0,-0.125 -0.046875,-0.375 -0.40625,-0.375 C 0.984375,-4.21875 1.453125,-4.375 1.78125,-4.375 c 0.703125,0 1.0625,0.546875 1.0625,1.109375 0,0.609375 -0.4375,1.078125 -0.65625,1.328125 L 0.515625,-0.265625 C 0.4375,-0.203125 0.4375,-0.1875 0.4375,0 h 2.875 z m 0,0"
               id="id-56a19ea3-9dca-495f-b4a8-87daef91c31b" />
          </g>
        </g>
        <g
           style="fill:#000000;fill-opacity:1;stroke-width:0"
           id="id-47f655b5-1c81-40bd-981e-aaba9c05dacf">
          <g
             transform="translate(161.999,135.851)"
             style="stroke-width:0"
             id="g3">
            <path
               style="stroke:none;stroke-width:0"
               d="m 6.84375,-3.265625 c 0.15625,0 0.34375,0 0.34375,-0.1875 C 7.1875,-3.65625 7,-3.65625 6.859375,-3.65625 h -5.96875 c -0.140625,0 -0.328125,0 -0.328125,0.203125 0,0.1875 0.1875,0.1875 0.328125,0.1875 z m 0.015625,1.9375 c 0.140625,0 0.328125,0 0.328125,-0.203125 0,-0.1875 -0.1875,-0.1875 -0.34375,-0.1875 H 0.890625 c -0.140625,0 -0.328125,0 -0.328125,0.1875 0,0.203125 0.1875,0.203125 0.328125,0.203125 z m 0,0"
               id="id-a3a4a9a1-c514-4eef-96b5-4c0319e93f63" />
          </g>
        </g>
        <g
           style="fill:#000000;fill-opacity:1;stroke-width:0"
           id="id-161f989d-aa2f-4d9c-a022-aac2e8f476fe">
          <g
             transform="translate(173.711,125.788)"
             style="stroke-width:0"
             id="g4">
            <path
               style="stroke:none;stroke-width:0"
               d="M 3.859375,3.609375 C 3.9375,3.53125 3.9375,3.515625 3.9375,3.484375 3.9375,3.46875 3.9375,3.453125 3.875,3.375 L 1.40625,0.34375 H 4.4375 C 5.453125,0.34375 6,0.484375 6.125,0.515625 6.734375,0.6875 7.34375,1.09375 7.578125,1.6875 H 7.8125 L 7.15625,0 H 0.75 C 0.59375,0 0.59375,0 0.5625,0.046875 0.53125,0.0625 0.53125,0.078125 0.53125,0.265625 L 3.328125,3.703125 0.625,6.75 C 0.53125,6.828125 0.53125,6.84375 0.53125,6.875 0.53125,6.96875 0.625,6.96875 0.75,6.96875 H 7.15625 L 7.8125,5.171875 H 7.578125 C 7.34375,5.8125 6.734375,6.1875 6.234375,6.328125 6.09375,6.375 5.5625,6.53125 4.484375,6.53125 h -3.21875 z m 0,0"
               id="id-1b998fdb-9647-4906-9482-7b0405accce0" />
          </g>
        </g>
        <g
           style="fill:#000000;fill-opacity:1;stroke-width:0"
           id="id-a8779b64-37a3-4b14-9a43-4f9f23bf40f5">
          <g
             transform="translate(182.082,131.019)"
             style="stroke-width:0"
             id="g5">
            <path
               style="stroke:none;stroke-width:0"
               d="M 2.46875,-5.21875 C 1.15625,-4.296875 0.796875,-2.8125 0.796875,-1.75 c 0,0.984375 0.296875,2.515625 1.671875,3.484375 0.0625,0 0.140625,0 0.140625,-0.078125 0,-0.046875 -0.015625,-0.0625 -0.0625,-0.109375 C 1.609375,0.703125 1.28125,-0.46875 1.28125,-1.734375 1.28125,-3.625 2,-4.546875 2.5625,-5.0625 2.59375,-5.09375 2.609375,-5.109375 2.609375,-5.140625 2.609375,-5.21875 2.53125,-5.21875 2.46875,-5.21875 Z m 0,0"
               id="id-45ec23a6-f7fd-4ec5-8168-c092812824b4" />
          </g>
        </g>
        <g
           style="fill:#000000;fill-opacity:1;stroke-width:0"
           id="id-d4cd4150-c1bc-4756-9520-750047b199a8">
          <g
             transform="translate(185.196,131.019)"
             style="stroke-width:0"
             id="g6">
            <path
               style="stroke:none;stroke-width:0"
               d="M 1.734375,-0.734375 C 1.671875,-0.5 1.4375,-0.125 1.078125,-0.125 c -0.015625,0 -0.234375,0 -0.375,-0.09375 0.28125,-0.09375 0.3125,-0.34375 0.3125,-0.390625 0,-0.15625 -0.125,-0.25 -0.28125,-0.25 -0.203125,0 -0.40625,0.15625 -0.40625,0.421875 0,0.34375 0.390625,0.5 0.734375,0.5 0.328125,0 0.609375,-0.1875 0.78125,-0.484375 C 2.015625,-0.0625 2.390625,0.0625 2.671875,0.0625 c 0.8125,0 1.234375,-0.859375 1.234375,-1.0625 0,-0.09375 -0.09375,-0.09375 -0.109375,-0.09375 -0.109375,0 -0.109375,0.046875 -0.140625,0.125 -0.140625,0.484375 -0.5625,0.84375 -0.953125,0.84375 -0.28125,0 -0.421875,-0.1875 -0.421875,-0.453125 0,-0.1875 0.171875,-0.8125 0.359375,-1.59375 C 2.78125,-2.703125 3.09375,-2.875 3.328125,-2.875 c 0.015625,0 0.21875,0 0.375,0.09375 -0.21875,0.0625 -0.3125,0.265625 -0.3125,0.390625 0,0.140625 0.125,0.25 0.28125,0.25 0.15625,0 0.390625,-0.125 0.390625,-0.421875 0,-0.390625 -0.453125,-0.515625 -0.71875,-0.515625 -0.359375,0 -0.640625,0.234375 -0.78125,0.5 -0.125,-0.28125 -0.453125,-0.5 -0.84375,-0.5 C 0.9375,-3.078125 0.5,-2.21875 0.5,-2 c 0,0.078125 0.09375,0.078125 0.109375,0.078125 0.09375,0 0.09375,-0.015625 0.140625,-0.109375 C 0.921875,-2.578125 1.359375,-2.875 1.703125,-2.875 1.9375,-2.875 2.125,-2.75 2.125,-2.421875 2.125,-2.28125 2.03125,-1.9375 1.96875,-1.6875 Z m 0,0"
               id="id-012b3f5e-424b-4fd2-a1b2-0fffc243faa9" />
          </g>
        </g>
        <g
           style="fill:#000000;fill-opacity:1;stroke-width:0"
           id="id-5c5fe0a6-97b3-40de-9e13-6b732c6cecaa">
          <g
             transform="translate(189.713,132.015)"
             style="stroke-width:0"
             id="g7">
            <path
               style="stroke:none;stroke-width:0"
               d="m 1.96875,-3.109375 c 0,-0.125 -0.078125,-0.21875 -0.21875,-0.21875 -0.140625,0 -0.296875,0.140625 -0.296875,0.296875 0,0.140625 0.109375,0.21875 0.21875,0.21875 0.15625,0 0.296875,-0.140625 0.296875,-0.296875 z m 0.234375,2.390625 c 0,-0.0625 -0.078125,-0.0625 -0.09375,-0.0625 -0.09375,0 -0.09375,0.015625 -0.125,0.109375 -0.078125,0.265625 -0.3125,0.5625 -0.5625,0.5625 -0.109375,0 -0.140625,-0.078125 -0.140625,-0.1875 0,-0.109375 0.015625,-0.171875 0.0625,-0.265625 0.03125,-0.09375 0.078125,-0.1875 0.109375,-0.265625 0.015625,-0.046875 0.203125,-0.5 0.28125,-0.6875 0.03125,-0.09375 0.0625,-0.171875 0.0625,-0.25 0,-0.234375 -0.234375,-0.4375 -0.546875,-0.4375 -0.515625,0 -0.796875,0.640625 -0.796875,0.765625 0,0.078125 0.078125,0.078125 0.109375,0.078125 0.078125,0 0.078125,-0.03125 0.109375,-0.09375 0.109375,-0.359375 0.34375,-0.578125 0.5625,-0.578125 0.09375,0 0.15625,0.046875 0.15625,0.1875 0,0.015625 0,0.078125 -0.03125,0.171875 -0.03125,0.09375 -0.265625,0.625 -0.328125,0.796875 -0.046875,0.09375 -0.046875,0.09375 -0.109375,0.265625 -0.03125,0.078125 -0.0625,0.140625 -0.0625,0.21875 0,0.265625 0.25,0.453125 0.546875,0.453125 0.515625,0 0.796875,-0.65625 0.796875,-0.78125 z m 0,0"
               id="id-ef2adf25-109c-4828-b915-9f29ec376413" />
          </g>
        </g>
        <g
           style="fill:#000000;fill-opacity:1;stroke-width:0"
           id="id-2a45f4ba-0e03-402f-9160-73b761496f54">
          <g
             transform="translate(192.869,131.019)"
             style="stroke-width:0"
             id="g8">
            <path
               style="stroke:none;stroke-width:0"
               d="m 5.1875,-1.578125 c 0.109375,0 0.28125,0 0.28125,-0.15625 0,-0.1875 -0.171875,-0.1875 -0.28125,-0.1875 H 1.03125 c -0.109375,0 -0.28125,0 -0.28125,0.171875 0,0.171875 0.15625,0.171875 0.28125,0.171875 z m 0,0"
               id="id-94066699-3a1d-482b-9080-3c8ea73ff278" />
          </g>
        </g>
        <g
           style="fill:#000000;fill-opacity:1;stroke-width:0"
           id="id-77dded34-0a9d-4359-8170-79dc61904a7d">
          <g
             transform="translate(199.584,131.019)"
             style="stroke-width:0"
             id="g9">
            <path
               style="stroke:none;stroke-width:0"
               d="M 3.359375,-3.875 V -4.140625 H 0.59375 V -3.875 Z m 0,0"
               id="id-c413f999-603e-4d36-832f-88287210c44e" />
          </g>
        </g>
        <g
           style="fill:#000000;fill-opacity:1;stroke-width:0"
           id="id-5ac63967-69f4-408e-9924-2e7e37616b6c">
          <g
             transform="translate(199.096,131.019)"
             style="stroke-width:0"
             id="g10">
            <path
               style="stroke:none;stroke-width:0"
               d="M 1.734375,-0.734375 C 1.671875,-0.5 1.4375,-0.125 1.078125,-0.125 c -0.015625,0 -0.234375,0 -0.375,-0.09375 0.28125,-0.09375 0.3125,-0.34375 0.3125,-0.390625 0,-0.15625 -0.125,-0.25 -0.28125,-0.25 -0.203125,0 -0.40625,0.15625 -0.40625,0.421875 0,0.34375 0.390625,0.5 0.734375,0.5 0.328125,0 0.609375,-0.1875 0.78125,-0.484375 C 2.015625,-0.0625 2.390625,0.0625 2.671875,0.0625 c 0.8125,0 1.234375,-0.859375 1.234375,-1.0625 0,-0.09375 -0.09375,-0.09375 -0.109375,-0.09375 -0.109375,0 -0.109375,0.046875 -0.140625,0.125 -0.140625,0.484375 -0.5625,0.84375 -0.953125,0.84375 -0.28125,0 -0.421875,-0.1875 -0.421875,-0.453125 0,-0.1875 0.171875,-0.8125 0.359375,-1.59375 C 2.78125,-2.703125 3.09375,-2.875 3.328125,-2.875 c 0.015625,0 0.21875,0 0.375,0.09375 -0.21875,0.0625 -0.3125,0.265625 -0.3125,0.390625 0,0.140625 0.125,0.25 0.28125,0.25 0.15625,0 0.390625,-0.125 0.390625,-0.421875 0,-0.390625 -0.453125,-0.515625 -0.71875,-0.515625 -0.359375,0 -0.640625,0.234375 -0.78125,0.5 -0.125,-0.28125 -0.453125,-0.5 -0.84375,-0.5 C 0.9375,-3.078125 0.5,-2.21875 0.5,-2 c 0,0.078125 0.09375,0.078125 0.109375,0.078125 0.09375,0 0.09375,-0.015625 0.140625,-0.109375 C 0.921875,-2.578125 1.359375,-2.875 1.703125,-2.875 1.9375,-2.875 2.125,-2.75 2.125,-2.421875 2.125,-2.28125 2.03125,-1.9375 1.96875,-1.6875 Z m 0,0"
               id="id-0527665e-bd8b-42c3-a692-5779ea1a7fcd" />
          </g>
        </g>
        <g
           style="fill:#000000;fill-opacity:1;stroke-width:0"
           id="id-4dbc95c3-f9da-49a9-a0e7-22e2bfa22c04">
          <g
             transform="translate(203.614,131.019)"
             style="stroke-width:0"
             id="g11">
            <path
               style="stroke:none;stroke-width:0"
               d="m 0.625,-5.21875 c -0.046875,0 -0.125,0 -0.125,0.078125 0,0.03125 0.015625,0.046875 0.0625,0.109375 0.59375,0.546875 1.265625,1.484375 1.265625,3.28125 0,1.453125 -0.453125,2.5625 -1.203125,3.234375 -0.125,0.125 -0.125,0.125 -0.125,0.171875 0,0.03125 0.015625,0.078125 0.078125,0.078125 0.09375,0 0.75,-0.453125 1.21875,-1.328125 0.296875,-0.578125 0.5,-1.328125 0.5,-2.140625 C 2.296875,-2.71875 2,-4.25 0.625,-5.21875 Z m 0,0"
               id="id-bb49f2e5-2640-4b45-b234-3d34019ff275" />
          </g>
        </g>
        <g
           style="fill:#000000;fill-opacity:1;stroke-width:0"
           id="id-3d933ebf-7e51-4f85-85a3-46053c51640b">
          <g
             transform="translate(206.727,128.012)"
             style="stroke-width:0"
             id="g12">
            <path
               style="stroke:none;stroke-width:0"
               d="M 2.9375,-0.96875 H 2.71875 c 0,0.09375 -0.0625,0.40625 -0.140625,0.453125 -0.03125,0.03125 -0.453125,0.03125 -0.53125,0.03125 H 1.078125 C 1.40625,-0.71875 1.765625,-1 2.0625,-1.203125 c 0.453125,-0.3125 0.875,-0.59375 0.875,-1.125 0,-0.640625 -0.609375,-0.984375 -1.3125,-0.984375 -0.671875,0 -1.171875,0.375 -1.171875,0.875 0,0.25 0.21875,0.296875 0.296875,0.296875 0.125,0 0.28125,-0.09375 0.28125,-0.296875 0,-0.171875 -0.125,-0.28125 -0.28125,-0.28125 0.140625,-0.234375 0.4375,-0.375 0.765625,-0.375 0.484375,0 0.890625,0.28125 0.890625,0.765625 0,0.421875 -0.296875,0.75 -0.671875,1.0625 l -1.21875,1.03125 C 0.46875,-0.1875 0.453125,-0.1875 0.453125,-0.15625 V 0 h 2.3125 z m 0,0"
               id="id-05364628-e158-4280-9aac-590d0794eb0d" />
          </g>
        </g>
        <path
           style="fill:none;stroke:#000000;stroke-width:0.398;stroke-linecap:butt;stroke-linejoin:miter;stroke-miterlimit:10;stroke-opacity:1"
           d="M -6.25e-5,6.25e-4 H 36.906188"
           transform="matrix(1,0,0,-1,173.711,133.36)"
           id="id-b0bf24ea-1386-493b-ad64-fa6c6ff195b8" />
        <g
           style="fill:#000000;fill-opacity:1;stroke-width:0"
           id="id-5faeaf83-1715-40d7-8c24-aa71ba1cb568">
          <g
             transform="translate(189.701,139.286)"
             style="stroke-width:0"
             id="g13">
            <path
               style="stroke:none;stroke-width:0"
               d="m 0.84375,-0.4375 c -0.015625,0.09375 -0.0625,0.265625 -0.0625,0.28125 0,0.15625 0.125,0.21875 0.234375,0.21875 0.125,0 0.234375,-0.078125 0.28125,-0.140625 0.03125,-0.0625 0.078125,-0.296875 0.125,-0.4375 0.03125,-0.125 0.109375,-0.453125 0.140625,-0.625 0.046875,-0.15625 0.09375,-0.3125 0.125,-0.46875 0.078125,-0.28125 0.09375,-0.34375 0.296875,-0.625 C 2.171875,-2.515625 2.5,-2.875 3.03125,-2.875 c 0.390625,0 0.40625,0.359375 0.40625,0.484375 0,0.421875 -0.296875,1.1875 -0.40625,1.484375 -0.078125,0.203125 -0.109375,0.265625 -0.109375,0.375 0,0.375 0.296875,0.59375 0.65625,0.59375 0.703125,0 1,-0.953125 1,-1.0625 0,-0.09375 -0.078125,-0.09375 -0.109375,-0.09375 -0.09375,0 -0.09375,0.046875 -0.125,0.125 C 4.1875,-0.40625 3.875,-0.125 3.609375,-0.125 c -0.15625,0 -0.1875,-0.09375 -0.1875,-0.25 0,-0.15625 0.046875,-0.25 0.171875,-0.5625 0.078125,-0.21875 0.359375,-0.953125 0.359375,-1.34375 0,-0.671875 -0.53125,-0.796875 -0.90625,-0.796875 -0.578125,0 -0.96875,0.359375 -1.171875,0.640625 -0.046875,-0.484375 -0.453125,-0.640625 -0.75,-0.640625 -0.296875,0 -0.453125,0.21875 -0.546875,0.375 -0.15625,0.265625 -0.25,0.65625 -0.25,0.703125 0,0.078125 0.09375,0.078125 0.125,0.078125 0.09375,0 0.09375,-0.015625 0.140625,-0.203125 0.109375,-0.40625 0.25,-0.75 0.515625,-0.75 0.1875,0 0.234375,0.15625 0.234375,0.34375 0,0.125 -0.0625,0.390625 -0.125,0.578125 -0.046875,0.1875 -0.109375,0.46875 -0.140625,0.625 z m 0,0"
               id="id-052e4a70-a524-4e2f-9d13-991d9e42e869" />
          </g>
        </g>
      </g>
    </g>
  </g>
</svg>
