<?xml version="1.0" encoding="UTF-8" standalone="no"?>
<!-- Created with Inkscape (http://www.inkscape.org/) -->

<svg
   width="109.34599mm"
   height="79.094246mm"
   viewBox="0 0 109.34598 79.094245"
   version="1.1"
   id="svg1"
   inkscape:version="1.4-dev (1:1.2.0-alpha1+devel+202308081135+c38551a022)"
   sodipodi:docname="regression_sports_distances.svg"
   inkscape:export-filename="regression_sports_distances.png"
   inkscape:export-xdpi="250"
   inkscape:export-ydpi="250"
   xmlns:inkscape="http://www.inkscape.org/namespaces/inkscape"
   xmlns:sodipodi="http://sodipodi.sourceforge.net/DTD/sodipodi-0.dtd"
   xmlns="http://www.w3.org/2000/svg"
   xmlns:svg="http://www.w3.org/2000/svg"
   xmlns:ns2="http://www.iki.fi/pav/software/textext/">
  <sodipodi:namedview
     id="namedview1"
     pagecolor="#ffffff"
     bordercolor="#000000"
     borderopacity="0.25"
     inkscape:showpageshadow="2"
     inkscape:pageopacity="0.0"
     inkscape:pagecheckerboard="0"
     inkscape:deskcolor="#d1d1d1"
     inkscape:document-units="mm"
     inkscape:zoom="2.447506"
     inkscape:cx="97.241847"
     inkscape:cy="124.00378"
     inkscape:window-width="2560"
     inkscape:window-height="1367"
     inkscape:window-x="0"
     inkscape:window-y="0"
     inkscape:window-maximized="1"
     inkscape:current-layer="layer1" />
  <defs
     id="defs1">
    <marker
       style="overflow:visible"
       id="Triangle"
       refX="0"
       refY="0"
       orient="auto-start-reverse"
       inkscape:stockid="Triangle arrow"
       markerWidth="1"
       markerHeight="1"
       viewBox="0 0 1 1"
       inkscape:isstock="true"
       inkscape:collect="always"
       preserveAspectRatio="xMidYMid">
      <path
         transform="scale(0.5)"
         style="fill:context-stroke;fill-rule:evenodd;stroke:context-stroke;stroke-width:1pt"
         d="M 5.77,0 -2.88,5 V -5 Z"
         id="path135" />
    </marker>
  </defs>
  <g
     inkscape:label="Layer 1"
     inkscape:groupmode="layer"
     id="layer1"
     transform="translate(-31.507181,-53.533037)">
    <path
       style="fill:none;stroke:#000000;stroke-width:0.700824;marker-end:url(#Triangle)"
       d="M 47.431729,124.64466 V 56.293864"
       id="path1" />
    <path
       style="fill:none;stroke:#000000;stroke-width:0.808011;marker-end:url(#Triangle)"
       d="M 47.126125,124.24993 H 137.98387"
       id="path2" />
    <text
       xml:space="preserve"
       style="font-style:normal;font-variant:normal;font-weight:normal;font-stretch:normal;font-size:26.6667px;line-height:90%;font-family:sans-serif;font-variant-ligatures:normal;font-variant-position:normal;font-variant-caps:normal;font-variant-numeric:normal;font-variant-alternates:normal;font-variant-east-asian:normal;font-feature-settings:normal;font-variation-settings:normal;text-indent:0;text-align:start;text-decoration-line:none;text-decoration-style:solid;text-decoration-color:#000000;letter-spacing:normal;word-spacing:normal;text-transform:none;writing-mode:lr-tb;direction:ltr;text-orientation:mixed;dominant-baseline:auto;baseline-shift:baseline;text-anchor:start;white-space:normal;shape-padding:0;shape-margin:0;inline-size:0;opacity:1;vector-effect:none;fill:#000000;fill-opacity:1;stroke-width:0.999999;stroke-linecap:butt;stroke-linejoin:miter;stroke-miterlimit:4;stroke-dasharray:none;stroke-dashoffset:0;stroke-opacity:1;-inkscape-stroke:none;stop-color:#000000;stop-opacity:1"
       x="248.20602"
       y="524.25458"
       id="text2"
       transform="matrix(0.26458333,0,0,0.26458333,12.588613,-7.3357525)"><tspan
         sodipodi:role="line"
         id="tspan2"
         x="248.20602"
         y="524.25458"
         style="font-style:normal;font-variant:normal;font-weight:normal;font-stretch:normal;font-family:Calibri;-inkscape-font-specification:Calibri">Sportliche Aktivität</tspan></text>
    <text
       xml:space="preserve"
       style="font-style:normal;font-variant:normal;font-weight:normal;font-stretch:normal;font-size:26.6667px;line-height:90%;font-family:sans-serif;font-variant-ligatures:normal;font-variant-position:normal;font-variant-caps:normal;font-variant-numeric:normal;font-variant-alternates:normal;font-variant-east-asian:normal;font-feature-settings:normal;font-variation-settings:normal;text-indent:0;text-align:start;text-decoration-line:none;text-decoration-style:solid;text-decoration-color:#000000;letter-spacing:normal;word-spacing:normal;text-transform:none;writing-mode:lr-tb;direction:ltr;text-orientation:mixed;dominant-baseline:auto;baseline-shift:baseline;text-anchor:start;white-space:normal;shape-padding:0;shape-margin:0;inline-size:0;opacity:1;vector-effect:none;fill:#000000;fill-opacity:1;stroke-width:0.999999;stroke-linecap:butt;stroke-linejoin:miter;stroke-miterlimit:4;stroke-dasharray:none;stroke-dashoffset:0;stroke-opacity:1;-inkscape-stroke:none;stop-color:#000000;stop-opacity:1"
       x="248.20602"
       y="524.25458"
       id="text3"
       transform="matrix(0,-0.26458333,0.26458333,0,-95.027633,177.40573)"><tspan
         sodipodi:role="line"
         id="tspan3"
         x="248.20602"
         y="524.25458"
         style="font-style:normal;font-variant:normal;font-weight:normal;font-stretch:normal;font-family:Calibri;-inkscape-font-specification:Calibri">Lebenszufriedenheit</tspan></text>
    <circle
       style="fill:#8c8c8c;fill-opacity:1;stroke:#ffffff;stroke-width:0.546329;stroke-opacity:1"
       id="path3"
       cx="76.135536"
       cy="106.08553"
       r="2.0083668" />
    <circle
       style="fill:#8c8c8c;fill-opacity:1;stroke:#ffffff;stroke-width:0.546329;stroke-opacity:1"
       id="circle3"
       cx="65.346748"
       cy="96.496208"
       r="2.0083668" />
    <circle
       style="fill:#8c8c8c;fill-opacity:1;stroke:#ffffff;stroke-width:0.546329;stroke-opacity:1"
       id="circle5"
       cx="75.913589"
       cy="88.706688"
       r="2.0083668" />
    <circle
       style="fill:#8c8c8c;fill-opacity:1;stroke:#ffffff;stroke-width:0.546329;stroke-opacity:1"
       id="circle6"
       cx="88.772491"
       cy="100.30788"
       r="2.0083668" />
    <path
       style="fill:none;stroke:#b10000;stroke-width:0.93686;stroke-dasharray:none;stroke-opacity:1"
       d="M 47.490831,118.01353 137.03983,61.427172"
       id="path6" />
    <circle
       style="fill:#8c8c8c;fill-opacity:1;stroke:#ffffff;stroke-width:0.546329;stroke-opacity:1"
       id="circle7"
       cx="65.346748"
       cy="96.496208"
       r="2.0083668" />
    <circle
       style="fill:#8c8c8c;fill-opacity:1;stroke:#ffffff;stroke-width:0.546329;stroke-opacity:1"
       id="circle8"
       cx="76.135536"
       cy="106.08553"
       r="2.0083668" />
    <circle
       style="fill:#8c8c8c;fill-opacity:1;stroke:#ffffff;stroke-width:0.546329;stroke-opacity:1"
       id="circle9"
       cx="88.772491"
       cy="100.30788"
       r="2.0083668" />
    <circle
       style="fill:#8c8c8c;fill-opacity:1;stroke:#ffffff;stroke-width:0.546329;stroke-opacity:1"
       id="circle10"
       cx="69.343887"
       cy="109.16571"
       r="2.0083668" />
    <circle
       style="fill:#8c8c8c;fill-opacity:1;stroke:#ffffff;stroke-width:0.546329;stroke-opacity:1"
       id="circle11"
       cx="61.289696"
       cy="102.36229"
       r="2.0083668" />
    <circle
       style="fill:#8c8c8c;fill-opacity:1;stroke:#ffffff;stroke-width:0.546329;stroke-opacity:1"
       id="circle12"
       cx="94.728142"
       cy="67.682129"
       r="2.0083668" />
    <circle
       style="fill:#8c8c8c;fill-opacity:1;stroke:#ffffff;stroke-width:0.546329;stroke-opacity:1"
       id="circle13"
       cx="85.045166"
       cy="77.19265"
       r="2.0083668" />
    <circle
       style="fill:#8c8c8c;fill-opacity:1;stroke:#ffffff;stroke-width:0.546329;stroke-opacity:1"
       id="circle14"
       cx="118.67496"
       cy="88.78212"
       r="2.0083668" />
    <circle
       style="fill:#8c8c8c;fill-opacity:1;stroke:#ffffff;stroke-width:0.546329;stroke-opacity:1"
       id="circle15"
       cx="104.63734"
       cy="94.062515"
       r="2.0083668" />
    <circle
       style="fill:#8c8c8c;fill-opacity:1;stroke:#ffffff;stroke-width:0.546329;stroke-opacity:1"
       id="circle16"
       cx="104.41159"
       cy="74.725616"
       r="2.0083668" />
    <circle
       style="fill:#8c8c8c;fill-opacity:1;stroke:#ffffff;stroke-width:0.546329;stroke-opacity:1"
       id="circle17"
       cx="109.69897"
       cy="85.000511"
       r="2.0083668" />
    <circle
       style="fill:#8c8c8c;fill-opacity:1;stroke:#ffffff;stroke-width:0.546329;stroke-opacity:1"
       id="circle18"
       cx="111.84396"
       cy="68.433144"
       r="2.0083668" />
    <circle
       style="fill:#8c8c8c;fill-opacity:1;stroke:#ffffff;stroke-width:0.546329;stroke-opacity:1"
       id="circle20"
       cx="120.67173"
       cy="67.582893"
       r="2.0083668" />
    <circle
       style="fill:#8c8c8c;fill-opacity:1;stroke:#ffffff;stroke-width:0.546329;stroke-opacity:1"
       id="circle21"
       cx="48.944748"
       cy="112.7935"
       r="2.0083668" />
    <path
       style="fill:none;fill-opacity:1;stroke:#000000;stroke-width:0.5;stroke-dasharray:none;stroke-opacity:1"
       d="m 75.777242,76.010973 8.449304,7.956464"
       id="path21" />
    <text
       xml:space="preserve"
       style="font-style:normal;font-variant:normal;font-weight:normal;font-stretch:normal;font-size:26.6592px;line-height:90%;font-family:sans-serif;font-variant-ligatures:normal;font-variant-position:normal;font-variant-caps:normal;font-variant-numeric:normal;font-variant-alternates:normal;font-variant-east-asian:normal;font-feature-settings:normal;font-variation-settings:normal;text-indent:0;text-align:start;text-decoration-line:none;text-decoration-style:solid;text-decoration-color:#000000;letter-spacing:normal;word-spacing:normal;text-transform:none;writing-mode:lr-tb;direction:ltr;text-orientation:mixed;dominant-baseline:auto;baseline-shift:baseline;text-anchor:start;white-space:normal;shape-padding:0;shape-margin:0;inline-size:0;opacity:1;vector-effect:none;fill:#000000;fill-opacity:1;stroke-width:0.999999;stroke-linecap:butt;stroke-linejoin:miter;stroke-miterlimit:4;stroke-dasharray:none;stroke-dashoffset:0;stroke-opacity:1;-inkscape-stroke:none;stop-color:#000000;stop-opacity:1"
       x="248.20602"
       y="524.25458"
       id="text21"
       transform="matrix(0.22377657,0,0,0.22377657,27.363977,-4.1513888)"><tspan
         sodipodi:role="line"
         x="248.20602"
         y="524.25458"
         style="font-style:normal;font-variant:normal;font-weight:normal;font-stretch:normal;font-size:26.6592px;font-family:Calibri;-inkscape-font-specification:Calibri"
         id="tspan22">Daten (jeder Punkt =</tspan><tspan
         sodipodi:role="line"
         x="248.20602"
         y="548.93445"
         style="font-style:normal;font-variant:normal;font-weight:normal;font-stretch:normal;font-size:26.6592px;font-family:Calibri;-inkscape-font-specification:Calibri"
         id="tspan23">Versuchpersonen)</tspan></text>
    <text
       xml:space="preserve"
       style="font-style:normal;font-variant:normal;font-weight:normal;font-stretch:normal;font-size:18.8976px;line-height:90%;font-family:sans-serif;font-variant-ligatures:normal;font-variant-position:normal;font-variant-caps:normal;font-variant-numeric:normal;font-variant-alternates:normal;font-variant-east-asian:normal;font-feature-settings:normal;font-variation-settings:normal;text-indent:0;text-align:start;text-decoration-line:none;text-decoration-style:solid;text-decoration-color:#000000;letter-spacing:normal;word-spacing:normal;text-transform:none;writing-mode:lr-tb;direction:ltr;text-orientation:mixed;dominant-baseline:auto;baseline-shift:baseline;text-anchor:start;white-space:normal;shape-padding:0;shape-margin:0;inline-size:0;opacity:1;vector-effect:none;fill:#b00000;fill-opacity:0.959066;stroke-width:0.999999;stroke-linecap:butt;stroke-linejoin:miter;stroke-miterlimit:4;stroke-dasharray:none;stroke-dashoffset:0;stroke-opacity:1;-inkscape-stroke:none;stop-color:#000000;stop-opacity:1"
       x="248.20602"
       y="524.25458"
       id="text24"
       transform="matrix(0.31568508,0,0,0.31568508,7.5012323,-103.48755)"><tspan
         sodipodi:role="line"
         id="tspan24"
         x="248.20602"
         y="524.25458"
         style="font-style:normal;font-variant:normal;font-weight:normal;font-stretch:normal;font-size:18.8976px;font-family:Calibri;-inkscape-font-specification:Calibri;fill:#b00000;fill-opacity:0.959066">Regressionsgerade</tspan></text>
    <circle
       style="fill:#8c8c8c;fill-opacity:1;stroke:#ffffff;stroke-width:0.546329;stroke-opacity:1"
       id="circle24"
       cx="53.996967"
       cy="97.556999"
       r="2.0083668" />
    <circle
       style="fill:#8c8c8c;fill-opacity:1;stroke:#ffffff;stroke-width:0.546329;stroke-opacity:1"
       id="circle25"
       cx="127.59175"
       cy="76.826469"
       r="2.0083668" />
    <path
       style="fill:none;fill-opacity:0.959066;stroke:#b10000;stroke-width:0.5;stroke-dasharray:0.5, 0.5;stroke-dashoffset:0;stroke-opacity:1"
       d="m 62.475215,108.79932 v 9.34652"
       id="path25" />
    <path
       style="fill:none;fill-opacity:0.959066;stroke:#8b008b;stroke-width:0.499999;stroke-dasharray:none;stroke-opacity:1"
       d="M 118.63191,73.857221 V 86.913089"
       id="path26" />
    <path
       style="fill:none;fill-opacity:0.959066;stroke:#8b008b;stroke-width:0.5;stroke-dasharray:none;stroke-opacity:1"
       d="M 104.52458,82.824979 V 92.20317"
       id="path27" />
    <path
       style="fill:none;fill-opacity:0.959066;stroke:#8b008b;stroke-width:0.5;stroke-dasharray:none;stroke-opacity:1"
       d="m 109.7324,79.541479 v 3.558093"
       id="path28" />
    <path
       style="fill:none;fill-opacity:0.959066;stroke:#8b008b;stroke-width:0.5;stroke-dasharray:none;stroke-opacity:1"
       d="m 104.29026,76.635901 v 4.626488"
       id="path29" />
    <path
       style="fill:none;fill-opacity:0.959066;stroke:#8b008b;stroke-width:0.5;stroke-dasharray:none;stroke-opacity:1"
       d="M 120.5752,69.374689 V 71.13485"
       id="path30" />
    <path
       style="fill:none;fill-opacity:0.959066;stroke:#8b008b;stroke-width:0.5;stroke-dasharray:none;stroke-opacity:1"
       d="m 111.93164,70.224465 v 6.342522"
       id="path31" />
    <path
       style="fill:none;fill-opacity:0.959066;stroke:#8b008b;stroke-width:0.5;stroke-dasharray:none;stroke-opacity:1"
       d="M 94.691293,69.671321 V 87.250965"
       id="path32" />
    <path
       style="fill:none;fill-opacity:0.959066;stroke:#8b008b;stroke-width:0.5;stroke-dasharray:none;stroke-opacity:1"
       d="M 84.860845,79.091495 V 93.589451"
       id="path33" />
    <circle
       style="fill:#8c8c8c;fill-opacity:1;stroke:#ffffff;stroke-width:0.546329;stroke-opacity:1"
       id="circle4"
       cx="87.835716"
       cy="87.030273"
       r="2.0083668" />
    <path
       style="fill:none;fill-opacity:0.959066;stroke:#8b008b;stroke-width:0.5;stroke-dasharray:none;stroke-opacity:1"
       d="m 87.894019,88.835805 v 3.007421"
       id="path34" />
    <path
       style="fill:none;fill-opacity:0.959066;stroke:#8b008b;stroke-width:0.5;stroke-dasharray:none;stroke-opacity:1"
       d="m 88.701169,92.776993 v 5.663521"
       id="path35" />
    <path
       style="fill:none;fill-opacity:0.959066;stroke:#8b008b;stroke-width:0.5;stroke-dasharray:none;stroke-opacity:1"
       d="m 75.925719,90.533749 v 8.62377"
       id="path36" />
    <path
       style="fill:none;fill-opacity:0.959066;stroke:#8b008b;stroke-width:0.5;stroke-dasharray:none;stroke-opacity:1"
       d="m 65.274409,98.345469 v 7.734491"
       id="path37" />
    <path
       style="fill:none;fill-opacity:0.959066;stroke:#8b008b;stroke-width:0.500001;stroke-dasharray:none;stroke-opacity:1"
       d="m 69.377254,104.96368 v 2.33248"
       id="path38" />
    <path
       style="fill:none;fill-opacity:0.959066;stroke:#8b008b;stroke-width:0.500002;stroke-dasharray:none;stroke-opacity:1"
       d="m 61.33164,104.19088 v 4.30429"
       id="path39" />
    <path
       style="fill:none;fill-opacity:0.959066;stroke:#8b008b;stroke-width:0.500003;stroke-dasharray:none;stroke-opacity:1"
       d="m 127.55384,68.262666 v 6.77722"
       id="path40" />
    <path
       style="fill:none;fill-opacity:0.959066;stroke:#8b008b;stroke-width:0.500003;stroke-dasharray:none;stroke-opacity:1"
       d="M 53.961012,99.369871 V 113.13165"
       id="path41" />
    <path
       style="fill:none;fill-opacity:0.959066;stroke:#8b008b;stroke-width:0.499998;stroke-dasharray:none;stroke-opacity:1"
       d="m 76.022832,100.96509 v 3.31337"
       id="path42" />
    <text
       xml:space="preserve"
       style="font-style:normal;font-variant:normal;font-weight:normal;font-stretch:normal;font-size:26.6592px;line-height:85%;font-family:sans-serif;font-variant-ligatures:normal;font-variant-position:normal;font-variant-caps:normal;font-variant-numeric:normal;font-variant-alternates:normal;font-variant-east-asian:normal;font-feature-settings:normal;font-variation-settings:normal;text-indent:0;text-align:start;text-decoration-line:none;text-decoration-style:solid;text-decoration-color:#000000;letter-spacing:normal;word-spacing:normal;text-transform:none;writing-mode:lr-tb;direction:ltr;text-orientation:mixed;dominant-baseline:auto;baseline-shift:baseline;text-anchor:start;white-space:normal;shape-padding:0;shape-margin:0;inline-size:0;opacity:1;vector-effect:none;fill:#8b008b;fill-opacity:1;stroke-width:0.999999;stroke-linecap:butt;stroke-linejoin:miter;stroke-miterlimit:4;stroke-dasharray:none;stroke-dashoffset:0;stroke-opacity:1;-inkscape-stroke:none;stop-color:#000000;stop-opacity:1"
       x="248.20602"
       y="524.25458"
       id="text43"
       transform="matrix(0.22377657,0,0,0.22377657,-3.457562,-43.737634)"><tspan
         sodipodi:role="line"
         x="248.20602"
         y="524.25458"
         style="font-style:normal;font-variant:normal;font-weight:normal;font-stretch:normal;font-size:26.6592px;line-height:85%;font-family:Calibri;-inkscape-font-specification:Calibri;fill:#8b008b;fill-opacity:1"
         id="tspan43">Senkrechte </tspan><tspan
         sodipodi:role="line"
         x="248.20602"
         y="547.6015"
         style="font-style:normal;font-variant:normal;font-weight:normal;font-stretch:normal;font-size:26.6592px;line-height:85%;font-family:Calibri;-inkscape-font-specification:Calibri;fill:#8b008b;fill-opacity:1"
         id="tspan44">Abstände</tspan></text>
    <text
       xml:space="preserve"
       style="font-style:normal;font-variant:normal;font-weight:normal;font-stretch:normal;font-size:26.6592px;line-height:90%;font-family:sans-serif;font-variant-ligatures:normal;font-variant-position:normal;font-variant-caps:normal;font-variant-numeric:normal;font-variant-alternates:normal;font-variant-east-asian:normal;font-feature-settings:normal;font-variation-settings:normal;text-indent:0;text-align:start;text-decoration-line:none;text-decoration-style:solid;text-decoration-color:#000000;letter-spacing:normal;word-spacing:normal;text-transform:none;writing-mode:lr-tb;direction:ltr;text-orientation:mixed;dominant-baseline:auto;baseline-shift:baseline;text-anchor:start;white-space:normal;shape-padding:0;shape-margin:0;inline-size:0;opacity:1;vector-effect:none;fill:#000000;fill-opacity:1;stroke-width:0.999999;stroke-linecap:butt;stroke-linejoin:miter;stroke-miterlimit:4;stroke-dasharray:none;stroke-dashoffset:0;stroke-opacity:1;-inkscape-stroke:none;stop-color:#000000;stop-opacity:1"
       x="248.20602"
       y="524.25458"
       id="text46"
       transform="matrix(0.22377657,0,0,0.22377657,-32.460447,6.528445)"><tspan
         sodipodi:role="line"
         x="248.20602"
         y="524.25458"
         style="font-style:normal;font-variant:normal;font-weight:normal;font-stretch:normal;font-size:26.6592px;font-family:Calibri;-inkscape-font-specification:Calibri"
         id="tspan46" /></text>
    <g
       transform="matrix(0.58161747,0,0,0.58161747,40.542711,114.46685)"
       ns2:version="1.9.0"
       ns2:texconverter="xelatex"
       ns2:pdfconverter="inkscape"
       ns2:text="$b_0$"
       ns2:preamble="/home/matteo/.config/inkscape/extensions/textext/default_packages.tex"
       ns2:scale="1.5"
       ns2:alignment="middle center"
       ns2:stroke-to-path="0"
       ns2:inkscapeversion="1.4-dev"
       ns2:jacobian_sqrt="0.529167"
       id="g49"
       style="stroke-width:0.90982">
      <defs
         id="id-bb77e0e0-025e-4f03-99d2-7a7504571ffb">
        <g
           id="id-9d61cebd-a7c2-44d0-aa93-4d6f431578f8">
          <symbol
             overflow="visible"
             id="id-36692165-8a2b-4970-b37a-ddc0698422f6">
            <path
               style="stroke:none;stroke-width:0"
               d=""
               id="id-7885c7a2-324b-4229-b148-e3b81d5c5319" />
          </symbol>
          <symbol
             overflow="visible"
             id="id-1a4674ed-f2b7-4949-9731-355b8b241c1b">
            <path
               style="stroke:none;stroke-width:0"
               d="m 2.375,-6.8125 c 0,0 0,-0.109375 -0.125,-0.109375 -0.21875,0 -0.953125,0.078125 -1.21875,0.109375 -0.078125,0 -0.1875,0.015625 -0.1875,0.1875 0,0.125 0.09375,0.125 0.25,0.125 0.46875,0 0.484375,0.0625 0.484375,0.171875 0,0.0625 -0.078125,0.40625 -0.125,0.609375 l -0.828125,3.25 c -0.109375,0.5 -0.15625,0.671875 -0.15625,1.015625 0,0.9375 0.53125,1.5625 1.265625,1.5625 1.171875,0 2.40625,-1.484375 2.40625,-2.921875 0,-0.90625 -0.53125,-1.59375 -1.328125,-1.59375 -0.453125,0 -0.875,0.296875 -1.171875,0.59375 z M 1.453125,-3.046875 C 1.5,-3.265625 1.5,-3.28125 1.59375,-3.390625 2.078125,-4.03125 2.53125,-4.1875 2.796875,-4.1875 c 0.359375,0 0.625,0.296875 0.625,0.9375 0,0.59375 -0.328125,1.734375 -0.515625,2.109375 -0.328125,0.671875 -0.78125,1.03125 -1.171875,1.03125 -0.34375,0 -0.671875,-0.265625 -0.671875,-1 0,-0.203125 0,-0.390625 0.15625,-1.015625 z m 0,0"
               id="id-51f8d6bd-5c86-4fdb-8a4c-95a14036c932" />
          </symbol>
          <symbol
             overflow="visible"
             id="id-53c7ca4a-45a4-40e3-beb8-2c029e79b007">
            <path
               style="stroke:none;stroke-width:0"
               d=""
               id="id-7ddc1845-e2b6-4464-8051-87f5c344cdac" />
          </symbol>
          <symbol
             overflow="visible"
             id="id-29dbdc2e-1d2b-4598-a083-5177a1d54048">
            <path
               style="stroke:none;stroke-width:0"
               d="M 3.59375,-2.21875 C 3.59375,-2.984375 3.5,-3.546875 3.1875,-4.03125 2.96875,-4.34375 2.53125,-4.625 1.984375,-4.625 c -1.625,0 -1.625,1.90625 -1.625,2.40625 0,0.5 0,2.359375 1.625,2.359375 1.609375,0 1.609375,-1.859375 1.609375,-2.359375 z M 1.984375,-0.0625 c -0.328125,0 -0.75,-0.1875 -0.890625,-0.75 C 1,-1.21875 1,-1.796875 1,-2.3125 1,-2.828125 1,-3.359375 1.09375,-3.734375 1.25,-4.28125 1.6875,-4.4375 1.984375,-4.4375 c 0.375,0 0.734375,0.234375 0.859375,0.640625 0.109375,0.375 0.125,0.875 0.125,1.484375 0,0.515625 0,1.03125 -0.09375,1.46875 -0.140625,0.640625 -0.609375,0.78125 -0.890625,0.78125 z m 0,0"
               id="id-f32105c6-02a8-4257-b9f8-37499d0e2f8b" />
          </symbol>
        </g>
      </defs>
      <g
         id="id-b8c126ab-8257-4100-9cc4-4c3c08f3a6a6"
         transform="translate(-149.181,-127.843)"
         style="stroke-width:0.90982">
        <g
           style="fill:#000000;fill-opacity:1;stroke-width:0.90982"
           id="id-84dc81d8-bf2a-430f-bb86-a92a1cbc3055">
          <g
             transform="translate(148.712,134.765)"
             id="g47"
             style="stroke-width:0.90982">
            <path
               style="stroke:none;stroke-width:0"
               d="m 2.375,-6.8125 c 0,0 0,-0.109375 -0.125,-0.109375 -0.21875,0 -0.953125,0.078125 -1.21875,0.109375 -0.078125,0 -0.1875,0.015625 -0.1875,0.1875 0,0.125 0.09375,0.125 0.25,0.125 0.46875,0 0.484375,0.0625 0.484375,0.171875 0,0.0625 -0.078125,0.40625 -0.125,0.609375 l -0.828125,3.25 c -0.109375,0.5 -0.15625,0.671875 -0.15625,1.015625 0,0.9375 0.53125,1.5625 1.265625,1.5625 1.171875,0 2.40625,-1.484375 2.40625,-2.921875 0,-0.90625 -0.53125,-1.59375 -1.328125,-1.59375 -0.453125,0 -0.875,0.296875 -1.171875,0.59375 z M 1.453125,-3.046875 C 1.5,-3.265625 1.5,-3.28125 1.59375,-3.390625 2.078125,-4.03125 2.53125,-4.1875 2.796875,-4.1875 c 0.359375,0 0.625,0.296875 0.625,0.9375 0,0.59375 -0.328125,1.734375 -0.515625,2.109375 -0.328125,0.671875 -0.78125,1.03125 -1.171875,1.03125 -0.34375,0 -0.671875,-0.265625 -0.671875,-1 0,-0.203125 0,-0.390625 0.15625,-1.015625 z m 0,0"
               id="id-3c54af1e-7694-4589-b899-b822cb85c504" />
          </g>
        </g>
        <g
           style="fill:#000000;fill-opacity:1;stroke-width:0.90982"
           id="id-0e5a4850-74f4-415a-89ae-06a2c1799608">
          <g
             transform="translate(152.988,136.259)"
             id="g48"
             style="stroke-width:0.90982">
            <path
               style="stroke:none;stroke-width:0"
               d="M 3.59375,-2.21875 C 3.59375,-2.984375 3.5,-3.546875 3.1875,-4.03125 2.96875,-4.34375 2.53125,-4.625 1.984375,-4.625 c -1.625,0 -1.625,1.90625 -1.625,2.40625 0,0.5 0,2.359375 1.625,2.359375 1.609375,0 1.609375,-1.859375 1.609375,-2.359375 z M 1.984375,-0.0625 c -0.328125,0 -0.75,-0.1875 -0.890625,-0.75 C 1,-1.21875 1,-1.796875 1,-2.3125 1,-2.828125 1,-3.359375 1.09375,-3.734375 1.25,-4.28125 1.6875,-4.4375 1.984375,-4.4375 c 0.375,0 0.734375,0.234375 0.859375,0.640625 0.109375,0.375 0.125,0.875 0.125,1.484375 0,0.515625 0,1.03125 -0.09375,1.46875 -0.140625,0.640625 -0.609375,0.78125 -0.890625,0.78125 z m 0,0"
               id="id-b61bc0c5-1179-43ad-9569-4172c0974a16" />
          </g>
        </g>
      </g>
    </g>
    <g
       transform="matrix(0.581617,0,0,0.581617,57.403145,112.17833)"
       ns2:version="1.9.0"
       ns2:texconverter="xelatex"
       ns2:pdfconverter="inkscape"
       ns2:text="$b_1$"
       ns2:preamble="/home/matteo/.config/inkscape/extensions/textext/default_packages.tex"
       ns2:scale="1.6486784039821076"
       ns2:alignment="middle center"
       ns2:stroke-to-path="0"
       ns2:inkscapeversion="1.4-dev"
       ns2:jacobian_sqrt="0.581617"
       style="stroke-width:0"
       id="g60">
      <defs
         id="id-3330ec9d-9b44-4610-80ce-0baddb4d6522"
         style="stroke-width:0">
        <g
           id="id-8a6ebad6-0d1c-4857-9dc9-c54efd7b7780"
           style="stroke-width:0">
          <symbol
             overflow="visible"
             id="id-56d12fc6-7772-4d4e-a53a-49048091223f"
             style="stroke-width:0">
            <path
               style="stroke:none;stroke-width:0"
               d=""
               id="id-1c8f9db7-4879-4775-8ee5-7bc6b9366f1a" />
          </symbol>
          <symbol
             overflow="visible"
             id="id-53061a4e-f124-4d87-8452-99b3650bc0b7"
             style="stroke-width:0">
            <path
               style="stroke:none;stroke-width:0"
               d="m 2.375,-6.8125 c 0,0 0,-0.109375 -0.125,-0.109375 -0.21875,0 -0.953125,0.078125 -1.21875,0.109375 -0.078125,0 -0.1875,0.015625 -0.1875,0.1875 0,0.125 0.09375,0.125 0.25,0.125 0.46875,0 0.484375,0.0625 0.484375,0.171875 0,0.0625 -0.078125,0.40625 -0.125,0.609375 l -0.828125,3.25 c -0.109375,0.5 -0.15625,0.671875 -0.15625,1.015625 0,0.9375 0.53125,1.5625 1.265625,1.5625 1.171875,0 2.40625,-1.484375 2.40625,-2.921875 0,-0.90625 -0.53125,-1.59375 -1.328125,-1.59375 -0.453125,0 -0.875,0.296875 -1.171875,0.59375 z M 1.453125,-3.046875 C 1.5,-3.265625 1.5,-3.28125 1.59375,-3.390625 2.078125,-4.03125 2.53125,-4.1875 2.796875,-4.1875 c 0.359375,0 0.625,0.296875 0.625,0.9375 0,0.59375 -0.328125,1.734375 -0.515625,2.109375 -0.328125,0.671875 -0.78125,1.03125 -1.171875,1.03125 -0.34375,0 -0.671875,-0.265625 -0.671875,-1 0,-0.203125 0,-0.390625 0.15625,-1.015625 z m 0,0"
               id="id-0cc2e0fb-486d-497c-b2ea-4db331507256" />
          </symbol>
          <symbol
             overflow="visible"
             id="id-7520e031-c9ea-46af-8e9c-df666bb941ff"
             style="stroke-width:0">
            <path
               style="stroke:none;stroke-width:0"
               d=""
               id="id-81bf0e75-e937-42ad-a7f0-aae3a4e21c85" />
          </symbol>
          <symbol
             overflow="visible"
             id="id-758e70c4-c414-4dfa-8cf5-3623c82aa3a9"
             style="stroke-width:0">
            <path
               style="stroke:none;stroke-width:0"
               d="m 2.328125,-4.4375 c 0,-0.1875 0,-0.1875 -0.203125,-0.1875 -0.453125,0.4375 -1.078125,0.4375 -1.359375,0.4375 v 0.25 c 0.15625,0 0.625,0 1,-0.1875 v 3.546875 c 0,0.234375 0,0.328125 -0.6875,0.328125 H 0.8125 V 0 c 0.125,0 0.984375,-0.03125 1.234375,-0.03125 0.21875,0 1.09375,0.03125 1.25,0.03125 V -0.25 H 3.03125 c -0.703125,0 -0.703125,-0.09375 -0.703125,-0.328125 z m 0,0"
               id="id-efa27b3a-3eb0-4f72-8d48-a015dfbf152a" />
          </symbol>
        </g>
      </defs>
      <g
         id="id-7cf60dcc-dbdd-43d4-8ada-85e8a1c3f75d"
         transform="translate(-149.181,-127.843)"
         style="stroke-width:0">
        <g
           style="fill:#000000;fill-opacity:1;stroke-width:0"
           id="id-b8d214a6-8a22-4df8-8c62-8eff383d0ed5">
          <g
             transform="translate(148.712,134.765)"
             style="stroke-width:0"
             id="g58">
            <path
               style="stroke:none;stroke-width:0"
               d="m 2.375,-6.8125 c 0,0 0,-0.109375 -0.125,-0.109375 -0.21875,0 -0.953125,0.078125 -1.21875,0.109375 -0.078125,0 -0.1875,0.015625 -0.1875,0.1875 0,0.125 0.09375,0.125 0.25,0.125 0.46875,0 0.484375,0.0625 0.484375,0.171875 0,0.0625 -0.078125,0.40625 -0.125,0.609375 l -0.828125,3.25 c -0.109375,0.5 -0.15625,0.671875 -0.15625,1.015625 0,0.9375 0.53125,1.5625 1.265625,1.5625 1.171875,0 2.40625,-1.484375 2.40625,-2.921875 0,-0.90625 -0.53125,-1.59375 -1.328125,-1.59375 -0.453125,0 -0.875,0.296875 -1.171875,0.59375 z M 1.453125,-3.046875 C 1.5,-3.265625 1.5,-3.28125 1.59375,-3.390625 2.078125,-4.03125 2.53125,-4.1875 2.796875,-4.1875 c 0.359375,0 0.625,0.296875 0.625,0.9375 0,0.59375 -0.328125,1.734375 -0.515625,2.109375 -0.328125,0.671875 -0.78125,1.03125 -1.171875,1.03125 -0.34375,0 -0.671875,-0.265625 -0.671875,-1 0,-0.203125 0,-0.390625 0.15625,-1.015625 z m 0,0"
               id="id-f6d2f6fb-83aa-42c1-b911-d018536e466d" />
          </g>
        </g>
        <g
           style="fill:#000000;fill-opacity:1;stroke-width:0"
           id="id-13efe896-cc12-437a-b822-dc4a39d7550c">
          <g
             transform="translate(152.988,136.259)"
             style="stroke-width:0"
             id="g59">
            <path
               style="stroke:none;stroke-width:0"
               d="m 2.328125,-4.4375 c 0,-0.1875 0,-0.1875 -0.203125,-0.1875 -0.453125,0.4375 -1.078125,0.4375 -1.359375,0.4375 v 0.25 c 0.15625,0 0.625,0 1,-0.1875 v 3.546875 c 0,0.234375 0,0.328125 -0.6875,0.328125 H 0.8125 V 0 c 0.125,0 0.984375,-0.03125 1.234375,-0.03125 0.21875,0 1.09375,0.03125 1.25,0.03125 V -0.25 H 3.03125 c -0.703125,0 -0.703125,-0.09375 -0.703125,-0.328125 z m 0,0"
               id="id-0c221cd5-4d62-401f-9dae-40ffe143f969" />
          </g>
        </g>
      </g>
    </g>
    <path
       style="fill:none;fill-opacity:0.959066;stroke:#b10000;stroke-width:0.500001;stroke-dasharray:0.500001, 0.500001;stroke-dashoffset:0;stroke-opacity:1"
       d="m 48.211245,117.9663 h 14.85407"
       id="path60" />
    <g
       transform="matrix(0.34956177,0,0,0.34956177,54.044415,119.3291)"
       ns2:version="1.9.0"
       ns2:texconverter="xelatex"
       ns2:pdfconverter="inkscape"
       ns2:text="Steigung"
       ns2:preamble="/home/matteo/.config/inkscape/extensions/textext/default_packages.tex"
       ns2:scale="1.6486784039821076"
       ns2:alignment="middle center"
       ns2:stroke-to-path="0"
       ns2:inkscapeversion="1.4-dev"
       ns2:jacobian_sqrt="0.581617"
       id="g69"
       style="stroke-width:1.66385">
      <defs
         id="id-4236bc58-9283-4ec9-8d47-2e0639d625bd">
        <g
           id="id-572f3dee-5ee5-44e4-8f67-88bd811e0a4a">
          <symbol
             overflow="visible"
             id="id-e6d41c3b-b998-447f-b480-d6035e3f576d">
            <path
               style="stroke:none;stroke-width:0"
               d=""
               id="id-0caf0e3c-9536-4af4-9d8c-50a15b3aaa37" />
          </symbol>
          <symbol
             overflow="visible"
             id="id-1da3f21e-bb98-4e6b-8948-7f01427e598f">
            <path
               style="stroke:none;stroke-width:0"
               d="m 4.96875,-1.859375 c 0,-0.984375 -0.65625,-1.8125 -1.484375,-2.015625 l -1.28125,-0.296875 c -0.625,-0.15625 -1,-0.6875 -1,-1.265625 0,-0.703125 0.53125,-1.3125 1.3125,-1.3125 1.65625,0 1.875,1.640625 1.9375,2.078125 0.015625,0.0625 0.015625,0.125 0.125,0.125 0.125,0 0.125,-0.046875 0.125,-0.234375 v -2 c 0,-0.171875 0,-0.25 -0.109375,-0.25 -0.0625,0 -0.078125,0.015625 -0.140625,0.140625 l -0.359375,0.5625 C 3.796875,-6.625 3.390625,-7.03125 2.5,-7.03125 c -1.109375,0 -1.9375,0.875 -1.9375,1.9375 0,0.828125 0.53125,1.5625 1.296875,1.828125 0.109375,0.03125 0.625,0.15625 1.328125,0.328125 0.265625,0.0625 0.5625,0.140625 0.84375,0.5 0.203125,0.265625 0.3125,0.59375 0.3125,0.921875 0,0.703125 -0.5,1.421875 -1.34375,1.421875 -0.28125,0 -1.046875,-0.046875 -1.578125,-0.53125 C 0.84375,-1.171875 0.8125,-1.796875 0.8125,-2.15625 0.796875,-2.265625 0.71875,-2.265625 0.6875,-2.265625 c -0.125,0 -0.125,0.078125 -0.125,0.25 v 2 c 0,0.171875 0,0.234375 0.109375,0.234375 0.0625,0 0.078125,-0.015625 0.140625,-0.125 0,0 0.03125,-0.046875 0.359375,-0.578125 0.3125,0.34375 0.953125,0.703125 1.84375,0.703125 1.15625,0 1.953125,-0.96875 1.953125,-2.078125 z m 0,0"
               id="id-6009923f-56f5-40e6-9fc9-abc3924d856a" />
          </symbol>
          <symbol
             overflow="visible"
             id="id-10b7d9ca-3469-4976-aef8-ba904b1cc60a">
            <path
               style="stroke:none;stroke-width:0"
               d="m 3.3125,-1.234375 v -0.5625 h -0.25 V -1.25 c 0,0.734375 -0.296875,1.109375 -0.671875,1.109375 -0.671875,0 -0.671875,-0.90625 -0.671875,-1.078125 v -2.765625 h 1.4375 v -0.3125 H 1.71875 V -6.125 h -0.25 c 0,0.8125 -0.296875,1.875 -1.28125,1.921875 v 0.21875 h 0.84375 v 2.75 c 0,1.21875 0.9375,1.34375 1.296875,1.34375 0.703125,0 0.984375,-0.703125 0.984375,-1.34375 z m 0,0"
               id="id-b9590281-14f8-4a7c-ae76-0f97b03912ff" />
          </symbol>
          <symbol
             overflow="visible"
             id="id-fd56ddca-ea39-4856-88da-d4bcd1931d6d">
            <path
               style="stroke:none;stroke-width:0"
               d="m 4.140625,-1.1875 c 0,-0.09375 -0.078125,-0.125 -0.140625,-0.125 -0.078125,0 -0.109375,0.0625 -0.125,0.140625 -0.34375,1.03125 -1.25,1.03125 -1.34375,1.03125 -0.5,0 -0.890625,-0.296875 -1.125,-0.671875 -0.296875,-0.46875 -0.296875,-1.125 -0.296875,-1.484375 h 2.78125 c 0.21875,0 0.25,0 0.25,-0.21875 0,-0.984375 -0.546875,-1.953125 -1.78125,-1.953125 -1.15625,0 -2.078125,1.03125 -2.078125,2.28125 0,1.328125 1.046875,2.296875 2.1875,2.296875 C 3.6875,0.109375 4.140625,-1 4.140625,-1.1875 Z m -0.65625,-1.328125 h -2.375 C 1.171875,-4 2.015625,-4.25 2.359375,-4.25 c 1.015625,0 1.125,1.34375 1.125,1.734375 z m 0,0"
               id="id-52f338a0-0907-4796-bb72-d6588659e333" />
          </symbol>
          <symbol
             overflow="visible"
             id="id-a8871ed8-ddf3-4a32-8de4-624face049d0">
            <path
               style="stroke:none;stroke-width:0"
               d="m 2.46875,0 v -0.3125 c -0.671875,0 -0.703125,-0.046875 -0.703125,-0.4375 V -4.40625 L 0.375,-4.296875 v 0.3125 c 0.640625,0 0.734375,0.0625 0.734375,0.546875 V -0.75 c 0,0.4375 -0.109375,0.4375 -0.78125,0.4375 V 0 l 1.09375,-0.03125 C 1.78125,-0.03125 2.125,-0.015625 2.46875,0 Z m -0.5625,-6.015625 c 0,-0.28125 -0.21875,-0.53125 -0.515625,-0.53125 -0.34375,0 -0.546875,0.28125 -0.546875,0.53125 C 0.84375,-5.75 1.078125,-5.5 1.375,-5.5 c 0.34375,0 0.53125,-0.265625 0.53125,-0.515625 z m 0,0"
               id="id-868c7b79-979f-4635-827f-8c313dda782c" />
          </symbol>
          <symbol
             overflow="visible"
             id="id-2ff64287-43cc-43c5-92b0-400e15dadb7f">
            <path
               style="stroke:none;stroke-width:0"
               d="m 4.828125,-4.03125 c 0,-0.171875 -0.109375,-0.484375 -0.5,-0.484375 -0.203125,0 -0.640625,0.0625 -1.0625,0.46875 C 2.84375,-4.375 2.4375,-4.40625 2.21875,-4.40625 c -0.9375,0 -1.625,0.6875 -1.625,1.453125 0,0.4375 0.21875,0.8125 0.46875,1.03125 -0.125,0.140625 -0.3125,0.46875 -0.3125,0.828125 0,0.3125 0.140625,0.6875 0.453125,0.890625 -0.609375,0.15625 -0.921875,0.59375 -0.921875,0.984375 0,0.71875 0.984375,1.265625 2.203125,1.265625 1.171875,0 2.203125,-0.5 2.203125,-1.28125 0,-0.34375 -0.125,-0.859375 -0.640625,-1.140625 -0.53125,-0.265625 -1.109375,-0.265625 -1.71875,-0.265625 -0.25,0 -0.671875,0 -0.75,-0.015625 C 1.265625,-0.703125 1.0625,-1 1.0625,-1.328125 c 0,-0.03125 0,-0.265625 0.15625,-0.46875 0.390625,0.28125 0.8125,0.3125 1,0.3125 0.921875,0 1.609375,-0.6875 1.609375,-1.453125 0,-0.375 -0.15625,-0.734375 -0.40625,-0.96875 C 3.78125,-4.25 4.140625,-4.296875 4.3125,-4.296875 c 0,0 0.078125,0 0.109375,0.015625 C 4.3125,-4.25 4.25,-4.140625 4.25,-4.015625 c 0,0.171875 0.140625,0.28125 0.296875,0.28125 0.09375,0 0.28125,-0.0625 0.28125,-0.296875 z m -1.75,1.078125 c 0,0.265625 0,0.59375 -0.15625,0.84375 C 2.84375,-2 2.609375,-1.71875 2.21875,-1.71875 c -0.875,0 -0.875,-1 -0.875,-1.21875 0,-0.265625 0.015625,-0.59375 0.15625,-0.84375 0.078125,-0.109375 0.3125,-0.390625 0.71875,-0.390625 0.859375,0 0.859375,0.984375 0.859375,1.21875 z m 1.09375,3.734375 c 0,0.546875 -0.703125,1.046875 -1.671875,1.046875 -1.015625,0 -1.703125,-0.515625 -1.703125,-1.046875 0,-0.453125 0.375,-0.828125 0.8125,-0.84375 h 0.59375 c 0.859375,0 1.96875,0 1.96875,0.84375 z m 0,0"
               id="id-b2963aa1-b2a5-488e-810b-f11a97632218" />
          </symbol>
          <symbol
             overflow="visible"
             id="id-cc36c082-9157-4d6f-84d4-82a5c1442e1f">
            <path
               style="stroke:none;stroke-width:0"
               d="M 5.328125,0 V -0.3125 C 4.640625,-0.3125 4.5625,-0.375 4.5625,-0.875 v -3.53125 l -1.46875,0.109375 v 0.3125 c 0.6875,0 0.78125,0.0625 0.78125,0.5625 v 1.765625 c 0,0.875 -0.484375,1.546875 -1.21875,1.546875 -0.828125,0 -0.875,-0.46875 -0.875,-0.984375 v -3.3125 L 0.3125,-4.296875 v 0.3125 c 0.78125,0 0.78125,0.03125 0.78125,0.90625 v 1.5 c 0,0.78125 0,1.6875 1.515625,1.6875 0.5625,0 1,-0.28125 1.28125,-0.890625 v 0.890625 z m 0,0"
               id="id-5807f3d0-d1db-4813-bfaf-9507a25f19e0" />
          </symbol>
          <symbol
             overflow="visible"
             id="id-afde76b3-1a09-4281-856f-bc339d2c57e9">
            <path
               style="stroke:none;stroke-width:0"
               d="m 5.328125,0 v -0.3125 c -0.515625,0 -0.765625,0 -0.765625,-0.296875 v -1.90625 c 0,-0.859375 0,-1.15625 -0.3125,-1.515625 -0.140625,-0.171875 -0.46875,-0.375 -1.046875,-0.375 C 2.46875,-4.40625 2,-3.984375 1.71875,-3.359375 V -4.40625 L 0.3125,-4.296875 v 0.3125 c 0.703125,0 0.78125,0.0625 0.78125,0.5625 V -0.75 c 0,0.4375 -0.109375,0.4375 -0.78125,0.4375 V 0 L 1.453125,-0.03125 2.5625,0 v -0.3125 c -0.671875,0 -0.78125,0 -0.78125,-0.4375 V -2.59375 C 1.78125,-3.625 2.5,-4.1875 3.125,-4.1875 c 0.640625,0 0.75,0.53125 0.75,1.109375 V -0.75 c 0,0.4375 -0.109375,0.4375 -0.78125,0.4375 V 0 l 1.125,-0.03125 z m 0,0"
               id="id-95447230-a3f4-4fbc-8ab2-ad1fa84cd26a" />
          </symbol>
        </g>
      </defs>
      <g
         id="id-acb0cec7-6601-412d-87a8-730b4366b995"
         transform="translate(-149.275,-127.734)"
         style="stroke-width:1.66385">
        <g
           style="fill:#000000;fill-opacity:1;stroke-width:1.66385"
           id="id-761700a4-6d27-4cc0-8778-ab523533f8d8">
          <g
             transform="translate(148.712,134.765)"
             id="g61"
             style="stroke-width:1.66385">
            <path
               style="stroke:none;stroke-width:0"
               d="m 4.96875,-1.859375 c 0,-0.984375 -0.65625,-1.8125 -1.484375,-2.015625 l -1.28125,-0.296875 c -0.625,-0.15625 -1,-0.6875 -1,-1.265625 0,-0.703125 0.53125,-1.3125 1.3125,-1.3125 1.65625,0 1.875,1.640625 1.9375,2.078125 0.015625,0.0625 0.015625,0.125 0.125,0.125 0.125,0 0.125,-0.046875 0.125,-0.234375 v -2 c 0,-0.171875 0,-0.25 -0.109375,-0.25 -0.0625,0 -0.078125,0.015625 -0.140625,0.140625 l -0.359375,0.5625 C 3.796875,-6.625 3.390625,-7.03125 2.5,-7.03125 c -1.109375,0 -1.9375,0.875 -1.9375,1.9375 0,0.828125 0.53125,1.5625 1.296875,1.828125 0.109375,0.03125 0.625,0.15625 1.328125,0.328125 0.265625,0.0625 0.5625,0.140625 0.84375,0.5 0.203125,0.265625 0.3125,0.59375 0.3125,0.921875 0,0.703125 -0.5,1.421875 -1.34375,1.421875 -0.28125,0 -1.046875,-0.046875 -1.578125,-0.53125 C 0.84375,-1.171875 0.8125,-1.796875 0.8125,-2.15625 0.796875,-2.265625 0.71875,-2.265625 0.6875,-2.265625 c -0.125,0 -0.125,0.078125 -0.125,0.25 v 2 c 0,0.171875 0,0.234375 0.109375,0.234375 0.0625,0 0.078125,-0.015625 0.140625,-0.125 0,0 0.03125,-0.046875 0.359375,-0.578125 0.3125,0.34375 0.953125,0.703125 1.84375,0.703125 1.15625,0 1.953125,-0.96875 1.953125,-2.078125 z m 0,0"
               id="id-7a091587-c938-451a-a03f-23f8be5637c7" />
          </g>
          <g
             transform="translate(154.251,134.765)"
             id="g62"
             style="stroke-width:1.66385">
            <path
               style="stroke:none;stroke-width:0"
               d="m 3.3125,-1.234375 v -0.5625 h -0.25 V -1.25 c 0,0.734375 -0.296875,1.109375 -0.671875,1.109375 -0.671875,0 -0.671875,-0.90625 -0.671875,-1.078125 v -2.765625 h 1.4375 v -0.3125 H 1.71875 V -6.125 h -0.25 c 0,0.8125 -0.296875,1.875 -1.28125,1.921875 v 0.21875 h 0.84375 v 2.75 c 0,1.21875 0.9375,1.34375 1.296875,1.34375 0.703125,0 0.984375,-0.703125 0.984375,-1.34375 z m 0,0"
               id="id-6a7f74c5-04a2-4ca3-acc8-fe4af8e5f92b" />
          </g>
          <g
             transform="translate(158.127,134.765)"
             id="g63"
             style="stroke-width:1.66385">
            <path
               style="stroke:none;stroke-width:0"
               d="m 4.140625,-1.1875 c 0,-0.09375 -0.078125,-0.125 -0.140625,-0.125 -0.078125,0 -0.109375,0.0625 -0.125,0.140625 -0.34375,1.03125 -1.25,1.03125 -1.34375,1.03125 -0.5,0 -0.890625,-0.296875 -1.125,-0.671875 -0.296875,-0.46875 -0.296875,-1.125 -0.296875,-1.484375 h 2.78125 c 0.21875,0 0.25,0 0.25,-0.21875 0,-0.984375 -0.546875,-1.953125 -1.78125,-1.953125 -1.15625,0 -2.078125,1.03125 -2.078125,2.28125 0,1.328125 1.046875,2.296875 2.1875,2.296875 C 3.6875,0.109375 4.140625,-1 4.140625,-1.1875 Z m -0.65625,-1.328125 h -2.375 C 1.171875,-4 2.015625,-4.25 2.359375,-4.25 c 1.015625,0 1.125,1.34375 1.125,1.734375 z m 0,0"
               id="id-7c3c2b1c-0f85-4819-a97f-c07aa9f33a54" />
          </g>
          <g
             transform="translate(162.55,134.765)"
             id="g64"
             style="stroke-width:1.66385">
            <path
               style="stroke:none;stroke-width:0"
               d="m 2.46875,0 v -0.3125 c -0.671875,0 -0.703125,-0.046875 -0.703125,-0.4375 V -4.40625 L 0.375,-4.296875 v 0.3125 c 0.640625,0 0.734375,0.0625 0.734375,0.546875 V -0.75 c 0,0.4375 -0.109375,0.4375 -0.78125,0.4375 V 0 l 1.09375,-0.03125 C 1.78125,-0.03125 2.125,-0.015625 2.46875,0 Z m -0.5625,-6.015625 c 0,-0.28125 -0.21875,-0.53125 -0.515625,-0.53125 -0.34375,0 -0.546875,0.28125 -0.546875,0.53125 C 0.84375,-5.75 1.078125,-5.5 1.375,-5.5 c 0.34375,0 0.53125,-0.265625 0.53125,-0.515625 z m 0,0"
               id="id-a24d5835-0e43-42a9-b3ed-f55dbea8a295" />
          </g>
          <g
             transform="translate(165.32,134.765)"
             id="g65"
             style="stroke-width:1.66385">
            <path
               style="stroke:none;stroke-width:0"
               d="m 4.828125,-4.03125 c 0,-0.171875 -0.109375,-0.484375 -0.5,-0.484375 -0.203125,0 -0.640625,0.0625 -1.0625,0.46875 C 2.84375,-4.375 2.4375,-4.40625 2.21875,-4.40625 c -0.9375,0 -1.625,0.6875 -1.625,1.453125 0,0.4375 0.21875,0.8125 0.46875,1.03125 -0.125,0.140625 -0.3125,0.46875 -0.3125,0.828125 0,0.3125 0.140625,0.6875 0.453125,0.890625 -0.609375,0.15625 -0.921875,0.59375 -0.921875,0.984375 0,0.71875 0.984375,1.265625 2.203125,1.265625 1.171875,0 2.203125,-0.5 2.203125,-1.28125 0,-0.34375 -0.125,-0.859375 -0.640625,-1.140625 -0.53125,-0.265625 -1.109375,-0.265625 -1.71875,-0.265625 -0.25,0 -0.671875,0 -0.75,-0.015625 C 1.265625,-0.703125 1.0625,-1 1.0625,-1.328125 c 0,-0.03125 0,-0.265625 0.15625,-0.46875 0.390625,0.28125 0.8125,0.3125 1,0.3125 0.921875,0 1.609375,-0.6875 1.609375,-1.453125 0,-0.375 -0.15625,-0.734375 -0.40625,-0.96875 C 3.78125,-4.25 4.140625,-4.296875 4.3125,-4.296875 c 0,0 0.078125,0 0.109375,0.015625 C 4.3125,-4.25 4.25,-4.140625 4.25,-4.015625 c 0,0.171875 0.140625,0.28125 0.296875,0.28125 0.09375,0 0.28125,-0.0625 0.28125,-0.296875 z m -1.75,1.078125 c 0,0.265625 0,0.59375 -0.15625,0.84375 C 2.84375,-2 2.609375,-1.71875 2.21875,-1.71875 c -0.875,0 -0.875,-1 -0.875,-1.21875 0,-0.265625 0.015625,-0.59375 0.15625,-0.84375 0.078125,-0.109375 0.3125,-0.390625 0.71875,-0.390625 0.859375,0 0.859375,0.984375 0.859375,1.21875 z m 1.09375,3.734375 c 0,0.546875 -0.703125,1.046875 -1.671875,1.046875 -1.015625,0 -1.703125,-0.515625 -1.703125,-1.046875 0,-0.453125 0.375,-0.828125 0.8125,-0.84375 h 0.59375 c 0.859375,0 1.96875,0 1.96875,0.84375 z m 0,0"
               id="id-f6e381c1-3b9a-4c56-862f-a12f71dfcf8c" />
          </g>
          <g
             transform="translate(170.301,134.765)"
             id="g66"
             style="stroke-width:1.66385">
            <path
               style="stroke:none;stroke-width:0"
               d="M 5.328125,0 V -0.3125 C 4.640625,-0.3125 4.5625,-0.375 4.5625,-0.875 v -3.53125 l -1.46875,0.109375 v 0.3125 c 0.6875,0 0.78125,0.0625 0.78125,0.5625 v 1.765625 c 0,0.875 -0.484375,1.546875 -1.21875,1.546875 -0.828125,0 -0.875,-0.46875 -0.875,-0.984375 v -3.3125 L 0.3125,-4.296875 v 0.3125 c 0.78125,0 0.78125,0.03125 0.78125,0.90625 v 1.5 c 0,0.78125 0,1.6875 1.515625,1.6875 0.5625,0 1,-0.28125 1.28125,-0.890625 v 0.890625 z m 0,0"
               id="id-dc70c3d3-9ebd-45ae-bcb0-2a23d13e36fd" />
          </g>
          <g
             transform="translate(175.84,134.765)"
             id="g67"
             style="stroke-width:1.66385">
            <path
               style="stroke:none;stroke-width:0"
               d="m 5.328125,0 v -0.3125 c -0.515625,0 -0.765625,0 -0.765625,-0.296875 v -1.90625 c 0,-0.859375 0,-1.15625 -0.3125,-1.515625 -0.140625,-0.171875 -0.46875,-0.375 -1.046875,-0.375 C 2.46875,-4.40625 2,-3.984375 1.71875,-3.359375 V -4.40625 L 0.3125,-4.296875 v 0.3125 c 0.703125,0 0.78125,0.0625 0.78125,0.5625 V -0.75 c 0,0.4375 -0.109375,0.4375 -0.78125,0.4375 V 0 L 1.453125,-0.03125 2.5625,0 v -0.3125 c -0.671875,0 -0.78125,0 -0.78125,-0.4375 V -2.59375 C 1.78125,-3.625 2.5,-4.1875 3.125,-4.1875 c 0.640625,0 0.75,0.53125 0.75,1.109375 V -0.75 c 0,0.4375 -0.109375,0.4375 -0.78125,0.4375 V 0 l 1.125,-0.03125 z m 0,0"
               id="id-40d95013-5b15-4cf4-829b-b9dd090927ee" />
          </g>
          <g
             transform="translate(181.379,134.765)"
             id="g68"
             style="stroke-width:1.66385">
            <path
               style="stroke:none;stroke-width:0"
               d="m 4.828125,-4.03125 c 0,-0.171875 -0.109375,-0.484375 -0.5,-0.484375 -0.203125,0 -0.640625,0.0625 -1.0625,0.46875 C 2.84375,-4.375 2.4375,-4.40625 2.21875,-4.40625 c -0.9375,0 -1.625,0.6875 -1.625,1.453125 0,0.4375 0.21875,0.8125 0.46875,1.03125 -0.125,0.140625 -0.3125,0.46875 -0.3125,0.828125 0,0.3125 0.140625,0.6875 0.453125,0.890625 -0.609375,0.15625 -0.921875,0.59375 -0.921875,0.984375 0,0.71875 0.984375,1.265625 2.203125,1.265625 1.171875,0 2.203125,-0.5 2.203125,-1.28125 0,-0.34375 -0.125,-0.859375 -0.640625,-1.140625 -0.53125,-0.265625 -1.109375,-0.265625 -1.71875,-0.265625 -0.25,0 -0.671875,0 -0.75,-0.015625 C 1.265625,-0.703125 1.0625,-1 1.0625,-1.328125 c 0,-0.03125 0,-0.265625 0.15625,-0.46875 0.390625,0.28125 0.8125,0.3125 1,0.3125 0.921875,0 1.609375,-0.6875 1.609375,-1.453125 0,-0.375 -0.15625,-0.734375 -0.40625,-0.96875 C 3.78125,-4.25 4.140625,-4.296875 4.3125,-4.296875 c 0,0 0.078125,0 0.109375,0.015625 C 4.3125,-4.25 4.25,-4.140625 4.25,-4.015625 c 0,0.171875 0.140625,0.28125 0.296875,0.28125 0.09375,0 0.28125,-0.0625 0.28125,-0.296875 z m -1.75,1.078125 c 0,0.265625 0,0.59375 -0.15625,0.84375 C 2.84375,-2 2.609375,-1.71875 2.21875,-1.71875 c -0.875,0 -0.875,-1 -0.875,-1.21875 0,-0.265625 0.015625,-0.59375 0.15625,-0.84375 0.078125,-0.109375 0.3125,-0.390625 0.71875,-0.390625 0.859375,0 0.859375,0.984375 0.859375,1.21875 z m 1.09375,3.734375 c 0,0.546875 -0.703125,1.046875 -1.671875,1.046875 -1.015625,0 -1.703125,-0.515625 -1.703125,-1.046875 0,-0.453125 0.375,-0.828125 0.8125,-0.84375 h 0.59375 c 0.859375,0 1.96875,0 1.96875,0.84375 z m 0,0"
               id="id-b4442997-d0a3-4c2b-889a-264ad9e277f7" />
          </g>
        </g>
      </g>
    </g>
    <g
       transform="matrix(0.349562,0,0,0.349562,31.626777,120.67129)"
       ns2:version="1.9.0"
       ns2:texconverter="xelatex"
       ns2:pdfconverter="inkscape"
       ns2:text="y-Achsen-"
       ns2:preamble="/home/matteo/.config/inkscape/extensions/textext/default_packages.tex"
       ns2:scale="0.9908839340266198"
       ns2:alignment="middle center"
       ns2:stroke-to-path="0"
       ns2:inkscapeversion="1.4-dev"
       ns2:jacobian_sqrt="0.349562"
       style="stroke-width:0"
       id="g105">
      <defs
         id="id-470be101-c40e-4f4d-80a9-6e239fc42511"
         style="stroke-width:0">
        <g
           id="id-48863429-7827-42db-8f9c-3016fe5a5790"
           style="stroke-width:0">
          <symbol
             overflow="visible"
             id="id-212a971b-0395-43f6-a8fe-890a383a4823"
             style="stroke-width:0">
            <path
               style="stroke:none;stroke-width:0"
               d=""
               id="id-afb31986-b99d-473f-bb90-0b8ed1c18366" />
          </symbol>
          <symbol
             overflow="visible"
             id="id-0ef7450f-7b4e-48c6-a6c0-d200434da0c7"
             style="stroke-width:0">
            <path
               style="stroke:none;stroke-width:0"
               d="m 5.0625,-3.984375 v -0.3125 c -0.234375,0.015625 -0.515625,0.03125 -0.75,0.03125 l -0.859375,-0.03125 v 0.3125 c 0.3125,0 0.46875,0.171875 0.46875,0.421875 0,0.109375 -0.015625,0.125 -0.0625,0.25 L 2.84375,-0.875 1.75,-3.546875 C 1.703125,-3.65625 1.6875,-3.6875 1.6875,-3.734375 c 0,-0.25 0.359375,-0.25 0.5625,-0.25 v -0.3125 l -1.09375,0.03125 c -0.265625,0 -0.671875,-0.015625 -0.96875,-0.03125 v 0.3125 c 0.484375,0 0.671875,0 0.8125,0.34375 L 2.5,0 2.25,0.59375 c -0.21875,0.546875 -0.5,1.234375 -1.140625,1.234375 -0.046875,0 -0.28125,0 -0.46875,-0.1875 0.3125,-0.03125 0.390625,-0.25 0.390625,-0.421875 0,-0.25 -0.1875,-0.40625 -0.421875,-0.40625 -0.203125,0 -0.421875,0.125 -0.421875,0.421875 0,0.453125 0.421875,0.8125 0.921875,0.8125 0.625,0 1.03125,-0.578125 1.265625,-1.140625 l 1.765625,-4.25 c 0.25,-0.640625 0.765625,-0.640625 0.921875,-0.640625 z m 0,0"
               id="id-28bbd75a-c6f9-46f1-a4c9-fac073d41ef0" />
          </symbol>
          <symbol
             overflow="visible"
             id="id-e8ff58ef-0668-482f-9469-a2dee6e60d14"
             style="stroke-width:0">
            <path
               style="stroke:none;stroke-width:0"
               d="M 2.75,-1.859375 V -2.4375 H 0.109375 v 0.578125 z m 0,0"
               id="id-17cf92d1-9efa-4554-87ca-c4fbaac86d56" />
          </symbol>
          <symbol
             overflow="visible"
             id="id-28f56531-7252-4df5-b4b5-24c106ec7aeb"
             style="stroke-width:0">
            <path
               style="stroke:none;stroke-width:0"
               d="M 7.140625,0 V -0.3125 H 6.96875 C 6.375,-0.3125 6.234375,-0.375 6.125,-0.703125 L 3.96875,-6.9375 c -0.046875,-0.125 -0.078125,-0.203125 -0.234375,-0.203125 -0.15625,0 -0.1875,0.0625 -0.234375,0.203125 L 1.4375,-0.984375 C 1.25,-0.46875 0.859375,-0.3125 0.3125,-0.3125 V 0 L 1.328125,-0.03125 2.484375,0 v -0.3125 c -0.5,0 -0.75,-0.25 -0.75,-0.5 0,-0.03125 0.015625,-0.140625 0.015625,-0.15625 L 2.21875,-2.265625 H 4.671875 L 5.203125,-0.75 c 0.015625,0.046875 0.03125,0.109375 0.03125,0.140625 0,0.296875 -0.5625,0.296875 -0.828125,0.296875 V 0 c 0.359375,-0.03125 1.0625,-0.03125 1.4375,-0.03125 z M 4.5625,-2.578125 H 2.328125 l 1.109375,-3.25 z m 0,0"
               id="id-f4e7296d-1e60-494b-b2db-d7ba7b1ccfb4" />
          </symbol>
          <symbol
             overflow="visible"
             id="id-c07c9660-5b2c-4222-9271-71cebf3085c4"
             style="stroke-width:0">
            <path
               style="stroke:none;stroke-width:0"
               d="M 4.140625,-1.1875 C 4.140625,-1.28125 4.03125,-1.28125 4,-1.28125 c -0.078125,0 -0.109375,0.03125 -0.125,0.09375 -0.28125,0.921875 -0.9375,1.046875 -1.296875,1.046875 -0.53125,0 -1.40625,-0.421875 -1.40625,-2.03125 0,-1.625 0.8125,-2.046875 1.34375,-2.046875 0.09375,0 0.71875,0.015625 1.0625,0.375 -0.40625,0.03125 -0.46875,0.328125 -0.46875,0.453125 0,0.265625 0.1875,0.453125 0.453125,0.453125 0.265625,0 0.46875,-0.15625 0.46875,-0.46875 0,-0.671875 -0.765625,-1.0625 -1.53125,-1.0625 -1.25,0 -2.15625,1.078125 -2.15625,2.3125 0,1.28125 0.984375,2.265625 2.140625,2.265625 1.328125,0 1.65625,-1.203125 1.65625,-1.296875 z m 0,0"
               id="id-d0d66dce-eae8-450e-bc89-b8352294f227" />
          </symbol>
          <symbol
             overflow="visible"
             id="id-11a91304-7463-411b-b083-edd1ee76e476"
             style="stroke-width:0">
            <path
               style="stroke:none;stroke-width:0"
               d="m 5.328125,0 v -0.3125 c -0.515625,0 -0.765625,0 -0.765625,-0.296875 v -1.90625 c 0,-0.859375 0,-1.15625 -0.3125,-1.515625 -0.140625,-0.171875 -0.46875,-0.375 -1.046875,-0.375 -0.84375,0 -1.28125,0.59375 -1.4375,0.953125 H 1.75 v -3.46875 L 0.3125,-6.8125 V -6.5 c 0.703125,0 0.78125,0.0625 0.78125,0.5625 V -0.75 c 0,0.4375 -0.109375,0.4375 -0.78125,0.4375 V 0 L 1.453125,-0.03125 2.5625,0 v -0.3125 c -0.671875,0 -0.78125,0 -0.78125,-0.4375 V -2.59375 C 1.78125,-3.625 2.5,-4.1875 3.125,-4.1875 c 0.640625,0 0.75,0.53125 0.75,1.109375 V -0.75 c 0,0.4375 -0.109375,0.4375 -0.78125,0.4375 V 0 l 1.125,-0.03125 z m 0,0"
               id="id-ac243c01-7955-4c52-b3eb-866918794e6c" />
          </symbol>
          <symbol
             overflow="visible"
             id="id-8c847a95-ac81-430a-9e87-0a73c90567d6"
             style="stroke-width:0">
            <path
               style="stroke:none;stroke-width:0"
               d="m 3.59375,-1.28125 c 0,-0.515625 -0.296875,-0.828125 -0.421875,-0.9375 C 2.84375,-2.546875 2.453125,-2.625 2.03125,-2.703125 1.46875,-2.8125 0.8125,-2.9375 0.8125,-3.515625 c 0,-0.359375 0.25,-0.765625 1.109375,-0.765625 1.09375,0 1.15625,0.90625 1.171875,1.203125 0,0.09375 0.109375,0.09375 0.109375,0.09375 0.140625,0 0.140625,-0.046875 0.140625,-0.234375 v -1.015625 c 0,-0.15625 0,-0.234375 -0.109375,-0.234375 -0.046875,0 -0.078125,0 -0.203125,0.125 -0.03125,0.03125 -0.125,0.125 -0.171875,0.15625 -0.375,-0.28125 -0.78125,-0.28125 -0.9375,-0.28125 -1.21875,0 -1.59375,0.671875 -1.59375,1.234375 0,0.34375 0.15625,0.625 0.421875,0.84375 0.328125,0.25 0.609375,0.3125 1.328125,0.453125 0.21875,0.046875 1.03125,0.203125 1.03125,0.921875 0,0.5 -0.34375,0.90625 -1.125,0.90625 -0.84375,0 -1.203125,-0.5625 -1.390625,-1.421875 C 0.5625,-1.65625 0.5625,-1.6875 0.453125,-1.6875 c -0.125,0 -0.125,0.0625 -0.125,0.234375 V -0.125 c 0,0.171875 0,0.234375 0.109375,0.234375 0.046875,0 0.0625,-0.015625 0.25,-0.203125 0.015625,-0.015625 0.015625,-0.03125 0.203125,-0.21875 0.4375,0.40625 0.890625,0.421875 1.09375,0.421875 1.140625,0 1.609375,-0.671875 1.609375,-1.390625 z m 0,0"
               id="id-54fc1af5-8e20-4559-b717-362b2cd68ed2" />
          </symbol>
          <symbol
             overflow="visible"
             id="id-bb14fd5e-b08e-4eb3-b127-8335b167aec9"
             style="stroke-width:0">
            <path
               style="stroke:none;stroke-width:0"
               d="m 4.140625,-1.1875 c 0,-0.09375 -0.078125,-0.125 -0.140625,-0.125 -0.078125,0 -0.109375,0.0625 -0.125,0.140625 -0.34375,1.03125 -1.25,1.03125 -1.34375,1.03125 -0.5,0 -0.890625,-0.296875 -1.125,-0.671875 -0.296875,-0.46875 -0.296875,-1.125 -0.296875,-1.484375 h 2.78125 c 0.21875,0 0.25,0 0.25,-0.21875 0,-0.984375 -0.546875,-1.953125 -1.78125,-1.953125 -1.15625,0 -2.078125,1.03125 -2.078125,2.28125 0,1.328125 1.046875,2.296875 2.1875,2.296875 C 3.6875,0.109375 4.140625,-1 4.140625,-1.1875 Z m -0.65625,-1.328125 h -2.375 C 1.171875,-4 2.015625,-4.25 2.359375,-4.25 c 1.015625,0 1.125,1.34375 1.125,1.734375 z m 0,0"
               id="id-83daf5dc-82f7-456d-9def-6a707536f207" />
          </symbol>
          <symbol
             overflow="visible"
             id="id-9cc3cde7-d829-44c6-a58b-13e4dd668636"
             style="stroke-width:0">
            <path
               style="stroke:none;stroke-width:0"
               d="m 5.328125,0 v -0.3125 c -0.515625,0 -0.765625,0 -0.765625,-0.296875 v -1.90625 c 0,-0.859375 0,-1.15625 -0.3125,-1.515625 -0.140625,-0.171875 -0.46875,-0.375 -1.046875,-0.375 C 2.46875,-4.40625 2,-3.984375 1.71875,-3.359375 V -4.40625 L 0.3125,-4.296875 v 0.3125 c 0.703125,0 0.78125,0.0625 0.78125,0.5625 V -0.75 c 0,0.4375 -0.109375,0.4375 -0.78125,0.4375 V 0 L 1.453125,-0.03125 2.5625,0 v -0.3125 c -0.671875,0 -0.78125,0 -0.78125,-0.4375 V -2.59375 C 1.78125,-3.625 2.5,-4.1875 3.125,-4.1875 c 0.640625,0 0.75,0.53125 0.75,1.109375 V -0.75 c 0,0.4375 -0.109375,0.4375 -0.78125,0.4375 V 0 l 1.125,-0.03125 z m 0,0"
               id="id-777b3a0f-30d0-418d-906b-dbbe760741c8" />
          </symbol>
        </g>
      </defs>
      <g
         id="id-bb1de48a-434d-4c54-8fde-c022630ffb8f"
         transform="translate(-148.9,-127.624)"
         style="stroke-width:0">
        <g
           style="fill:#000000;fill-opacity:1;stroke-width:0"
           id="id-c6ba0331-9f5e-434d-abfa-2561de616ab8">
          <g
             transform="translate(148.712,134.765)"
             style="stroke-width:0"
             id="g142">
            <path
               style="stroke:none;stroke-width:0"
               d="m 5.0625,-3.984375 v -0.3125 c -0.234375,0.015625 -0.515625,0.03125 -0.75,0.03125 l -0.859375,-0.03125 v 0.3125 c 0.3125,0 0.46875,0.171875 0.46875,0.421875 0,0.109375 -0.015625,0.125 -0.0625,0.25 L 2.84375,-0.875 1.75,-3.546875 C 1.703125,-3.65625 1.6875,-3.6875 1.6875,-3.734375 c 0,-0.25 0.359375,-0.25 0.5625,-0.25 v -0.3125 l -1.09375,0.03125 c -0.265625,0 -0.671875,-0.015625 -0.96875,-0.03125 v 0.3125 c 0.484375,0 0.671875,0 0.8125,0.34375 L 2.5,0 2.25,0.59375 c -0.21875,0.546875 -0.5,1.234375 -1.140625,1.234375 -0.046875,0 -0.28125,0 -0.46875,-0.1875 0.3125,-0.03125 0.390625,-0.25 0.390625,-0.421875 0,-0.25 -0.1875,-0.40625 -0.421875,-0.40625 -0.203125,0 -0.421875,0.125 -0.421875,0.421875 0,0.453125 0.421875,0.8125 0.921875,0.8125 0.625,0 1.03125,-0.578125 1.265625,-1.140625 l 1.765625,-4.25 c 0.25,-0.640625 0.765625,-0.640625 0.921875,-0.640625 z m 0,0"
               id="id-49bec605-1543-45ed-8c19-4c4e67d64fa0" />
          </g>
          <g
             transform="translate(153.972,134.765)"
             style="stroke-width:0"
             id="g143">
            <path
               style="stroke:none;stroke-width:0"
               d="M 2.75,-1.859375 V -2.4375 H 0.109375 v 0.578125 z m 0,0"
               id="id-04cd0e20-b134-4e66-9d3f-3f73578c2d0e" />
          </g>
          <g
             transform="translate(157.29,134.765)"
             style="stroke-width:0"
             id="g144">
            <path
               style="stroke:none;stroke-width:0"
               d="M 7.140625,0 V -0.3125 H 6.96875 C 6.375,-0.3125 6.234375,-0.375 6.125,-0.703125 L 3.96875,-6.9375 c -0.046875,-0.125 -0.078125,-0.203125 -0.234375,-0.203125 -0.15625,0 -0.1875,0.0625 -0.234375,0.203125 L 1.4375,-0.984375 C 1.25,-0.46875 0.859375,-0.3125 0.3125,-0.3125 V 0 L 1.328125,-0.03125 2.484375,0 v -0.3125 c -0.5,0 -0.75,-0.25 -0.75,-0.5 0,-0.03125 0.015625,-0.140625 0.015625,-0.15625 L 2.21875,-2.265625 H 4.671875 L 5.203125,-0.75 c 0.015625,0.046875 0.03125,0.109375 0.03125,0.140625 0,0.296875 -0.5625,0.296875 -0.828125,0.296875 V 0 c 0.359375,-0.03125 1.0625,-0.03125 1.4375,-0.03125 z M 4.5625,-2.578125 H 2.328125 l 1.109375,-3.25 z m 0,0"
               id="id-f8fa84d4-0a22-4b4f-870b-1fe81222b6a3" />
          </g>
        </g>
        <g
           style="fill:#000000;fill-opacity:1;stroke-width:0"
           id="id-f8887a4a-a87b-43c6-9784-2aff8e03d0a9">
          <g
             transform="translate(164.493,134.765)"
             style="stroke-width:0"
             id="g145">
            <path
               style="stroke:none;stroke-width:0"
               d="M 4.140625,-1.1875 C 4.140625,-1.28125 4.03125,-1.28125 4,-1.28125 c -0.078125,0 -0.109375,0.03125 -0.125,0.09375 -0.28125,0.921875 -0.9375,1.046875 -1.296875,1.046875 -0.53125,0 -1.40625,-0.421875 -1.40625,-2.03125 0,-1.625 0.8125,-2.046875 1.34375,-2.046875 0.09375,0 0.71875,0.015625 1.0625,0.375 -0.40625,0.03125 -0.46875,0.328125 -0.46875,0.453125 0,0.265625 0.1875,0.453125 0.453125,0.453125 0.265625,0 0.46875,-0.15625 0.46875,-0.46875 0,-0.671875 -0.765625,-1.0625 -1.53125,-1.0625 -1.25,0 -2.15625,1.078125 -2.15625,2.3125 0,1.28125 0.984375,2.265625 2.140625,2.265625 1.328125,0 1.65625,-1.203125 1.65625,-1.296875 z m 0,0"
               id="id-6a4b7c11-edff-44ae-854f-fc0ee89f0afe" />
          </g>
        </g>
        <g
           style="fill:#000000;fill-opacity:1;stroke-width:0"
           id="id-b7cdaffd-fa4f-4544-8250-0e9c5aaf0f8a">
          <g
             transform="translate(168.637,134.765)"
             style="stroke-width:0"
             id="g146">
            <path
               style="stroke:none;stroke-width:0"
               d="m 5.328125,0 v -0.3125 c -0.515625,0 -0.765625,0 -0.765625,-0.296875 v -1.90625 c 0,-0.859375 0,-1.15625 -0.3125,-1.515625 -0.140625,-0.171875 -0.46875,-0.375 -1.046875,-0.375 -0.84375,0 -1.28125,0.59375 -1.4375,0.953125 H 1.75 v -3.46875 L 0.3125,-6.8125 V -6.5 c 0.703125,0 0.78125,0.0625 0.78125,0.5625 V -0.75 c 0,0.4375 -0.109375,0.4375 -0.78125,0.4375 V 0 L 1.453125,-0.03125 2.5625,0 v -0.3125 c -0.671875,0 -0.78125,0 -0.78125,-0.4375 V -2.59375 C 1.78125,-3.625 2.5,-4.1875 3.125,-4.1875 c 0.640625,0 0.75,0.53125 0.75,1.109375 V -0.75 c 0,0.4375 -0.109375,0.4375 -0.78125,0.4375 V 0 l 1.125,-0.03125 z m 0,0"
               id="id-a99109bc-e870-4012-b916-b146fa10bac7" />
          </g>
          <g
             transform="translate(174.176,134.765)"
             style="stroke-width:0"
             id="g147">
            <path
               style="stroke:none;stroke-width:0"
               d="m 3.59375,-1.28125 c 0,-0.515625 -0.296875,-0.828125 -0.421875,-0.9375 C 2.84375,-2.546875 2.453125,-2.625 2.03125,-2.703125 1.46875,-2.8125 0.8125,-2.9375 0.8125,-3.515625 c 0,-0.359375 0.25,-0.765625 1.109375,-0.765625 1.09375,0 1.15625,0.90625 1.171875,1.203125 0,0.09375 0.109375,0.09375 0.109375,0.09375 0.140625,0 0.140625,-0.046875 0.140625,-0.234375 v -1.015625 c 0,-0.15625 0,-0.234375 -0.109375,-0.234375 -0.046875,0 -0.078125,0 -0.203125,0.125 -0.03125,0.03125 -0.125,0.125 -0.171875,0.15625 -0.375,-0.28125 -0.78125,-0.28125 -0.9375,-0.28125 -1.21875,0 -1.59375,0.671875 -1.59375,1.234375 0,0.34375 0.15625,0.625 0.421875,0.84375 0.328125,0.25 0.609375,0.3125 1.328125,0.453125 0.21875,0.046875 1.03125,0.203125 1.03125,0.921875 0,0.5 -0.34375,0.90625 -1.125,0.90625 -0.84375,0 -1.203125,-0.5625 -1.390625,-1.421875 C 0.5625,-1.65625 0.5625,-1.6875 0.453125,-1.6875 c -0.125,0 -0.125,0.0625 -0.125,0.234375 V -0.125 c 0,0.171875 0,0.234375 0.109375,0.234375 0.046875,0 0.0625,-0.015625 0.25,-0.203125 0.015625,-0.015625 0.015625,-0.03125 0.203125,-0.21875 0.4375,0.40625 0.890625,0.421875 1.09375,0.421875 1.140625,0 1.609375,-0.671875 1.609375,-1.390625 z m 0,0"
               id="id-12ecdaad-f10d-43ef-b450-fbd940d964f1" />
          </g>
          <g
             transform="translate(178.102,134.765)"
             style="stroke-width:0"
             id="g148">
            <path
               style="stroke:none;stroke-width:0"
               d="m 4.140625,-1.1875 c 0,-0.09375 -0.078125,-0.125 -0.140625,-0.125 -0.078125,0 -0.109375,0.0625 -0.125,0.140625 -0.34375,1.03125 -1.25,1.03125 -1.34375,1.03125 -0.5,0 -0.890625,-0.296875 -1.125,-0.671875 -0.296875,-0.46875 -0.296875,-1.125 -0.296875,-1.484375 h 2.78125 c 0.21875,0 0.25,0 0.25,-0.21875 0,-0.984375 -0.546875,-1.953125 -1.78125,-1.953125 -1.15625,0 -2.078125,1.03125 -2.078125,2.28125 0,1.328125 1.046875,2.296875 2.1875,2.296875 C 3.6875,0.109375 4.140625,-1 4.140625,-1.1875 Z m -0.65625,-1.328125 h -2.375 C 1.171875,-4 2.015625,-4.25 2.359375,-4.25 c 1.015625,0 1.125,1.34375 1.125,1.734375 z m 0,0"
               id="id-3b5ea25e-4e4d-418b-8abf-c3783ad2956c" />
          </g>
          <g
             transform="translate(182.525,134.765)"
             style="stroke-width:0"
             id="g149">
            <path
               style="stroke:none;stroke-width:0"
               d="m 5.328125,0 v -0.3125 c -0.515625,0 -0.765625,0 -0.765625,-0.296875 v -1.90625 c 0,-0.859375 0,-1.15625 -0.3125,-1.515625 -0.140625,-0.171875 -0.46875,-0.375 -1.046875,-0.375 C 2.46875,-4.40625 2,-3.984375 1.71875,-3.359375 V -4.40625 L 0.3125,-4.296875 v 0.3125 c 0.703125,0 0.78125,0.0625 0.78125,0.5625 V -0.75 c 0,0.4375 -0.109375,0.4375 -0.78125,0.4375 V 0 L 1.453125,-0.03125 2.5625,0 v -0.3125 c -0.671875,0 -0.78125,0 -0.78125,-0.4375 V -2.59375 C 1.78125,-3.625 2.5,-4.1875 3.125,-4.1875 c 0.640625,0 0.75,0.53125 0.75,1.109375 V -0.75 c 0,0.4375 -0.109375,0.4375 -0.78125,0.4375 V 0 l 1.125,-0.03125 z m 0,0"
               id="id-8015a1cb-982f-445f-873e-a9fd11397855" />
          </g>
          <g
             transform="translate(188.064,134.765)"
             style="stroke-width:0"
             id="g150">
            <path
               style="stroke:none;stroke-width:0"
               d="M 2.75,-1.859375 V -2.4375 H 0.109375 v 0.578125 z m 0,0"
               id="id-46e79a0b-db9e-40cb-b28a-d22f08ee1e25" />
          </g>
        </g>
      </g>
    </g>
    <g
       transform="matrix(0.349562,0,0,0.349562,31.507356,124.0959)"
       ns2:version="1.9.0"
       ns2:texconverter="xelatex"
       ns2:pdfconverter="inkscape"
       ns2:text="Abschnitt"
       ns2:preamble="/home/matteo/.config/inkscape/extensions/textext/default_packages.tex"
       ns2:scale="0.9908839340266198"
       ns2:alignment="middle center"
       ns2:stroke-to-path="0"
       ns2:inkscapeversion="1.4-dev"
       ns2:jacobian_sqrt="0.349562"
       style="stroke-width:0"
       id="g141">
      <defs
         id="id-3664b49d-18d0-4eb3-a858-3670f4822156"
         style="stroke-width:0">
        <g
           id="id-9536c7e2-4d8c-4efe-aab7-aeec8854e9e2"
           style="stroke-width:0">
          <symbol
             overflow="visible"
             id="id-c1e713bb-921b-45a1-ba78-f327b1eb0db1"
             style="stroke-width:0">
            <path
               style="stroke:none;stroke-width:0"
               d=""
               id="id-cdc2e473-8bc3-430c-8340-144c764622c0" />
          </symbol>
          <symbol
             overflow="visible"
             id="id-70bf56b9-e566-4116-97cc-2a32887b4d07"
             style="stroke-width:0">
            <path
               style="stroke:none;stroke-width:0"
               d="M 7.140625,0 V -0.3125 H 6.96875 C 6.375,-0.3125 6.234375,-0.375 6.125,-0.703125 L 3.96875,-6.9375 c -0.046875,-0.125 -0.078125,-0.203125 -0.234375,-0.203125 -0.15625,0 -0.1875,0.0625 -0.234375,0.203125 L 1.4375,-0.984375 C 1.25,-0.46875 0.859375,-0.3125 0.3125,-0.3125 V 0 L 1.328125,-0.03125 2.484375,0 v -0.3125 c -0.5,0 -0.75,-0.25 -0.75,-0.5 0,-0.03125 0.015625,-0.140625 0.015625,-0.15625 L 2.21875,-2.265625 H 4.671875 L 5.203125,-0.75 c 0.015625,0.046875 0.03125,0.109375 0.03125,0.140625 0,0.296875 -0.5625,0.296875 -0.828125,0.296875 V 0 c 0.359375,-0.03125 1.0625,-0.03125 1.4375,-0.03125 z M 4.5625,-2.578125 H 2.328125 l 1.109375,-3.25 z m 0,0"
               id="id-abe9b247-48a0-49d0-81ef-508a9d98f2d7" />
          </symbol>
          <symbol
             overflow="visible"
             id="id-c8e2d79b-bd5f-438f-8b09-ba407edf4783"
             style="stroke-width:0">
            <path
               style="stroke:none;stroke-width:0"
               d="m 5.1875,-2.15625 c 0,-1.265625 -0.96875,-2.25 -2.109375,-2.25 -0.78125,0 -1.203125,0.46875 -1.359375,0.640625 v -3.15625 L 0.28125,-6.8125 V -6.5 c 0.703125,0 0.78125,0.0625 0.78125,0.5625 V 0 h 0.25 l 0.359375,-0.625 c 0.140625,0.234375 0.5625,0.734375 1.296875,0.734375 1.1875,0 2.21875,-0.984375 2.21875,-2.265625 z m -0.828125,0 c 0,0.359375 -0.015625,0.953125 -0.296875,1.40625 -0.21875,0.3125 -0.59375,0.640625 -1.125,0.640625 -0.453125,0 -0.8125,-0.234375 -1.046875,-0.609375 C 1.75,-0.921875 1.75,-0.953125 1.75,-1.140625 V -3.1875 c 0,-0.1875 0,-0.203125 0.109375,-0.359375 C 2.25,-4.109375 2.796875,-4.1875 3.03125,-4.1875 c 0.453125,0 0.8125,0.265625 1.046875,0.640625 0.265625,0.40625 0.28125,0.96875 0.28125,1.390625 z m 0,0"
               id="id-67f60ba2-8483-4997-99df-16497625cf71" />
          </symbol>
          <symbol
             overflow="visible"
             id="id-61c2e980-07b8-4422-a1c8-627ed41d9efc"
             style="stroke-width:0">
            <path
               style="stroke:none;stroke-width:0"
               d="m 3.59375,-1.28125 c 0,-0.515625 -0.296875,-0.828125 -0.421875,-0.9375 C 2.84375,-2.546875 2.453125,-2.625 2.03125,-2.703125 1.46875,-2.8125 0.8125,-2.9375 0.8125,-3.515625 c 0,-0.359375 0.25,-0.765625 1.109375,-0.765625 1.09375,0 1.15625,0.90625 1.171875,1.203125 0,0.09375 0.109375,0.09375 0.109375,0.09375 0.140625,0 0.140625,-0.046875 0.140625,-0.234375 v -1.015625 c 0,-0.15625 0,-0.234375 -0.109375,-0.234375 -0.046875,0 -0.078125,0 -0.203125,0.125 -0.03125,0.03125 -0.125,0.125 -0.171875,0.15625 -0.375,-0.28125 -0.78125,-0.28125 -0.9375,-0.28125 -1.21875,0 -1.59375,0.671875 -1.59375,1.234375 0,0.34375 0.15625,0.625 0.421875,0.84375 0.328125,0.25 0.609375,0.3125 1.328125,0.453125 0.21875,0.046875 1.03125,0.203125 1.03125,0.921875 0,0.5 -0.34375,0.90625 -1.125,0.90625 -0.84375,0 -1.203125,-0.5625 -1.390625,-1.421875 C 0.5625,-1.65625 0.5625,-1.6875 0.453125,-1.6875 c -0.125,0 -0.125,0.0625 -0.125,0.234375 V -0.125 c 0,0.171875 0,0.234375 0.109375,0.234375 0.046875,0 0.0625,-0.015625 0.25,-0.203125 0.015625,-0.015625 0.015625,-0.03125 0.203125,-0.21875 0.4375,0.40625 0.890625,0.421875 1.09375,0.421875 1.140625,0 1.609375,-0.671875 1.609375,-1.390625 z m 0,0"
               id="id-68701fd0-d9d4-4bea-a57f-e4ad18984b81" />
          </symbol>
          <symbol
             overflow="visible"
             id="id-07ff3fdd-873e-405e-acc8-c933087708c2"
             style="stroke-width:0">
            <path
               style="stroke:none;stroke-width:0"
               d="M 4.140625,-1.1875 C 4.140625,-1.28125 4.03125,-1.28125 4,-1.28125 c -0.078125,0 -0.109375,0.03125 -0.125,0.09375 -0.28125,0.921875 -0.9375,1.046875 -1.296875,1.046875 -0.53125,0 -1.40625,-0.421875 -1.40625,-2.03125 0,-1.625 0.8125,-2.046875 1.34375,-2.046875 0.09375,0 0.71875,0.015625 1.0625,0.375 -0.40625,0.03125 -0.46875,0.328125 -0.46875,0.453125 0,0.265625 0.1875,0.453125 0.453125,0.453125 0.265625,0 0.46875,-0.15625 0.46875,-0.46875 0,-0.671875 -0.765625,-1.0625 -1.53125,-1.0625 -1.25,0 -2.15625,1.078125 -2.15625,2.3125 0,1.28125 0.984375,2.265625 2.140625,2.265625 1.328125,0 1.65625,-1.203125 1.65625,-1.296875 z m 0,0"
               id="id-158d5a35-a008-49f5-9597-a56f3563299c" />
          </symbol>
          <symbol
             overflow="visible"
             id="id-877e302d-fd88-48fc-b8f3-0fbd1172d3ab"
             style="stroke-width:0">
            <path
               style="stroke:none;stroke-width:0"
               d="m 5.328125,0 v -0.3125 c -0.515625,0 -0.765625,0 -0.765625,-0.296875 v -1.90625 c 0,-0.859375 0,-1.15625 -0.3125,-1.515625 -0.140625,-0.171875 -0.46875,-0.375 -1.046875,-0.375 -0.84375,0 -1.28125,0.59375 -1.4375,0.953125 H 1.75 v -3.46875 L 0.3125,-6.8125 V -6.5 c 0.703125,0 0.78125,0.0625 0.78125,0.5625 V -0.75 c 0,0.4375 -0.109375,0.4375 -0.78125,0.4375 V 0 L 1.453125,-0.03125 2.5625,0 v -0.3125 c -0.671875,0 -0.78125,0 -0.78125,-0.4375 V -2.59375 C 1.78125,-3.625 2.5,-4.1875 3.125,-4.1875 c 0.640625,0 0.75,0.53125 0.75,1.109375 V -0.75 c 0,0.4375 -0.109375,0.4375 -0.78125,0.4375 V 0 l 1.125,-0.03125 z m 0,0"
               id="id-f1b8ec0e-4c8f-4879-8da3-fe2198291ae2" />
          </symbol>
          <symbol
             overflow="visible"
             id="id-8705be5a-2f24-401a-ab27-59ba4b3e756b"
             style="stroke-width:0">
            <path
               style="stroke:none;stroke-width:0"
               d="m 5.328125,0 v -0.3125 c -0.515625,0 -0.765625,0 -0.765625,-0.296875 v -1.90625 c 0,-0.859375 0,-1.15625 -0.3125,-1.515625 -0.140625,-0.171875 -0.46875,-0.375 -1.046875,-0.375 C 2.46875,-4.40625 2,-3.984375 1.71875,-3.359375 V -4.40625 L 0.3125,-4.296875 v 0.3125 c 0.703125,0 0.78125,0.0625 0.78125,0.5625 V -0.75 c 0,0.4375 -0.109375,0.4375 -0.78125,0.4375 V 0 L 1.453125,-0.03125 2.5625,0 v -0.3125 c -0.671875,0 -0.78125,0 -0.78125,-0.4375 V -2.59375 C 1.78125,-3.625 2.5,-4.1875 3.125,-4.1875 c 0.640625,0 0.75,0.53125 0.75,1.109375 V -0.75 c 0,0.4375 -0.109375,0.4375 -0.78125,0.4375 V 0 l 1.125,-0.03125 z m 0,0"
               id="id-9ce3a4f0-ca33-49cd-b3f4-77d43252b48d" />
          </symbol>
          <symbol
             overflow="visible"
             id="id-ec058bfc-c447-47e1-90ae-ab9e5b7212e5"
             style="stroke-width:0">
            <path
               style="stroke:none;stroke-width:0"
               d="m 2.46875,0 v -0.3125 c -0.671875,0 -0.703125,-0.046875 -0.703125,-0.4375 V -4.40625 L 0.375,-4.296875 v 0.3125 c 0.640625,0 0.734375,0.0625 0.734375,0.546875 V -0.75 c 0,0.4375 -0.109375,0.4375 -0.78125,0.4375 V 0 l 1.09375,-0.03125 C 1.78125,-0.03125 2.125,-0.015625 2.46875,0 Z m -0.5625,-6.015625 c 0,-0.28125 -0.21875,-0.53125 -0.515625,-0.53125 -0.34375,0 -0.546875,0.28125 -0.546875,0.53125 C 0.84375,-5.75 1.078125,-5.5 1.375,-5.5 c 0.34375,0 0.53125,-0.265625 0.53125,-0.515625 z m 0,0"
               id="id-cbc15e94-98fd-44b3-b98c-77a525773efe" />
          </symbol>
          <symbol
             overflow="visible"
             id="id-1986765c-f172-42fd-a39c-fc7ee107ee14"
             style="stroke-width:0">
            <path
               style="stroke:none;stroke-width:0"
               d="m 3.3125,-1.234375 v -0.5625 h -0.25 V -1.25 c 0,0.734375 -0.296875,1.109375 -0.671875,1.109375 -0.671875,0 -0.671875,-0.90625 -0.671875,-1.078125 v -2.765625 h 1.4375 v -0.3125 H 1.71875 V -6.125 h -0.25 c 0,0.8125 -0.296875,1.875 -1.28125,1.921875 v 0.21875 h 0.84375 v 2.75 c 0,1.21875 0.9375,1.34375 1.296875,1.34375 0.703125,0 0.984375,-0.703125 0.984375,-1.34375 z m 0,0"
               id="id-bf6116af-f57d-4706-b359-7e6acf3ee4aa" />
          </symbol>
        </g>
      </defs>
      <g
         id="id-a286c276-2e37-40e7-94ab-7f7a00878ea9"
         transform="translate(-149.025,-127.624)"
         style="stroke-width:0">
        <g
           style="fill:#000000;fill-opacity:1;stroke-width:0"
           id="id-8a234929-9be7-4fe0-9746-a6782a351295">
          <g
             transform="translate(148.712,134.765)"
             style="stroke-width:0"
             id="g151">
            <path
               style="stroke:none;stroke-width:0"
               d="M 7.140625,0 V -0.3125 H 6.96875 C 6.375,-0.3125 6.234375,-0.375 6.125,-0.703125 L 3.96875,-6.9375 c -0.046875,-0.125 -0.078125,-0.203125 -0.234375,-0.203125 -0.15625,0 -0.1875,0.0625 -0.234375,0.203125 L 1.4375,-0.984375 C 1.25,-0.46875 0.859375,-0.3125 0.3125,-0.3125 V 0 L 1.328125,-0.03125 2.484375,0 v -0.3125 c -0.5,0 -0.75,-0.25 -0.75,-0.5 0,-0.03125 0.015625,-0.140625 0.015625,-0.15625 L 2.21875,-2.265625 H 4.671875 L 5.203125,-0.75 c 0.015625,0.046875 0.03125,0.109375 0.03125,0.140625 0,0.296875 -0.5625,0.296875 -0.828125,0.296875 V 0 c 0.359375,-0.03125 1.0625,-0.03125 1.4375,-0.03125 z M 4.5625,-2.578125 H 2.328125 l 1.109375,-3.25 z m 0,0"
               id="id-e26014c2-1ccb-46bf-b7ef-01dd106f36b1" />
          </g>
          <g
             transform="translate(156.184,134.765)"
             style="stroke-width:0"
             id="g152">
            <path
               style="stroke:none;stroke-width:0"
               d="m 5.1875,-2.15625 c 0,-1.265625 -0.96875,-2.25 -2.109375,-2.25 -0.78125,0 -1.203125,0.46875 -1.359375,0.640625 v -3.15625 L 0.28125,-6.8125 V -6.5 c 0.703125,0 0.78125,0.0625 0.78125,0.5625 V 0 h 0.25 l 0.359375,-0.625 c 0.140625,0.234375 0.5625,0.734375 1.296875,0.734375 1.1875,0 2.21875,-0.984375 2.21875,-2.265625 z m -0.828125,0 c 0,0.359375 -0.015625,0.953125 -0.296875,1.40625 -0.21875,0.3125 -0.59375,0.640625 -1.125,0.640625 -0.453125,0 -0.8125,-0.234375 -1.046875,-0.609375 C 1.75,-0.921875 1.75,-0.953125 1.75,-1.140625 V -3.1875 c 0,-0.1875 0,-0.203125 0.109375,-0.359375 C 2.25,-4.109375 2.796875,-4.1875 3.03125,-4.1875 c 0.453125,0 0.8125,0.265625 1.046875,0.640625 0.265625,0.40625 0.28125,0.96875 0.28125,1.390625 z m 0,0"
               id="id-fecaa73c-1729-419a-b80e-af637520f791" />
          </g>
          <g
             transform="translate(161.723,134.765)"
             style="stroke-width:0"
             id="g153">
            <path
               style="stroke:none;stroke-width:0"
               d="m 3.59375,-1.28125 c 0,-0.515625 -0.296875,-0.828125 -0.421875,-0.9375 C 2.84375,-2.546875 2.453125,-2.625 2.03125,-2.703125 1.46875,-2.8125 0.8125,-2.9375 0.8125,-3.515625 c 0,-0.359375 0.25,-0.765625 1.109375,-0.765625 1.09375,0 1.15625,0.90625 1.171875,1.203125 0,0.09375 0.109375,0.09375 0.109375,0.09375 0.140625,0 0.140625,-0.046875 0.140625,-0.234375 v -1.015625 c 0,-0.15625 0,-0.234375 -0.109375,-0.234375 -0.046875,0 -0.078125,0 -0.203125,0.125 -0.03125,0.03125 -0.125,0.125 -0.171875,0.15625 -0.375,-0.28125 -0.78125,-0.28125 -0.9375,-0.28125 -1.21875,0 -1.59375,0.671875 -1.59375,1.234375 0,0.34375 0.15625,0.625 0.421875,0.84375 0.328125,0.25 0.609375,0.3125 1.328125,0.453125 0.21875,0.046875 1.03125,0.203125 1.03125,0.921875 0,0.5 -0.34375,0.90625 -1.125,0.90625 -0.84375,0 -1.203125,-0.5625 -1.390625,-1.421875 C 0.5625,-1.65625 0.5625,-1.6875 0.453125,-1.6875 c -0.125,0 -0.125,0.0625 -0.125,0.234375 V -0.125 c 0,0.171875 0,0.234375 0.109375,0.234375 0.046875,0 0.0625,-0.015625 0.25,-0.203125 0.015625,-0.015625 0.015625,-0.03125 0.203125,-0.21875 0.4375,0.40625 0.890625,0.421875 1.09375,0.421875 1.140625,0 1.609375,-0.671875 1.609375,-1.390625 z m 0,0"
               id="id-d07f6d77-084e-43f9-be2b-d6754efe3381" />
          </g>
          <g
             transform="translate(165.648,134.765)"
             style="stroke-width:0"
             id="g154">
            <path
               style="stroke:none;stroke-width:0"
               d="M 4.140625,-1.1875 C 4.140625,-1.28125 4.03125,-1.28125 4,-1.28125 c -0.078125,0 -0.109375,0.03125 -0.125,0.09375 -0.28125,0.921875 -0.9375,1.046875 -1.296875,1.046875 -0.53125,0 -1.40625,-0.421875 -1.40625,-2.03125 0,-1.625 0.8125,-2.046875 1.34375,-2.046875 0.09375,0 0.71875,0.015625 1.0625,0.375 -0.40625,0.03125 -0.46875,0.328125 -0.46875,0.453125 0,0.265625 0.1875,0.453125 0.453125,0.453125 0.265625,0 0.46875,-0.15625 0.46875,-0.46875 0,-0.671875 -0.765625,-1.0625 -1.53125,-1.0625 -1.25,0 -2.15625,1.078125 -2.15625,2.3125 0,1.28125 0.984375,2.265625 2.140625,2.265625 1.328125,0 1.65625,-1.203125 1.65625,-1.296875 z m 0,0"
               id="id-5481882a-58ee-406b-86e9-63ab4f4831fb" />
          </g>
        </g>
        <g
           style="fill:#000000;fill-opacity:1;stroke-width:0"
           id="id-762b892f-5200-475b-b53e-441fe8617917">
          <g
             transform="translate(169.803,134.765)"
             style="stroke-width:0"
             id="g155">
            <path
               style="stroke:none;stroke-width:0"
               d="m 5.328125,0 v -0.3125 c -0.515625,0 -0.765625,0 -0.765625,-0.296875 v -1.90625 c 0,-0.859375 0,-1.15625 -0.3125,-1.515625 -0.140625,-0.171875 -0.46875,-0.375 -1.046875,-0.375 -0.84375,0 -1.28125,0.59375 -1.4375,0.953125 H 1.75 v -3.46875 L 0.3125,-6.8125 V -6.5 c 0.703125,0 0.78125,0.0625 0.78125,0.5625 V -0.75 c 0,0.4375 -0.109375,0.4375 -0.78125,0.4375 V 0 L 1.453125,-0.03125 2.5625,0 v -0.3125 c -0.671875,0 -0.78125,0 -0.78125,-0.4375 V -2.59375 C 1.78125,-3.625 2.5,-4.1875 3.125,-4.1875 c 0.640625,0 0.75,0.53125 0.75,1.109375 V -0.75 c 0,0.4375 -0.109375,0.4375 -0.78125,0.4375 V 0 l 1.125,-0.03125 z m 0,0"
               id="id-df68a348-962e-4428-bf0a-228d327c4b6c" />
          </g>
          <g
             transform="translate(175.342,134.765)"
             style="stroke-width:0"
             id="g156">
            <path
               style="stroke:none;stroke-width:0"
               d="m 5.328125,0 v -0.3125 c -0.515625,0 -0.765625,0 -0.765625,-0.296875 v -1.90625 c 0,-0.859375 0,-1.15625 -0.3125,-1.515625 -0.140625,-0.171875 -0.46875,-0.375 -1.046875,-0.375 C 2.46875,-4.40625 2,-3.984375 1.71875,-3.359375 V -4.40625 L 0.3125,-4.296875 v 0.3125 c 0.703125,0 0.78125,0.0625 0.78125,0.5625 V -0.75 c 0,0.4375 -0.109375,0.4375 -0.78125,0.4375 V 0 L 1.453125,-0.03125 2.5625,0 v -0.3125 c -0.671875,0 -0.78125,0 -0.78125,-0.4375 V -2.59375 C 1.78125,-3.625 2.5,-4.1875 3.125,-4.1875 c 0.640625,0 0.75,0.53125 0.75,1.109375 V -0.75 c 0,0.4375 -0.109375,0.4375 -0.78125,0.4375 V 0 l 1.125,-0.03125 z m 0,0"
               id="id-aeedd054-7c3a-429e-a8d5-b93ae2a5c827" />
          </g>
          <g
             transform="translate(180.881,134.765)"
             style="stroke-width:0"
             id="g157">
            <path
               style="stroke:none;stroke-width:0"
               d="m 2.46875,0 v -0.3125 c -0.671875,0 -0.703125,-0.046875 -0.703125,-0.4375 V -4.40625 L 0.375,-4.296875 v 0.3125 c 0.640625,0 0.734375,0.0625 0.734375,0.546875 V -0.75 c 0,0.4375 -0.109375,0.4375 -0.78125,0.4375 V 0 l 1.09375,-0.03125 C 1.78125,-0.03125 2.125,-0.015625 2.46875,0 Z m -0.5625,-6.015625 c 0,-0.28125 -0.21875,-0.53125 -0.515625,-0.53125 -0.34375,0 -0.546875,0.28125 -0.546875,0.53125 C 0.84375,-5.75 1.078125,-5.5 1.375,-5.5 c 0.34375,0 0.53125,-0.265625 0.53125,-0.515625 z m 0,0"
               id="id-cdf8a1bd-8863-42be-b878-34f76719bfa1" />
          </g>
          <g
             transform="translate(183.651,134.765)"
             style="stroke-width:0"
             id="g158">
            <path
               style="stroke:none;stroke-width:0"
               d="m 3.3125,-1.234375 v -0.5625 h -0.25 V -1.25 c 0,0.734375 -0.296875,1.109375 -0.671875,1.109375 -0.671875,0 -0.671875,-0.90625 -0.671875,-1.078125 v -2.765625 h 1.4375 v -0.3125 H 1.71875 V -6.125 h -0.25 c 0,0.8125 -0.296875,1.875 -1.28125,1.921875 v 0.21875 h 0.84375 v 2.75 c 0,1.21875 0.9375,1.34375 1.296875,1.34375 0.703125,0 0.984375,-0.703125 0.984375,-1.34375 z m 0,0"
               id="id-3cf7acb2-b64a-48a6-8e4a-b4d1a0063591" />
          </g>
          <g
             transform="translate(187.526,134.765)"
             style="stroke-width:0"
             id="g159">
            <path
               style="stroke:none;stroke-width:0"
               d="m 3.3125,-1.234375 v -0.5625 h -0.25 V -1.25 c 0,0.734375 -0.296875,1.109375 -0.671875,1.109375 -0.671875,0 -0.671875,-0.90625 -0.671875,-1.078125 v -2.765625 h 1.4375 v -0.3125 H 1.71875 V -6.125 h -0.25 c 0,0.8125 -0.296875,1.875 -1.28125,1.921875 v 0.21875 h 0.84375 v 2.75 c 0,1.21875 0.9375,1.34375 1.296875,1.34375 0.703125,0 0.984375,-0.703125 0.984375,-1.34375 z m 0,0"
               id="id-39298696-3ad7-4bcf-aebb-711781d0c159" />
          </g>
        </g>
      </g>
    </g>
    <path
       sodipodi:type="star"
       style="fill:#b10000;fill-opacity:1;stroke:none;stroke-width:0.269683;stroke-dasharray:0.269683, 0.269683;stroke-dashoffset:0;stroke-opacity:1"
       id="path159"
       inkscape:flatsided="false"
       sodipodi:sides="5"
       sodipodi:cx="-19.929249"
       sodipodi:cy="212.25752"
       sodipodi:r1="5.1425495"
       sodipodi:r2="1.4244862"
       sodipodi:arg1="0.78539816"
       sodipodi:arg2="1.4137167"
       inkscape:rounded="0"
       inkscape:randomized="0"
       d="m -16.292917,215.89385 -3.413493,-2.22938 -2.557507,3.1751 1.065442,-3.93534 -3.81001,-1.45118 4.071972,-0.20279 0.202792,-4.07197 1.451175,3.81001 3.935342,-1.06545 -3.175096,2.55751 z"
       transform="matrix(0.35289076,-0.34073772,0.34073772,0.35289076,-17.744035,36.177189)"
       inkscape:transform-center-x="0.061308719"
       inkscape:transform-center-y="0.0085882344" />
    <path
       style="fill:none;fill-opacity:1;stroke:#b10000;stroke-width:0.499999;stroke-dasharray:0.499999, 0.499999;stroke-dashoffset:0;stroke-opacity:1"
       id="path160"
       sodipodi:type="arc"
       sodipodi:cx="48.609993"
       sodipodi:cy="-118.65526"
       sodipodi:rx="6.8416061"
       sodipodi:ry="6.8416061"
       sodipodi:start="0.15712194"
       sodipodi:end="0.72589268"
       sodipodi:arc-type="arc"
       d="m 55.367322,-117.58471 a 6.8416061,6.8416061 0 0 1 -1.640443,3.47093"
       transform="scale(1,-1)"
       sodipodi:open="true" />
  </g>
</svg>
