<?xml version="1.0" encoding="UTF-8" standalone="no"?>
<svg
   viewBox="0 0 448 448"
   version="1.1"
   id="svg1"
   sodipodi:docname="square-caret-down-regular.svg"
   width="448"
   height="448"
   inkscape:version="1.4-dev (1:1.2.0-alpha1+devel+202309191445+0218cc37c8)"
   xmlns:inkscape="http://www.inkscape.org/namespaces/inkscape"
   xmlns:sodipodi="http://sodipodi.sourceforge.net/DTD/sodipodi-0.dtd"
   xmlns="http://www.w3.org/2000/svg"
   xmlns:svg="http://www.w3.org/2000/svg">
  <defs
     id="defs1" />
  <sodipodi:namedview
     id="namedview1"
     pagecolor="#ffffff"
     bordercolor="#000000"
     borderopacity="0.25"
     inkscape:showpageshadow="2"
     inkscape:pageopacity="0.0"
     inkscape:pagecheckerboard="0"
     inkscape:deskcolor="#d1d1d1"
     inkscape:zoom="1.5664062"
     inkscape:cx="223.7606"
     inkscape:cy="224.0798"
     inkscape:window-width="1920"
     inkscape:window-height="1007"
     inkscape:window-x="0"
     inkscape:window-y="0"
     inkscape:window-maximized="1"
     inkscape:current-layer="svg1" />
  <rect
     style="fill:#000000;fill-opacity:1;stroke:none;stroke-width:0.944882"
     id="rect1"
     width="448"
     height="448"
     x="0"
     y="0" />
  <!--! Font Awesome Pro 6.4.2 by @fontawesome - https://fontawesome.com License - https://fontawesome.com/license (Commercial License) Copyright 2023 Fonticons, Inc. -->
  <path
     d="m 384,400 c 8.8,0 16,-7.2 16,-16 V 64 c 0,-8.8 -7.2,-16 -16,-16 H 64 c -8.8,0 -16,7.2 -16,16 v 320 c 0,8.8 7.2,16 16,16 z m 64,-16 c 0,35.3 -28.7,64 -64,64 H 64 C 28.7,448 0,419.3 0,384 V 64 C 0,28.7 28.7,0 64,0 h 320 c 35.3,0 64,28.7 64,64 z M 224,320 c -6.7,0 -13,-2.8 -17.6,-7.7 l -104,-112 c -6.5,-7 -8.2,-17.2 -4.4,-25.9 3.8,-8.7 12.5,-14.4 22,-14.4 h 208 c 9.5,0 18.2,5.7 22,14.4 3.8,8.7 2.1,18.9 -4.4,25.9 l -104,112 c -4.5,4.9 -10.9,7.7 -17.6,7.7 z"
     id="path1"
     style="fill:#f8fa75;fill-opacity:1" />
</svg>
