<?xml version="1.0" encoding="UTF-8" standalone="no"?>
<!-- Created with Inkscape (http://www.inkscape.org/) -->

<svg
   width="210.44836mm"
   height="83.817688mm"
   viewBox="0 0 210.44836 83.817688"
   version="1.1"
   id="svg1"
   inkscape:version="1.4-dev (1:1.2.0-alpha1+devel+202308312119+2886f59210)"
   sodipodi:docname="tdist_notation.svg"
   inkscape:export-filename="tdist_notation.png"
   inkscape:export-xdpi="96"
   inkscape:export-ydpi="96"
   xmlns:inkscape="http://www.inkscape.org/namespaces/inkscape"
   xmlns:sodipodi="http://sodipodi.sourceforge.net/DTD/sodipodi-0.dtd"
   xmlns="http://www.w3.org/2000/svg"
   xmlns:svg="http://www.w3.org/2000/svg"
   xmlns:ns2="http://www.iki.fi/pav/software/textext/">
  <sodipodi:namedview
     id="namedview1"
     pagecolor="#ffffff"
     bordercolor="#000000"
     borderopacity="0.25"
     inkscape:showpageshadow="2"
     inkscape:pageopacity="0.0"
     inkscape:pagecheckerboard="0"
     inkscape:deskcolor="#d1d1d1"
     inkscape:document-units="mm"
     inkscape:zoom="1.1320624"
     inkscape:cx="396.17957"
     inkscape:cy="126.31812"
     inkscape:window-width="1920"
     inkscape:window-height="1007"
     inkscape:window-x="0"
     inkscape:window-y="0"
     inkscape:window-maximized="1"
     inkscape:current-layer="layer1" />
  <defs
     id="defs1" />
  <g
     inkscape:label="Layer 1"
     inkscape:groupmode="layer"
     id="layer1"
     transform="translate(-16.228365,-117.60075)">
    <g
       transform="matrix(2.2082282,0,0,2.2082282,86.785768,147.32774)"
       ns2:version="1.9.0"
       ns2:texconverter="pdflatex"
       ns2:pdfconverter="inkscape"
       ns2:text="$f_t(x|\\scriptsize{\\text{df}})$"
       ns2:preamble="/home/matteo/.config/inkscape/extensions/textext/default_packages.tex"
       ns2:scale="0.6661608662219537"
       ns2:alignment="middle center"
       ns2:stroke-to-path="0"
       ns2:jacobian_sqrt="0.235007"
       id="g9"
       style="stroke-width:0.106423">
      <defs
         id="id-843e868b-c3ba-4a5d-b6bd-19cf06f73a11">
        <g
           id="id-a0231ab8-a3be-4b67-acf2-66f5c367baf5">
          <symbol
             overflow="visible"
             id="id-0b468431-4546-4d06-bc05-9ce047975493">
            <path
               style="stroke:none;stroke-width:0"
               d=""
               id="id-955f676a-c455-443d-b3bc-a52a24c8a1ca" />
          </symbol>
          <symbol
             overflow="visible"
             id="id-787deb1d-823b-4ce5-83f7-82be3489ef58">
            <path
               style="stroke:none;stroke-width:0"
               d="m 3.65625,-3.984375 h 0.859375 c 0.203125,0 0.296875,0 0.296875,-0.203125 0,-0.109375 -0.09375,-0.109375 -0.265625,-0.109375 H 3.71875 L 3.921875,-5.4375 c 0.046875,-0.203125 0.1875,-0.90625 0.25,-1.03125 0.078125,-0.1875 0.25,-0.34375 0.46875,-0.34375 0.03125,0 0.296875,0 0.484375,0.1875 -0.4375,0.03125 -0.546875,0.390625 -0.546875,0.53125 0,0.234375 0.1875,0.359375 0.375,0.359375 C 5.21875,-5.734375 5.5,-5.96875 5.5,-6.34375 c 0,-0.453125 -0.453125,-0.6875 -0.859375,-0.6875 -0.34375,0 -0.96875,0.1875 -1.265625,1.171875 -0.0625,0.203125 -0.09375,0.3125 -0.328125,1.5625 h -0.6875 c -0.203125,0 -0.3125,0 -0.3125,0.1875 0,0.125 0.09375,0.125 0.28125,0.125 h 0.65625 L 2.25,-0.046875 c -0.1875,0.96875 -0.359375,1.875 -0.875,1.875 -0.046875,0 -0.28125,0 -0.484375,-0.1875 C 1.359375,1.609375 1.453125,1.25 1.453125,1.109375 1.453125,0.875 1.265625,0.75 1.078125,0.75 0.8125,0.75 0.53125,0.984375 0.53125,1.359375 c 0,0.4375 0.4375,0.6875 0.84375,0.6875 0.546875,0 0.953125,-0.59375 1.125,-0.96875 0.328125,-0.625 0.546875,-1.828125 0.5625,-1.90625 z m 0,0"
               id="id-d46fb35c-f0c8-487b-a7dc-d4feafadcba0" />
          </symbol>
          <symbol
             overflow="visible"
             id="id-2f8ba021-6b11-485d-a57b-3258ad0f9fdb">
            <path
               style="stroke:none;stroke-width:0"
               d="M 3.328125,-3.015625 C 3.390625,-3.265625 3.625,-4.1875 4.3125,-4.1875 c 0.046875,0 0.296875,0 0.5,0.125 C 4.53125,-4 4.34375,-3.765625 4.34375,-3.515625 c 0,0.15625 0.109375,0.34375 0.375,0.34375 0.21875,0 0.53125,-0.171875 0.53125,-0.578125 0,-0.515625 -0.578125,-0.65625 -0.921875,-0.65625 -0.578125,0 -0.921875,0.53125 -1.046875,0.75 -0.25,-0.65625 -0.78125,-0.75 -1.078125,-0.75 -1.03125,0 -1.609375,1.28125 -1.609375,1.53125 0,0.109375 0.109375,0.109375 0.125,0.109375 0.078125,0 0.109375,-0.03125 0.125,-0.109375 0.34375,-1.0625 1,-1.3125 1.34375,-1.3125 0.1875,0 0.53125,0.09375 0.53125,0.671875 0,0.3125 -0.171875,0.96875 -0.53125,2.375 -0.15625,0.609375 -0.515625,1.03125 -0.953125,1.03125 -0.0625,0 -0.28125,0 -0.5,-0.125 0.25,-0.0625 0.46875,-0.265625 0.46875,-0.546875 0,-0.265625 -0.21875,-0.34375 -0.359375,-0.34375 -0.3125,0 -0.546875,0.25 -0.546875,0.578125 0,0.453125 0.484375,0.65625 0.921875,0.65625 0.671875,0 1.03125,-0.703125 1.046875,-0.75 0.125,0.359375 0.484375,0.75 1.078125,0.75 1.03125,0 1.59375,-1.28125 1.59375,-1.53125 0,-0.109375 -0.078125,-0.109375 -0.109375,-0.109375 -0.09375,0 -0.109375,0.046875 -0.140625,0.109375 -0.328125,1.078125 -1,1.3125 -1.3125,1.3125 -0.390625,0 -0.546875,-0.3125 -0.546875,-0.65625 0,-0.21875 0.046875,-0.4375 0.15625,-0.875 z m 0,0"
               id="id-c57017ff-adfe-4b0d-921c-714d94d8071d" />
          </symbol>
          <symbol
             overflow="visible"
             id="id-e2b346c8-560b-4d88-a47c-797c57cfa12d">
            <path
               style="stroke:none;stroke-width:0"
               d=""
               id="id-8859f200-e3e2-4e15-a5c0-6101275e4d50" />
          </symbol>
          <symbol
             overflow="visible"
             id="id-a72af8b9-8c14-4bdb-8d8d-bc8e359e039c">
            <path
               style="stroke:none;stroke-width:0"
               d="m 1.71875,-2.75 h 0.703125 c 0.140625,0 0.21875,0 0.21875,-0.15625 C 2.640625,-3 2.5625,-3 2.4375,-3 H 1.78125 l 0.25,-1.03125 C 2.046875,-4.0625 2.0625,-4.109375 2.0625,-4.125 c 0,-0.140625 -0.109375,-0.234375 -0.25,-0.234375 -0.171875,0 -0.265625,0.125 -0.328125,0.296875 C 1.4375,-3.875 1.53125,-4.21875 1.21875,-3 H 0.515625 c -0.125,0 -0.21875,0 -0.21875,0.15625 C 0.296875,-2.75 0.375,-2.75 0.5,-2.75 H 1.15625 L 0.75,-1.109375 C 0.703125,-0.9375 0.640625,-0.6875 0.640625,-0.59375 c 0,0.40625 0.359375,0.65625 0.75,0.65625 0.78125,0 1.21875,-0.96875 1.21875,-1.0625 0,-0.09375 -0.09375,-0.09375 -0.109375,-0.09375 -0.09375,0 -0.09375,0.015625 -0.15625,0.140625 -0.1875,0.4375 -0.546875,0.828125 -0.921875,0.828125 -0.15625,0 -0.25,-0.09375 -0.25,-0.34375 0,-0.0625 0.03125,-0.21875 0.046875,-0.28125 z m 0,0"
               id="id-568195d2-e93c-4868-9415-ecf607e80f8c" />
          </symbol>
          <symbol
             overflow="visible"
             id="id-cd6520cf-1885-4cbb-be9d-31336c119734">
            <path
               style="stroke:none;stroke-width:0"
               d=""
               id="id-b0233fd8-b754-4470-a4dc-cbfbb0c44e48" />
          </symbol>
          <symbol
             overflow="visible"
             id="id-7baa4db1-edb2-490b-b780-2823efa2ea1c">
            <path
               style="stroke:none;stroke-width:0"
               d="m 3.296875,2.390625 c 0,-0.03125 0,-0.046875 -0.171875,-0.21875 C 1.890625,0.921875 1.5625,-0.96875 1.5625,-2.5 c 0,-1.734375 0.375,-3.46875 1.609375,-4.703125 0.125,-0.125 0.125,-0.140625 0.125,-0.171875 0,-0.078125 -0.03125,-0.109375 -0.09375,-0.109375 -0.109375,0 -1,0.6875 -1.59375,1.953125 -0.5,1.09375 -0.625,2.203125 -0.625,3.03125 0,0.78125 0.109375,1.984375 0.65625,3.125 C 2.25,1.84375 3.09375,2.5 3.203125,2.5 c 0.0625,0 0.09375,-0.03125 0.09375,-0.109375 z m 0,0"
               id="id-03988c87-6f31-41c2-93fa-cd477801cfaf" />
          </symbol>
          <symbol
             overflow="visible"
             id="id-d5c182ea-0bb7-4a4f-9e8b-9202bb23f0b6">
            <path
               style="stroke:none;stroke-width:0"
               d="m 2.875,-2.5 c 0,-0.765625 -0.109375,-1.96875 -0.65625,-3.109375 -0.59375,-1.21875 -1.453125,-1.875 -1.546875,-1.875 -0.0625,0 -0.109375,0.046875 -0.109375,0.109375 0,0.03125 0,0.046875 0.1875,0.234375 0.984375,0.984375 1.546875,2.5625 1.546875,4.640625 0,1.71875 -0.359375,3.46875 -1.59375,4.71875 C 0.5625,2.34375 0.5625,2.359375 0.5625,2.390625 0.5625,2.453125 0.609375,2.5 0.671875,2.5 0.765625,2.5 1.671875,1.8125 2.25,0.546875 2.765625,-0.546875 2.875,-1.65625 2.875,-2.5 Z m 0,0"
               id="id-5e142b5c-7ad8-4857-ad93-3b4b9695c419" />
          </symbol>
          <symbol
             overflow="visible"
             id="id-e8b06480-e80f-44c7-99db-2207b502ad16">
            <path
               style="stroke:none;stroke-width:0"
               d=""
               id="id-eb66d233-56e6-44a7-b66c-ec8cfca1c453" />
          </symbol>
          <symbol
             overflow="visible"
             id="id-3740d086-09c1-4380-9d6d-2b508c9ef025">
            <path
               style="stroke:none;stroke-width:0"
               d="m 1.578125,-7.125 c 0,-0.171875 0,-0.359375 -0.1875,-0.359375 -0.203125,0 -0.203125,0.1875 -0.203125,0.359375 v 9.265625 c 0,0.171875 0,0.359375 0.203125,0.359375 0.1875,0 0.1875,-0.1875 0.1875,-0.359375 z m 0,0"
               id="id-c50cfe47-45e6-4d8e-89f2-46d62f24a48a" />
          </symbol>
          <symbol
             overflow="visible"
             id="id-adbf50c1-302e-4967-8bcb-dda49263ebee">
            <path
               style="stroke:none;stroke-width:0"
               d=""
               id="id-8e26a0e7-a4fc-4a67-9648-7186478610d9" />
          </symbol>
          <symbol
             overflow="visible"
             id="id-dd54f602-2839-4e15-8f57-8ad508ab1f99">
            <path
               style="stroke:none;stroke-width:0"
               d="m 2.484375,-4.765625 v 0.25 C 2.953125,-4.515625 3,-4.453125 3,-4.125 v 1.453125 c -0.25,-0.25 -0.59375,-0.40625 -0.96875,-0.40625 -0.9375,0 -1.703125,0.703125 -1.703125,1.578125 0,0.875 0.734375,1.5625 1.609375,1.5625 0.578125,0 0.921875,-0.296875 1.03125,-0.421875 V 0.0625 L 4.046875,0 V -0.25 C 3.578125,-0.25 3.53125,-0.296875 3.53125,-0.640625 V -4.84375 Z m 0.484375,4.03125 C 2.796875,-0.40625 2.4375,-0.125 1.984375,-0.125 1.59375,-0.125 1.3125,-0.359375 1.171875,-0.5625 1.03125,-0.765625 0.953125,-1.046875 0.953125,-1.484375 c 0,-0.171875 0,-0.6875 0.28125,-1.015625 0.28125,-0.3125 0.625,-0.375 0.828125,-0.375 0.328125,0 0.640625,0.15625 0.828125,0.40625 0.078125,0.109375 0.078125,0.109375 0.078125,0.25 z m 0,0"
               id="id-4688164c-c39d-410c-8c42-b8c471fd037a" />
          </symbol>
          <symbol
             overflow="visible"
             id="id-b32883b2-ea32-4a42-940f-9db7fdf2a3a2">
            <path
               style="stroke:none;stroke-width:0"
               d="m 1.4375,-2.75 h 0.875 V -3 H 1.40625 v -0.78125 c 0,-0.640625 0.375,-0.921875 0.671875,-0.921875 0.0625,0 0.140625,0 0.203125,0.03125 C 2.1875,-4.625 2.125,-4.515625 2.125,-4.390625 c 0,0.1875 0.140625,0.3125 0.328125,0.3125 0.1875,0 0.328125,-0.125 0.328125,-0.3125 0,-0.3125 -0.3125,-0.515625 -0.6875,-0.515625 -0.546875,0 -1.1875,0.390625 -1.1875,1.125 V -3 H 0.3125 v 0.25 h 0.59375 v 2.203125 C 0.90625,-0.25 0.84375,-0.25 0.390625,-0.25 V 0 C 0.421875,0 0.90625,-0.03125 1.1875,-0.03125 1.484375,-0.03125 1.796875,-0.015625 2.09375,0 V -0.25 H 1.953125 C 1.4375,-0.25 1.4375,-0.328125 1.4375,-0.5625 Z m 0,0"
               id="id-fc533fa3-fc88-4af6-aef9-953a158b0439" />
          </symbol>
        </g>
      </defs>
      <g
         id="id-047d6dff-c62e-449f-a5c8-5ea7ddd82e32"
         transform="translate(-149.243,-127.281)"
         style="stroke-width:0.106423">
        <g
           style="fill:#000000;fill-opacity:1;stroke-width:0.106423"
           id="id-82f6aed6-3f89-4f06-ac9a-a2ff2e92d699">
          <g
             transform="translate(148.712,134.765)"
             id="g1"
             style="stroke-width:0.106423">
            <path
               style="stroke:none;stroke-width:0"
               d="m 3.65625,-3.984375 h 0.859375 c 0.203125,0 0.296875,0 0.296875,-0.203125 0,-0.109375 -0.09375,-0.109375 -0.265625,-0.109375 H 3.71875 L 3.921875,-5.4375 c 0.046875,-0.203125 0.1875,-0.90625 0.25,-1.03125 0.078125,-0.1875 0.25,-0.34375 0.46875,-0.34375 0.03125,0 0.296875,0 0.484375,0.1875 -0.4375,0.03125 -0.546875,0.390625 -0.546875,0.53125 0,0.234375 0.1875,0.359375 0.375,0.359375 C 5.21875,-5.734375 5.5,-5.96875 5.5,-6.34375 c 0,-0.453125 -0.453125,-0.6875 -0.859375,-0.6875 -0.34375,0 -0.96875,0.1875 -1.265625,1.171875 -0.0625,0.203125 -0.09375,0.3125 -0.328125,1.5625 h -0.6875 c -0.203125,0 -0.3125,0 -0.3125,0.1875 0,0.125 0.09375,0.125 0.28125,0.125 h 0.65625 L 2.25,-0.046875 c -0.1875,0.96875 -0.359375,1.875 -0.875,1.875 -0.046875,0 -0.28125,0 -0.484375,-0.1875 C 1.359375,1.609375 1.453125,1.25 1.453125,1.109375 1.453125,0.875 1.265625,0.75 1.078125,0.75 0.8125,0.75 0.53125,0.984375 0.53125,1.359375 c 0,0.4375 0.4375,0.6875 0.84375,0.6875 0.546875,0 0.953125,-0.59375 1.125,-0.96875 0.328125,-0.625 0.546875,-1.828125 0.5625,-1.90625 z m 0,0"
               id="id-eefc9e5a-deaa-41bf-9ae8-421d425f7e50" />
          </g>
        </g>
        <g
           style="fill:#000000;fill-opacity:1;stroke-width:0.106423"
           id="id-ea3f28f1-be72-4436-8455-1c35a1f98c07">
          <g
             transform="translate(153.59,136.259)"
             id="g2"
             style="stroke-width:0.106423">
            <path
               style="stroke:none;stroke-width:0"
               d="m 1.71875,-2.75 h 0.703125 c 0.140625,0 0.21875,0 0.21875,-0.15625 C 2.640625,-3 2.5625,-3 2.4375,-3 H 1.78125 l 0.25,-1.03125 C 2.046875,-4.0625 2.0625,-4.109375 2.0625,-4.125 c 0,-0.140625 -0.109375,-0.234375 -0.25,-0.234375 -0.171875,0 -0.265625,0.125 -0.328125,0.296875 C 1.4375,-3.875 1.53125,-4.21875 1.21875,-3 H 0.515625 c -0.125,0 -0.21875,0 -0.21875,0.15625 C 0.296875,-2.75 0.375,-2.75 0.5,-2.75 H 1.15625 L 0.75,-1.109375 C 0.703125,-0.9375 0.640625,-0.6875 0.640625,-0.59375 c 0,0.40625 0.359375,0.65625 0.75,0.65625 0.78125,0 1.21875,-0.96875 1.21875,-1.0625 0,-0.09375 -0.09375,-0.09375 -0.109375,-0.09375 -0.09375,0 -0.09375,0.015625 -0.15625,0.140625 -0.1875,0.4375 -0.546875,0.828125 -0.921875,0.828125 -0.15625,0 -0.25,-0.09375 -0.25,-0.34375 0,-0.0625 0.03125,-0.21875 0.046875,-0.28125 z m 0,0"
               id="id-9cdb1ae1-f798-4358-b77b-c793ed13eb0a" />
          </g>
        </g>
        <g
           style="fill:#000000;fill-opacity:1;stroke-width:0.106423"
           id="id-caa4313e-26c2-405d-8cb1-aaede64697b1">
          <g
             transform="translate(157.098,134.765)"
             id="g3"
             style="stroke-width:0.106423">
            <path
               style="stroke:none;stroke-width:0"
               d="m 3.296875,2.390625 c 0,-0.03125 0,-0.046875 -0.171875,-0.21875 C 1.890625,0.921875 1.5625,-0.96875 1.5625,-2.5 c 0,-1.734375 0.375,-3.46875 1.609375,-4.703125 0.125,-0.125 0.125,-0.140625 0.125,-0.171875 0,-0.078125 -0.03125,-0.109375 -0.09375,-0.109375 -0.109375,0 -1,0.6875 -1.59375,1.953125 -0.5,1.09375 -0.625,2.203125 -0.625,3.03125 0,0.78125 0.109375,1.984375 0.65625,3.125 C 2.25,1.84375 3.09375,2.5 3.203125,2.5 c 0.0625,0 0.09375,-0.03125 0.09375,-0.109375 z m 0,0"
               id="id-19d9c778-9688-4c0a-9d73-e17373f54e5a" />
          </g>
        </g>
        <g
           style="fill:#000000;fill-opacity:1;stroke-width:0.106423"
           id="id-7438b793-f8bf-4ba9-a197-9a240195c125">
          <g
             transform="translate(160.972,134.765)"
             id="g4"
             style="stroke-width:0.106423">
            <path
               style="stroke:none;stroke-width:0"
               d="M 3.328125,-3.015625 C 3.390625,-3.265625 3.625,-4.1875 4.3125,-4.1875 c 0.046875,0 0.296875,0 0.5,0.125 C 4.53125,-4 4.34375,-3.765625 4.34375,-3.515625 c 0,0.15625 0.109375,0.34375 0.375,0.34375 0.21875,0 0.53125,-0.171875 0.53125,-0.578125 0,-0.515625 -0.578125,-0.65625 -0.921875,-0.65625 -0.578125,0 -0.921875,0.53125 -1.046875,0.75 -0.25,-0.65625 -0.78125,-0.75 -1.078125,-0.75 -1.03125,0 -1.609375,1.28125 -1.609375,1.53125 0,0.109375 0.109375,0.109375 0.125,0.109375 0.078125,0 0.109375,-0.03125 0.125,-0.109375 0.34375,-1.0625 1,-1.3125 1.34375,-1.3125 0.1875,0 0.53125,0.09375 0.53125,0.671875 0,0.3125 -0.171875,0.96875 -0.53125,2.375 -0.15625,0.609375 -0.515625,1.03125 -0.953125,1.03125 -0.0625,0 -0.28125,0 -0.5,-0.125 0.25,-0.0625 0.46875,-0.265625 0.46875,-0.546875 0,-0.265625 -0.21875,-0.34375 -0.359375,-0.34375 -0.3125,0 -0.546875,0.25 -0.546875,0.578125 0,0.453125 0.484375,0.65625 0.921875,0.65625 0.671875,0 1.03125,-0.703125 1.046875,-0.75 0.125,0.359375 0.484375,0.75 1.078125,0.75 1.03125,0 1.59375,-1.28125 1.59375,-1.53125 0,-0.109375 -0.078125,-0.109375 -0.109375,-0.109375 -0.09375,0 -0.109375,0.046875 -0.140625,0.109375 -0.328125,1.078125 -1,1.3125 -1.3125,1.3125 -0.390625,0 -0.546875,-0.3125 -0.546875,-0.65625 0,-0.21875 0.046875,-0.4375 0.15625,-0.875 z m 0,0"
               id="id-a7c196be-5089-4d70-8a1a-4d22871039e3" />
          </g>
        </g>
        <g
           style="fill:#000000;fill-opacity:1;stroke-width:0.106423"
           id="id-f3958984-668b-4916-bca3-d1fd7a7825de">
          <g
             transform="translate(166.666,134.765)"
             id="g5"
             style="stroke-width:0.106423">
            <path
               style="stroke:none;stroke-width:0"
               d="m 1.578125,-7.125 c 0,-0.171875 0,-0.359375 -0.1875,-0.359375 -0.203125,0 -0.203125,0.1875 -0.203125,0.359375 v 9.265625 c 0,0.171875 0,0.359375 0.203125,0.359375 0.1875,0 0.1875,-0.1875 0.1875,-0.359375 z m 0,0"
               id="id-eed71bf3-3e3c-4d6d-95a0-f3e5342a01d1" />
          </g>
        </g>
        <g
           style="fill:#000000;fill-opacity:1;stroke-width:0.106423"
           id="id-ed8a8b2d-3149-4aac-a4a7-9717f750e9bd">
          <g
             transform="translate(169.433,134.765)"
             id="g6"
             style="stroke-width:0.106423">
            <path
               style="stroke:none;stroke-width:0"
               d="m 2.484375,-4.765625 v 0.25 C 2.953125,-4.515625 3,-4.453125 3,-4.125 v 1.453125 c -0.25,-0.25 -0.59375,-0.40625 -0.96875,-0.40625 -0.9375,0 -1.703125,0.703125 -1.703125,1.578125 0,0.875 0.734375,1.5625 1.609375,1.5625 0.578125,0 0.921875,-0.296875 1.03125,-0.421875 V 0.0625 L 4.046875,0 V -0.25 C 3.578125,-0.25 3.53125,-0.296875 3.53125,-0.640625 V -4.84375 Z m 0.484375,4.03125 C 2.796875,-0.40625 2.4375,-0.125 1.984375,-0.125 1.59375,-0.125 1.3125,-0.359375 1.171875,-0.5625 1.03125,-0.765625 0.953125,-1.046875 0.953125,-1.484375 c 0,-0.171875 0,-0.6875 0.28125,-1.015625 0.28125,-0.3125 0.625,-0.375 0.828125,-0.375 0.328125,0 0.640625,0.15625 0.828125,0.40625 0.078125,0.109375 0.078125,0.109375 0.078125,0.25 z m 0,0"
               id="id-70ddc00c-998d-422a-8d3c-48b8434722c3" />
          </g>
          <g
             transform="translate(173.833,134.765)"
             id="g7"
             style="stroke-width:0.106423">
            <path
               style="stroke:none;stroke-width:0"
               d="m 1.4375,-2.75 h 0.875 V -3 H 1.40625 v -0.78125 c 0,-0.640625 0.375,-0.921875 0.671875,-0.921875 0.0625,0 0.140625,0 0.203125,0.03125 C 2.1875,-4.625 2.125,-4.515625 2.125,-4.390625 c 0,0.1875 0.140625,0.3125 0.328125,0.3125 0.1875,0 0.328125,-0.125 0.328125,-0.3125 0,-0.3125 -0.3125,-0.515625 -0.6875,-0.515625 -0.546875,0 -1.1875,0.390625 -1.1875,1.125 V -3 H 0.3125 v 0.25 h 0.59375 v 2.203125 C 0.90625,-0.25 0.84375,-0.25 0.390625,-0.25 V 0 C 0.421875,0 0.90625,-0.03125 1.1875,-0.03125 1.484375,-0.03125 1.796875,-0.015625 2.09375,0 V -0.25 H 1.953125 C 1.4375,-0.25 1.4375,-0.328125 1.4375,-0.5625 Z m 0,0"
               id="id-eeea54c7-a56e-48ac-aaee-af0f9a7dad31" />
          </g>
        </g>
        <g
           style="fill:#000000;fill-opacity:1;stroke-width:0.106423"
           id="id-7fb7fad7-ed38-40da-ad77-620dbd9daa3c">
          <g
             transform="translate(176.303,134.765)"
             id="g8"
             style="stroke-width:0.106423">
            <path
               style="stroke:none;stroke-width:0"
               d="m 2.875,-2.5 c 0,-0.765625 -0.109375,-1.96875 -0.65625,-3.109375 -0.59375,-1.21875 -1.453125,-1.875 -1.546875,-1.875 -0.0625,0 -0.109375,0.046875 -0.109375,0.109375 0,0.03125 0,0.046875 0.1875,0.234375 0.984375,0.984375 1.546875,2.5625 1.546875,4.640625 0,1.71875 -0.359375,3.46875 -1.59375,4.71875 C 0.5625,2.34375 0.5625,2.359375 0.5625,2.390625 0.5625,2.453125 0.609375,2.5 0.671875,2.5 0.765625,2.5 1.671875,1.8125 2.25,0.546875 2.765625,-0.546875 2.875,-1.65625 2.875,-2.5 Z m 0,0"
               id="id-8212ca17-3a08-4659-943d-07f45db1f926" />
          </g>
        </g>
      </g>
    </g>
    <rect
       style="fill:none;stroke:#ce0000;stroke-width:0.5;stroke-dasharray:none;stroke-opacity:1"
       id="rect9"
       width="7.8800755"
       height="12.711619"
       x="95.615135"
       y="156.46219" />
    <path
       style="fill:none;stroke:#ce0000;stroke-width:0.499999;stroke-dasharray:none;stroke-opacity:1"
       d="m 99.699306,169.29705 v 12.09537"
       id="path9" />
    <text
       xml:space="preserve"
       style="font-size:7.05556px;line-height:90%;font-family:sans-serif;text-decoration-color:#000000;fill:#ce0000;fill-opacity:1;stroke-width:0.264583;-inkscape-stroke:none;stop-color:#000000"
       x="82.597595"
       y="187.25427"
       id="text9"><tspan
         sodipodi:role="line"
         id="tspan9"
         style="fill:#ce0000;fill-opacity:1;stroke-width:0.264583"
         x="82.597595"
         y="187.25427">Subscript zeigt an,</tspan><tspan
         sodipodi:role="line"
         style="fill:#ce0000;fill-opacity:1;stroke-width:0.264583"
         x="82.597595"
         y="193.60428"
         id="tspan10">dass es sich um eine</tspan><tspan
         sodipodi:role="line"
         style="fill:#ce0000;fill-opacity:1;stroke-width:0.264583"
         x="82.597595"
         y="199.97142"
         id="tspan11"><tspan
   style="font-style:italic"
   id="tspan7">t</tspan>-Verteilung handelt</tspan></text>
    <rect
       style="fill:none;stroke:#ce0000;stroke-width:0.5;stroke-dasharray:none;stroke-opacity:1"
       id="rect11"
       width="17.65394"
       height="14.617405"
       x="130.5744"
       y="151.31662" />
    <path
       style="fill:none;stroke:#ce0000;stroke-width:0.499999;stroke-dasharray:none;stroke-opacity:1"
       d="m 140.27028,137.61692 v 13.33844"
       id="path11" />
    <text
       xml:space="preserve"
       style="font-size:7.05556px;line-height:90%;font-family:sans-serif;text-decoration-color:#000000;fill:#ce0000;fill-opacity:1;stroke-width:0.264583;-inkscape-stroke:none;stop-color:#000000"
       x="135.547"
       y="122.71328"
       id="text14"><tspan
         sodipodi:role="line"
         style="fill:#ce0000;fill-opacity:1;stroke-width:0.264583"
         x="135.547"
         y="122.71328"
         id="tspan14">Parameter der</tspan><tspan
         sodipodi:role="line"
         style="fill:#ce0000;fill-opacity:1;stroke-width:0.264583"
         x="135.547"
         y="129.08043"
         id="tspan16"><tspan
   style="font-style:italic"
   id="tspan8">t</tspan>-Verteilung</tspan><tspan
         sodipodi:role="line"
         style="fill:#ce0000;fill-opacity:1;stroke-width:0.264583"
         x="135.547"
         y="135.43042"
         id="tspan17">(df = Zahl der Freiheitsgrade)</tspan></text>
    <rect
       style="fill:none;stroke:#ce0000;stroke-width:0.5;stroke-dasharray:none;stroke-opacity:1"
       id="rect17"
       width="15.055229"
       height="14.617405"
       x="111.29883"
       y="151.31662" />
    <path
       style="fill:none;stroke:#ce0000;stroke-width:0.499999;stroke-dasharray:none;stroke-opacity:1"
       d="m 116.98692,137.61692 v 13.33844"
       id="path17" />
    <text
       xml:space="preserve"
       style="font-size:7.05556px;line-height:90%;font-family:sans-serif;text-decoration-color:#000000;fill:#ce0000;fill-opacity:1;stroke-width:0.264583;-inkscape-stroke:none;stop-color:#000000"
       x="121.26572"
       y="122.71328"
       id="text20"><tspan
         sodipodi:role="line"
         style="text-align:end;text-anchor:end;fill:#ce0000;fill-opacity:1;stroke-width:0.264583"
         x="121.26572"
         y="122.71328"
         id="tspan20">Variable</tspan><tspan
         sodipodi:role="line"
         style="text-align:end;text-anchor:end;fill:#ce0000;fill-opacity:1;stroke-width:0.264583"
         x="121.26572"
         y="129.08043"
         id="tspan1">(Achtung: für <tspan
   style="font-style:italic"
   id="tspan5">x</tspan> werden in der</tspan><tspan
         sodipodi:role="line"
         style="text-align:end;text-anchor:end;fill:#ce0000;fill-opacity:1;stroke-width:0.264583"
         x="121.26572"
         y="135.44757"
         id="tspan2"><tspan
   style="font-style:italic"
   id="tspan3"><tspan
   style="font-style:normal"
   id="tspan4">Praxis </tspan>t</tspan>-Werte eingesetzt!)</tspan></text>
    <path
       style="fill:none;stroke:#ce0000;stroke-width:0.499999;stroke-dasharray:none;stroke-opacity:1"
       d="m 89.844541,159.31276 -23.458392,3.64768"
       id="path25" />
    <text
       xml:space="preserve"
       style="font-size:7.05556px;line-height:90%;font-family:sans-serif;text-decoration-color:#000000;fill:#ce0000;fill-opacity:1;stroke-width:0.264583;-inkscape-stroke:none;stop-color:#000000"
       x="64.948936"
       y="160.56119"
       id="text28"><tspan
         sodipodi:role="line"
         style="text-align:end;text-anchor:end;fill:#ce0000;fill-opacity:1;stroke-width:0.264583"
         x="64.948936"
         y="160.56119"
         id="tspan28">kleines &quot;<tspan
   style="font-style:italic"
   id="tspan6">f</tspan>&quot;</tspan><tspan
         sodipodi:role="line"
         style="text-align:end;text-anchor:end;fill:#ce0000;fill-opacity:1;stroke-width:0.264583"
         x="64.948936"
         y="166.91119"
         id="tspan30">zeigt an, dass</tspan><tspan
         sodipodi:role="line"
         style="text-align:end;text-anchor:end;fill:#ce0000;fill-opacity:1;stroke-width:0.264583"
         x="64.948936"
         y="173.2612"
         id="tspan31">es sich um eine</tspan><tspan
         sodipodi:role="line"
         style="text-align:end;text-anchor:end;fill:#ce0000;fill-opacity:1;stroke-width:0.264583"
         x="64.948936"
         y="179.61119"
         id="tspan32">Dichte handelt</tspan></text>
  </g>
</svg>
